%TF.GenerationSoftware,KiCad,Pcbnew,8.0.2-1.fc39*%
%TF.CreationDate,2024-05-17T12:16:20-06:00*%
%TF.ProjectId,seeeduino-xiao-breakout,73656565-6475-4696-9e6f-2d7869616f2d,rev?*%
%TF.SameCoordinates,Original*%
%TF.FileFunction,Copper,L1,Top*%
%TF.FilePolarity,Positive*%
%FSLAX46Y46*%
G04 Gerber Fmt 4.6, Leading zero omitted, Abs format (unit mm)*
G04 Created by KiCad (PCBNEW 8.0.2-1.fc39) date 2024-05-17 12:16:20*
%MOMM*%
%LPD*%
G01*
G04 APERTURE LIST*
G04 Aperture macros list*
%AMRoundRect*
0 Rectangle with rounded corners*
0 $1 Rounding radius*
0 $2 $3 $4 $5 $6 $7 $8 $9 X,Y pos of 4 corners*
0 Add a 4 corners polygon primitive as box body*
4,1,4,$2,$3,$4,$5,$6,$7,$8,$9,$2,$3,0*
0 Add four circle primitives for the rounded corners*
1,1,$1+$1,$2,$3*
1,1,$1+$1,$4,$5*
1,1,$1+$1,$6,$7*
1,1,$1+$1,$8,$9*
0 Add four rect primitives between the rounded corners*
20,1,$1+$1,$2,$3,$4,$5,0*
20,1,$1+$1,$4,$5,$6,$7,0*
20,1,$1+$1,$6,$7,$8,$9,0*
20,1,$1+$1,$8,$9,$2,$3,0*%
G04 Aperture macros list end*
%TA.AperFunction,ComponentPad*%
%ADD10C,5.000000*%
%TD*%
%TA.AperFunction,ComponentPad*%
%ADD11O,2.748280X1.998980*%
%TD*%
%TA.AperFunction,SMDPad,CuDef*%
%ADD12RoundRect,0.250001X0.624999X-0.462499X0.624999X0.462499X-0.624999X0.462499X-0.624999X-0.462499X0*%
%TD*%
%TA.AperFunction,SMDPad,CuDef*%
%ADD13RoundRect,0.250000X-0.625000X0.400000X-0.625000X-0.400000X0.625000X-0.400000X0.625000X0.400000X0*%
%TD*%
%TA.AperFunction,ViaPad*%
%ADD14C,1.000000*%
%TD*%
%TA.AperFunction,Conductor*%
%ADD15C,0.500000*%
%TD*%
%TA.AperFunction,Conductor*%
%ADD16C,0.250000*%
%TD*%
G04 APERTURE END LIST*
D10*
X155251984Y-75195017D03*
D11*
X129755304Y-94032180D03*
X129755304Y-96572180D03*
X129755304Y-99112180D03*
X129755304Y-101652180D03*
X129755304Y-104192180D03*
X129755304Y-106732180D03*
X129755304Y-109272180D03*
X145055496Y-109272180D03*
X145055496Y-106732180D03*
X145055496Y-104192180D03*
X145055496Y-101652180D03*
X145055496Y-99112180D03*
X145055496Y-96572180D03*
X145055496Y-94032180D03*
D10*
X163887012Y-119618394D03*
X164042157Y-84062237D03*
D12*
X132150000Y-124637500D03*
X132150000Y-121662500D03*
D13*
X132150000Y-115850000D03*
X132150000Y-118950000D03*
D10*
X119695827Y-75039873D03*
X106000219Y-95344446D03*
X130978036Y-133081810D03*
X119463636Y-128253422D03*
X143463697Y-133136290D03*
X110828607Y-83830046D03*
X168715400Y-108103993D03*
X110673463Y-119386204D03*
X155019794Y-128408567D03*
X105945740Y-107830107D03*
X168769879Y-95618331D03*
D12*
X142900000Y-124637500D03*
X142900000Y-121662500D03*
D13*
X142900000Y-115850000D03*
X142900000Y-118950000D03*
D14*
X166733175Y-89499801D03*
X125249801Y-72316825D03*
X108066825Y-113800199D03*
X114949360Y-124100640D03*
X105650000Y-101650000D03*
X169150000Y-101650000D03*
X159850640Y-124100640D03*
X149550199Y-130983175D03*
X108066825Y-89499801D03*
X114949360Y-79199360D03*
X137400000Y-69900000D03*
X149550199Y-72316825D03*
X166733175Y-113800199D03*
X159850640Y-79199360D03*
X137400000Y-133400000D03*
X125249801Y-130983175D03*
D15*
X154861669Y-95618331D02*
X168769879Y-95618331D01*
X145055496Y-99112180D02*
X151367820Y-99112180D01*
X145055496Y-99112180D02*
X140953820Y-99112180D01*
X151367820Y-99112180D02*
X154861669Y-95618331D01*
X138797000Y-111747000D02*
X142900000Y-115850000D01*
X140953820Y-99112180D02*
X138797000Y-101269000D01*
X138797000Y-101269000D02*
X138797000Y-111747000D01*
X145055496Y-85391505D02*
X155251984Y-75195017D01*
X134098000Y-101142000D02*
X134098000Y-113902000D01*
X145055496Y-94032180D02*
X141207820Y-94032180D01*
X141207820Y-94032180D02*
X134098000Y-101142000D01*
X145055496Y-94032180D02*
X145055496Y-85391505D01*
X134098000Y-113902000D02*
X132150000Y-115850000D01*
X132150000Y-118950000D02*
X132150000Y-121662500D01*
X142900000Y-118950000D02*
X142900000Y-121662500D01*
X129755304Y-94032180D02*
X129755304Y-85099350D01*
X129755304Y-85099350D02*
X119695827Y-75039873D01*
X129755304Y-96572180D02*
X123570741Y-96572180D01*
X123570741Y-96572180D02*
X110828607Y-83830046D01*
X123432180Y-99112180D02*
X119664446Y-95344446D01*
X119664446Y-95344446D02*
X106000219Y-95344446D01*
X129755304Y-99112180D02*
X123432180Y-99112180D01*
X123430000Y-101650000D02*
X117249893Y-107830107D01*
X117249893Y-107830107D02*
X105945740Y-107830107D01*
X129755304Y-101652180D02*
X123432180Y-101652180D01*
D16*
X123432180Y-101652180D02*
X123430000Y-101650000D01*
D15*
X125867487Y-104192180D02*
X110673463Y-119386204D01*
X129755304Y-104192180D02*
X125867487Y-104192180D01*
X128507820Y-106732180D02*
X119463636Y-115776364D01*
X129755304Y-106732180D02*
X128507820Y-106732180D01*
X119463636Y-115776364D02*
X119463636Y-128253422D01*
X129755304Y-131859078D02*
X130978036Y-133081810D01*
X129755304Y-109272180D02*
X129755304Y-131859078D01*
X145055496Y-109272180D02*
X145055496Y-131544491D01*
X145055496Y-131544491D02*
X143463697Y-133136290D01*
X155019794Y-115459794D02*
X155019794Y-128408567D01*
X145055496Y-106732180D02*
X146292180Y-106732180D01*
X146292180Y-106732180D02*
X155019794Y-115459794D01*
X148460798Y-104192180D02*
X163887012Y-119618394D01*
X145055496Y-104192180D02*
X148460798Y-104192180D01*
X157823993Y-108103993D02*
X168715400Y-108103993D01*
X151370000Y-101650000D02*
X157823993Y-108103993D01*
X145055496Y-101652180D02*
X151367820Y-101652180D01*
D16*
X151367820Y-101652180D02*
X151370000Y-101650000D01*
%TA.AperFunction,Conductor*%
G36*
X137986886Y-67032509D02*
G01*
X139151492Y-67071866D01*
X139155674Y-67072078D01*
X140318337Y-67150748D01*
X140322545Y-67151104D01*
X141481853Y-67268995D01*
X141486043Y-67269492D01*
X142640723Y-67426471D01*
X142644911Y-67427113D01*
X143265951Y-67533018D01*
X143793572Y-67622992D01*
X143797755Y-67623778D01*
X144483679Y-67764739D01*
X144939169Y-67858345D01*
X144943317Y-67859271D01*
X146076155Y-68132253D01*
X146080268Y-68133318D01*
X147203264Y-68444411D01*
X147207260Y-68445591D01*
X148319151Y-68794449D01*
X148323167Y-68795785D01*
X149422596Y-69181981D01*
X149426525Y-69183436D01*
X150512320Y-69606558D01*
X150516190Y-69608142D01*
X151587070Y-70067693D01*
X151590949Y-70069436D01*
X152645638Y-70564865D01*
X152649410Y-70566715D01*
X153240327Y-70869061D01*
X153686783Y-71097493D01*
X153690539Y-71099495D01*
X154709403Y-71665010D01*
X154713055Y-71667118D01*
X155635159Y-72220468D01*
X155683276Y-72272670D01*
X155695533Y-72342601D01*
X155668037Y-72408057D01*
X155609518Y-72448256D01*
X155562717Y-72454277D01*
X155251987Y-72435482D01*
X155251983Y-72435482D01*
X154919361Y-72455601D01*
X154919358Y-72455602D01*
X154591586Y-72515668D01*
X154273431Y-72614809D01*
X153969574Y-72751564D01*
X153969568Y-72751567D01*
X153684389Y-72923963D01*
X153422072Y-73129476D01*
X153422066Y-73129481D01*
X153186448Y-73365099D01*
X153186443Y-73365105D01*
X152980930Y-73627422D01*
X152808534Y-73912601D01*
X152808531Y-73912607D01*
X152671776Y-74216464D01*
X152572635Y-74534619D01*
X152512569Y-74862391D01*
X152512568Y-74862394D01*
X152492449Y-75195015D01*
X152492449Y-75195018D01*
X152512568Y-75527639D01*
X152512569Y-75527642D01*
X152572635Y-75855414D01*
X152671776Y-76173569D01*
X152808531Y-76477426D01*
X152808534Y-76477432D01*
X152808536Y-76477436D01*
X152808537Y-76477437D01*
X152926090Y-76671894D01*
X152944213Y-76740537D01*
X152922348Y-76808083D01*
X152907356Y-76826172D01*
X144651798Y-85081730D01*
X144651793Y-85081736D01*
X144636866Y-85107592D01*
X144634060Y-85112455D01*
X144634055Y-85112463D01*
X144634053Y-85112466D01*
X144585379Y-85196770D01*
X144585376Y-85196777D01*
X144550996Y-85325087D01*
X144550996Y-92675510D01*
X144530994Y-92743631D01*
X144477338Y-92790124D01*
X144444709Y-92799958D01*
X144387204Y-92809066D01*
X144387203Y-92809067D01*
X144199481Y-92870062D01*
X144199479Y-92870062D01*
X144199473Y-92870065D01*
X144023611Y-92959671D01*
X143863923Y-93075691D01*
X143724357Y-93215257D01*
X143608337Y-93374945D01*
X143608334Y-93374949D01*
X143565570Y-93458882D01*
X143516823Y-93510497D01*
X143453303Y-93527680D01*
X141141401Y-93527680D01*
X141055860Y-93550600D01*
X141013089Y-93562061D01*
X140970980Y-93586372D01*
X140898051Y-93628477D01*
X140898048Y-93628479D01*
X133694299Y-100832228D01*
X133694297Y-100832231D01*
X133652191Y-100905159D01*
X133652192Y-100905160D01*
X133627881Y-100947269D01*
X133624677Y-100959228D01*
X133593852Y-101074270D01*
X133593500Y-101075582D01*
X133593500Y-113640838D01*
X133573498Y-113708959D01*
X133556595Y-113729933D01*
X132377932Y-114908595D01*
X132315620Y-114942621D01*
X132288837Y-114945500D01*
X131476753Y-114945500D01*
X131476729Y-114945502D01*
X131416660Y-114951959D01*
X131416658Y-114951959D01*
X131280733Y-115002657D01*
X131164596Y-115089596D01*
X131077658Y-115205733D01*
X131077657Y-115205733D01*
X131026962Y-115341650D01*
X131026960Y-115341658D01*
X131020500Y-115401737D01*
X131020500Y-116298246D01*
X131020502Y-116298270D01*
X131026959Y-116358339D01*
X131026959Y-116358341D01*
X131077657Y-116494266D01*
X131077658Y-116494267D01*
X131164596Y-116610404D01*
X131280733Y-116697342D01*
X131416658Y-116748040D01*
X131476745Y-116754500D01*
X132823254Y-116754499D01*
X132883342Y-116748040D01*
X133019267Y-116697342D01*
X133135404Y-116610404D01*
X133222342Y-116494267D01*
X133273040Y-116358342D01*
X133279500Y-116298255D01*
X133279499Y-115486159D01*
X133299501Y-115418039D01*
X133316395Y-115397074D01*
X134501701Y-114211770D01*
X134525242Y-114170994D01*
X134543808Y-114138838D01*
X134543808Y-114138837D01*
X134568119Y-114096730D01*
X134602500Y-113968419D01*
X134602500Y-101403161D01*
X134622502Y-101335040D01*
X134639405Y-101314066D01*
X141379886Y-94573585D01*
X141442198Y-94539559D01*
X141468981Y-94536680D01*
X143453303Y-94536680D01*
X143521424Y-94556682D01*
X143565570Y-94605478D01*
X143608334Y-94689410D01*
X143608337Y-94689414D01*
X143724357Y-94849102D01*
X143863923Y-94988668D01*
X143946642Y-95048767D01*
X143989996Y-95104990D01*
X143996071Y-95175726D01*
X143962939Y-95238517D01*
X143929785Y-95262969D01*
X143890753Y-95282857D01*
X143890739Y-95282865D01*
X143698779Y-95422333D01*
X143698776Y-95422335D01*
X143531001Y-95590110D01*
X143530999Y-95590113D01*
X143391531Y-95782073D01*
X143391526Y-95782082D01*
X143283802Y-95993503D01*
X143283801Y-95993505D01*
X143210476Y-96219172D01*
X143194795Y-96318180D01*
X144624793Y-96318180D01*
X144589571Y-96379187D01*
X144555496Y-96506354D01*
X144555496Y-96638006D01*
X144589571Y-96765173D01*
X144624793Y-96826180D01*
X143194795Y-96826180D01*
X143210476Y-96925187D01*
X143283801Y-97150854D01*
X143283802Y-97150856D01*
X143391526Y-97362277D01*
X143391531Y-97362286D01*
X143530999Y-97554246D01*
X143531001Y-97554249D01*
X143698776Y-97722024D01*
X143698779Y-97722026D01*
X143890739Y-97861494D01*
X143890752Y-97861502D01*
X143929783Y-97881389D01*
X143981399Y-97930137D01*
X143998465Y-97999051D01*
X143975565Y-98066253D01*
X143946643Y-98095591D01*
X143863926Y-98155689D01*
X143863920Y-98155694D01*
X143724357Y-98295257D01*
X143608337Y-98454945D01*
X143608334Y-98454949D01*
X143565570Y-98538882D01*
X143516823Y-98590497D01*
X143453303Y-98607680D01*
X140887401Y-98607680D01*
X140801860Y-98630600D01*
X140759089Y-98642061D01*
X140716980Y-98666372D01*
X140644051Y-98708477D01*
X140644048Y-98708479D01*
X138393302Y-100959225D01*
X138393300Y-100959228D01*
X138393299Y-100959230D01*
X138372679Y-100994946D01*
X138326883Y-101074265D01*
X138326880Y-101074272D01*
X138326529Y-101075582D01*
X138298583Y-101179881D01*
X138292500Y-101202582D01*
X138292500Y-111813417D01*
X138292499Y-111813417D01*
X138326882Y-111941732D01*
X138351191Y-111983837D01*
X138393296Y-112056766D01*
X138393304Y-112056776D01*
X141733595Y-115397066D01*
X141767621Y-115459378D01*
X141770500Y-115486161D01*
X141770500Y-116298246D01*
X141770502Y-116298270D01*
X141776959Y-116358339D01*
X141776959Y-116358341D01*
X141827657Y-116494266D01*
X141827658Y-116494267D01*
X141914596Y-116610404D01*
X142030733Y-116697342D01*
X142166658Y-116748040D01*
X142226745Y-116754500D01*
X143573254Y-116754499D01*
X143633342Y-116748040D01*
X143769267Y-116697342D01*
X143885404Y-116610404D01*
X143972342Y-116494267D01*
X144023040Y-116358342D01*
X144029500Y-116298255D01*
X144029499Y-115401746D01*
X144023040Y-115341658D01*
X143972342Y-115205733D01*
X143885404Y-115089596D01*
X143769267Y-115002658D01*
X143769265Y-115002657D01*
X143769266Y-115002657D01*
X143633349Y-114951962D01*
X143633344Y-114951960D01*
X143633342Y-114951960D01*
X143625831Y-114951152D01*
X143573262Y-114945500D01*
X143573255Y-114945500D01*
X142761161Y-114945500D01*
X142693040Y-114925498D01*
X142672066Y-114908595D01*
X139338405Y-111574934D01*
X139304379Y-111512622D01*
X139301500Y-111485839D01*
X139301500Y-101530161D01*
X139321502Y-101462040D01*
X139338405Y-101441066D01*
X141125886Y-99653585D01*
X141188198Y-99619559D01*
X141214981Y-99616680D01*
X143453303Y-99616680D01*
X143521424Y-99636682D01*
X143565570Y-99685478D01*
X143608334Y-99769410D01*
X143608337Y-99769414D01*
X143724357Y-99929102D01*
X143863923Y-100068668D01*
X143863926Y-100068670D01*
X144023612Y-100184689D01*
X144190875Y-100269913D01*
X144242490Y-100318661D01*
X144259556Y-100387576D01*
X144236655Y-100454778D01*
X144190875Y-100494447D01*
X144023608Y-100579673D01*
X143863923Y-100695691D01*
X143724357Y-100835257D01*
X143608338Y-100994944D01*
X143518731Y-101170807D01*
X143518728Y-101170813D01*
X143518728Y-101170815D01*
X143515782Y-101179882D01*
X143465368Y-101335040D01*
X143457733Y-101358537D01*
X143426856Y-101553489D01*
X143426856Y-101750871D01*
X143457733Y-101945823D01*
X143518728Y-102133545D01*
X143518729Y-102133548D01*
X143518731Y-102133552D01*
X143608337Y-102309414D01*
X143724357Y-102469102D01*
X143863923Y-102608668D01*
X143863926Y-102608670D01*
X144023612Y-102724689D01*
X144190875Y-102809913D01*
X144242490Y-102858661D01*
X144259556Y-102927576D01*
X144236655Y-102994778D01*
X144190875Y-103034447D01*
X144023608Y-103119673D01*
X143863923Y-103235691D01*
X143724357Y-103375257D01*
X143608337Y-103534945D01*
X143518731Y-103710807D01*
X143518728Y-103710813D01*
X143518728Y-103710815D01*
X143457733Y-103898537D01*
X143426856Y-104093489D01*
X143426856Y-104290871D01*
X143457733Y-104485823D01*
X143518728Y-104673545D01*
X143518729Y-104673548D01*
X143518731Y-104673552D01*
X143608337Y-104849414D01*
X143724357Y-105009102D01*
X143863923Y-105148668D01*
X143863926Y-105148670D01*
X144023612Y-105264689D01*
X144180169Y-105344458D01*
X144190875Y-105349913D01*
X144242490Y-105398661D01*
X144259556Y-105467576D01*
X144236655Y-105534778D01*
X144190875Y-105574447D01*
X144023608Y-105659673D01*
X143863923Y-105775691D01*
X143724357Y-105915257D01*
X143608337Y-106074945D01*
X143518731Y-106250807D01*
X143518728Y-106250813D01*
X143518728Y-106250815D01*
X143498872Y-106311924D01*
X143479060Y-106372901D01*
X143457733Y-106438537D01*
X143426856Y-106633489D01*
X143426856Y-106830871D01*
X143457733Y-107025823D01*
X143518728Y-107213545D01*
X143518729Y-107213548D01*
X143518731Y-107213552D01*
X143608337Y-107389414D01*
X143724357Y-107549102D01*
X143863923Y-107688668D01*
X143863926Y-107688670D01*
X144023612Y-107804689D01*
X144190875Y-107889913D01*
X144242490Y-107938661D01*
X144259556Y-108007576D01*
X144236655Y-108074778D01*
X144190875Y-108114447D01*
X144023608Y-108199673D01*
X143863923Y-108315691D01*
X143724357Y-108455257D01*
X143608337Y-108614945D01*
X143518731Y-108790807D01*
X143518728Y-108790813D01*
X143518728Y-108790815D01*
X143457733Y-108978537D01*
X143426856Y-109173489D01*
X143426856Y-109370871D01*
X143457733Y-109565823D01*
X143518728Y-109753545D01*
X143518729Y-109753548D01*
X143518731Y-109753552D01*
X143608337Y-109929414D01*
X143724357Y-110089102D01*
X143863923Y-110228668D01*
X143863926Y-110228670D01*
X144023612Y-110344689D01*
X144199481Y-110434298D01*
X144387203Y-110495293D01*
X144444708Y-110504400D01*
X144508858Y-110534810D01*
X144546386Y-110595078D01*
X144550996Y-110628848D01*
X144550996Y-130418730D01*
X144530994Y-130486851D01*
X144477338Y-130533344D01*
X144407064Y-130543448D01*
X144387511Y-130539025D01*
X144124096Y-130456941D01*
X143796322Y-130396875D01*
X143796319Y-130396874D01*
X143463698Y-130376755D01*
X143463696Y-130376755D01*
X143131074Y-130396874D01*
X143131071Y-130396875D01*
X142803299Y-130456941D01*
X142485144Y-130556082D01*
X142181287Y-130692837D01*
X142181281Y-130692840D01*
X141896102Y-130865236D01*
X141633785Y-131070749D01*
X141633779Y-131070754D01*
X141398161Y-131306372D01*
X141398156Y-131306378D01*
X141192643Y-131568695D01*
X141020247Y-131853874D01*
X141020244Y-131853880D01*
X140883489Y-132157737D01*
X140784348Y-132475892D01*
X140724282Y-132803664D01*
X140724281Y-132803667D01*
X140704162Y-133136288D01*
X140704162Y-133136291D01*
X140724281Y-133468912D01*
X140724282Y-133468915D01*
X140784348Y-133796687D01*
X140883489Y-134114842D01*
X141020244Y-134418699D01*
X141020247Y-134418705D01*
X141192643Y-134703884D01*
X141398156Y-134966201D01*
X141398161Y-134966207D01*
X141633779Y-135201825D01*
X141633785Y-135201830D01*
X141633787Y-135201832D01*
X141896102Y-135407343D01*
X142181277Y-135579737D01*
X142388141Y-135672839D01*
X142442049Y-135719035D01*
X142462425Y-135787045D01*
X142442798Y-135855274D01*
X142389398Y-135902061D01*
X142353401Y-135912588D01*
X141486062Y-136030503D01*
X141481835Y-136031006D01*
X140322562Y-136148893D01*
X140318321Y-136149252D01*
X139155708Y-136227919D01*
X139151458Y-136228134D01*
X137986887Y-136267490D01*
X137982631Y-136267562D01*
X136817369Y-136267562D01*
X136813113Y-136267490D01*
X135648541Y-136228134D01*
X135644291Y-136227919D01*
X134481678Y-136149252D01*
X134477437Y-136148893D01*
X133318164Y-136031006D01*
X133313937Y-136030504D01*
X132159286Y-135873529D01*
X132155079Y-135872884D01*
X132078774Y-135859872D01*
X132014985Y-135828704D01*
X131978174Y-135767996D01*
X131980027Y-135697024D01*
X132019956Y-135638320D01*
X132048235Y-135620769D01*
X132260456Y-135525257D01*
X132545631Y-135352863D01*
X132807946Y-135147352D01*
X133043578Y-134911720D01*
X133249089Y-134649405D01*
X133421483Y-134364230D01*
X133421488Y-134364219D01*
X133558243Y-134060362D01*
X133558243Y-134060360D01*
X133558246Y-134060355D01*
X133657384Y-133742210D01*
X133717451Y-133414435D01*
X133737571Y-133081810D01*
X133717451Y-132749185D01*
X133657384Y-132421410D01*
X133558246Y-132103265D01*
X133558244Y-132103261D01*
X133558243Y-132103257D01*
X133421488Y-131799400D01*
X133421485Y-131799394D01*
X133249089Y-131514215D01*
X133043576Y-131251898D01*
X133043571Y-131251892D01*
X132807953Y-131016274D01*
X132807947Y-131016269D01*
X132778038Y-130992837D01*
X132626960Y-130874474D01*
X132545630Y-130810756D01*
X132260451Y-130638360D01*
X132260445Y-130638357D01*
X131956588Y-130501602D01*
X131638433Y-130402461D01*
X131310661Y-130342395D01*
X131310658Y-130342394D01*
X130978037Y-130322275D01*
X130978035Y-130322275D01*
X130645413Y-130342394D01*
X130645410Y-130342395D01*
X130408516Y-130385807D01*
X130337905Y-130378412D01*
X130282502Y-130334015D01*
X130259897Y-130266714D01*
X130259804Y-130261871D01*
X130259804Y-128518878D01*
X135399500Y-128518878D01*
X135399500Y-128781121D01*
X135433728Y-129041108D01*
X135433729Y-129041114D01*
X135433730Y-129041116D01*
X135501602Y-129294419D01*
X135601957Y-129536697D01*
X135601958Y-129536698D01*
X135601963Y-129536709D01*
X135733073Y-129763799D01*
X135733077Y-129763805D01*
X135892710Y-129971842D01*
X135892729Y-129971863D01*
X136078136Y-130157270D01*
X136078157Y-130157289D01*
X136286194Y-130316922D01*
X136286200Y-130316926D01*
X136513290Y-130448036D01*
X136513294Y-130448037D01*
X136513303Y-130448043D01*
X136755581Y-130548398D01*
X137008884Y-130616270D01*
X137008890Y-130616270D01*
X137008891Y-130616271D01*
X137033900Y-130619563D01*
X137268880Y-130650500D01*
X137268887Y-130650500D01*
X137531113Y-130650500D01*
X137531120Y-130650500D01*
X137791116Y-130616270D01*
X138044419Y-130548398D01*
X138286697Y-130448043D01*
X138513803Y-130316924D01*
X138721851Y-130157282D01*
X138907282Y-129971851D01*
X139066924Y-129763803D01*
X139198043Y-129536697D01*
X139298398Y-129294419D01*
X139366270Y-129041116D01*
X139400500Y-128781120D01*
X139400500Y-128518880D01*
X139366270Y-128258884D01*
X139298398Y-128005581D01*
X139198043Y-127763303D01*
X139198037Y-127763294D01*
X139198036Y-127763290D01*
X139066926Y-127536200D01*
X139066922Y-127536194D01*
X138907289Y-127328157D01*
X138907270Y-127328136D01*
X138721863Y-127142729D01*
X138721842Y-127142710D01*
X138513805Y-126983077D01*
X138513799Y-126983073D01*
X138286709Y-126851963D01*
X138286701Y-126851959D01*
X138286697Y-126851957D01*
X138044419Y-126751602D01*
X137791116Y-126683730D01*
X137791114Y-126683729D01*
X137791108Y-126683728D01*
X137531121Y-126649500D01*
X137531120Y-126649500D01*
X137268880Y-126649500D01*
X137268878Y-126649500D01*
X137008891Y-126683728D01*
X136755581Y-126751602D01*
X136513301Y-126851958D01*
X136513290Y-126851963D01*
X136286200Y-126983073D01*
X136286194Y-126983077D01*
X136078157Y-127142710D01*
X136078136Y-127142729D01*
X135892729Y-127328136D01*
X135892710Y-127328157D01*
X135733077Y-127536194D01*
X135733073Y-127536200D01*
X135601963Y-127763290D01*
X135601958Y-127763301D01*
X135501602Y-128005581D01*
X135433728Y-128258891D01*
X135399500Y-128518878D01*
X130259804Y-128518878D01*
X130259804Y-125150507D01*
X130767001Y-125150507D01*
X130777605Y-125254318D01*
X130833342Y-125422525D01*
X130926366Y-125573339D01*
X130926371Y-125573345D01*
X131051654Y-125698628D01*
X131051660Y-125698633D01*
X131202474Y-125791657D01*
X131370678Y-125847393D01*
X131370682Y-125847394D01*
X131474484Y-125857999D01*
X131896000Y-125857999D01*
X132404000Y-125857999D01*
X132825507Y-125857999D01*
X132929318Y-125847394D01*
X133097525Y-125791657D01*
X133248339Y-125698633D01*
X133248345Y-125698628D01*
X133373628Y-125573345D01*
X133373633Y-125573339D01*
X133466657Y-125422525D01*
X133522393Y-125254321D01*
X133522394Y-125254318D01*
X133532999Y-125150515D01*
X133533000Y-125150515D01*
X133533000Y-125150507D01*
X141517001Y-125150507D01*
X141527605Y-125254318D01*
X141583342Y-125422525D01*
X141676366Y-125573339D01*
X141676371Y-125573345D01*
X141801654Y-125698628D01*
X141801660Y-125698633D01*
X141952474Y-125791657D01*
X142120678Y-125847393D01*
X142120682Y-125847394D01*
X142224484Y-125857999D01*
X142646000Y-125857999D01*
X143154000Y-125857999D01*
X143575507Y-125857999D01*
X143679318Y-125847394D01*
X143847525Y-125791657D01*
X143998339Y-125698633D01*
X143998345Y-125698628D01*
X144123628Y-125573345D01*
X144123633Y-125573339D01*
X144216657Y-125422525D01*
X144272393Y-125254321D01*
X144272394Y-125254318D01*
X144282999Y-125150515D01*
X144283000Y-125150515D01*
X144283000Y-124891500D01*
X143154000Y-124891500D01*
X143154000Y-125857999D01*
X142646000Y-125857999D01*
X142646000Y-124891500D01*
X141517001Y-124891500D01*
X141517001Y-125150507D01*
X133533000Y-125150507D01*
X133533000Y-124891500D01*
X132404000Y-124891500D01*
X132404000Y-125857999D01*
X131896000Y-125857999D01*
X131896000Y-124891500D01*
X130767001Y-124891500D01*
X130767001Y-125150507D01*
X130259804Y-125150507D01*
X130259804Y-124124484D01*
X130767000Y-124124484D01*
X130767000Y-124383500D01*
X131896000Y-124383500D01*
X132404000Y-124383500D01*
X133532999Y-124383500D01*
X133532999Y-124124492D01*
X133532998Y-124124484D01*
X141517000Y-124124484D01*
X141517000Y-124383500D01*
X142646000Y-124383500D01*
X143154000Y-124383500D01*
X144282999Y-124383500D01*
X144282999Y-124124492D01*
X144272394Y-124020681D01*
X144216657Y-123852474D01*
X144123633Y-123701660D01*
X144123628Y-123701654D01*
X143998345Y-123576371D01*
X143998339Y-123576366D01*
X143847525Y-123483342D01*
X143679321Y-123427606D01*
X143679318Y-123427605D01*
X143575515Y-123417000D01*
X143154000Y-123417000D01*
X143154000Y-124383500D01*
X142646000Y-124383500D01*
X142646000Y-123417000D01*
X142224492Y-123417000D01*
X142120681Y-123427605D01*
X141952474Y-123483342D01*
X141801660Y-123576366D01*
X141801654Y-123576371D01*
X141676371Y-123701654D01*
X141676366Y-123701660D01*
X141583342Y-123852474D01*
X141527606Y-124020678D01*
X141527605Y-124020681D01*
X141517000Y-124124484D01*
X133532998Y-124124484D01*
X133522394Y-124020681D01*
X133466657Y-123852474D01*
X133373633Y-123701660D01*
X133373628Y-123701654D01*
X133248345Y-123576371D01*
X133248339Y-123576366D01*
X133097525Y-123483342D01*
X132929321Y-123427606D01*
X132929318Y-123427605D01*
X132825515Y-123417000D01*
X132404000Y-123417000D01*
X132404000Y-124383500D01*
X131896000Y-124383500D01*
X131896000Y-123417000D01*
X131474492Y-123417000D01*
X131370681Y-123427605D01*
X131202474Y-123483342D01*
X131051660Y-123576366D01*
X131051654Y-123576371D01*
X130926371Y-123701654D01*
X130926366Y-123701660D01*
X130833342Y-123852474D01*
X130777606Y-124020678D01*
X130777605Y-124020681D01*
X130767000Y-124124484D01*
X130259804Y-124124484D01*
X130259804Y-118501737D01*
X131020500Y-118501737D01*
X131020500Y-119398246D01*
X131020502Y-119398270D01*
X131026959Y-119458339D01*
X131026959Y-119458341D01*
X131077657Y-119594266D01*
X131095719Y-119618394D01*
X131164596Y-119710404D01*
X131280733Y-119797342D01*
X131416658Y-119848040D01*
X131476745Y-119854500D01*
X131519499Y-119854499D01*
X131587618Y-119874500D01*
X131634112Y-119928154D01*
X131645500Y-119980499D01*
X131645500Y-120569500D01*
X131625498Y-120637621D01*
X131571842Y-120684114D01*
X131519500Y-120695500D01*
X131476733Y-120695500D01*
X131416664Y-120701958D01*
X131416659Y-120701960D01*
X131280733Y-120752658D01*
X131280732Y-120752658D01*
X131280731Y-120752659D01*
X131164596Y-120839596D01*
X131077659Y-120955731D01*
X131026958Y-121091664D01*
X131020500Y-121151733D01*
X131020500Y-122173266D01*
X131026958Y-122233335D01*
X131026959Y-122233340D01*
X131026960Y-122233341D01*
X131077658Y-122369267D01*
X131164596Y-122485404D01*
X131280733Y-122572342D01*
X131416659Y-122623040D01*
X131416662Y-122623040D01*
X131416664Y-122623041D01*
X131476733Y-122629499D01*
X131476741Y-122629499D01*
X131476746Y-122629500D01*
X131476750Y-122629500D01*
X132823250Y-122629500D01*
X132823254Y-122629500D01*
X132823259Y-122629499D01*
X132823266Y-122629499D01*
X132883335Y-122623041D01*
X132883336Y-122623040D01*
X132883341Y-122623040D01*
X133019267Y-122572342D01*
X133135404Y-122485404D01*
X133222342Y-122369267D01*
X133273040Y-122233341D01*
X133275761Y-122208039D01*
X133279499Y-122173266D01*
X133279500Y-122173249D01*
X133279500Y-121151750D01*
X133279499Y-121151733D01*
X133273041Y-121091664D01*
X133273040Y-121091662D01*
X133273040Y-121091659D01*
X133222342Y-120955733D01*
X133135404Y-120839596D01*
X133019267Y-120752658D01*
X132883341Y-120701960D01*
X132883340Y-120701959D01*
X132883335Y-120701958D01*
X132823266Y-120695500D01*
X132823254Y-120695500D01*
X132780500Y-120695500D01*
X132712379Y-120675498D01*
X132665886Y-120621842D01*
X132654500Y-120569500D01*
X132654500Y-119980499D01*
X132674502Y-119912378D01*
X132728158Y-119865885D01*
X132780500Y-119854499D01*
X132823247Y-119854499D01*
X132823254Y-119854499D01*
X132883342Y-119848040D01*
X133019267Y-119797342D01*
X133135404Y-119710404D01*
X133222342Y-119594267D01*
X133273040Y-119458342D01*
X133279500Y-119398255D01*
X133279499Y-118501746D01*
X133279498Y-118501737D01*
X141770500Y-118501737D01*
X141770500Y-119398246D01*
X141770502Y-119398270D01*
X141776959Y-119458339D01*
X141776959Y-119458341D01*
X141827657Y-119594266D01*
X141845719Y-119618394D01*
X141914596Y-119710404D01*
X142030733Y-119797342D01*
X142166658Y-119848040D01*
X142226745Y-119854500D01*
X142269499Y-119854499D01*
X142337618Y-119874500D01*
X142384112Y-119928154D01*
X142395500Y-119980499D01*
X142395500Y-120569500D01*
X142375498Y-120637621D01*
X142321842Y-120684114D01*
X142269500Y-120695500D01*
X142226733Y-120695500D01*
X142166664Y-120701958D01*
X142166659Y-120701960D01*
X142030733Y-120752658D01*
X142030732Y-120752658D01*
X142030731Y-120752659D01*
X141914596Y-120839596D01*
X141827659Y-120955731D01*
X141776958Y-121091664D01*
X141770500Y-121151733D01*
X141770500Y-122173266D01*
X141776958Y-122233335D01*
X141776959Y-122233340D01*
X141776960Y-122233341D01*
X141827658Y-122369267D01*
X141914596Y-122485404D01*
X142030733Y-122572342D01*
X142166659Y-122623040D01*
X142166662Y-122623040D01*
X142166664Y-122623041D01*
X142226733Y-122629499D01*
X142226741Y-122629499D01*
X142226746Y-122629500D01*
X142226750Y-122629500D01*
X143573250Y-122629500D01*
X143573254Y-122629500D01*
X143573259Y-122629499D01*
X143573266Y-122629499D01*
X143633335Y-122623041D01*
X143633336Y-122623040D01*
X143633341Y-122623040D01*
X143769267Y-122572342D01*
X143885404Y-122485404D01*
X143972342Y-122369267D01*
X144023040Y-122233341D01*
X144025761Y-122208039D01*
X144029499Y-122173266D01*
X144029500Y-122173249D01*
X144029500Y-121151750D01*
X144029499Y-121151733D01*
X144023041Y-121091664D01*
X144023040Y-121091662D01*
X144023040Y-121091659D01*
X143972342Y-120955733D01*
X143885404Y-120839596D01*
X143769267Y-120752658D01*
X143633341Y-120701960D01*
X143633340Y-120701959D01*
X143633335Y-120701958D01*
X143573266Y-120695500D01*
X143573254Y-120695500D01*
X143530500Y-120695500D01*
X143462379Y-120675498D01*
X143415886Y-120621842D01*
X143404500Y-120569500D01*
X143404500Y-119980499D01*
X143424502Y-119912378D01*
X143478158Y-119865885D01*
X143530500Y-119854499D01*
X143573247Y-119854499D01*
X143573254Y-119854499D01*
X143633342Y-119848040D01*
X143769267Y-119797342D01*
X143885404Y-119710404D01*
X143972342Y-119594267D01*
X144023040Y-119458342D01*
X144029500Y-119398255D01*
X144029499Y-118501746D01*
X144023040Y-118441658D01*
X143972342Y-118305733D01*
X143885404Y-118189596D01*
X143769267Y-118102658D01*
X143769265Y-118102657D01*
X143769266Y-118102657D01*
X143633349Y-118051962D01*
X143633344Y-118051960D01*
X143633342Y-118051960D01*
X143603298Y-118048730D01*
X143573256Y-118045500D01*
X142226753Y-118045500D01*
X142226729Y-118045502D01*
X142166660Y-118051959D01*
X142166658Y-118051959D01*
X142030733Y-118102657D01*
X141914596Y-118189596D01*
X141827657Y-118305734D01*
X141776962Y-118441650D01*
X141776960Y-118441658D01*
X141770500Y-118501737D01*
X133279498Y-118501737D01*
X133273040Y-118441658D01*
X133222342Y-118305733D01*
X133135404Y-118189596D01*
X133019267Y-118102658D01*
X133019265Y-118102657D01*
X133019266Y-118102657D01*
X132883349Y-118051962D01*
X132883344Y-118051960D01*
X132883342Y-118051960D01*
X132853298Y-118048730D01*
X132823256Y-118045500D01*
X131476753Y-118045500D01*
X131476729Y-118045502D01*
X131416660Y-118051959D01*
X131416658Y-118051959D01*
X131280733Y-118102657D01*
X131164596Y-118189596D01*
X131077657Y-118305734D01*
X131026962Y-118441650D01*
X131026960Y-118441658D01*
X131020500Y-118501737D01*
X130259804Y-118501737D01*
X130259804Y-110628848D01*
X130279806Y-110560727D01*
X130333462Y-110514234D01*
X130366088Y-110504401D01*
X130423597Y-110495293D01*
X130611319Y-110434298D01*
X130787188Y-110344689D01*
X130946874Y-110228670D01*
X131086444Y-110089100D01*
X131202463Y-109929414D01*
X131292072Y-109753545D01*
X131353067Y-109565823D01*
X131383944Y-109370871D01*
X131383944Y-109173489D01*
X131353067Y-108978537D01*
X131292072Y-108790815D01*
X131202463Y-108614946D01*
X131086444Y-108455260D01*
X131086442Y-108455257D01*
X130946876Y-108315691D01*
X130787188Y-108199671D01*
X130619925Y-108114447D01*
X130568309Y-108065699D01*
X130551243Y-107996784D01*
X130574143Y-107929583D01*
X130619925Y-107889913D01*
X130787188Y-107804689D01*
X130946874Y-107688670D01*
X131086444Y-107549100D01*
X131202463Y-107389414D01*
X131292072Y-107213545D01*
X131353067Y-107025823D01*
X131383944Y-106830871D01*
X131383944Y-106633489D01*
X131353067Y-106438537D01*
X131292072Y-106250815D01*
X131202463Y-106074946D01*
X131086444Y-105915260D01*
X131086442Y-105915257D01*
X130946876Y-105775691D01*
X130787188Y-105659671D01*
X130619925Y-105574447D01*
X130568309Y-105525699D01*
X130551243Y-105456784D01*
X130574143Y-105389583D01*
X130619925Y-105349913D01*
X130630631Y-105344458D01*
X130787188Y-105264689D01*
X130946874Y-105148670D01*
X131086444Y-105009100D01*
X131202463Y-104849414D01*
X131292072Y-104673545D01*
X131353067Y-104485823D01*
X131383944Y-104290871D01*
X131383944Y-104093489D01*
X131353067Y-103898537D01*
X131292072Y-103710815D01*
X131202463Y-103534946D01*
X131086444Y-103375260D01*
X131086442Y-103375257D01*
X130946876Y-103235691D01*
X130787188Y-103119671D01*
X130619925Y-103034447D01*
X130568309Y-102985699D01*
X130551243Y-102916784D01*
X130574143Y-102849583D01*
X130619925Y-102809913D01*
X130787188Y-102724689D01*
X130946874Y-102608670D01*
X131086444Y-102469100D01*
X131202463Y-102309414D01*
X131292072Y-102133545D01*
X131353067Y-101945823D01*
X131383944Y-101750871D01*
X131383944Y-101553489D01*
X131353067Y-101358537D01*
X131292072Y-101170815D01*
X131202463Y-100994946D01*
X131176512Y-100959228D01*
X131086442Y-100835257D01*
X130946876Y-100695691D01*
X130787188Y-100579671D01*
X130619925Y-100494447D01*
X130568309Y-100445699D01*
X130551243Y-100376784D01*
X130574143Y-100309583D01*
X130619925Y-100269913D01*
X130787188Y-100184689D01*
X130946874Y-100068670D01*
X131086444Y-99929100D01*
X131202463Y-99769414D01*
X131292072Y-99593545D01*
X131353067Y-99405823D01*
X131383944Y-99210871D01*
X131383944Y-99013489D01*
X131353067Y-98818537D01*
X131292072Y-98630815D01*
X131202463Y-98454946D01*
X131086444Y-98295260D01*
X131086442Y-98295257D01*
X130946876Y-98155691D01*
X130787188Y-98039671D01*
X130619925Y-97954447D01*
X130568309Y-97905699D01*
X130551243Y-97836784D01*
X130574143Y-97769583D01*
X130619925Y-97729913D01*
X130635408Y-97722024D01*
X130787188Y-97644689D01*
X130946874Y-97528670D01*
X131086444Y-97389100D01*
X131202463Y-97229414D01*
X131292072Y-97053545D01*
X131353067Y-96865823D01*
X131383944Y-96670871D01*
X131383944Y-96473489D01*
X131353067Y-96278537D01*
X131292072Y-96090815D01*
X131202463Y-95914946D01*
X131132439Y-95818567D01*
X131086442Y-95755257D01*
X130946876Y-95615691D01*
X130787188Y-95499671D01*
X130619925Y-95414447D01*
X130568309Y-95365699D01*
X130551243Y-95296784D01*
X130574143Y-95229583D01*
X130619925Y-95189913D01*
X130787188Y-95104689D01*
X130946874Y-94988670D01*
X131086444Y-94849100D01*
X131202463Y-94689414D01*
X131292072Y-94513545D01*
X131353067Y-94325823D01*
X131383944Y-94130871D01*
X131383944Y-93933489D01*
X131353067Y-93738537D01*
X131292072Y-93550815D01*
X131202463Y-93374946D01*
X131086444Y-93215260D01*
X131086442Y-93215257D01*
X130946876Y-93075691D01*
X130787188Y-92959671D01*
X130611326Y-92870065D01*
X130611322Y-92870063D01*
X130611319Y-92870062D01*
X130423597Y-92809067D01*
X130423595Y-92809066D01*
X130366091Y-92799958D01*
X130301939Y-92769545D01*
X130264413Y-92709277D01*
X130259804Y-92675510D01*
X130259804Y-85032932D01*
X130225423Y-84904621D01*
X130225420Y-84904614D01*
X130192521Y-84847632D01*
X130192520Y-84847631D01*
X130185438Y-84835365D01*
X130159005Y-84789580D01*
X130159003Y-84789578D01*
X130159001Y-84789575D01*
X122040453Y-76671028D01*
X122006427Y-76608716D01*
X122011492Y-76537901D01*
X122021714Y-76516760D01*
X122139274Y-76322293D01*
X122139279Y-76322282D01*
X122276034Y-76018425D01*
X122276034Y-76018423D01*
X122276037Y-76018418D01*
X122375175Y-75700273D01*
X122435242Y-75372498D01*
X122455362Y-75039873D01*
X122453116Y-75002750D01*
X122435242Y-74707250D01*
X122435242Y-74707248D01*
X122400722Y-74518878D01*
X135399500Y-74518878D01*
X135399500Y-74781121D01*
X135433728Y-75041108D01*
X135433729Y-75041114D01*
X135433730Y-75041116D01*
X135501602Y-75294419D01*
X135601957Y-75536697D01*
X135601958Y-75536698D01*
X135601963Y-75536709D01*
X135733073Y-75763799D01*
X135733077Y-75763805D01*
X135892710Y-75971842D01*
X135892729Y-75971863D01*
X136078136Y-76157270D01*
X136078157Y-76157289D01*
X136286194Y-76316922D01*
X136286200Y-76316926D01*
X136513290Y-76448036D01*
X136513294Y-76448037D01*
X136513303Y-76448043D01*
X136755581Y-76548398D01*
X137008884Y-76616270D01*
X137008890Y-76616270D01*
X137008891Y-76616271D01*
X137033900Y-76619563D01*
X137268880Y-76650500D01*
X137268887Y-76650500D01*
X137531113Y-76650500D01*
X137531120Y-76650500D01*
X137791116Y-76616270D01*
X138044419Y-76548398D01*
X138286697Y-76448043D01*
X138513803Y-76316924D01*
X138721851Y-76157282D01*
X138907282Y-75971851D01*
X139066924Y-75763803D01*
X139198043Y-75536697D01*
X139298398Y-75294419D01*
X139366270Y-75041116D01*
X139400500Y-74781120D01*
X139400500Y-74518880D01*
X139366270Y-74258884D01*
X139298398Y-74005581D01*
X139198043Y-73763303D01*
X139198037Y-73763294D01*
X139198036Y-73763290D01*
X139066926Y-73536200D01*
X139066922Y-73536194D01*
X138907289Y-73328157D01*
X138907270Y-73328136D01*
X138721863Y-73142729D01*
X138721842Y-73142710D01*
X138513805Y-72983077D01*
X138513799Y-72983073D01*
X138286709Y-72851963D01*
X138286701Y-72851959D01*
X138286697Y-72851957D01*
X138044419Y-72751602D01*
X137791116Y-72683730D01*
X137791114Y-72683729D01*
X137791108Y-72683728D01*
X137531121Y-72649500D01*
X137531120Y-72649500D01*
X137268880Y-72649500D01*
X137268878Y-72649500D01*
X137008891Y-72683728D01*
X136755581Y-72751602D01*
X136513301Y-72851958D01*
X136513290Y-72851963D01*
X136286200Y-72983073D01*
X136286194Y-72983077D01*
X136078157Y-73142710D01*
X136078136Y-73142729D01*
X135892729Y-73328136D01*
X135892710Y-73328157D01*
X135733077Y-73536194D01*
X135733073Y-73536200D01*
X135601963Y-73763290D01*
X135601958Y-73763301D01*
X135501602Y-74005581D01*
X135433728Y-74258891D01*
X135399500Y-74518878D01*
X122400722Y-74518878D01*
X122375175Y-74379473D01*
X122276037Y-74061328D01*
X122276035Y-74061324D01*
X122276034Y-74061320D01*
X122139279Y-73757463D01*
X122139276Y-73757457D01*
X122123028Y-73730580D01*
X121966880Y-73472278D01*
X121761369Y-73209963D01*
X121761367Y-73209961D01*
X121761362Y-73209955D01*
X121525744Y-72974337D01*
X121525738Y-72974332D01*
X121263421Y-72768819D01*
X120978242Y-72596423D01*
X120978236Y-72596420D01*
X120674379Y-72459665D01*
X120356224Y-72360524D01*
X120028452Y-72300458D01*
X120028449Y-72300457D01*
X119695828Y-72280338D01*
X119695824Y-72280338D01*
X119508226Y-72291685D01*
X119439022Y-72275832D01*
X119389375Y-72225082D01*
X119375046Y-72155546D01*
X119400587Y-72089302D01*
X119435781Y-72057878D01*
X120086969Y-71667103D01*
X120090570Y-71665024D01*
X121109472Y-71099488D01*
X121113203Y-71097499D01*
X122150612Y-70566703D01*
X122154337Y-70564876D01*
X123209072Y-70069426D01*
X123212905Y-70067703D01*
X124283830Y-69608133D01*
X124287658Y-69606566D01*
X125373493Y-69183429D01*
X125377384Y-69181988D01*
X126476850Y-68795778D01*
X126480830Y-68794455D01*
X127592754Y-68445586D01*
X127596719Y-68444416D01*
X128719745Y-68133314D01*
X128723824Y-68132258D01*
X129856700Y-67859266D01*
X129860818Y-67858347D01*
X131002246Y-67623777D01*
X131006427Y-67622992D01*
X131111712Y-67605038D01*
X132155097Y-67427112D01*
X132159267Y-67426472D01*
X133313962Y-67269491D01*
X133318139Y-67268995D01*
X134477459Y-67151104D01*
X134481657Y-67150748D01*
X135644328Y-67072078D01*
X135648504Y-67071866D01*
X136813113Y-67032509D01*
X136817369Y-67032438D01*
X137982631Y-67032438D01*
X137986886Y-67032509D01*
G37*
%TD.AperFunction*%
%TA.AperFunction,Conductor*%
G36*
X146435165Y-107604738D02*
G01*
X146480228Y-107633699D01*
X154478389Y-115631860D01*
X154512415Y-115694172D01*
X154515294Y-115720955D01*
X154515294Y-125595641D01*
X154495292Y-125663762D01*
X154441636Y-125710255D01*
X154412007Y-125719577D01*
X154359392Y-125729219D01*
X154041241Y-125828359D01*
X153737384Y-125965114D01*
X153737378Y-125965117D01*
X153452199Y-126137513D01*
X153189882Y-126343026D01*
X153189876Y-126343031D01*
X152954258Y-126578649D01*
X152954253Y-126578655D01*
X152748740Y-126840972D01*
X152576344Y-127126151D01*
X152576341Y-127126157D01*
X152439586Y-127430014D01*
X152340445Y-127748169D01*
X152280379Y-128075941D01*
X152280378Y-128075944D01*
X152260259Y-128408565D01*
X152260259Y-128408568D01*
X152280378Y-128741189D01*
X152280379Y-128741192D01*
X152340445Y-129068964D01*
X152439586Y-129387119D01*
X152576341Y-129690976D01*
X152576344Y-129690982D01*
X152748740Y-129976161D01*
X152954253Y-130238478D01*
X152954258Y-130238484D01*
X153189876Y-130474102D01*
X153189882Y-130474107D01*
X153189884Y-130474109D01*
X153452199Y-130679620D01*
X153737374Y-130852014D01*
X153737376Y-130852015D01*
X153737378Y-130852016D01*
X153737384Y-130852019D01*
X154041241Y-130988774D01*
X154041245Y-130988775D01*
X154041249Y-130988777D01*
X154359394Y-131087915D01*
X154687169Y-131147982D01*
X155019794Y-131168102D01*
X155026138Y-131167718D01*
X155095342Y-131183569D01*
X155144991Y-131234319D01*
X155159321Y-131303854D01*
X155133782Y-131370098D01*
X155098582Y-131401528D01*
X154713072Y-131632871D01*
X154709386Y-131634999D01*
X153690539Y-132200504D01*
X153686783Y-132202506D01*
X152649434Y-132733272D01*
X152645613Y-132735146D01*
X151590952Y-133230561D01*
X151587070Y-133232306D01*
X150516224Y-133691843D01*
X150512285Y-133693455D01*
X149426556Y-134116551D01*
X149422565Y-134118029D01*
X148323179Y-134504210D01*
X148319140Y-134505553D01*
X147207303Y-134854395D01*
X147203221Y-134855600D01*
X146080268Y-135166681D01*
X146076148Y-135167748D01*
X145525108Y-135300533D01*
X145454197Y-135297046D01*
X145396428Y-135255775D01*
X145370142Y-135189823D01*
X145383686Y-135120131D01*
X145406492Y-135088946D01*
X145529239Y-134966200D01*
X145734750Y-134703885D01*
X145907144Y-134418710D01*
X145907149Y-134418699D01*
X146043904Y-134114842D01*
X146043904Y-134114840D01*
X146043907Y-134114835D01*
X146143045Y-133796690D01*
X146203112Y-133468915D01*
X146223232Y-133136290D01*
X146219936Y-133081808D01*
X146203112Y-132803667D01*
X146203112Y-132803665D01*
X146143045Y-132475890D01*
X146043907Y-132157745D01*
X146043905Y-132157741D01*
X146043904Y-132157737D01*
X145907149Y-131853880D01*
X145907146Y-131853874D01*
X145907144Y-131853870D01*
X145734750Y-131568695D01*
X145692068Y-131514215D01*
X145586811Y-131379863D01*
X145560545Y-131313904D01*
X145559996Y-131302157D01*
X145559996Y-110628848D01*
X145579998Y-110560727D01*
X145633654Y-110514234D01*
X145666280Y-110504401D01*
X145723789Y-110495293D01*
X145911511Y-110434298D01*
X146087380Y-110344689D01*
X146247066Y-110228670D01*
X146386636Y-110089100D01*
X146502655Y-109929414D01*
X146592264Y-109753545D01*
X146653259Y-109565823D01*
X146684136Y-109370871D01*
X146684136Y-109173489D01*
X146653259Y-108978537D01*
X146592264Y-108790815D01*
X146502655Y-108614946D01*
X146386636Y-108455260D01*
X146386634Y-108455257D01*
X146247068Y-108315691D01*
X146087380Y-108199671D01*
X145920117Y-108114447D01*
X145868501Y-108065699D01*
X145851435Y-107996784D01*
X145874335Y-107929583D01*
X145920117Y-107889913D01*
X146087380Y-107804689D01*
X146247066Y-107688670D01*
X146247071Y-107688665D01*
X146302038Y-107633699D01*
X146364350Y-107599673D01*
X146435165Y-107604738D01*
G37*
%TD.AperFunction*%
%TA.AperFunction,Conductor*%
G36*
X128458298Y-107599337D02*
G01*
X128503361Y-107628298D01*
X128563731Y-107688668D01*
X128563734Y-107688670D01*
X128723420Y-107804689D01*
X128890683Y-107889913D01*
X128942298Y-107938661D01*
X128959364Y-108007576D01*
X128936463Y-108074778D01*
X128890683Y-108114447D01*
X128723416Y-108199673D01*
X128563731Y-108315691D01*
X128424165Y-108455257D01*
X128308145Y-108614945D01*
X128218539Y-108790807D01*
X128218536Y-108790813D01*
X128218536Y-108790815D01*
X128157541Y-108978537D01*
X128126664Y-109173489D01*
X128126664Y-109370871D01*
X128157541Y-109565823D01*
X128218536Y-109753545D01*
X128218537Y-109753548D01*
X128218539Y-109753552D01*
X128308145Y-109929414D01*
X128424165Y-110089102D01*
X128563731Y-110228668D01*
X128563734Y-110228670D01*
X128723420Y-110344689D01*
X128899289Y-110434298D01*
X129087011Y-110495293D01*
X129144516Y-110504400D01*
X129208666Y-110534810D01*
X129246194Y-110595078D01*
X129250804Y-110628848D01*
X129250804Y-130874474D01*
X129230802Y-130942595D01*
X129202512Y-130973658D01*
X129148126Y-131016266D01*
X128912500Y-131251892D01*
X128912495Y-131251898D01*
X128706982Y-131514215D01*
X128534586Y-131799394D01*
X128534583Y-131799400D01*
X128397828Y-132103257D01*
X128298687Y-132421412D01*
X128238621Y-132749184D01*
X128238620Y-132749187D01*
X128218501Y-133081808D01*
X128218501Y-133081811D01*
X128238620Y-133414432D01*
X128238621Y-133414435D01*
X128298687Y-133742207D01*
X128397828Y-134060362D01*
X128534583Y-134364219D01*
X128534586Y-134364225D01*
X128706982Y-134649404D01*
X128912495Y-134911721D01*
X128912500Y-134911727D01*
X128993273Y-134992500D01*
X129027299Y-135054812D01*
X129022234Y-135125627D01*
X128979687Y-135182463D01*
X128913167Y-135207274D01*
X128874660Y-135204089D01*
X128723851Y-135167748D01*
X128719731Y-135166681D01*
X127596778Y-134855600D01*
X127592696Y-134854395D01*
X126480859Y-134505553D01*
X126476820Y-134504210D01*
X125377434Y-134118029D01*
X125373443Y-134116551D01*
X124287714Y-133693455D01*
X124283775Y-133691843D01*
X123212929Y-133232306D01*
X123209047Y-133230561D01*
X122154386Y-132735146D01*
X122150565Y-132733272D01*
X121113216Y-132202506D01*
X121109460Y-132200504D01*
X120090613Y-131634999D01*
X120086927Y-131632871D01*
X119440124Y-131244727D01*
X119392006Y-131192524D01*
X119379749Y-131122593D01*
X119407245Y-131057137D01*
X119465764Y-131016938D01*
X119497346Y-131010917D01*
X119796261Y-130992837D01*
X120124036Y-130932770D01*
X120442181Y-130833632D01*
X120493010Y-130810756D01*
X120746045Y-130696874D01*
X120746045Y-130696873D01*
X120746056Y-130696869D01*
X121031231Y-130524475D01*
X121293546Y-130318964D01*
X121529178Y-130083332D01*
X121734689Y-129821017D01*
X121907083Y-129535842D01*
X121961285Y-129415411D01*
X122043843Y-129231974D01*
X122043845Y-129231969D01*
X122043846Y-129231967D01*
X122142984Y-128913822D01*
X122203051Y-128586047D01*
X122223171Y-128253422D01*
X122203051Y-127920797D01*
X122142984Y-127593022D01*
X122043846Y-127274877D01*
X122043844Y-127274873D01*
X122043843Y-127274869D01*
X121907088Y-126971012D01*
X121907085Y-126971006D01*
X121835121Y-126851963D01*
X121734689Y-126685827D01*
X121529178Y-126423512D01*
X121529176Y-126423510D01*
X121529171Y-126423504D01*
X121293553Y-126187886D01*
X121293547Y-126187881D01*
X121031230Y-125982368D01*
X120746051Y-125809972D01*
X120746045Y-125809969D01*
X120442188Y-125673214D01*
X120124037Y-125574074D01*
X120071423Y-125564432D01*
X120008024Y-125532478D01*
X119971965Y-125471321D01*
X119968136Y-125440496D01*
X119968136Y-116037524D01*
X119988138Y-115969403D01*
X120005036Y-115948434D01*
X128325173Y-107628296D01*
X128387483Y-107594272D01*
X128458298Y-107599337D01*
G37*
%TD.AperFunction*%
%TA.AperFunction,Conductor*%
G36*
X148267758Y-104716682D02*
G01*
X148288732Y-104733585D01*
X161542384Y-117987237D01*
X161576410Y-118049549D01*
X161571345Y-118120364D01*
X161561118Y-118141516D01*
X161443562Y-118335978D01*
X161443559Y-118335984D01*
X161306804Y-118639841D01*
X161207663Y-118957996D01*
X161147597Y-119285768D01*
X161147596Y-119285771D01*
X161127477Y-119618392D01*
X161127477Y-119618395D01*
X161147596Y-119951016D01*
X161147597Y-119951019D01*
X161207663Y-120278791D01*
X161306804Y-120596946D01*
X161443559Y-120900803D01*
X161443562Y-120900809D01*
X161615958Y-121185988D01*
X161821471Y-121448305D01*
X161821476Y-121448311D01*
X162057094Y-121683929D01*
X162057100Y-121683934D01*
X162057102Y-121683936D01*
X162319417Y-121889447D01*
X162604592Y-122061841D01*
X162604594Y-122061842D01*
X162604596Y-122061843D01*
X162604602Y-122061846D01*
X162908459Y-122198601D01*
X162908463Y-122198602D01*
X162908467Y-122198604D01*
X163226612Y-122297742D01*
X163554387Y-122357809D01*
X163743828Y-122369268D01*
X163887011Y-122377929D01*
X163887012Y-122377929D01*
X163887013Y-122377929D01*
X163970168Y-122372899D01*
X164219637Y-122357809D01*
X164547412Y-122297742D01*
X164865557Y-122198604D01*
X165022490Y-122127973D01*
X165092818Y-122118256D01*
X165157236Y-122148103D01*
X165195291Y-122208039D01*
X165194901Y-122279034D01*
X165176388Y-122316589D01*
X165133903Y-122375482D01*
X165131355Y-122378891D01*
X164418102Y-123300337D01*
X164415440Y-123303659D01*
X163671461Y-124200505D01*
X163668689Y-124203734D01*
X162894848Y-125074938D01*
X162891968Y-125078072D01*
X162089149Y-125922636D01*
X162086165Y-125925671D01*
X161255266Y-126742653D01*
X161252181Y-126745585D01*
X160394175Y-127534027D01*
X160390993Y-127536853D01*
X159506860Y-128295857D01*
X159503584Y-128298575D01*
X158594305Y-129027297D01*
X158590940Y-129029902D01*
X157730302Y-129673137D01*
X157663762Y-129697897D01*
X157594400Y-129682752D01*
X157544236Y-129632511D01*
X157529198Y-129563126D01*
X157539969Y-129520502D01*
X157600004Y-129387112D01*
X157699142Y-129068967D01*
X157759209Y-128741192D01*
X157779329Y-128408567D01*
X157759209Y-128075942D01*
X157699142Y-127748167D01*
X157600004Y-127430022D01*
X157600002Y-127430018D01*
X157600001Y-127430014D01*
X157463246Y-127126157D01*
X157463243Y-127126151D01*
X157290847Y-126840972D01*
X157169298Y-126685827D01*
X157085336Y-126578657D01*
X157085334Y-126578655D01*
X157085329Y-126578649D01*
X156849711Y-126343031D01*
X156849705Y-126343026D01*
X156587388Y-126137513D01*
X156302209Y-125965117D01*
X156302203Y-125965114D01*
X155998346Y-125828359D01*
X155680195Y-125729219D01*
X155627581Y-125719577D01*
X155564182Y-125687623D01*
X155528123Y-125626466D01*
X155524294Y-125595641D01*
X155524294Y-115393376D01*
X155510434Y-115341650D01*
X155489913Y-115265064D01*
X155455658Y-115205733D01*
X155423495Y-115150024D01*
X155423490Y-115150019D01*
X155423488Y-115150016D01*
X146646372Y-106372901D01*
X146615634Y-106322742D01*
X146612809Y-106314048D01*
X146592264Y-106250815D01*
X146502655Y-106074946D01*
X146386636Y-105915260D01*
X146386634Y-105915257D01*
X146247068Y-105775691D01*
X146087380Y-105659671D01*
X145920117Y-105574447D01*
X145868501Y-105525699D01*
X145851435Y-105456784D01*
X145874335Y-105389583D01*
X145920117Y-105349913D01*
X145930823Y-105344458D01*
X146087380Y-105264689D01*
X146247066Y-105148670D01*
X146386636Y-105009100D01*
X146502655Y-104849414D01*
X146545422Y-104765477D01*
X146594169Y-104713863D01*
X146657689Y-104696680D01*
X148199637Y-104696680D01*
X148267758Y-104716682D01*
G37*
%TD.AperFunction*%
%TA.AperFunction,Conductor*%
G36*
X128221232Y-104716682D02*
G01*
X128265378Y-104765478D01*
X128308142Y-104849410D01*
X128308145Y-104849414D01*
X128424165Y-105009102D01*
X128563731Y-105148668D01*
X128563734Y-105148670D01*
X128723420Y-105264689D01*
X128879977Y-105344458D01*
X128890683Y-105349913D01*
X128942298Y-105398661D01*
X128959364Y-105467576D01*
X128936463Y-105534778D01*
X128890683Y-105574447D01*
X128723416Y-105659673D01*
X128563731Y-105775691D01*
X128424165Y-105915257D01*
X128308145Y-106074945D01*
X128218536Y-106250813D01*
X128218534Y-106250818D01*
X128200361Y-106306747D01*
X128169624Y-106356903D01*
X119059940Y-115466587D01*
X119059934Y-115466595D01*
X119025516Y-115526211D01*
X119025515Y-115526212D01*
X118993519Y-115581629D01*
X118993517Y-115581634D01*
X118963363Y-115694172D01*
X118959136Y-115709946D01*
X118959136Y-125440496D01*
X118939134Y-125508617D01*
X118885478Y-125555110D01*
X118855849Y-125564432D01*
X118803234Y-125574074D01*
X118485083Y-125673214D01*
X118181226Y-125809969D01*
X118181220Y-125809972D01*
X117896041Y-125982368D01*
X117633724Y-126187881D01*
X117633718Y-126187886D01*
X117398100Y-126423504D01*
X117398095Y-126423510D01*
X117192582Y-126685827D01*
X117020186Y-126971006D01*
X117020183Y-126971012D01*
X116883428Y-127274869D01*
X116784287Y-127593024D01*
X116724221Y-127920796D01*
X116724220Y-127920799D01*
X116704101Y-128253420D01*
X116704101Y-128253423D01*
X116724220Y-128586044D01*
X116724221Y-128586047D01*
X116759969Y-128781121D01*
X116784288Y-128913822D01*
X116823954Y-129041116D01*
X116883427Y-129231969D01*
X116888217Y-129242613D01*
X116897931Y-129312942D01*
X116868081Y-129377358D01*
X116808143Y-129415411D01*
X116737148Y-129415018D01*
X116697883Y-129395246D01*
X116687009Y-129387119D01*
X116209059Y-129029902D01*
X116205694Y-129027297D01*
X115296415Y-128298575D01*
X115293139Y-128295857D01*
X114409006Y-127536853D01*
X114405824Y-127534027D01*
X113547818Y-126745585D01*
X113544733Y-126742653D01*
X112713834Y-125925671D01*
X112710850Y-125922636D01*
X112252541Y-125440496D01*
X111908011Y-125078050D01*
X111905171Y-125074960D01*
X111290986Y-124383500D01*
X111131310Y-124203734D01*
X111128538Y-124200505D01*
X110384559Y-123303659D01*
X110381897Y-123300337D01*
X109862629Y-122629499D01*
X109668635Y-122378880D01*
X109666096Y-122375482D01*
X109661613Y-122369268D01*
X109490738Y-122132399D01*
X109467106Y-122065451D01*
X109483420Y-121996354D01*
X109534501Y-121947046D01*
X109604131Y-121933182D01*
X109644635Y-121943783D01*
X109694918Y-121966414D01*
X110013063Y-122065552D01*
X110340838Y-122125619D01*
X110562588Y-122139032D01*
X110673462Y-122145739D01*
X110673463Y-122145739D01*
X110673464Y-122145739D01*
X110756619Y-122140709D01*
X111006088Y-122125619D01*
X111333863Y-122065552D01*
X111652008Y-121966414D01*
X111725847Y-121933182D01*
X111955872Y-121829656D01*
X111955872Y-121829655D01*
X111955883Y-121829651D01*
X112241058Y-121657257D01*
X112503373Y-121451746D01*
X112739005Y-121216114D01*
X112944516Y-120953799D01*
X113116910Y-120668624D01*
X113253673Y-120364749D01*
X113352811Y-120046604D01*
X113412878Y-119718829D01*
X113432998Y-119386204D01*
X113412878Y-119053579D01*
X113352811Y-118725804D01*
X113253673Y-118407659D01*
X113253671Y-118407655D01*
X113253670Y-118407651D01*
X113116915Y-118103794D01*
X113116909Y-118103783D01*
X113116229Y-118102658D01*
X112999355Y-117909324D01*
X112981232Y-117840683D01*
X113003096Y-117773137D01*
X113018084Y-117755052D01*
X126039553Y-104733585D01*
X126101865Y-104699559D01*
X126128648Y-104696680D01*
X128153111Y-104696680D01*
X128221232Y-104716682D01*
G37*
%TD.AperFunction*%
%TA.AperFunction,Conductor*%
G36*
X151179140Y-102176682D02*
G01*
X151200114Y-102193585D01*
X157420293Y-108413763D01*
X157514223Y-108507693D01*
X157629263Y-108574112D01*
X157757574Y-108608493D01*
X165902474Y-108608493D01*
X165970595Y-108628495D01*
X166017088Y-108682151D01*
X166026410Y-108711780D01*
X166036052Y-108764394D01*
X166135192Y-109082545D01*
X166271947Y-109386402D01*
X166271950Y-109386408D01*
X166444346Y-109671587D01*
X166516645Y-109763869D01*
X166632733Y-109912045D01*
X166649859Y-109933904D01*
X166649864Y-109933910D01*
X166885482Y-110169528D01*
X166885488Y-110169533D01*
X166885490Y-110169535D01*
X167147805Y-110375046D01*
X167432980Y-110547440D01*
X167432982Y-110547441D01*
X167432984Y-110547442D01*
X167432990Y-110547445D01*
X167736847Y-110684200D01*
X167736851Y-110684201D01*
X167736855Y-110684203D01*
X168055000Y-110783341D01*
X168382775Y-110843408D01*
X168604525Y-110856821D01*
X168715399Y-110863528D01*
X168715400Y-110863528D01*
X168715401Y-110863528D01*
X168798556Y-110858498D01*
X169048025Y-110843408D01*
X169375800Y-110783341D01*
X169693945Y-110684203D01*
X169968298Y-110560727D01*
X169997809Y-110547445D01*
X169997809Y-110547444D01*
X169997820Y-110547440D01*
X170282995Y-110375046D01*
X170545310Y-110169535D01*
X170768776Y-109946068D01*
X170831087Y-109912045D01*
X170901902Y-109917109D01*
X170958738Y-109959656D01*
X170983549Y-110026176D01*
X170979848Y-110066747D01*
X170766427Y-110891025D01*
X170765290Y-110895127D01*
X170435289Y-112012654D01*
X170434015Y-112016715D01*
X170066458Y-113122466D01*
X170065048Y-113126481D01*
X169660333Y-114219243D01*
X169658787Y-114223209D01*
X169217426Y-115301607D01*
X169215748Y-115305518D01*
X168738198Y-116368435D01*
X168736388Y-116372288D01*
X168223225Y-117418441D01*
X168221287Y-117422230D01*
X167673059Y-118450504D01*
X167670993Y-118454225D01*
X167088378Y-119463342D01*
X167086188Y-119466991D01*
X166872121Y-119810430D01*
X166819113Y-119857660D01*
X166748986Y-119868734D01*
X166684003Y-119840137D01*
X166644798Y-119780947D01*
X166639422Y-119736176D01*
X166646547Y-119618394D01*
X166645087Y-119594265D01*
X166634643Y-119421595D01*
X166626427Y-119285769D01*
X166566360Y-118957994D01*
X166467222Y-118639849D01*
X166467220Y-118639845D01*
X166467219Y-118639841D01*
X166330464Y-118335984D01*
X166330461Y-118335978D01*
X166312177Y-118305733D01*
X166158065Y-118050799D01*
X165952554Y-117788484D01*
X165952552Y-117788482D01*
X165952547Y-117788476D01*
X165716929Y-117552858D01*
X165716923Y-117552853D01*
X165454606Y-117347340D01*
X165169427Y-117174944D01*
X165169421Y-117174941D01*
X164865564Y-117038186D01*
X164547409Y-116939045D01*
X164219637Y-116878979D01*
X164219634Y-116878978D01*
X163887013Y-116858859D01*
X163887011Y-116858859D01*
X163554389Y-116878978D01*
X163554386Y-116878979D01*
X163226614Y-116939045D01*
X162908459Y-117038186D01*
X162604602Y-117174941D01*
X162604596Y-117174944D01*
X162410134Y-117292500D01*
X162341490Y-117310623D01*
X162273944Y-117288758D01*
X162255855Y-117273766D01*
X148770574Y-103788484D01*
X148770564Y-103788476D01*
X148697635Y-103746371D01*
X148655530Y-103722062D01*
X148655529Y-103722061D01*
X148655528Y-103722061D01*
X148527217Y-103687680D01*
X148527215Y-103687680D01*
X146657689Y-103687680D01*
X146589568Y-103667678D01*
X146545422Y-103618882D01*
X146502657Y-103534949D01*
X146502654Y-103534945D01*
X146386634Y-103375257D01*
X146247068Y-103235691D01*
X146087380Y-103119671D01*
X145920117Y-103034447D01*
X145868501Y-102985699D01*
X145851435Y-102916784D01*
X145874335Y-102849583D01*
X145920117Y-102809913D01*
X146087380Y-102724689D01*
X146247066Y-102608670D01*
X146386636Y-102469100D01*
X146502655Y-102309414D01*
X146545422Y-102225477D01*
X146594169Y-102173863D01*
X146657689Y-102156680D01*
X151111019Y-102156680D01*
X151179140Y-102176682D01*
G37*
%TD.AperFunction*%
%TA.AperFunction,Conductor*%
G36*
X128221232Y-102176682D02*
G01*
X128265378Y-102225478D01*
X128308142Y-102309410D01*
X128308145Y-102309414D01*
X128424165Y-102469102D01*
X128563731Y-102608668D01*
X128563734Y-102608670D01*
X128723420Y-102724689D01*
X128890683Y-102809913D01*
X128942298Y-102858661D01*
X128959364Y-102927576D01*
X128936463Y-102994778D01*
X128890683Y-103034447D01*
X128723416Y-103119673D01*
X128563731Y-103235691D01*
X128424165Y-103375257D01*
X128308145Y-103534945D01*
X128308142Y-103534949D01*
X128265378Y-103618882D01*
X128216631Y-103670497D01*
X128153111Y-103687680D01*
X125801068Y-103687680D01*
X125715527Y-103710600D01*
X125672756Y-103722061D01*
X125630647Y-103746372D01*
X125557718Y-103788477D01*
X125557715Y-103788479D01*
X112304618Y-117041576D01*
X112242306Y-117075602D01*
X112171491Y-117070537D01*
X112150343Y-117060312D01*
X111955883Y-116942757D01*
X111955882Y-116942756D01*
X111955878Y-116942754D01*
X111955872Y-116942751D01*
X111652015Y-116805996D01*
X111333860Y-116706855D01*
X111006088Y-116646789D01*
X111006085Y-116646788D01*
X110673464Y-116626669D01*
X110673462Y-116626669D01*
X110340840Y-116646788D01*
X110340837Y-116646789D01*
X110013065Y-116706855D01*
X109694910Y-116805996D01*
X109391053Y-116942751D01*
X109391047Y-116942754D01*
X109105868Y-117115150D01*
X108843551Y-117320663D01*
X108843545Y-117320668D01*
X108607927Y-117556286D01*
X108607922Y-117556292D01*
X108402409Y-117818609D01*
X108230013Y-118103788D01*
X108230010Y-118103794D01*
X108093255Y-118407651D01*
X107994114Y-118725806D01*
X107934048Y-119053578D01*
X107934047Y-119053581D01*
X107915827Y-119354806D01*
X107891748Y-119421595D01*
X107835383Y-119464763D01*
X107764628Y-119470605D01*
X107701945Y-119437267D01*
X107680938Y-119410198D01*
X107285804Y-118725806D01*
X107128988Y-118454192D01*
X107126958Y-118450537D01*
X106648354Y-117552853D01*
X106578712Y-117422230D01*
X106576774Y-117418441D01*
X106063611Y-116372288D01*
X106061801Y-116368435D01*
X106057266Y-116358342D01*
X105584250Y-115305517D01*
X105582573Y-115301607D01*
X105436828Y-114945501D01*
X105141206Y-114223194D01*
X105139666Y-114219243D01*
X104734951Y-113126481D01*
X104733541Y-113122466D01*
X104365984Y-112016715D01*
X104364710Y-112012654D01*
X104034709Y-110895127D01*
X104033572Y-110891025D01*
X103956946Y-110595078D01*
X103772976Y-109884544D01*
X103775265Y-109813587D01*
X103815554Y-109755129D01*
X103881052Y-109727733D01*
X103950964Y-109740097D01*
X103984049Y-109763869D01*
X104115822Y-109895642D01*
X104115828Y-109895647D01*
X104115830Y-109895649D01*
X104378145Y-110101160D01*
X104663320Y-110273554D01*
X104663322Y-110273555D01*
X104663324Y-110273556D01*
X104663330Y-110273559D01*
X104967187Y-110410314D01*
X104967191Y-110410315D01*
X104967195Y-110410317D01*
X105285340Y-110509455D01*
X105613115Y-110569522D01*
X105834865Y-110582935D01*
X105945739Y-110589642D01*
X105945740Y-110589642D01*
X105945741Y-110589642D01*
X106028896Y-110584612D01*
X106278365Y-110569522D01*
X106606140Y-110509455D01*
X106924285Y-110410317D01*
X107070105Y-110344689D01*
X107228149Y-110273559D01*
X107228149Y-110273558D01*
X107228160Y-110273554D01*
X107513335Y-110101160D01*
X107775650Y-109895649D01*
X108011282Y-109660017D01*
X108216793Y-109397702D01*
X108389187Y-109112527D01*
X108525950Y-108808652D01*
X108625088Y-108490507D01*
X108634730Y-108437894D01*
X108666684Y-108374495D01*
X108727841Y-108338436D01*
X108758666Y-108334607D01*
X117316310Y-108334607D01*
X117316312Y-108334607D01*
X117444623Y-108300226D01*
X117486730Y-108275915D01*
X117559663Y-108233808D01*
X123599886Y-102193585D01*
X123662198Y-102159559D01*
X123688981Y-102156680D01*
X128153111Y-102156680D01*
X128221232Y-102176682D01*
G37*
%TD.AperFunction*%
%TA.AperFunction,Conductor*%
G36*
X166025074Y-96142833D02*
G01*
X166071567Y-96196489D01*
X166080889Y-96226118D01*
X166090531Y-96278732D01*
X166189671Y-96596883D01*
X166326426Y-96900740D01*
X166326429Y-96900746D01*
X166498825Y-97185925D01*
X166532897Y-97229414D01*
X166658004Y-97389102D01*
X166704338Y-97448242D01*
X166704343Y-97448248D01*
X166939961Y-97683866D01*
X166939967Y-97683871D01*
X166939969Y-97683873D01*
X167202284Y-97889384D01*
X167487459Y-98061778D01*
X167487461Y-98061779D01*
X167487463Y-98061780D01*
X167487469Y-98061783D01*
X167791326Y-98198538D01*
X167791330Y-98198539D01*
X167791334Y-98198541D01*
X168109479Y-98297679D01*
X168437254Y-98357746D01*
X168659004Y-98371159D01*
X168769878Y-98377866D01*
X168769879Y-98377866D01*
X168769880Y-98377866D01*
X168853035Y-98372836D01*
X169102504Y-98357746D01*
X169430279Y-98297679D01*
X169748424Y-98198541D01*
X169843638Y-98155689D01*
X170052288Y-98061783D01*
X170052288Y-98061782D01*
X170052299Y-98061778D01*
X170337474Y-97889384D01*
X170599789Y-97683873D01*
X170835421Y-97448241D01*
X171040932Y-97185926D01*
X171213326Y-96900751D01*
X171350089Y-96596876D01*
X171387093Y-96478123D01*
X171426454Y-96419040D01*
X171491512Y-96390615D01*
X171561610Y-96401875D01*
X171614493Y-96449245D01*
X171631934Y-96496531D01*
X171706590Y-96983857D01*
X171707163Y-96988075D01*
X171844610Y-98145177D01*
X171845041Y-98149411D01*
X171943334Y-99310532D01*
X171943621Y-99314778D01*
X172002639Y-100478522D01*
X172002783Y-100482776D01*
X172022464Y-101647872D01*
X172022464Y-101652128D01*
X172002783Y-102817223D01*
X172002639Y-102821477D01*
X171943621Y-103985221D01*
X171943334Y-103989467D01*
X171845041Y-105150588D01*
X171844610Y-105154822D01*
X171707163Y-106311924D01*
X171706590Y-106316142D01*
X171570605Y-107203808D01*
X171540518Y-107268114D01*
X171480441Y-107305946D01*
X171409447Y-107305292D01*
X171350077Y-107266360D01*
X171325763Y-107222213D01*
X171323062Y-107213545D01*
X171295610Y-107125448D01*
X171295608Y-107125443D01*
X171158852Y-106821583D01*
X171158849Y-106821577D01*
X171132532Y-106778044D01*
X170986453Y-106536398D01*
X170780942Y-106274083D01*
X170780940Y-106274081D01*
X170780935Y-106274075D01*
X170545317Y-106038457D01*
X170545311Y-106038452D01*
X170282994Y-105832939D01*
X169997815Y-105660543D01*
X169997809Y-105660540D01*
X169693952Y-105523785D01*
X169375797Y-105424644D01*
X169048025Y-105364578D01*
X169048022Y-105364577D01*
X168715401Y-105344458D01*
X168715399Y-105344458D01*
X168382777Y-105364577D01*
X168382774Y-105364578D01*
X168055002Y-105424644D01*
X167736847Y-105523785D01*
X167432990Y-105660540D01*
X167432984Y-105660543D01*
X167147805Y-105832939D01*
X166885488Y-106038452D01*
X166885482Y-106038457D01*
X166649864Y-106274075D01*
X166649859Y-106274081D01*
X166444346Y-106536398D01*
X166271950Y-106821577D01*
X166271947Y-106821583D01*
X166135192Y-107125440D01*
X166036052Y-107443591D01*
X166026410Y-107496206D01*
X165994456Y-107559605D01*
X165933299Y-107595664D01*
X165902474Y-107599493D01*
X158085153Y-107599493D01*
X158017032Y-107579491D01*
X157996058Y-107562588D01*
X151952350Y-101518878D01*
X162399500Y-101518878D01*
X162399500Y-101781121D01*
X162433728Y-102041108D01*
X162433729Y-102041114D01*
X162433730Y-102041116D01*
X162501602Y-102294419D01*
X162601957Y-102536697D01*
X162601958Y-102536698D01*
X162601963Y-102536709D01*
X162733073Y-102763799D01*
X162733077Y-102763805D01*
X162892710Y-102971842D01*
X162892729Y-102971863D01*
X163078136Y-103157270D01*
X163078157Y-103157289D01*
X163286194Y-103316922D01*
X163286200Y-103316926D01*
X163513290Y-103448036D01*
X163513294Y-103448037D01*
X163513303Y-103448043D01*
X163755581Y-103548398D01*
X164008884Y-103616270D01*
X164008890Y-103616270D01*
X164008891Y-103616271D01*
X164033900Y-103619563D01*
X164268880Y-103650500D01*
X164268887Y-103650500D01*
X164531113Y-103650500D01*
X164531120Y-103650500D01*
X164791116Y-103616270D01*
X165044419Y-103548398D01*
X165286697Y-103448043D01*
X165513803Y-103316924D01*
X165721851Y-103157282D01*
X165907282Y-102971851D01*
X166066924Y-102763803D01*
X166198043Y-102536697D01*
X166298398Y-102294419D01*
X166366270Y-102041116D01*
X166400500Y-101781120D01*
X166400500Y-101518880D01*
X166366270Y-101258884D01*
X166298398Y-101005581D01*
X166198043Y-100763303D01*
X166198037Y-100763294D01*
X166198036Y-100763290D01*
X166066926Y-100536200D01*
X166066922Y-100536194D01*
X165907289Y-100328157D01*
X165907270Y-100328136D01*
X165721863Y-100142729D01*
X165721842Y-100142710D01*
X165513805Y-99983077D01*
X165513799Y-99983073D01*
X165286709Y-99851963D01*
X165286701Y-99851959D01*
X165286697Y-99851957D01*
X165044419Y-99751602D01*
X164791116Y-99683730D01*
X164791114Y-99683729D01*
X164791108Y-99683728D01*
X164531121Y-99649500D01*
X164531120Y-99649500D01*
X164268880Y-99649500D01*
X164268878Y-99649500D01*
X164008891Y-99683728D01*
X163755581Y-99751602D01*
X163513301Y-99851958D01*
X163513290Y-99851963D01*
X163286200Y-99983073D01*
X163286194Y-99983077D01*
X163078157Y-100142710D01*
X163078136Y-100142729D01*
X162892729Y-100328136D01*
X162892710Y-100328157D01*
X162733077Y-100536194D01*
X162733073Y-100536200D01*
X162601963Y-100763290D01*
X162601958Y-100763301D01*
X162601957Y-100763303D01*
X162543198Y-100905159D01*
X162501602Y-101005581D01*
X162433728Y-101258891D01*
X162399500Y-101518878D01*
X151952350Y-101518878D01*
X151679776Y-101246304D01*
X151679771Y-101246300D01*
X151679770Y-101246299D01*
X151604049Y-101202582D01*
X151564730Y-101179881D01*
X151521959Y-101168421D01*
X151436419Y-101145501D01*
X151303581Y-101145501D01*
X151295393Y-101146579D01*
X151295254Y-101145525D01*
X151278860Y-101147680D01*
X146657689Y-101147680D01*
X146589568Y-101127678D01*
X146545422Y-101078882D01*
X146502654Y-100994944D01*
X146386634Y-100835257D01*
X146247068Y-100695691D01*
X146087380Y-100579671D01*
X145920117Y-100494447D01*
X145868501Y-100445699D01*
X145851435Y-100376784D01*
X145874335Y-100309583D01*
X145920117Y-100269913D01*
X146087380Y-100184689D01*
X146247066Y-100068670D01*
X146386636Y-99929100D01*
X146502655Y-99769414D01*
X146545422Y-99685477D01*
X146594169Y-99633863D01*
X146657689Y-99616680D01*
X151434237Y-99616680D01*
X151434239Y-99616680D01*
X151562550Y-99582299D01*
X151604657Y-99557988D01*
X151677590Y-99515881D01*
X155033735Y-96159736D01*
X155096047Y-96125710D01*
X155122830Y-96122831D01*
X165956953Y-96122831D01*
X166025074Y-96142833D01*
G37*
%TD.AperFunction*%
%TA.AperFunction,Conductor*%
G36*
X119471406Y-95868948D02*
G01*
X119492380Y-95885851D01*
X123122403Y-99515875D01*
X123122408Y-99515879D01*
X123122410Y-99515881D01*
X123122411Y-99515882D01*
X123122413Y-99515883D01*
X123237447Y-99582298D01*
X123237448Y-99582298D01*
X123237451Y-99582300D01*
X123331376Y-99607465D01*
X123331380Y-99607468D01*
X123331381Y-99607467D01*
X123365761Y-99616680D01*
X123365762Y-99616680D01*
X123498599Y-99616680D01*
X128153111Y-99616680D01*
X128221232Y-99636682D01*
X128265378Y-99685478D01*
X128308142Y-99769410D01*
X128308145Y-99769414D01*
X128424165Y-99929102D01*
X128563731Y-100068668D01*
X128563734Y-100068670D01*
X128723420Y-100184689D01*
X128890683Y-100269913D01*
X128942298Y-100318661D01*
X128959364Y-100387576D01*
X128936463Y-100454778D01*
X128890683Y-100494447D01*
X128723416Y-100579673D01*
X128563731Y-100695691D01*
X128424165Y-100835257D01*
X128308146Y-100994944D01*
X128265378Y-101078882D01*
X128216631Y-101130497D01*
X128153111Y-101147680D01*
X123521139Y-101147680D01*
X123504744Y-101145525D01*
X123504606Y-101146579D01*
X123496418Y-101145501D01*
X123363581Y-101145501D01*
X123307001Y-101160661D01*
X123235265Y-101179882D01*
X123120233Y-101246296D01*
X123120223Y-101246304D01*
X117077827Y-107288702D01*
X117015515Y-107322728D01*
X116988732Y-107325607D01*
X108758666Y-107325607D01*
X108690545Y-107305605D01*
X108644052Y-107251949D01*
X108634730Y-107222320D01*
X108631337Y-107203808D01*
X108625088Y-107169707D01*
X108525950Y-106851562D01*
X108525948Y-106851558D01*
X108525947Y-106851554D01*
X108389192Y-106547697D01*
X108389189Y-106547691D01*
X108382362Y-106536398D01*
X108216793Y-106262512D01*
X108011282Y-106000197D01*
X108011280Y-106000195D01*
X108011275Y-106000189D01*
X107775657Y-105764571D01*
X107775651Y-105764566D01*
X107513334Y-105559053D01*
X107228155Y-105386657D01*
X107228149Y-105386654D01*
X106924292Y-105249899D01*
X106606137Y-105150758D01*
X106278365Y-105090692D01*
X106278362Y-105090691D01*
X105945741Y-105070572D01*
X105945739Y-105070572D01*
X105613117Y-105090691D01*
X105613114Y-105090692D01*
X105285342Y-105150758D01*
X104967187Y-105249899D01*
X104663330Y-105386654D01*
X104663324Y-105386657D01*
X104378145Y-105559053D01*
X104115828Y-105764566D01*
X104115822Y-105764571D01*
X103880204Y-106000189D01*
X103880199Y-106000195D01*
X103674686Y-106262512D01*
X103502290Y-106547691D01*
X103502287Y-106547697D01*
X103398617Y-106778044D01*
X103352420Y-106831954D01*
X103284410Y-106852330D01*
X103216180Y-106832702D01*
X103169394Y-106779303D01*
X103159171Y-106745412D01*
X103093402Y-106316096D01*
X103092841Y-106311964D01*
X102955388Y-105154818D01*
X102954958Y-105150588D01*
X102954796Y-105148670D01*
X102856662Y-103989425D01*
X102856380Y-103985263D01*
X102797359Y-102821469D01*
X102797216Y-102817223D01*
X102792478Y-102536709D01*
X102777535Y-101652072D01*
X102777535Y-101647927D01*
X102779715Y-101518878D01*
X108399500Y-101518878D01*
X108399500Y-101781121D01*
X108433728Y-102041108D01*
X108433729Y-102041114D01*
X108433730Y-102041116D01*
X108501602Y-102294419D01*
X108601957Y-102536697D01*
X108601958Y-102536698D01*
X108601963Y-102536709D01*
X108733073Y-102763799D01*
X108733077Y-102763805D01*
X108892710Y-102971842D01*
X108892729Y-102971863D01*
X109078136Y-103157270D01*
X109078157Y-103157289D01*
X109286194Y-103316922D01*
X109286200Y-103316926D01*
X109513290Y-103448036D01*
X109513294Y-103448037D01*
X109513303Y-103448043D01*
X109755581Y-103548398D01*
X110008884Y-103616270D01*
X110008890Y-103616270D01*
X110008891Y-103616271D01*
X110033900Y-103619563D01*
X110268880Y-103650500D01*
X110268887Y-103650500D01*
X110531113Y-103650500D01*
X110531120Y-103650500D01*
X110791116Y-103616270D01*
X111044419Y-103548398D01*
X111286697Y-103448043D01*
X111513803Y-103316924D01*
X111721851Y-103157282D01*
X111907282Y-102971851D01*
X112066924Y-102763803D01*
X112198043Y-102536697D01*
X112298398Y-102294419D01*
X112366270Y-102041116D01*
X112400500Y-101781120D01*
X112400500Y-101518880D01*
X112366270Y-101258884D01*
X112298398Y-101005581D01*
X112198043Y-100763303D01*
X112198037Y-100763294D01*
X112198036Y-100763290D01*
X112066926Y-100536200D01*
X112066922Y-100536194D01*
X111907289Y-100328157D01*
X111907270Y-100328136D01*
X111721863Y-100142729D01*
X111721842Y-100142710D01*
X111513805Y-99983077D01*
X111513799Y-99983073D01*
X111286709Y-99851963D01*
X111286701Y-99851959D01*
X111286697Y-99851957D01*
X111044419Y-99751602D01*
X110791116Y-99683730D01*
X110791114Y-99683729D01*
X110791108Y-99683728D01*
X110531121Y-99649500D01*
X110531120Y-99649500D01*
X110268880Y-99649500D01*
X110268878Y-99649500D01*
X110008891Y-99683728D01*
X109755581Y-99751602D01*
X109513301Y-99851958D01*
X109513290Y-99851963D01*
X109286200Y-99983073D01*
X109286194Y-99983077D01*
X109078157Y-100142710D01*
X109078136Y-100142729D01*
X108892729Y-100328136D01*
X108892710Y-100328157D01*
X108733077Y-100536194D01*
X108733073Y-100536200D01*
X108601963Y-100763290D01*
X108601958Y-100763301D01*
X108601957Y-100763303D01*
X108543198Y-100905159D01*
X108501602Y-101005581D01*
X108433728Y-101258891D01*
X108399500Y-101518878D01*
X102779715Y-101518878D01*
X102797216Y-100482765D01*
X102797360Y-100478522D01*
X102807717Y-100274298D01*
X102856381Y-99314732D01*
X102856661Y-99310578D01*
X102954959Y-98149393D01*
X102955389Y-98145177D01*
X102958261Y-98120998D01*
X103092842Y-96988027D01*
X103093401Y-96983911D01*
X103187343Y-96370687D01*
X103217430Y-96306383D01*
X103277507Y-96268551D01*
X103348501Y-96269205D01*
X103407871Y-96308137D01*
X103426789Y-96338057D01*
X103556766Y-96626855D01*
X103556769Y-96626861D01*
X103729165Y-96912040D01*
X103812170Y-97017988D01*
X103916264Y-97150854D01*
X103934678Y-97174357D01*
X103934683Y-97174363D01*
X104170301Y-97409981D01*
X104170307Y-97409986D01*
X104170309Y-97409988D01*
X104432624Y-97615499D01*
X104717799Y-97787893D01*
X104717801Y-97787894D01*
X104717803Y-97787895D01*
X104717809Y-97787898D01*
X105021666Y-97924653D01*
X105021670Y-97924654D01*
X105021674Y-97924656D01*
X105339819Y-98023794D01*
X105667594Y-98083861D01*
X105861515Y-98095591D01*
X106000218Y-98103981D01*
X106000219Y-98103981D01*
X106000220Y-98103981D01*
X106138906Y-98095592D01*
X106332844Y-98083861D01*
X106660619Y-98023794D01*
X106978764Y-97924656D01*
X107020570Y-97905841D01*
X107282628Y-97787898D01*
X107282628Y-97787897D01*
X107282639Y-97787893D01*
X107567814Y-97615499D01*
X107830129Y-97409988D01*
X108065761Y-97174356D01*
X108271272Y-96912041D01*
X108443666Y-96626866D01*
X108502325Y-96496531D01*
X108580426Y-96322998D01*
X108580426Y-96322996D01*
X108580429Y-96322991D01*
X108679567Y-96004846D01*
X108689209Y-95952233D01*
X108721163Y-95888834D01*
X108782320Y-95852775D01*
X108813145Y-95848946D01*
X119403285Y-95848946D01*
X119471406Y-95868948D01*
G37*
%TD.AperFunction*%
%TA.AperFunction,Conductor*%
G36*
X108032489Y-83593833D02*
G01*
X108071695Y-83653023D01*
X108077071Y-83697796D01*
X108069072Y-83830043D01*
X108069072Y-83830047D01*
X108089191Y-84162668D01*
X108089192Y-84162671D01*
X108149258Y-84490443D01*
X108248399Y-84808598D01*
X108385154Y-85112455D01*
X108385157Y-85112461D01*
X108557553Y-85397640D01*
X108763066Y-85659957D01*
X108763071Y-85659963D01*
X108998689Y-85895581D01*
X108998695Y-85895586D01*
X108998697Y-85895588D01*
X109261012Y-86101099D01*
X109546187Y-86273493D01*
X109546189Y-86273494D01*
X109546191Y-86273495D01*
X109546197Y-86273498D01*
X109850054Y-86410253D01*
X109850058Y-86410254D01*
X109850062Y-86410256D01*
X110168207Y-86509394D01*
X110495982Y-86569461D01*
X110717732Y-86582874D01*
X110828606Y-86589581D01*
X110828607Y-86589581D01*
X110828608Y-86589581D01*
X110911763Y-86584551D01*
X111161232Y-86569461D01*
X111489007Y-86509394D01*
X111807152Y-86410256D01*
X112111027Y-86273493D01*
X112305486Y-86155937D01*
X112374126Y-86137814D01*
X112441672Y-86159679D01*
X112459762Y-86174672D01*
X123260964Y-96975875D01*
X123260968Y-96975878D01*
X123260971Y-96975881D01*
X123333903Y-97017988D01*
X123376011Y-97042299D01*
X123504322Y-97076680D01*
X123504323Y-97076680D01*
X123637160Y-97076680D01*
X128153111Y-97076680D01*
X128221232Y-97096682D01*
X128265378Y-97145478D01*
X128308142Y-97229410D01*
X128308145Y-97229414D01*
X128424165Y-97389102D01*
X128563731Y-97528668D01*
X128563734Y-97528670D01*
X128723420Y-97644689D01*
X128875200Y-97722024D01*
X128890683Y-97729913D01*
X128942298Y-97778661D01*
X128959364Y-97847576D01*
X128936463Y-97914778D01*
X128890683Y-97954447D01*
X128723416Y-98039673D01*
X128563731Y-98155691D01*
X128424165Y-98295257D01*
X128308145Y-98454945D01*
X128308142Y-98454949D01*
X128265378Y-98538882D01*
X128216631Y-98590497D01*
X128153111Y-98607680D01*
X123693341Y-98607680D01*
X123625220Y-98587678D01*
X123604246Y-98570775D01*
X119974222Y-94940750D01*
X119974212Y-94940742D01*
X119876547Y-94884356D01*
X119876545Y-94884355D01*
X119859176Y-94874327D01*
X119859174Y-94874326D01*
X119799625Y-94858370D01*
X119730865Y-94839946D01*
X119730863Y-94839946D01*
X108813145Y-94839946D01*
X108745024Y-94819944D01*
X108698531Y-94766288D01*
X108689209Y-94736659D01*
X108686718Y-94723069D01*
X108679567Y-94684046D01*
X108580429Y-94365901D01*
X108580427Y-94365897D01*
X108580426Y-94365893D01*
X108443671Y-94062036D01*
X108443668Y-94062030D01*
X108365964Y-93933492D01*
X108271272Y-93776851D01*
X108065761Y-93514536D01*
X108065759Y-93514534D01*
X108065754Y-93514528D01*
X107830136Y-93278910D01*
X107830130Y-93278905D01*
X107748893Y-93215260D01*
X107567814Y-93073393D01*
X107567815Y-93073393D01*
X107567813Y-93073392D01*
X107282634Y-92900996D01*
X107282628Y-92900993D01*
X106978771Y-92764238D01*
X106660616Y-92665097D01*
X106332844Y-92605031D01*
X106332841Y-92605030D01*
X106000220Y-92584911D01*
X106000218Y-92584911D01*
X105667596Y-92605030D01*
X105667593Y-92605031D01*
X105339821Y-92665097D01*
X105021666Y-92764238D01*
X104717809Y-92900993D01*
X104717803Y-92900996D01*
X104432624Y-93073392D01*
X104170308Y-93278904D01*
X104008844Y-93440368D01*
X103946532Y-93474393D01*
X103875716Y-93469328D01*
X103818881Y-93426781D01*
X103794070Y-93360260D01*
X103797770Y-93319693D01*
X104033576Y-92408958D01*
X104034709Y-92404872D01*
X104364710Y-91287345D01*
X104365984Y-91283284D01*
X104391184Y-91207473D01*
X104733551Y-90177503D01*
X104734951Y-90173518D01*
X105139666Y-89080756D01*
X105141198Y-89076825D01*
X105582582Y-87998368D01*
X105584251Y-87994481D01*
X106061820Y-86931522D01*
X106063591Y-86927752D01*
X106576780Y-85881545D01*
X106578712Y-85877769D01*
X106640854Y-85761214D01*
X107126971Y-84849437D01*
X107128973Y-84845832D01*
X107711639Y-83836625D01*
X107713819Y-83832994D01*
X107715656Y-83830047D01*
X107844373Y-83623538D01*
X107897380Y-83576310D01*
X107967507Y-83565236D01*
X108032489Y-83593833D01*
G37*
%TD.AperFunction*%
%TA.AperFunction,Conductor*%
G36*
X157869074Y-73730579D02*
G01*
X158590940Y-74270097D01*
X158594305Y-74272702D01*
X159503584Y-75001424D01*
X159506860Y-75004142D01*
X160390993Y-75763146D01*
X160394175Y-75765972D01*
X161252181Y-76554414D01*
X161255266Y-76557346D01*
X162086165Y-77374328D01*
X162089149Y-77377363D01*
X162337346Y-77638466D01*
X162891986Y-78221946D01*
X162894830Y-78225042D01*
X163219177Y-78590197D01*
X163668689Y-79096265D01*
X163671461Y-79099494D01*
X164415440Y-79996340D01*
X164418102Y-79999662D01*
X165131355Y-80921108D01*
X165133903Y-80924517D01*
X165221007Y-81045261D01*
X165244639Y-81112209D01*
X165228325Y-81181306D01*
X165177244Y-81230614D01*
X165107615Y-81244478D01*
X165075727Y-81237378D01*
X164906331Y-81175723D01*
X164906326Y-81175722D01*
X164582657Y-81099010D01*
X164424698Y-82739470D01*
X164229785Y-82759097D01*
X164041409Y-82816689D01*
X163899576Y-82892899D01*
X164076619Y-81054237D01*
X163866958Y-81054237D01*
X163518942Y-81094914D01*
X163518936Y-81094915D01*
X163177987Y-81175722D01*
X163177982Y-81175723D01*
X162848739Y-81295558D01*
X162848734Y-81295560D01*
X162535606Y-81452819D01*
X162242858Y-81645362D01*
X161974447Y-81870585D01*
X161733991Y-82125453D01*
X161524753Y-82406508D01*
X161524743Y-82406524D01*
X161349555Y-82709958D01*
X161349552Y-82709963D01*
X161210774Y-83031689D01*
X161210772Y-83031695D01*
X161110277Y-83367368D01*
X161082989Y-83522125D01*
X161082990Y-83522126D01*
X162921510Y-83699154D01*
X162819636Y-83823841D01*
X162727158Y-83997767D01*
X162670700Y-84185353D01*
X161031083Y-84027477D01*
X161031082Y-84027478D01*
X161029059Y-84062236D01*
X161049431Y-84412025D01*
X161049431Y-84412031D01*
X161110277Y-84757105D01*
X161210772Y-85092778D01*
X161210774Y-85092784D01*
X161349552Y-85414510D01*
X161349555Y-85414515D01*
X161524743Y-85717949D01*
X161524753Y-85717965D01*
X161733991Y-85999020D01*
X161974447Y-86253888D01*
X162242858Y-86479111D01*
X162535606Y-86671654D01*
X162848734Y-86828913D01*
X162848739Y-86828915D01*
X163177982Y-86948750D01*
X163177987Y-86948751D01*
X163501656Y-87025462D01*
X163659613Y-85385003D01*
X163854529Y-85365377D01*
X164042905Y-85307785D01*
X164184735Y-85231575D01*
X164007694Y-87070236D01*
X164007694Y-87070237D01*
X164217356Y-87070237D01*
X164565371Y-87029559D01*
X164565377Y-87029558D01*
X164906326Y-86948751D01*
X164906331Y-86948750D01*
X165235574Y-86828915D01*
X165235579Y-86828913D01*
X165548707Y-86671654D01*
X165841455Y-86479111D01*
X166109866Y-86253888D01*
X166350322Y-85999020D01*
X166559560Y-85717965D01*
X166559570Y-85717949D01*
X166734758Y-85414515D01*
X166734761Y-85414510D01*
X166873539Y-85092784D01*
X166873541Y-85092778D01*
X166974036Y-84757104D01*
X166974036Y-84757103D01*
X167001324Y-84602346D01*
X165162805Y-84425317D01*
X165264678Y-84300633D01*
X165357156Y-84126707D01*
X165413613Y-83939117D01*
X167053229Y-84096994D01*
X167062090Y-84089405D01*
X167126838Y-84060280D01*
X167197053Y-84070784D01*
X167250443Y-84117582D01*
X167253178Y-84122098D01*
X167619798Y-84757103D01*
X167670993Y-84845774D01*
X167673052Y-84849482D01*
X167770859Y-85032932D01*
X168221287Y-85877769D01*
X168223225Y-85881558D01*
X168736388Y-86927711D01*
X168738198Y-86931564D01*
X169215748Y-87994481D01*
X169217426Y-87998392D01*
X169658787Y-89076790D01*
X169660333Y-89080756D01*
X170065048Y-90173518D01*
X170066458Y-90177533D01*
X170434015Y-91283284D01*
X170435289Y-91287345D01*
X170765290Y-92404872D01*
X170766427Y-92408974D01*
X171058507Y-93537052D01*
X171059504Y-93541190D01*
X171104608Y-93743296D01*
X171099924Y-93814138D01*
X171057683Y-93871201D01*
X170991297Y-93896369D01*
X170921843Y-93881650D01*
X170882448Y-93848446D01*
X170835426Y-93788426D01*
X170835414Y-93788413D01*
X170599796Y-93552795D01*
X170599790Y-93552790D01*
X170597270Y-93550816D01*
X170438952Y-93426781D01*
X170337473Y-93347277D01*
X170052294Y-93174881D01*
X170052288Y-93174878D01*
X169748431Y-93038123D01*
X169430276Y-92938982D01*
X169102504Y-92878916D01*
X169102501Y-92878915D01*
X168769880Y-92858796D01*
X168769878Y-92858796D01*
X168437256Y-92878915D01*
X168437253Y-92878916D01*
X168109481Y-92938982D01*
X167791326Y-93038123D01*
X167487469Y-93174878D01*
X167487463Y-93174881D01*
X167202284Y-93347277D01*
X166939967Y-93552790D01*
X166939961Y-93552795D01*
X166704343Y-93788413D01*
X166704338Y-93788419D01*
X166498825Y-94050736D01*
X166326429Y-94335915D01*
X166326426Y-94335921D01*
X166189671Y-94639778D01*
X166090531Y-94957929D01*
X166080889Y-95010544D01*
X166048935Y-95073943D01*
X165987778Y-95110002D01*
X165956953Y-95113831D01*
X154795250Y-95113831D01*
X154741020Y-95128361D01*
X154666940Y-95148211D01*
X154666933Y-95148214D01*
X154643407Y-95161798D01*
X154551902Y-95214627D01*
X154551892Y-95214635D01*
X151195754Y-98570775D01*
X151133442Y-98604801D01*
X151106659Y-98607680D01*
X146657689Y-98607680D01*
X146589568Y-98587678D01*
X146545422Y-98538882D01*
X146502657Y-98454949D01*
X146502654Y-98454945D01*
X146386634Y-98295257D01*
X146247072Y-98155695D01*
X146247068Y-98155692D01*
X146247066Y-98155690D01*
X146164347Y-98095591D01*
X146120995Y-98039369D01*
X146114920Y-97968633D01*
X146148052Y-97905841D01*
X146181209Y-97881388D01*
X146220244Y-97861499D01*
X146220252Y-97861494D01*
X146412212Y-97722026D01*
X146412215Y-97722024D01*
X146579990Y-97554249D01*
X146579992Y-97554246D01*
X146719460Y-97362286D01*
X146719465Y-97362277D01*
X146827189Y-97150856D01*
X146827190Y-97150854D01*
X146900515Y-96925187D01*
X146916197Y-96826180D01*
X145486199Y-96826180D01*
X145521421Y-96765173D01*
X145555496Y-96638006D01*
X145555496Y-96506354D01*
X145521421Y-96379187D01*
X145486199Y-96318180D01*
X146916196Y-96318180D01*
X146900515Y-96219172D01*
X146827190Y-95993505D01*
X146827189Y-95993503D01*
X146719465Y-95782082D01*
X146719460Y-95782073D01*
X146579992Y-95590113D01*
X146579990Y-95590110D01*
X146412215Y-95422335D01*
X146412212Y-95422333D01*
X146220252Y-95282865D01*
X146220243Y-95282860D01*
X146181207Y-95262970D01*
X146129592Y-95214221D01*
X146112526Y-95145306D01*
X146135427Y-95078105D01*
X146164346Y-95048769D01*
X146247066Y-94988670D01*
X146386636Y-94849100D01*
X146502655Y-94689414D01*
X146592264Y-94513545D01*
X146653259Y-94325823D01*
X146684136Y-94130871D01*
X146684136Y-93933489D01*
X146653259Y-93738537D01*
X146592264Y-93550815D01*
X146502655Y-93374946D01*
X146386636Y-93215260D01*
X146386634Y-93215257D01*
X146247068Y-93075691D01*
X146087380Y-92959671D01*
X145911518Y-92870065D01*
X145911514Y-92870063D01*
X145911511Y-92870062D01*
X145723789Y-92809067D01*
X145723787Y-92809066D01*
X145666283Y-92799958D01*
X145602131Y-92769545D01*
X145564605Y-92709277D01*
X145559996Y-92675510D01*
X145559996Y-85652665D01*
X145579998Y-85584544D01*
X145596896Y-85563575D01*
X153620829Y-77539641D01*
X153683139Y-77505617D01*
X153753954Y-77510682D01*
X153775101Y-77520907D01*
X153969564Y-77638464D01*
X153969568Y-77638466D01*
X153969574Y-77638469D01*
X154273431Y-77775224D01*
X154273435Y-77775225D01*
X154273439Y-77775227D01*
X154591584Y-77874365D01*
X154919359Y-77934432D01*
X155141109Y-77947845D01*
X155251983Y-77954552D01*
X155251984Y-77954552D01*
X155251985Y-77954552D01*
X155335140Y-77949522D01*
X155584609Y-77934432D01*
X155912384Y-77874365D01*
X156230529Y-77775227D01*
X156354970Y-77719221D01*
X156534393Y-77638469D01*
X156534393Y-77638468D01*
X156534404Y-77638464D01*
X156819579Y-77466070D01*
X157081894Y-77260559D01*
X157317526Y-77024927D01*
X157523037Y-76762612D01*
X157695431Y-76477437D01*
X157832194Y-76173562D01*
X157931332Y-75855417D01*
X157991399Y-75527642D01*
X158011519Y-75195017D01*
X157991399Y-74862392D01*
X157931332Y-74534617D01*
X157832194Y-74216472D01*
X157832192Y-74216468D01*
X157832191Y-74216464D01*
X157695436Y-73912607D01*
X157695434Y-73912604D01*
X157695431Y-73912597D01*
X157685814Y-73896688D01*
X157667690Y-73828048D01*
X157689555Y-73760502D01*
X157744466Y-73715499D01*
X157814991Y-73707328D01*
X157869074Y-73730579D01*
G37*
%TD.AperFunction*%
%TA.AperFunction,Conductor*%
G36*
X117179120Y-73637037D02*
G01*
X117229284Y-73687278D01*
X117244322Y-73756663D01*
X117233550Y-73799290D01*
X117115617Y-74061328D01*
X117016478Y-74379475D01*
X116956412Y-74707247D01*
X116956411Y-74707250D01*
X116936292Y-75039871D01*
X116936292Y-75039874D01*
X116956411Y-75372495D01*
X116956412Y-75372498D01*
X117016478Y-75700270D01*
X117115619Y-76018425D01*
X117252374Y-76322282D01*
X117252377Y-76322288D01*
X117424773Y-76607467D01*
X117630286Y-76869784D01*
X117630291Y-76869790D01*
X117865909Y-77105408D01*
X117865915Y-77105413D01*
X117865917Y-77105415D01*
X118128232Y-77310926D01*
X118413407Y-77483320D01*
X118413409Y-77483321D01*
X118413411Y-77483322D01*
X118413417Y-77483325D01*
X118717274Y-77620080D01*
X118717278Y-77620081D01*
X118717282Y-77620083D01*
X119035427Y-77719221D01*
X119363202Y-77779288D01*
X119584952Y-77792701D01*
X119695826Y-77799408D01*
X119695827Y-77799408D01*
X119695828Y-77799408D01*
X119778983Y-77794378D01*
X120028452Y-77779288D01*
X120356227Y-77719221D01*
X120674372Y-77620083D01*
X120853103Y-77539643D01*
X120978236Y-77483325D01*
X120978236Y-77483324D01*
X120978247Y-77483320D01*
X121172706Y-77365764D01*
X121241346Y-77347641D01*
X121308892Y-77369506D01*
X121326982Y-77384499D01*
X129213899Y-85271416D01*
X129247925Y-85333728D01*
X129250804Y-85360511D01*
X129250804Y-92675510D01*
X129230802Y-92743631D01*
X129177146Y-92790124D01*
X129144517Y-92799958D01*
X129087012Y-92809066D01*
X129087011Y-92809067D01*
X128899289Y-92870062D01*
X128899287Y-92870062D01*
X128899281Y-92870065D01*
X128723419Y-92959671D01*
X128563731Y-93075691D01*
X128424165Y-93215257D01*
X128308145Y-93374945D01*
X128218539Y-93550807D01*
X128218536Y-93550813D01*
X128218536Y-93550815D01*
X128157541Y-93738537D01*
X128126664Y-93933489D01*
X128126664Y-94130871D01*
X128157541Y-94325823D01*
X128218536Y-94513545D01*
X128218537Y-94513548D01*
X128218539Y-94513552D01*
X128308145Y-94689414D01*
X128424165Y-94849102D01*
X128563731Y-94988668D01*
X128563734Y-94988670D01*
X128723420Y-95104689D01*
X128890683Y-95189913D01*
X128942298Y-95238661D01*
X128959364Y-95307576D01*
X128936463Y-95374778D01*
X128890683Y-95414447D01*
X128723416Y-95499673D01*
X128563731Y-95615691D01*
X128424165Y-95755257D01*
X128308145Y-95914945D01*
X128308142Y-95914949D01*
X128265378Y-95998882D01*
X128216631Y-96050497D01*
X128153111Y-96067680D01*
X123831902Y-96067680D01*
X123763781Y-96047678D01*
X123742807Y-96030775D01*
X113173233Y-85461201D01*
X113139207Y-85398889D01*
X113144272Y-85328074D01*
X113154494Y-85306933D01*
X113272054Y-85112466D01*
X113281107Y-85092352D01*
X113408814Y-84808598D01*
X113408814Y-84808596D01*
X113408817Y-84808591D01*
X113507955Y-84490446D01*
X113568022Y-84162671D01*
X113588142Y-83830046D01*
X113568022Y-83497421D01*
X113507955Y-83169646D01*
X113408817Y-82851501D01*
X113408815Y-82851497D01*
X113408814Y-82851493D01*
X113272059Y-82547636D01*
X113272056Y-82547630D01*
X113099660Y-82262451D01*
X112894147Y-82000134D01*
X112894142Y-82000128D01*
X112658524Y-81764510D01*
X112658518Y-81764505D01*
X112396201Y-81558992D01*
X112111022Y-81386596D01*
X112111016Y-81386593D01*
X111807159Y-81249838D01*
X111489004Y-81150697D01*
X111161232Y-81090631D01*
X111161229Y-81090630D01*
X110828608Y-81070511D01*
X110828606Y-81070511D01*
X110495984Y-81090630D01*
X110495981Y-81090631D01*
X110168209Y-81150697D01*
X109850058Y-81249837D01*
X109659509Y-81335596D01*
X109589181Y-81345313D01*
X109524763Y-81315465D01*
X109486709Y-81255529D01*
X109487099Y-81184534D01*
X109505609Y-81146985D01*
X109666125Y-80924477D01*
X109668614Y-80921147D01*
X110381915Y-79999639D01*
X110384540Y-79996363D01*
X111128543Y-79099487D01*
X111131310Y-79096265D01*
X111280313Y-78928515D01*
X111905198Y-78225009D01*
X111907983Y-78221978D01*
X112710861Y-77377351D01*
X112713834Y-77374328D01*
X113544754Y-76557325D01*
X113547795Y-76554434D01*
X114405838Y-75765959D01*
X114409006Y-75763146D01*
X115293154Y-75004129D01*
X115296399Y-75001436D01*
X116205729Y-74272674D01*
X116209024Y-74270123D01*
X117043221Y-73646650D01*
X117109758Y-73621892D01*
X117179120Y-73637037D01*
G37*
%TD.AperFunction*%
M02*
