M48
; DRILL file {KiCad 8.0.2-1} date 2024-05-14T17:19:17-0600
; FORMAT={-:-/ absolute / metric / decimal}
; #@! TF.CreationDate,2024-05-14T17:19:17-06:00
; #@! TF.GenerationSoftware,Kicad,Pcbnew,8.0.2-1
; #@! TF.FileFunction,Plated,1,2,PTH
FMAT,2
METRIC
; #@! TA.AperFunction,Plated,PTH,ViaDrill
T1C0.500
; #@! TA.AperFunction,Plated,PTH,ComponentDrill
T2C1.000
; #@! TA.AperFunction,Plated,PTH,ComponentDrill
T3C2.000
%
G90
G05
T1
X105.65Y-101.65
X108.067Y-89.5
X108.067Y-113.8
X114.949Y-79.199
X114.949Y-124.101
X125.25Y-72.317
X125.25Y-130.983
X137.4Y-69.9
X137.4Y-133.4
X149.55Y-72.317
X149.55Y-130.983
X159.851Y-79.199
X159.851Y-124.101
X166.733Y-89.5
X166.733Y-113.8
X169.15Y-101.65
T2
X129.755Y-94.032
X129.755Y-96.572
X129.755Y-99.112
X129.755Y-101.652
X129.755Y-104.192
X129.755Y-106.732
X129.755Y-109.272
X145.055Y-94.032
X145.055Y-96.572
X145.055Y-99.112
X145.055Y-101.652
X145.055Y-104.192
X145.055Y-106.732
X145.055Y-109.272
T3
X105.457Y-107.934G85X106.435Y-107.726
G05
X105.518Y-95.211G85X106.482Y-95.478
G05
X110.261Y-119.669G85X111.086Y-119.103
G05
X110.435Y-83.522G85X111.223Y-84.138
G05
X119.191Y-128.673G85X119.736Y-127.834
G05
X119.378Y-74.654G85X120.014Y-75.426
G05
X131.086Y-132.594G85X130.87Y-133.57
G05
X143.334Y-132.653G85X143.593Y-133.619
G05
X154.737Y-127.997G85X155.303Y-128.821
G05
X155.524Y-74.776G85X154.98Y-75.614
G05
X163.468Y-119.346G85X164.306Y-119.891
G05
X164.428Y-83.744G85X163.656Y-84.38
G05
X168.224Y-108.013G85X169.207Y-108.195
G05
X169.259Y-95.514G85X168.281Y-95.722
G05
M30
