%TF.GenerationSoftware,KiCad,Pcbnew,8.0.2-1*%
%TF.CreationDate,2024-05-14T17:19:18-06:00*%
%TF.ProjectId,seeeduino-xiao-breakout,73656565-6475-4696-9e6f-2d7869616f2d,rev?*%
%TF.SameCoordinates,Original*%
%TF.FileFunction,Drillmap*%
%TF.FilePolarity,Positive*%
%FSLAX45Y45*%
G04 Gerber Fmt 4.5, Leading zero omitted, Abs format (unit mm)*
G04 Created by KiCad (PCBNEW 8.0.2-1) date 2024-05-14 17:19:18*
%MOMM*%
%LPD*%
G01*
G04 APERTURE LIST*
%ADD10C,0.100000*%
%ADD11C,0.200000*%
%ADD12C,0.320000*%
G04 APERTURE END LIST*
D10*
X17215000Y-10165000D02*
G75*
G02*
X10265000Y-10165000I-3475000J0D01*
G01*
X10265000Y-10165000D02*
G75*
G02*
X17215000Y-10165000I3475000J0D01*
G01*
D11*
D12*
X10880000Y-10005000D02*
X11200000Y-10325000D01*
X11200000Y-10005000D02*
X10880000Y-10325000D01*
X13580000Y-7305000D02*
X13900000Y-7625000D01*
X13900000Y-7305000D02*
X13580000Y-7625000D01*
X13580000Y-12705000D02*
X13900000Y-13025000D01*
X13900000Y-12705000D02*
X13580000Y-13025000D01*
X16280000Y-10005000D02*
X16600000Y-10325000D01*
X16600000Y-10005000D02*
X16280000Y-10325000D01*
D11*
X10520777Y-13956484D02*
X10520777Y-13756484D01*
X10520777Y-13756484D02*
X10568396Y-13756484D01*
X10568396Y-13756484D02*
X10596967Y-13766008D01*
X10596967Y-13766008D02*
X10616015Y-13785055D01*
X10616015Y-13785055D02*
X10625539Y-13804103D01*
X10625539Y-13804103D02*
X10635063Y-13842198D01*
X10635063Y-13842198D02*
X10635063Y-13870769D01*
X10635063Y-13870769D02*
X10625539Y-13908865D01*
X10625539Y-13908865D02*
X10616015Y-13927912D01*
X10616015Y-13927912D02*
X10596967Y-13946960D01*
X10596967Y-13946960D02*
X10568396Y-13956484D01*
X10568396Y-13956484D02*
X10520777Y-13956484D01*
X10720777Y-13956484D02*
X10720777Y-13823150D01*
X10720777Y-13861246D02*
X10730301Y-13842198D01*
X10730301Y-13842198D02*
X10739824Y-13832674D01*
X10739824Y-13832674D02*
X10758872Y-13823150D01*
X10758872Y-13823150D02*
X10777920Y-13823150D01*
X10844586Y-13956484D02*
X10844586Y-13823150D01*
X10844586Y-13756484D02*
X10835063Y-13766008D01*
X10835063Y-13766008D02*
X10844586Y-13775531D01*
X10844586Y-13775531D02*
X10854110Y-13766008D01*
X10854110Y-13766008D02*
X10844586Y-13756484D01*
X10844586Y-13756484D02*
X10844586Y-13775531D01*
X10968396Y-13956484D02*
X10949348Y-13946960D01*
X10949348Y-13946960D02*
X10939824Y-13927912D01*
X10939824Y-13927912D02*
X10939824Y-13756484D01*
X11073158Y-13956484D02*
X11054110Y-13946960D01*
X11054110Y-13946960D02*
X11044586Y-13927912D01*
X11044586Y-13927912D02*
X11044586Y-13756484D01*
X11301729Y-13956484D02*
X11301729Y-13756484D01*
X11301729Y-13756484D02*
X11368396Y-13899341D01*
X11368396Y-13899341D02*
X11435062Y-13756484D01*
X11435062Y-13756484D02*
X11435062Y-13956484D01*
X11616015Y-13956484D02*
X11616015Y-13851722D01*
X11616015Y-13851722D02*
X11606491Y-13832674D01*
X11606491Y-13832674D02*
X11587443Y-13823150D01*
X11587443Y-13823150D02*
X11549348Y-13823150D01*
X11549348Y-13823150D02*
X11530301Y-13832674D01*
X11616015Y-13946960D02*
X11596967Y-13956484D01*
X11596967Y-13956484D02*
X11549348Y-13956484D01*
X11549348Y-13956484D02*
X11530301Y-13946960D01*
X11530301Y-13946960D02*
X11520777Y-13927912D01*
X11520777Y-13927912D02*
X11520777Y-13908865D01*
X11520777Y-13908865D02*
X11530301Y-13889817D01*
X11530301Y-13889817D02*
X11549348Y-13880293D01*
X11549348Y-13880293D02*
X11596967Y-13880293D01*
X11596967Y-13880293D02*
X11616015Y-13870769D01*
X11711253Y-13823150D02*
X11711253Y-14023150D01*
X11711253Y-13832674D02*
X11730301Y-13823150D01*
X11730301Y-13823150D02*
X11768396Y-13823150D01*
X11768396Y-13823150D02*
X11787443Y-13832674D01*
X11787443Y-13832674D02*
X11796967Y-13842198D01*
X11796967Y-13842198D02*
X11806491Y-13861246D01*
X11806491Y-13861246D02*
X11806491Y-13918388D01*
X11806491Y-13918388D02*
X11796967Y-13937436D01*
X11796967Y-13937436D02*
X11787443Y-13946960D01*
X11787443Y-13946960D02*
X11768396Y-13956484D01*
X11768396Y-13956484D02*
X11730301Y-13956484D01*
X11730301Y-13956484D02*
X11711253Y-13946960D01*
X11892205Y-13937436D02*
X11901729Y-13946960D01*
X11901729Y-13946960D02*
X11892205Y-13956484D01*
X11892205Y-13956484D02*
X11882682Y-13946960D01*
X11882682Y-13946960D02*
X11892205Y-13937436D01*
X11892205Y-13937436D02*
X11892205Y-13956484D01*
X11892205Y-13832674D02*
X11901729Y-13842198D01*
X11901729Y-13842198D02*
X11892205Y-13851722D01*
X11892205Y-13851722D02*
X11882682Y-13842198D01*
X11882682Y-13842198D02*
X11892205Y-13832674D01*
X11892205Y-13832674D02*
X11892205Y-13851722D01*
X10060000Y-14185000D02*
X10260000Y-14385000D01*
X10260000Y-14185000D02*
X10060000Y-14385000D01*
X10501729Y-14176484D02*
X10625539Y-14176484D01*
X10625539Y-14176484D02*
X10558872Y-14252674D01*
X10558872Y-14252674D02*
X10587444Y-14252674D01*
X10587444Y-14252674D02*
X10606491Y-14262198D01*
X10606491Y-14262198D02*
X10616015Y-14271722D01*
X10616015Y-14271722D02*
X10625539Y-14290769D01*
X10625539Y-14290769D02*
X10625539Y-14338388D01*
X10625539Y-14338388D02*
X10616015Y-14357436D01*
X10616015Y-14357436D02*
X10606491Y-14366960D01*
X10606491Y-14366960D02*
X10587444Y-14376484D01*
X10587444Y-14376484D02*
X10530301Y-14376484D01*
X10530301Y-14376484D02*
X10511253Y-14366960D01*
X10511253Y-14366960D02*
X10501729Y-14357436D01*
X10711253Y-14357436D02*
X10720777Y-14366960D01*
X10720777Y-14366960D02*
X10711253Y-14376484D01*
X10711253Y-14376484D02*
X10701729Y-14366960D01*
X10701729Y-14366960D02*
X10711253Y-14357436D01*
X10711253Y-14357436D02*
X10711253Y-14376484D01*
X10796967Y-14195531D02*
X10806491Y-14186008D01*
X10806491Y-14186008D02*
X10825539Y-14176484D01*
X10825539Y-14176484D02*
X10873158Y-14176484D01*
X10873158Y-14176484D02*
X10892205Y-14186008D01*
X10892205Y-14186008D02*
X10901729Y-14195531D01*
X10901729Y-14195531D02*
X10911253Y-14214579D01*
X10911253Y-14214579D02*
X10911253Y-14233627D01*
X10911253Y-14233627D02*
X10901729Y-14262198D01*
X10901729Y-14262198D02*
X10787444Y-14376484D01*
X10787444Y-14376484D02*
X10911253Y-14376484D01*
X11035063Y-14176484D02*
X11054110Y-14176484D01*
X11054110Y-14176484D02*
X11073158Y-14186008D01*
X11073158Y-14186008D02*
X11082682Y-14195531D01*
X11082682Y-14195531D02*
X11092205Y-14214579D01*
X11092205Y-14214579D02*
X11101729Y-14252674D01*
X11101729Y-14252674D02*
X11101729Y-14300293D01*
X11101729Y-14300293D02*
X11092205Y-14338388D01*
X11092205Y-14338388D02*
X11082682Y-14357436D01*
X11082682Y-14357436D02*
X11073158Y-14366960D01*
X11073158Y-14366960D02*
X11054110Y-14376484D01*
X11054110Y-14376484D02*
X11035063Y-14376484D01*
X11035063Y-14376484D02*
X11016015Y-14366960D01*
X11016015Y-14366960D02*
X11006491Y-14357436D01*
X11006491Y-14357436D02*
X10996967Y-14338388D01*
X10996967Y-14338388D02*
X10987444Y-14300293D01*
X10987444Y-14300293D02*
X10987444Y-14252674D01*
X10987444Y-14252674D02*
X10996967Y-14214579D01*
X10996967Y-14214579D02*
X11006491Y-14195531D01*
X11006491Y-14195531D02*
X11016015Y-14186008D01*
X11016015Y-14186008D02*
X11035063Y-14176484D01*
X11225539Y-14176484D02*
X11244586Y-14176484D01*
X11244586Y-14176484D02*
X11263634Y-14186008D01*
X11263634Y-14186008D02*
X11273158Y-14195531D01*
X11273158Y-14195531D02*
X11282682Y-14214579D01*
X11282682Y-14214579D02*
X11292205Y-14252674D01*
X11292205Y-14252674D02*
X11292205Y-14300293D01*
X11292205Y-14300293D02*
X11282682Y-14338388D01*
X11282682Y-14338388D02*
X11273158Y-14357436D01*
X11273158Y-14357436D02*
X11263634Y-14366960D01*
X11263634Y-14366960D02*
X11244586Y-14376484D01*
X11244586Y-14376484D02*
X11225539Y-14376484D01*
X11225539Y-14376484D02*
X11206491Y-14366960D01*
X11206491Y-14366960D02*
X11196967Y-14357436D01*
X11196967Y-14357436D02*
X11187443Y-14338388D01*
X11187443Y-14338388D02*
X11177920Y-14300293D01*
X11177920Y-14300293D02*
X11177920Y-14252674D01*
X11177920Y-14252674D02*
X11187443Y-14214579D01*
X11187443Y-14214579D02*
X11196967Y-14195531D01*
X11196967Y-14195531D02*
X11206491Y-14186008D01*
X11206491Y-14186008D02*
X11225539Y-14176484D01*
X11377920Y-14376484D02*
X11377920Y-14243150D01*
X11377920Y-14262198D02*
X11387443Y-14252674D01*
X11387443Y-14252674D02*
X11406491Y-14243150D01*
X11406491Y-14243150D02*
X11435063Y-14243150D01*
X11435063Y-14243150D02*
X11454110Y-14252674D01*
X11454110Y-14252674D02*
X11463634Y-14271722D01*
X11463634Y-14271722D02*
X11463634Y-14376484D01*
X11463634Y-14271722D02*
X11473158Y-14252674D01*
X11473158Y-14252674D02*
X11492205Y-14243150D01*
X11492205Y-14243150D02*
X11520777Y-14243150D01*
X11520777Y-14243150D02*
X11539824Y-14252674D01*
X11539824Y-14252674D02*
X11549348Y-14271722D01*
X11549348Y-14271722D02*
X11549348Y-14376484D01*
X11644586Y-14376484D02*
X11644586Y-14243150D01*
X11644586Y-14262198D02*
X11654110Y-14252674D01*
X11654110Y-14252674D02*
X11673158Y-14243150D01*
X11673158Y-14243150D02*
X11701729Y-14243150D01*
X11701729Y-14243150D02*
X11720777Y-14252674D01*
X11720777Y-14252674D02*
X11730301Y-14271722D01*
X11730301Y-14271722D02*
X11730301Y-14376484D01*
X11730301Y-14271722D02*
X11739824Y-14252674D01*
X11739824Y-14252674D02*
X11758872Y-14243150D01*
X11758872Y-14243150D02*
X11787443Y-14243150D01*
X11787443Y-14243150D02*
X11806491Y-14252674D01*
X11806491Y-14252674D02*
X11816015Y-14271722D01*
X11816015Y-14271722D02*
X11816015Y-14376484D01*
X12206491Y-14166960D02*
X12035063Y-14424103D01*
X12463634Y-14176484D02*
X12482682Y-14176484D01*
X12482682Y-14176484D02*
X12501729Y-14186008D01*
X12501729Y-14186008D02*
X12511253Y-14195531D01*
X12511253Y-14195531D02*
X12520777Y-14214579D01*
X12520777Y-14214579D02*
X12530301Y-14252674D01*
X12530301Y-14252674D02*
X12530301Y-14300293D01*
X12530301Y-14300293D02*
X12520777Y-14338388D01*
X12520777Y-14338388D02*
X12511253Y-14357436D01*
X12511253Y-14357436D02*
X12501729Y-14366960D01*
X12501729Y-14366960D02*
X12482682Y-14376484D01*
X12482682Y-14376484D02*
X12463634Y-14376484D01*
X12463634Y-14376484D02*
X12444586Y-14366960D01*
X12444586Y-14366960D02*
X12435063Y-14357436D01*
X12435063Y-14357436D02*
X12425539Y-14338388D01*
X12425539Y-14338388D02*
X12416015Y-14300293D01*
X12416015Y-14300293D02*
X12416015Y-14252674D01*
X12416015Y-14252674D02*
X12425539Y-14214579D01*
X12425539Y-14214579D02*
X12435063Y-14195531D01*
X12435063Y-14195531D02*
X12444586Y-14186008D01*
X12444586Y-14186008D02*
X12463634Y-14176484D01*
X12616015Y-14357436D02*
X12625539Y-14366960D01*
X12625539Y-14366960D02*
X12616015Y-14376484D01*
X12616015Y-14376484D02*
X12606491Y-14366960D01*
X12606491Y-14366960D02*
X12616015Y-14357436D01*
X12616015Y-14357436D02*
X12616015Y-14376484D01*
X12816015Y-14376484D02*
X12701729Y-14376484D01*
X12758872Y-14376484D02*
X12758872Y-14176484D01*
X12758872Y-14176484D02*
X12739825Y-14205055D01*
X12739825Y-14205055D02*
X12720777Y-14224103D01*
X12720777Y-14224103D02*
X12701729Y-14233627D01*
X12892206Y-14195531D02*
X12901729Y-14186008D01*
X12901729Y-14186008D02*
X12920777Y-14176484D01*
X12920777Y-14176484D02*
X12968396Y-14176484D01*
X12968396Y-14176484D02*
X12987444Y-14186008D01*
X12987444Y-14186008D02*
X12996967Y-14195531D01*
X12996967Y-14195531D02*
X13006491Y-14214579D01*
X13006491Y-14214579D02*
X13006491Y-14233627D01*
X13006491Y-14233627D02*
X12996967Y-14262198D01*
X12996967Y-14262198D02*
X12882682Y-14376484D01*
X12882682Y-14376484D02*
X13006491Y-14376484D01*
X13177920Y-14176484D02*
X13139825Y-14176484D01*
X13139825Y-14176484D02*
X13120777Y-14186008D01*
X13120777Y-14186008D02*
X13111253Y-14195531D01*
X13111253Y-14195531D02*
X13092206Y-14224103D01*
X13092206Y-14224103D02*
X13082682Y-14262198D01*
X13082682Y-14262198D02*
X13082682Y-14338388D01*
X13082682Y-14338388D02*
X13092206Y-14357436D01*
X13092206Y-14357436D02*
X13101729Y-14366960D01*
X13101729Y-14366960D02*
X13120777Y-14376484D01*
X13120777Y-14376484D02*
X13158872Y-14376484D01*
X13158872Y-14376484D02*
X13177920Y-14366960D01*
X13177920Y-14366960D02*
X13187444Y-14357436D01*
X13187444Y-14357436D02*
X13196967Y-14338388D01*
X13196967Y-14338388D02*
X13196967Y-14290769D01*
X13196967Y-14290769D02*
X13187444Y-14271722D01*
X13187444Y-14271722D02*
X13177920Y-14262198D01*
X13177920Y-14262198D02*
X13158872Y-14252674D01*
X13158872Y-14252674D02*
X13120777Y-14252674D01*
X13120777Y-14252674D02*
X13101729Y-14262198D01*
X13101729Y-14262198D02*
X13092206Y-14271722D01*
X13092206Y-14271722D02*
X13082682Y-14290769D01*
X13320777Y-14176484D02*
X13339825Y-14176484D01*
X13339825Y-14176484D02*
X13358872Y-14186008D01*
X13358872Y-14186008D02*
X13368396Y-14195531D01*
X13368396Y-14195531D02*
X13377920Y-14214579D01*
X13377920Y-14214579D02*
X13387444Y-14252674D01*
X13387444Y-14252674D02*
X13387444Y-14300293D01*
X13387444Y-14300293D02*
X13377920Y-14338388D01*
X13377920Y-14338388D02*
X13368396Y-14357436D01*
X13368396Y-14357436D02*
X13358872Y-14366960D01*
X13358872Y-14366960D02*
X13339825Y-14376484D01*
X13339825Y-14376484D02*
X13320777Y-14376484D01*
X13320777Y-14376484D02*
X13301729Y-14366960D01*
X13301729Y-14366960D02*
X13292206Y-14357436D01*
X13292206Y-14357436D02*
X13282682Y-14338388D01*
X13282682Y-14338388D02*
X13273158Y-14300293D01*
X13273158Y-14300293D02*
X13273158Y-14252674D01*
X13273158Y-14252674D02*
X13282682Y-14214579D01*
X13282682Y-14214579D02*
X13292206Y-14195531D01*
X13292206Y-14195531D02*
X13301729Y-14186008D01*
X13301729Y-14186008D02*
X13320777Y-14176484D01*
X13463634Y-14176484D02*
X13463634Y-14214579D01*
X13539825Y-14176484D02*
X13539825Y-14214579D01*
X13835063Y-14452674D02*
X13825539Y-14443150D01*
X13825539Y-14443150D02*
X13806491Y-14414579D01*
X13806491Y-14414579D02*
X13796968Y-14395531D01*
X13796968Y-14395531D02*
X13787444Y-14366960D01*
X13787444Y-14366960D02*
X13777920Y-14319341D01*
X13777920Y-14319341D02*
X13777920Y-14281246D01*
X13777920Y-14281246D02*
X13787444Y-14233627D01*
X13787444Y-14233627D02*
X13796968Y-14205055D01*
X13796968Y-14205055D02*
X13806491Y-14186008D01*
X13806491Y-14186008D02*
X13825539Y-14157436D01*
X13825539Y-14157436D02*
X13835063Y-14147912D01*
X13996968Y-14243150D02*
X13996968Y-14376484D01*
X13949348Y-14166960D02*
X13901729Y-14309817D01*
X13901729Y-14309817D02*
X14025539Y-14309817D01*
X14254110Y-14376484D02*
X14254110Y-14176484D01*
X14339825Y-14376484D02*
X14339825Y-14271722D01*
X14339825Y-14271722D02*
X14330301Y-14252674D01*
X14330301Y-14252674D02*
X14311253Y-14243150D01*
X14311253Y-14243150D02*
X14282682Y-14243150D01*
X14282682Y-14243150D02*
X14263634Y-14252674D01*
X14263634Y-14252674D02*
X14254110Y-14262198D01*
X14463634Y-14376484D02*
X14444587Y-14366960D01*
X14444587Y-14366960D02*
X14435063Y-14357436D01*
X14435063Y-14357436D02*
X14425539Y-14338388D01*
X14425539Y-14338388D02*
X14425539Y-14281246D01*
X14425539Y-14281246D02*
X14435063Y-14262198D01*
X14435063Y-14262198D02*
X14444587Y-14252674D01*
X14444587Y-14252674D02*
X14463634Y-14243150D01*
X14463634Y-14243150D02*
X14492206Y-14243150D01*
X14492206Y-14243150D02*
X14511253Y-14252674D01*
X14511253Y-14252674D02*
X14520777Y-14262198D01*
X14520777Y-14262198D02*
X14530301Y-14281246D01*
X14530301Y-14281246D02*
X14530301Y-14338388D01*
X14530301Y-14338388D02*
X14520777Y-14357436D01*
X14520777Y-14357436D02*
X14511253Y-14366960D01*
X14511253Y-14366960D02*
X14492206Y-14376484D01*
X14492206Y-14376484D02*
X14463634Y-14376484D01*
X14644587Y-14376484D02*
X14625539Y-14366960D01*
X14625539Y-14366960D02*
X14616015Y-14347912D01*
X14616015Y-14347912D02*
X14616015Y-14176484D01*
X14796968Y-14366960D02*
X14777920Y-14376484D01*
X14777920Y-14376484D02*
X14739825Y-14376484D01*
X14739825Y-14376484D02*
X14720777Y-14366960D01*
X14720777Y-14366960D02*
X14711253Y-14347912D01*
X14711253Y-14347912D02*
X14711253Y-14271722D01*
X14711253Y-14271722D02*
X14720777Y-14252674D01*
X14720777Y-14252674D02*
X14739825Y-14243150D01*
X14739825Y-14243150D02*
X14777920Y-14243150D01*
X14777920Y-14243150D02*
X14796968Y-14252674D01*
X14796968Y-14252674D02*
X14806491Y-14271722D01*
X14806491Y-14271722D02*
X14806491Y-14290769D01*
X14806491Y-14290769D02*
X14711253Y-14309817D01*
X14882682Y-14366960D02*
X14901730Y-14376484D01*
X14901730Y-14376484D02*
X14939825Y-14376484D01*
X14939825Y-14376484D02*
X14958872Y-14366960D01*
X14958872Y-14366960D02*
X14968396Y-14347912D01*
X14968396Y-14347912D02*
X14968396Y-14338388D01*
X14968396Y-14338388D02*
X14958872Y-14319341D01*
X14958872Y-14319341D02*
X14939825Y-14309817D01*
X14939825Y-14309817D02*
X14911253Y-14309817D01*
X14911253Y-14309817D02*
X14892206Y-14300293D01*
X14892206Y-14300293D02*
X14882682Y-14281246D01*
X14882682Y-14281246D02*
X14882682Y-14271722D01*
X14882682Y-14271722D02*
X14892206Y-14252674D01*
X14892206Y-14252674D02*
X14911253Y-14243150D01*
X14911253Y-14243150D02*
X14939825Y-14243150D01*
X14939825Y-14243150D02*
X14958872Y-14252674D01*
X15035063Y-14452674D02*
X15044587Y-14443150D01*
X15044587Y-14443150D02*
X15063634Y-14414579D01*
X15063634Y-14414579D02*
X15073158Y-14395531D01*
X15073158Y-14395531D02*
X15082682Y-14366960D01*
X15082682Y-14366960D02*
X15092206Y-14319341D01*
X15092206Y-14319341D02*
X15092206Y-14281246D01*
X15092206Y-14281246D02*
X15082682Y-14233627D01*
X15082682Y-14233627D02*
X15073158Y-14205055D01*
X15073158Y-14205055D02*
X15063634Y-14186008D01*
X15063634Y-14186008D02*
X15044587Y-14157436D01*
X15044587Y-14157436D02*
X15035063Y-14147912D01*
X15396968Y-14452674D02*
X15387444Y-14443150D01*
X15387444Y-14443150D02*
X15368396Y-14414579D01*
X15368396Y-14414579D02*
X15358872Y-14395531D01*
X15358872Y-14395531D02*
X15349349Y-14366960D01*
X15349349Y-14366960D02*
X15339825Y-14319341D01*
X15339825Y-14319341D02*
X15339825Y-14281246D01*
X15339825Y-14281246D02*
X15349349Y-14233627D01*
X15349349Y-14233627D02*
X15358872Y-14205055D01*
X15358872Y-14205055D02*
X15368396Y-14186008D01*
X15368396Y-14186008D02*
X15387444Y-14157436D01*
X15387444Y-14157436D02*
X15396968Y-14147912D01*
X15473158Y-14243150D02*
X15473158Y-14376484D01*
X15473158Y-14262198D02*
X15482682Y-14252674D01*
X15482682Y-14252674D02*
X15501730Y-14243150D01*
X15501730Y-14243150D02*
X15530301Y-14243150D01*
X15530301Y-14243150D02*
X15549349Y-14252674D01*
X15549349Y-14252674D02*
X15558872Y-14271722D01*
X15558872Y-14271722D02*
X15558872Y-14376484D01*
X15682682Y-14376484D02*
X15663634Y-14366960D01*
X15663634Y-14366960D02*
X15654111Y-14357436D01*
X15654111Y-14357436D02*
X15644587Y-14338388D01*
X15644587Y-14338388D02*
X15644587Y-14281246D01*
X15644587Y-14281246D02*
X15654111Y-14262198D01*
X15654111Y-14262198D02*
X15663634Y-14252674D01*
X15663634Y-14252674D02*
X15682682Y-14243150D01*
X15682682Y-14243150D02*
X15711253Y-14243150D01*
X15711253Y-14243150D02*
X15730301Y-14252674D01*
X15730301Y-14252674D02*
X15739825Y-14262198D01*
X15739825Y-14262198D02*
X15749349Y-14281246D01*
X15749349Y-14281246D02*
X15749349Y-14338388D01*
X15749349Y-14338388D02*
X15739825Y-14357436D01*
X15739825Y-14357436D02*
X15730301Y-14366960D01*
X15730301Y-14366960D02*
X15711253Y-14376484D01*
X15711253Y-14376484D02*
X15682682Y-14376484D01*
X15806492Y-14243150D02*
X15882682Y-14243150D01*
X15835063Y-14176484D02*
X15835063Y-14347912D01*
X15835063Y-14347912D02*
X15844587Y-14366960D01*
X15844587Y-14366960D02*
X15863634Y-14376484D01*
X15863634Y-14376484D02*
X15882682Y-14376484D01*
X16101730Y-14243150D02*
X16101730Y-14443150D01*
X16101730Y-14252674D02*
X16120777Y-14243150D01*
X16120777Y-14243150D02*
X16158873Y-14243150D01*
X16158873Y-14243150D02*
X16177920Y-14252674D01*
X16177920Y-14252674D02*
X16187444Y-14262198D01*
X16187444Y-14262198D02*
X16196968Y-14281246D01*
X16196968Y-14281246D02*
X16196968Y-14338388D01*
X16196968Y-14338388D02*
X16187444Y-14357436D01*
X16187444Y-14357436D02*
X16177920Y-14366960D01*
X16177920Y-14366960D02*
X16158873Y-14376484D01*
X16158873Y-14376484D02*
X16120777Y-14376484D01*
X16120777Y-14376484D02*
X16101730Y-14366960D01*
X16311253Y-14376484D02*
X16292206Y-14366960D01*
X16292206Y-14366960D02*
X16282682Y-14347912D01*
X16282682Y-14347912D02*
X16282682Y-14176484D01*
X16473158Y-14376484D02*
X16473158Y-14271722D01*
X16473158Y-14271722D02*
X16463634Y-14252674D01*
X16463634Y-14252674D02*
X16444587Y-14243150D01*
X16444587Y-14243150D02*
X16406492Y-14243150D01*
X16406492Y-14243150D02*
X16387444Y-14252674D01*
X16473158Y-14366960D02*
X16454111Y-14376484D01*
X16454111Y-14376484D02*
X16406492Y-14376484D01*
X16406492Y-14376484D02*
X16387444Y-14366960D01*
X16387444Y-14366960D02*
X16377920Y-14347912D01*
X16377920Y-14347912D02*
X16377920Y-14328865D01*
X16377920Y-14328865D02*
X16387444Y-14309817D01*
X16387444Y-14309817D02*
X16406492Y-14300293D01*
X16406492Y-14300293D02*
X16454111Y-14300293D01*
X16454111Y-14300293D02*
X16473158Y-14290769D01*
X16539825Y-14243150D02*
X16616015Y-14243150D01*
X16568396Y-14176484D02*
X16568396Y-14347912D01*
X16568396Y-14347912D02*
X16577920Y-14366960D01*
X16577920Y-14366960D02*
X16596968Y-14376484D01*
X16596968Y-14376484D02*
X16616015Y-14376484D01*
X16758873Y-14366960D02*
X16739825Y-14376484D01*
X16739825Y-14376484D02*
X16701730Y-14376484D01*
X16701730Y-14376484D02*
X16682682Y-14366960D01*
X16682682Y-14366960D02*
X16673158Y-14347912D01*
X16673158Y-14347912D02*
X16673158Y-14271722D01*
X16673158Y-14271722D02*
X16682682Y-14252674D01*
X16682682Y-14252674D02*
X16701730Y-14243150D01*
X16701730Y-14243150D02*
X16739825Y-14243150D01*
X16739825Y-14243150D02*
X16758873Y-14252674D01*
X16758873Y-14252674D02*
X16768396Y-14271722D01*
X16768396Y-14271722D02*
X16768396Y-14290769D01*
X16768396Y-14290769D02*
X16673158Y-14309817D01*
X16939825Y-14376484D02*
X16939825Y-14176484D01*
X16939825Y-14366960D02*
X16920777Y-14376484D01*
X16920777Y-14376484D02*
X16882682Y-14376484D01*
X16882682Y-14376484D02*
X16863635Y-14366960D01*
X16863635Y-14366960D02*
X16854111Y-14357436D01*
X16854111Y-14357436D02*
X16844587Y-14338388D01*
X16844587Y-14338388D02*
X16844587Y-14281246D01*
X16844587Y-14281246D02*
X16854111Y-14262198D01*
X16854111Y-14262198D02*
X16863635Y-14252674D01*
X16863635Y-14252674D02*
X16882682Y-14243150D01*
X16882682Y-14243150D02*
X16920777Y-14243150D01*
X16920777Y-14243150D02*
X16939825Y-14252674D01*
X17016016Y-14452674D02*
X17025539Y-14443150D01*
X17025539Y-14443150D02*
X17044587Y-14414579D01*
X17044587Y-14414579D02*
X17054111Y-14395531D01*
X17054111Y-14395531D02*
X17063635Y-14366960D01*
X17063635Y-14366960D02*
X17073158Y-14319341D01*
X17073158Y-14319341D02*
X17073158Y-14281246D01*
X17073158Y-14281246D02*
X17063635Y-14233627D01*
X17063635Y-14233627D02*
X17054111Y-14205055D01*
X17054111Y-14205055D02*
X17044587Y-14186008D01*
X17044587Y-14186008D02*
X17025539Y-14157436D01*
X17025539Y-14157436D02*
X17016016Y-14147912D01*
M02*
