M48
; DRILL file {KiCad 6.0.5-2.fc35} date Mon 23 May 2022 01:40:06 PM MDT
; FORMAT={-:-/ absolute / metric / decimal}
; #@! TF.CreationDate,2022-05-23T13:40:06-06:00
; #@! TF.GenerationSoftware,Kicad,Pcbnew,6.0.5-2.fc35
; #@! TF.FileFunction,Plated,1,2,PTH
FMAT,2
METRIC
; #@! TA.AperFunction,Plated,PTH,ViaDrill
T1C0.500
; #@! TA.AperFunction,Plated,PTH,ComponentDrill
T2C1.000
%
G90
G05
T1
X105.65Y-101.65
X108.067Y-89.5
X108.067Y-113.8
X114.949Y-79.199
X114.949Y-124.101
X125.25Y-72.317
X125.25Y-130.983
X137.4Y-69.9
X137.4Y-133.4
X149.55Y-72.317
X149.55Y-130.983
X159.851Y-79.199
X159.851Y-124.101
X166.733Y-89.5
X166.733Y-113.8
X169.15Y-101.65
T2
X105.946Y-107.83
X106.0Y-95.344
X110.673Y-119.386
X110.829Y-83.83
X119.464Y-128.253
X119.696Y-75.04
X129.755Y-94.032
X129.755Y-96.572
X129.755Y-99.112
X129.755Y-101.652
X129.755Y-104.192
X129.755Y-106.732
X129.755Y-109.272
X130.978Y-133.082
X143.464Y-133.136
X145.055Y-94.032
X145.055Y-96.572
X145.055Y-99.112
X145.055Y-101.652
X145.055Y-104.192
X145.055Y-106.732
X145.055Y-109.272
X155.02Y-128.409
X155.252Y-75.195
X163.887Y-119.618
X164.042Y-84.062
X168.715Y-108.104
X168.77Y-95.618
T0
M30
