%FSLAX45Y45*%
G04 Gerber Fmt 4.5, Leading zero omitted, Abs format (unit mm)*
G04 Created by KiCad (PCBNEW 6.0.5-2.fc35) date 2022-05-23 13:40:10*
%MOMM*%
%LPD*%
G01*
G04 APERTURE LIST*
%TA.AperFunction,Profile*%
%ADD10C,0.100000*%
%TD*%
%ADD11C,0.200000*%
%ADD12C,0.050000*%
%ADD13C,0.100000*%
G04 APERTURE END LIST*
D10*
X17215000Y-10165000D02*
G75*
G03*
X17215000Y-10165000I-3475000J0D01*
G01*
D11*
D12*
X10540000Y-10140000D02*
X10590000Y-10190000D01*
X10590000Y-10140000D02*
X10540000Y-10190000D01*
X10781683Y-8924980D02*
X10831683Y-8974980D01*
X10831683Y-8924980D02*
X10781683Y-8974980D01*
X10781683Y-11355020D02*
X10831683Y-11405020D01*
X10831683Y-11355020D02*
X10781683Y-11405020D01*
X11469936Y-7894936D02*
X11519936Y-7944936D01*
X11519936Y-7894936D02*
X11469936Y-7944936D01*
X11469936Y-12385064D02*
X11519936Y-12435064D01*
X11519936Y-12385064D02*
X11469936Y-12435064D01*
X12499980Y-7206682D02*
X12549980Y-7256682D01*
X12549980Y-7206682D02*
X12499980Y-7256682D01*
X12499980Y-13073317D02*
X12549980Y-13123317D01*
X12549980Y-13073317D02*
X12499980Y-13123317D01*
X13715000Y-6965000D02*
X13765000Y-7015000D01*
X13765000Y-6965000D02*
X13715000Y-7015000D01*
X13715000Y-13315000D02*
X13765000Y-13365000D01*
X13765000Y-13315000D02*
X13715000Y-13365000D01*
X14930020Y-7206682D02*
X14980020Y-7256682D01*
X14980020Y-7206682D02*
X14930020Y-7256682D01*
X14930020Y-13073317D02*
X14980020Y-13123317D01*
X14980020Y-13073317D02*
X14930020Y-13123317D01*
X15960064Y-7894936D02*
X16010064Y-7944936D01*
X16010064Y-7894936D02*
X15960064Y-7944936D01*
X15960064Y-12385064D02*
X16010064Y-12435064D01*
X16010064Y-12385064D02*
X15960064Y-12435064D01*
X16648317Y-8924980D02*
X16698317Y-8974980D01*
X16698317Y-8924980D02*
X16648317Y-8974980D01*
X16648317Y-11355020D02*
X16698317Y-11405020D01*
X16698317Y-11355020D02*
X16648317Y-11405020D01*
X16890000Y-10140000D02*
X16940000Y-10190000D01*
X16940000Y-10140000D02*
X16890000Y-10190000D01*
D13*
X10644574Y-10783011D02*
G75*
G03*
X10644574Y-10783011I-50000J0D01*
G01*
X10650022Y-9534445D02*
G75*
G03*
X10650022Y-9534445I-50000J0D01*
G01*
X11117346Y-11938620D02*
G75*
G03*
X11117346Y-11938620I-50000J0D01*
G01*
X11132861Y-8383005D02*
G75*
G03*
X11132861Y-8383005I-50000J0D01*
G01*
X11996364Y-12825342D02*
G75*
G03*
X11996364Y-12825342I-50000J0D01*
G01*
X12019583Y-7503987D02*
G75*
G03*
X12019583Y-7503987I-50000J0D01*
G01*
X13025530Y-9403218D02*
G75*
G03*
X13025530Y-9403218I-50000J0D01*
G01*
X13025530Y-9657218D02*
G75*
G03*
X13025530Y-9657218I-50000J0D01*
G01*
X13025530Y-9911218D02*
G75*
G03*
X13025530Y-9911218I-50000J0D01*
G01*
X13025530Y-10165218D02*
G75*
G03*
X13025530Y-10165218I-50000J0D01*
G01*
X13025530Y-10419218D02*
G75*
G03*
X13025530Y-10419218I-50000J0D01*
G01*
X13025530Y-10673218D02*
G75*
G03*
X13025530Y-10673218I-50000J0D01*
G01*
X13025530Y-10927218D02*
G75*
G03*
X13025530Y-10927218I-50000J0D01*
G01*
X13147804Y-13308181D02*
G75*
G03*
X13147804Y-13308181I-50000J0D01*
G01*
X14396370Y-13313629D02*
G75*
G03*
X14396370Y-13313629I-50000J0D01*
G01*
X14555550Y-9403218D02*
G75*
G03*
X14555550Y-9403218I-50000J0D01*
G01*
X14555550Y-9657218D02*
G75*
G03*
X14555550Y-9657218I-50000J0D01*
G01*
X14555550Y-9911218D02*
G75*
G03*
X14555550Y-9911218I-50000J0D01*
G01*
X14555550Y-10165218D02*
G75*
G03*
X14555550Y-10165218I-50000J0D01*
G01*
X14555550Y-10419218D02*
G75*
G03*
X14555550Y-10419218I-50000J0D01*
G01*
X14555550Y-10673218D02*
G75*
G03*
X14555550Y-10673218I-50000J0D01*
G01*
X14555550Y-10927218D02*
G75*
G03*
X14555550Y-10927218I-50000J0D01*
G01*
X15551979Y-12840857D02*
G75*
G03*
X15551979Y-12840857I-50000J0D01*
G01*
X15575198Y-7519502D02*
G75*
G03*
X15575198Y-7519502I-50000J0D01*
G01*
X16438701Y-11961839D02*
G75*
G03*
X16438701Y-11961839I-50000J0D01*
G01*
X16454216Y-8406224D02*
G75*
G03*
X16454216Y-8406224I-50000J0D01*
G01*
X16921540Y-10810399D02*
G75*
G03*
X16921540Y-10810399I-50000J0D01*
G01*
X16926988Y-9561833D02*
G75*
G03*
X16926988Y-9561833I-50000J0D01*
G01*
D11*
X10517619Y-13955476D02*
X10517619Y-13755476D01*
X10565238Y-13755476D01*
X10593810Y-13765000D01*
X10612857Y-13784048D01*
X10622381Y-13803095D01*
X10631905Y-13841190D01*
X10631905Y-13869762D01*
X10622381Y-13907857D01*
X10612857Y-13926905D01*
X10593810Y-13945952D01*
X10565238Y-13955476D01*
X10517619Y-13955476D01*
X10717619Y-13955476D02*
X10717619Y-13822143D01*
X10717619Y-13860238D02*
X10727143Y-13841190D01*
X10736667Y-13831667D01*
X10755714Y-13822143D01*
X10774762Y-13822143D01*
X10841429Y-13955476D02*
X10841429Y-13822143D01*
X10841429Y-13755476D02*
X10831905Y-13765000D01*
X10841429Y-13774524D01*
X10850952Y-13765000D01*
X10841429Y-13755476D01*
X10841429Y-13774524D01*
X10965238Y-13955476D02*
X10946190Y-13945952D01*
X10936667Y-13926905D01*
X10936667Y-13755476D01*
X11070000Y-13955476D02*
X11050952Y-13945952D01*
X11041429Y-13926905D01*
X11041429Y-13755476D01*
X11298571Y-13955476D02*
X11298571Y-13755476D01*
X11365238Y-13898333D01*
X11431905Y-13755476D01*
X11431905Y-13955476D01*
X11612857Y-13955476D02*
X11612857Y-13850714D01*
X11603333Y-13831667D01*
X11584286Y-13822143D01*
X11546190Y-13822143D01*
X11527143Y-13831667D01*
X11612857Y-13945952D02*
X11593809Y-13955476D01*
X11546190Y-13955476D01*
X11527143Y-13945952D01*
X11517619Y-13926905D01*
X11517619Y-13907857D01*
X11527143Y-13888809D01*
X11546190Y-13879286D01*
X11593809Y-13879286D01*
X11612857Y-13869762D01*
X11708095Y-13822143D02*
X11708095Y-14022143D01*
X11708095Y-13831667D02*
X11727143Y-13822143D01*
X11765238Y-13822143D01*
X11784286Y-13831667D01*
X11793809Y-13841190D01*
X11803333Y-13860238D01*
X11803333Y-13917381D01*
X11793809Y-13936428D01*
X11784286Y-13945952D01*
X11765238Y-13955476D01*
X11727143Y-13955476D01*
X11708095Y-13945952D01*
X11889048Y-13936428D02*
X11898571Y-13945952D01*
X11889048Y-13955476D01*
X11879524Y-13945952D01*
X11889048Y-13936428D01*
X11889048Y-13955476D01*
X11889048Y-13831667D02*
X11898571Y-13841190D01*
X11889048Y-13850714D01*
X11879524Y-13841190D01*
X11889048Y-13831667D01*
X11889048Y-13850714D01*
D12*
X10210000Y-14260000D02*
X10260000Y-14310000D01*
X10260000Y-14260000D02*
X10210000Y-14310000D01*
D11*
X10555714Y-14175476D02*
X10574762Y-14175476D01*
X10593810Y-14185000D01*
X10603333Y-14194524D01*
X10612857Y-14213571D01*
X10622381Y-14251667D01*
X10622381Y-14299286D01*
X10612857Y-14337381D01*
X10603333Y-14356428D01*
X10593810Y-14365952D01*
X10574762Y-14375476D01*
X10555714Y-14375476D01*
X10536667Y-14365952D01*
X10527143Y-14356428D01*
X10517619Y-14337381D01*
X10508095Y-14299286D01*
X10508095Y-14251667D01*
X10517619Y-14213571D01*
X10527143Y-14194524D01*
X10536667Y-14185000D01*
X10555714Y-14175476D01*
X10708095Y-14356428D02*
X10717619Y-14365952D01*
X10708095Y-14375476D01*
X10698571Y-14365952D01*
X10708095Y-14356428D01*
X10708095Y-14375476D01*
X10898571Y-14175476D02*
X10803333Y-14175476D01*
X10793810Y-14270714D01*
X10803333Y-14261190D01*
X10822381Y-14251667D01*
X10870000Y-14251667D01*
X10889048Y-14261190D01*
X10898571Y-14270714D01*
X10908095Y-14289762D01*
X10908095Y-14337381D01*
X10898571Y-14356428D01*
X10889048Y-14365952D01*
X10870000Y-14375476D01*
X10822381Y-14375476D01*
X10803333Y-14365952D01*
X10793810Y-14356428D01*
X11031905Y-14175476D02*
X11050952Y-14175476D01*
X11070000Y-14185000D01*
X11079524Y-14194524D01*
X11089048Y-14213571D01*
X11098571Y-14251667D01*
X11098571Y-14299286D01*
X11089048Y-14337381D01*
X11079524Y-14356428D01*
X11070000Y-14365952D01*
X11050952Y-14375476D01*
X11031905Y-14375476D01*
X11012857Y-14365952D01*
X11003333Y-14356428D01*
X10993810Y-14337381D01*
X10984286Y-14299286D01*
X10984286Y-14251667D01*
X10993810Y-14213571D01*
X11003333Y-14194524D01*
X11012857Y-14185000D01*
X11031905Y-14175476D01*
X11222381Y-14175476D02*
X11241428Y-14175476D01*
X11260476Y-14185000D01*
X11270000Y-14194524D01*
X11279524Y-14213571D01*
X11289048Y-14251667D01*
X11289048Y-14299286D01*
X11279524Y-14337381D01*
X11270000Y-14356428D01*
X11260476Y-14365952D01*
X11241428Y-14375476D01*
X11222381Y-14375476D01*
X11203333Y-14365952D01*
X11193809Y-14356428D01*
X11184286Y-14337381D01*
X11174762Y-14299286D01*
X11174762Y-14251667D01*
X11184286Y-14213571D01*
X11193809Y-14194524D01*
X11203333Y-14185000D01*
X11222381Y-14175476D01*
X11374762Y-14375476D02*
X11374762Y-14242143D01*
X11374762Y-14261190D02*
X11384286Y-14251667D01*
X11403333Y-14242143D01*
X11431905Y-14242143D01*
X11450952Y-14251667D01*
X11460476Y-14270714D01*
X11460476Y-14375476D01*
X11460476Y-14270714D02*
X11470000Y-14251667D01*
X11489048Y-14242143D01*
X11517619Y-14242143D01*
X11536667Y-14251667D01*
X11546190Y-14270714D01*
X11546190Y-14375476D01*
X11641428Y-14375476D02*
X11641428Y-14242143D01*
X11641428Y-14261190D02*
X11650952Y-14251667D01*
X11670000Y-14242143D01*
X11698571Y-14242143D01*
X11717619Y-14251667D01*
X11727143Y-14270714D01*
X11727143Y-14375476D01*
X11727143Y-14270714D02*
X11736667Y-14251667D01*
X11755714Y-14242143D01*
X11784286Y-14242143D01*
X11803333Y-14251667D01*
X11812857Y-14270714D01*
X11812857Y-14375476D01*
X12203333Y-14165952D02*
X12031905Y-14423095D01*
X12460476Y-14175476D02*
X12479524Y-14175476D01*
X12498571Y-14185000D01*
X12508095Y-14194524D01*
X12517619Y-14213571D01*
X12527143Y-14251667D01*
X12527143Y-14299286D01*
X12517619Y-14337381D01*
X12508095Y-14356428D01*
X12498571Y-14365952D01*
X12479524Y-14375476D01*
X12460476Y-14375476D01*
X12441428Y-14365952D01*
X12431905Y-14356428D01*
X12422381Y-14337381D01*
X12412857Y-14299286D01*
X12412857Y-14251667D01*
X12422381Y-14213571D01*
X12431905Y-14194524D01*
X12441428Y-14185000D01*
X12460476Y-14175476D01*
X12612857Y-14356428D02*
X12622381Y-14365952D01*
X12612857Y-14375476D01*
X12603333Y-14365952D01*
X12612857Y-14356428D01*
X12612857Y-14375476D01*
X12746190Y-14175476D02*
X12765238Y-14175476D01*
X12784286Y-14185000D01*
X12793809Y-14194524D01*
X12803333Y-14213571D01*
X12812857Y-14251667D01*
X12812857Y-14299286D01*
X12803333Y-14337381D01*
X12793809Y-14356428D01*
X12784286Y-14365952D01*
X12765238Y-14375476D01*
X12746190Y-14375476D01*
X12727143Y-14365952D01*
X12717619Y-14356428D01*
X12708095Y-14337381D01*
X12698571Y-14299286D01*
X12698571Y-14251667D01*
X12708095Y-14213571D01*
X12717619Y-14194524D01*
X12727143Y-14185000D01*
X12746190Y-14175476D01*
X13003333Y-14375476D02*
X12889048Y-14375476D01*
X12946190Y-14375476D02*
X12946190Y-14175476D01*
X12927143Y-14204048D01*
X12908095Y-14223095D01*
X12889048Y-14232619D01*
X13098571Y-14375476D02*
X13136667Y-14375476D01*
X13155714Y-14365952D01*
X13165238Y-14356428D01*
X13184286Y-14327857D01*
X13193809Y-14289762D01*
X13193809Y-14213571D01*
X13184286Y-14194524D01*
X13174762Y-14185000D01*
X13155714Y-14175476D01*
X13117619Y-14175476D01*
X13098571Y-14185000D01*
X13089048Y-14194524D01*
X13079524Y-14213571D01*
X13079524Y-14261190D01*
X13089048Y-14280238D01*
X13098571Y-14289762D01*
X13117619Y-14299286D01*
X13155714Y-14299286D01*
X13174762Y-14289762D01*
X13184286Y-14280238D01*
X13193809Y-14261190D01*
X13260476Y-14175476D02*
X13393809Y-14175476D01*
X13308095Y-14375476D01*
X13460476Y-14175476D02*
X13460476Y-14213571D01*
X13536667Y-14175476D02*
X13536667Y-14213571D01*
X13831905Y-14451667D02*
X13822381Y-14442143D01*
X13803333Y-14413571D01*
X13793809Y-14394524D01*
X13784286Y-14365952D01*
X13774762Y-14318333D01*
X13774762Y-14280238D01*
X13784286Y-14232619D01*
X13793809Y-14204048D01*
X13803333Y-14185000D01*
X13822381Y-14156428D01*
X13831905Y-14146905D01*
X14012857Y-14375476D02*
X13898571Y-14375476D01*
X13955714Y-14375476D02*
X13955714Y-14175476D01*
X13936667Y-14204048D01*
X13917619Y-14223095D01*
X13898571Y-14232619D01*
X14184286Y-14175476D02*
X14146190Y-14175476D01*
X14127143Y-14185000D01*
X14117619Y-14194524D01*
X14098571Y-14223095D01*
X14089048Y-14261190D01*
X14089048Y-14337381D01*
X14098571Y-14356428D01*
X14108095Y-14365952D01*
X14127143Y-14375476D01*
X14165238Y-14375476D01*
X14184286Y-14365952D01*
X14193809Y-14356428D01*
X14203333Y-14337381D01*
X14203333Y-14289762D01*
X14193809Y-14270714D01*
X14184286Y-14261190D01*
X14165238Y-14251667D01*
X14127143Y-14251667D01*
X14108095Y-14261190D01*
X14098571Y-14270714D01*
X14089048Y-14289762D01*
X14441428Y-14375476D02*
X14441428Y-14175476D01*
X14527143Y-14375476D02*
X14527143Y-14270714D01*
X14517619Y-14251667D01*
X14498571Y-14242143D01*
X14470000Y-14242143D01*
X14450952Y-14251667D01*
X14441428Y-14261190D01*
X14650952Y-14375476D02*
X14631905Y-14365952D01*
X14622381Y-14356428D01*
X14612857Y-14337381D01*
X14612857Y-14280238D01*
X14622381Y-14261190D01*
X14631905Y-14251667D01*
X14650952Y-14242143D01*
X14679524Y-14242143D01*
X14698571Y-14251667D01*
X14708095Y-14261190D01*
X14717619Y-14280238D01*
X14717619Y-14337381D01*
X14708095Y-14356428D01*
X14698571Y-14365952D01*
X14679524Y-14375476D01*
X14650952Y-14375476D01*
X14831905Y-14375476D02*
X14812857Y-14365952D01*
X14803333Y-14346905D01*
X14803333Y-14175476D01*
X14984286Y-14365952D02*
X14965238Y-14375476D01*
X14927143Y-14375476D01*
X14908095Y-14365952D01*
X14898571Y-14346905D01*
X14898571Y-14270714D01*
X14908095Y-14251667D01*
X14927143Y-14242143D01*
X14965238Y-14242143D01*
X14984286Y-14251667D01*
X14993809Y-14270714D01*
X14993809Y-14289762D01*
X14898571Y-14308809D01*
X15070000Y-14365952D02*
X15089048Y-14375476D01*
X15127143Y-14375476D01*
X15146190Y-14365952D01*
X15155714Y-14346905D01*
X15155714Y-14337381D01*
X15146190Y-14318333D01*
X15127143Y-14308809D01*
X15098571Y-14308809D01*
X15079524Y-14299286D01*
X15070000Y-14280238D01*
X15070000Y-14270714D01*
X15079524Y-14251667D01*
X15098571Y-14242143D01*
X15127143Y-14242143D01*
X15146190Y-14251667D01*
X15222381Y-14451667D02*
X15231905Y-14442143D01*
X15250952Y-14413571D01*
X15260476Y-14394524D01*
X15270000Y-14365952D01*
X15279524Y-14318333D01*
X15279524Y-14280238D01*
X15270000Y-14232619D01*
X15260476Y-14204048D01*
X15250952Y-14185000D01*
X15231905Y-14156428D01*
X15222381Y-14146905D01*
D13*
X10260000Y-14549000D02*
G75*
G03*
X10260000Y-14549000I-50000J0D01*
G01*
D11*
X10622381Y-14639476D02*
X10508095Y-14639476D01*
X10565238Y-14639476D02*
X10565238Y-14439476D01*
X10546190Y-14468048D01*
X10527143Y-14487095D01*
X10508095Y-14496619D01*
X10708095Y-14620428D02*
X10717619Y-14629952D01*
X10708095Y-14639476D01*
X10698571Y-14629952D01*
X10708095Y-14620428D01*
X10708095Y-14639476D01*
X10841429Y-14439476D02*
X10860476Y-14439476D01*
X10879524Y-14449000D01*
X10889048Y-14458524D01*
X10898571Y-14477571D01*
X10908095Y-14515667D01*
X10908095Y-14563286D01*
X10898571Y-14601381D01*
X10889048Y-14620428D01*
X10879524Y-14629952D01*
X10860476Y-14639476D01*
X10841429Y-14639476D01*
X10822381Y-14629952D01*
X10812857Y-14620428D01*
X10803333Y-14601381D01*
X10793810Y-14563286D01*
X10793810Y-14515667D01*
X10803333Y-14477571D01*
X10812857Y-14458524D01*
X10822381Y-14449000D01*
X10841429Y-14439476D01*
X11031905Y-14439476D02*
X11050952Y-14439476D01*
X11070000Y-14449000D01*
X11079524Y-14458524D01*
X11089048Y-14477571D01*
X11098571Y-14515667D01*
X11098571Y-14563286D01*
X11089048Y-14601381D01*
X11079524Y-14620428D01*
X11070000Y-14629952D01*
X11050952Y-14639476D01*
X11031905Y-14639476D01*
X11012857Y-14629952D01*
X11003333Y-14620428D01*
X10993810Y-14601381D01*
X10984286Y-14563286D01*
X10984286Y-14515667D01*
X10993810Y-14477571D01*
X11003333Y-14458524D01*
X11012857Y-14449000D01*
X11031905Y-14439476D01*
X11222381Y-14439476D02*
X11241428Y-14439476D01*
X11260476Y-14449000D01*
X11270000Y-14458524D01*
X11279524Y-14477571D01*
X11289048Y-14515667D01*
X11289048Y-14563286D01*
X11279524Y-14601381D01*
X11270000Y-14620428D01*
X11260476Y-14629952D01*
X11241428Y-14639476D01*
X11222381Y-14639476D01*
X11203333Y-14629952D01*
X11193809Y-14620428D01*
X11184286Y-14601381D01*
X11174762Y-14563286D01*
X11174762Y-14515667D01*
X11184286Y-14477571D01*
X11193809Y-14458524D01*
X11203333Y-14449000D01*
X11222381Y-14439476D01*
X11374762Y-14639476D02*
X11374762Y-14506143D01*
X11374762Y-14525190D02*
X11384286Y-14515667D01*
X11403333Y-14506143D01*
X11431905Y-14506143D01*
X11450952Y-14515667D01*
X11460476Y-14534714D01*
X11460476Y-14639476D01*
X11460476Y-14534714D02*
X11470000Y-14515667D01*
X11489048Y-14506143D01*
X11517619Y-14506143D01*
X11536667Y-14515667D01*
X11546190Y-14534714D01*
X11546190Y-14639476D01*
X11641428Y-14639476D02*
X11641428Y-14506143D01*
X11641428Y-14525190D02*
X11650952Y-14515667D01*
X11670000Y-14506143D01*
X11698571Y-14506143D01*
X11717619Y-14515667D01*
X11727143Y-14534714D01*
X11727143Y-14639476D01*
X11727143Y-14534714D02*
X11736667Y-14515667D01*
X11755714Y-14506143D01*
X11784286Y-14506143D01*
X11803333Y-14515667D01*
X11812857Y-14534714D01*
X11812857Y-14639476D01*
X12203333Y-14429952D02*
X12031905Y-14687095D01*
X12460476Y-14439476D02*
X12479524Y-14439476D01*
X12498571Y-14449000D01*
X12508095Y-14458524D01*
X12517619Y-14477571D01*
X12527143Y-14515667D01*
X12527143Y-14563286D01*
X12517619Y-14601381D01*
X12508095Y-14620428D01*
X12498571Y-14629952D01*
X12479524Y-14639476D01*
X12460476Y-14639476D01*
X12441428Y-14629952D01*
X12431905Y-14620428D01*
X12422381Y-14601381D01*
X12412857Y-14563286D01*
X12412857Y-14515667D01*
X12422381Y-14477571D01*
X12431905Y-14458524D01*
X12441428Y-14449000D01*
X12460476Y-14439476D01*
X12612857Y-14620428D02*
X12622381Y-14629952D01*
X12612857Y-14639476D01*
X12603333Y-14629952D01*
X12612857Y-14620428D01*
X12612857Y-14639476D01*
X12746190Y-14439476D02*
X12765238Y-14439476D01*
X12784286Y-14449000D01*
X12793809Y-14458524D01*
X12803333Y-14477571D01*
X12812857Y-14515667D01*
X12812857Y-14563286D01*
X12803333Y-14601381D01*
X12793809Y-14620428D01*
X12784286Y-14629952D01*
X12765238Y-14639476D01*
X12746190Y-14639476D01*
X12727143Y-14629952D01*
X12717619Y-14620428D01*
X12708095Y-14601381D01*
X12698571Y-14563286D01*
X12698571Y-14515667D01*
X12708095Y-14477571D01*
X12717619Y-14458524D01*
X12727143Y-14449000D01*
X12746190Y-14439476D01*
X12879524Y-14439476D02*
X13003333Y-14439476D01*
X12936667Y-14515667D01*
X12965238Y-14515667D01*
X12984286Y-14525190D01*
X12993809Y-14534714D01*
X13003333Y-14553762D01*
X13003333Y-14601381D01*
X12993809Y-14620428D01*
X12984286Y-14629952D01*
X12965238Y-14639476D01*
X12908095Y-14639476D01*
X12889048Y-14629952D01*
X12879524Y-14620428D01*
X13098571Y-14639476D02*
X13136667Y-14639476D01*
X13155714Y-14629952D01*
X13165238Y-14620428D01*
X13184286Y-14591857D01*
X13193809Y-14553762D01*
X13193809Y-14477571D01*
X13184286Y-14458524D01*
X13174762Y-14449000D01*
X13155714Y-14439476D01*
X13117619Y-14439476D01*
X13098571Y-14449000D01*
X13089048Y-14458524D01*
X13079524Y-14477571D01*
X13079524Y-14525190D01*
X13089048Y-14544238D01*
X13098571Y-14553762D01*
X13117619Y-14563286D01*
X13155714Y-14563286D01*
X13174762Y-14553762D01*
X13184286Y-14544238D01*
X13193809Y-14525190D01*
X13365238Y-14506143D02*
X13365238Y-14639476D01*
X13317619Y-14429952D02*
X13270000Y-14572809D01*
X13393809Y-14572809D01*
X13460476Y-14439476D02*
X13460476Y-14477571D01*
X13536667Y-14439476D02*
X13536667Y-14477571D01*
X13831905Y-14715667D02*
X13822381Y-14706143D01*
X13803333Y-14677571D01*
X13793809Y-14658524D01*
X13784286Y-14629952D01*
X13774762Y-14582333D01*
X13774762Y-14544238D01*
X13784286Y-14496619D01*
X13793809Y-14468048D01*
X13803333Y-14449000D01*
X13822381Y-14420428D01*
X13831905Y-14410905D01*
X13898571Y-14458524D02*
X13908095Y-14449000D01*
X13927143Y-14439476D01*
X13974762Y-14439476D01*
X13993809Y-14449000D01*
X14003333Y-14458524D01*
X14012857Y-14477571D01*
X14012857Y-14496619D01*
X14003333Y-14525190D01*
X13889048Y-14639476D01*
X14012857Y-14639476D01*
X14127143Y-14525190D02*
X14108095Y-14515667D01*
X14098571Y-14506143D01*
X14089048Y-14487095D01*
X14089048Y-14477571D01*
X14098571Y-14458524D01*
X14108095Y-14449000D01*
X14127143Y-14439476D01*
X14165238Y-14439476D01*
X14184286Y-14449000D01*
X14193809Y-14458524D01*
X14203333Y-14477571D01*
X14203333Y-14487095D01*
X14193809Y-14506143D01*
X14184286Y-14515667D01*
X14165238Y-14525190D01*
X14127143Y-14525190D01*
X14108095Y-14534714D01*
X14098571Y-14544238D01*
X14089048Y-14563286D01*
X14089048Y-14601381D01*
X14098571Y-14620428D01*
X14108095Y-14629952D01*
X14127143Y-14639476D01*
X14165238Y-14639476D01*
X14184286Y-14629952D01*
X14193809Y-14620428D01*
X14203333Y-14601381D01*
X14203333Y-14563286D01*
X14193809Y-14544238D01*
X14184286Y-14534714D01*
X14165238Y-14525190D01*
X14441428Y-14639476D02*
X14441428Y-14439476D01*
X14527143Y-14639476D02*
X14527143Y-14534714D01*
X14517619Y-14515667D01*
X14498571Y-14506143D01*
X14470000Y-14506143D01*
X14450952Y-14515667D01*
X14441428Y-14525190D01*
X14650952Y-14639476D02*
X14631905Y-14629952D01*
X14622381Y-14620428D01*
X14612857Y-14601381D01*
X14612857Y-14544238D01*
X14622381Y-14525190D01*
X14631905Y-14515667D01*
X14650952Y-14506143D01*
X14679524Y-14506143D01*
X14698571Y-14515667D01*
X14708095Y-14525190D01*
X14717619Y-14544238D01*
X14717619Y-14601381D01*
X14708095Y-14620428D01*
X14698571Y-14629952D01*
X14679524Y-14639476D01*
X14650952Y-14639476D01*
X14831905Y-14639476D02*
X14812857Y-14629952D01*
X14803333Y-14610905D01*
X14803333Y-14439476D01*
X14984286Y-14629952D02*
X14965238Y-14639476D01*
X14927143Y-14639476D01*
X14908095Y-14629952D01*
X14898571Y-14610905D01*
X14898571Y-14534714D01*
X14908095Y-14515667D01*
X14927143Y-14506143D01*
X14965238Y-14506143D01*
X14984286Y-14515667D01*
X14993809Y-14534714D01*
X14993809Y-14553762D01*
X14898571Y-14572809D01*
X15070000Y-14629952D02*
X15089048Y-14639476D01*
X15127143Y-14639476D01*
X15146190Y-14629952D01*
X15155714Y-14610905D01*
X15155714Y-14601381D01*
X15146190Y-14582333D01*
X15127143Y-14572809D01*
X15098571Y-14572809D01*
X15079524Y-14563286D01*
X15070000Y-14544238D01*
X15070000Y-14534714D01*
X15079524Y-14515667D01*
X15098571Y-14506143D01*
X15127143Y-14506143D01*
X15146190Y-14515667D01*
X15222381Y-14715667D02*
X15231905Y-14706143D01*
X15250952Y-14677571D01*
X15260476Y-14658524D01*
X15270000Y-14629952D01*
X15279524Y-14582333D01*
X15279524Y-14544238D01*
X15270000Y-14496619D01*
X15260476Y-14468048D01*
X15250952Y-14449000D01*
X15231905Y-14420428D01*
X15222381Y-14410905D01*
M02*
