%FSLAX45Y45*%
G04 Gerber Fmt 4.5, Leading zero omitted, Abs format (unit mm)*
G04 Created by KiCad (PCBNEW 6.0.5-2.fc35) date 2022-05-23 13:40:10*
%MOMM*%
%LPD*%
G01*
G04 APERTURE LIST*
%TA.AperFunction,Profile*%
%ADD10C,0.100000*%
%TD*%
%ADD11C,0.200000*%
%ADD12C,0.320000*%
G04 APERTURE END LIST*
D10*
X17215000Y-10165000D02*
G75*
G03*
X17215000Y-10165000I-3475000J0D01*
G01*
D11*
D12*
X10880000Y-10005000D02*
X11200000Y-10325000D01*
X11200000Y-10005000D02*
X10880000Y-10325000D01*
X13580000Y-7305000D02*
X13900000Y-7625000D01*
X13900000Y-7305000D02*
X13580000Y-7625000D01*
X13580000Y-12705000D02*
X13900000Y-13025000D01*
X13900000Y-12705000D02*
X13580000Y-13025000D01*
X16280000Y-10005000D02*
X16600000Y-10325000D01*
X16600000Y-10005000D02*
X16280000Y-10325000D01*
D11*
X10517619Y-13955476D02*
X10517619Y-13755476D01*
X10565238Y-13755476D01*
X10593810Y-13765000D01*
X10612857Y-13784048D01*
X10622381Y-13803095D01*
X10631905Y-13841190D01*
X10631905Y-13869762D01*
X10622381Y-13907857D01*
X10612857Y-13926905D01*
X10593810Y-13945952D01*
X10565238Y-13955476D01*
X10517619Y-13955476D01*
X10717619Y-13955476D02*
X10717619Y-13822143D01*
X10717619Y-13860238D02*
X10727143Y-13841190D01*
X10736667Y-13831667D01*
X10755714Y-13822143D01*
X10774762Y-13822143D01*
X10841429Y-13955476D02*
X10841429Y-13822143D01*
X10841429Y-13755476D02*
X10831905Y-13765000D01*
X10841429Y-13774524D01*
X10850952Y-13765000D01*
X10841429Y-13755476D01*
X10841429Y-13774524D01*
X10965238Y-13955476D02*
X10946190Y-13945952D01*
X10936667Y-13926905D01*
X10936667Y-13755476D01*
X11070000Y-13955476D02*
X11050952Y-13945952D01*
X11041429Y-13926905D01*
X11041429Y-13755476D01*
X11298571Y-13955476D02*
X11298571Y-13755476D01*
X11365238Y-13898333D01*
X11431905Y-13755476D01*
X11431905Y-13955476D01*
X11612857Y-13955476D02*
X11612857Y-13850714D01*
X11603333Y-13831667D01*
X11584286Y-13822143D01*
X11546190Y-13822143D01*
X11527143Y-13831667D01*
X11612857Y-13945952D02*
X11593809Y-13955476D01*
X11546190Y-13955476D01*
X11527143Y-13945952D01*
X11517619Y-13926905D01*
X11517619Y-13907857D01*
X11527143Y-13888809D01*
X11546190Y-13879286D01*
X11593809Y-13879286D01*
X11612857Y-13869762D01*
X11708095Y-13822143D02*
X11708095Y-14022143D01*
X11708095Y-13831667D02*
X11727143Y-13822143D01*
X11765238Y-13822143D01*
X11784286Y-13831667D01*
X11793809Y-13841190D01*
X11803333Y-13860238D01*
X11803333Y-13917381D01*
X11793809Y-13936428D01*
X11784286Y-13945952D01*
X11765238Y-13955476D01*
X11727143Y-13955476D01*
X11708095Y-13945952D01*
X11889048Y-13936428D02*
X11898571Y-13945952D01*
X11889048Y-13955476D01*
X11879524Y-13945952D01*
X11889048Y-13936428D01*
X11889048Y-13955476D01*
X11889048Y-13831667D02*
X11898571Y-13841190D01*
X11889048Y-13850714D01*
X11879524Y-13841190D01*
X11889048Y-13831667D01*
X11889048Y-13850714D01*
X10060000Y-14185000D02*
X10260000Y-14385000D01*
X10260000Y-14185000D02*
X10060000Y-14385000D01*
X10498571Y-14175476D02*
X10622381Y-14175476D01*
X10555714Y-14251667D01*
X10584286Y-14251667D01*
X10603333Y-14261190D01*
X10612857Y-14270714D01*
X10622381Y-14289762D01*
X10622381Y-14337381D01*
X10612857Y-14356428D01*
X10603333Y-14365952D01*
X10584286Y-14375476D01*
X10527143Y-14375476D01*
X10508095Y-14365952D01*
X10498571Y-14356428D01*
X10708095Y-14356428D02*
X10717619Y-14365952D01*
X10708095Y-14375476D01*
X10698571Y-14365952D01*
X10708095Y-14356428D01*
X10708095Y-14375476D01*
X10793810Y-14194524D02*
X10803333Y-14185000D01*
X10822381Y-14175476D01*
X10870000Y-14175476D01*
X10889048Y-14185000D01*
X10898571Y-14194524D01*
X10908095Y-14213571D01*
X10908095Y-14232619D01*
X10898571Y-14261190D01*
X10784286Y-14375476D01*
X10908095Y-14375476D01*
X11031905Y-14175476D02*
X11050952Y-14175476D01*
X11070000Y-14185000D01*
X11079524Y-14194524D01*
X11089048Y-14213571D01*
X11098571Y-14251667D01*
X11098571Y-14299286D01*
X11089048Y-14337381D01*
X11079524Y-14356428D01*
X11070000Y-14365952D01*
X11050952Y-14375476D01*
X11031905Y-14375476D01*
X11012857Y-14365952D01*
X11003333Y-14356428D01*
X10993810Y-14337381D01*
X10984286Y-14299286D01*
X10984286Y-14251667D01*
X10993810Y-14213571D01*
X11003333Y-14194524D01*
X11012857Y-14185000D01*
X11031905Y-14175476D01*
X11222381Y-14175476D02*
X11241428Y-14175476D01*
X11260476Y-14185000D01*
X11270000Y-14194524D01*
X11279524Y-14213571D01*
X11289048Y-14251667D01*
X11289048Y-14299286D01*
X11279524Y-14337381D01*
X11270000Y-14356428D01*
X11260476Y-14365952D01*
X11241428Y-14375476D01*
X11222381Y-14375476D01*
X11203333Y-14365952D01*
X11193809Y-14356428D01*
X11184286Y-14337381D01*
X11174762Y-14299286D01*
X11174762Y-14251667D01*
X11184286Y-14213571D01*
X11193809Y-14194524D01*
X11203333Y-14185000D01*
X11222381Y-14175476D01*
X11374762Y-14375476D02*
X11374762Y-14242143D01*
X11374762Y-14261190D02*
X11384286Y-14251667D01*
X11403333Y-14242143D01*
X11431905Y-14242143D01*
X11450952Y-14251667D01*
X11460476Y-14270714D01*
X11460476Y-14375476D01*
X11460476Y-14270714D02*
X11470000Y-14251667D01*
X11489048Y-14242143D01*
X11517619Y-14242143D01*
X11536667Y-14251667D01*
X11546190Y-14270714D01*
X11546190Y-14375476D01*
X11641428Y-14375476D02*
X11641428Y-14242143D01*
X11641428Y-14261190D02*
X11650952Y-14251667D01*
X11670000Y-14242143D01*
X11698571Y-14242143D01*
X11717619Y-14251667D01*
X11727143Y-14270714D01*
X11727143Y-14375476D01*
X11727143Y-14270714D02*
X11736667Y-14251667D01*
X11755714Y-14242143D01*
X11784286Y-14242143D01*
X11803333Y-14251667D01*
X11812857Y-14270714D01*
X11812857Y-14375476D01*
X12203333Y-14165952D02*
X12031905Y-14423095D01*
X12460476Y-14175476D02*
X12479524Y-14175476D01*
X12498571Y-14185000D01*
X12508095Y-14194524D01*
X12517619Y-14213571D01*
X12527143Y-14251667D01*
X12527143Y-14299286D01*
X12517619Y-14337381D01*
X12508095Y-14356428D01*
X12498571Y-14365952D01*
X12479524Y-14375476D01*
X12460476Y-14375476D01*
X12441428Y-14365952D01*
X12431905Y-14356428D01*
X12422381Y-14337381D01*
X12412857Y-14299286D01*
X12412857Y-14251667D01*
X12422381Y-14213571D01*
X12431905Y-14194524D01*
X12441428Y-14185000D01*
X12460476Y-14175476D01*
X12612857Y-14356428D02*
X12622381Y-14365952D01*
X12612857Y-14375476D01*
X12603333Y-14365952D01*
X12612857Y-14356428D01*
X12612857Y-14375476D01*
X12812857Y-14375476D02*
X12698571Y-14375476D01*
X12755714Y-14375476D02*
X12755714Y-14175476D01*
X12736667Y-14204048D01*
X12717619Y-14223095D01*
X12698571Y-14232619D01*
X12889048Y-14194524D02*
X12898571Y-14185000D01*
X12917619Y-14175476D01*
X12965238Y-14175476D01*
X12984286Y-14185000D01*
X12993809Y-14194524D01*
X13003333Y-14213571D01*
X13003333Y-14232619D01*
X12993809Y-14261190D01*
X12879524Y-14375476D01*
X13003333Y-14375476D01*
X13174762Y-14175476D02*
X13136667Y-14175476D01*
X13117619Y-14185000D01*
X13108095Y-14194524D01*
X13089048Y-14223095D01*
X13079524Y-14261190D01*
X13079524Y-14337381D01*
X13089048Y-14356428D01*
X13098571Y-14365952D01*
X13117619Y-14375476D01*
X13155714Y-14375476D01*
X13174762Y-14365952D01*
X13184286Y-14356428D01*
X13193809Y-14337381D01*
X13193809Y-14289762D01*
X13184286Y-14270714D01*
X13174762Y-14261190D01*
X13155714Y-14251667D01*
X13117619Y-14251667D01*
X13098571Y-14261190D01*
X13089048Y-14270714D01*
X13079524Y-14289762D01*
X13317619Y-14175476D02*
X13336667Y-14175476D01*
X13355714Y-14185000D01*
X13365238Y-14194524D01*
X13374762Y-14213571D01*
X13384286Y-14251667D01*
X13384286Y-14299286D01*
X13374762Y-14337381D01*
X13365238Y-14356428D01*
X13355714Y-14365952D01*
X13336667Y-14375476D01*
X13317619Y-14375476D01*
X13298571Y-14365952D01*
X13289048Y-14356428D01*
X13279524Y-14337381D01*
X13270000Y-14299286D01*
X13270000Y-14251667D01*
X13279524Y-14213571D01*
X13289048Y-14194524D01*
X13298571Y-14185000D01*
X13317619Y-14175476D01*
X13460476Y-14175476D02*
X13460476Y-14213571D01*
X13536667Y-14175476D02*
X13536667Y-14213571D01*
X13831905Y-14451667D02*
X13822381Y-14442143D01*
X13803333Y-14413571D01*
X13793809Y-14394524D01*
X13784286Y-14365952D01*
X13774762Y-14318333D01*
X13774762Y-14280238D01*
X13784286Y-14232619D01*
X13793809Y-14204048D01*
X13803333Y-14185000D01*
X13822381Y-14156428D01*
X13831905Y-14146905D01*
X13993809Y-14242143D02*
X13993809Y-14375476D01*
X13946190Y-14165952D02*
X13898571Y-14308809D01*
X14022381Y-14308809D01*
X14250952Y-14375476D02*
X14250952Y-14175476D01*
X14336667Y-14375476D02*
X14336667Y-14270714D01*
X14327143Y-14251667D01*
X14308095Y-14242143D01*
X14279524Y-14242143D01*
X14260476Y-14251667D01*
X14250952Y-14261190D01*
X14460476Y-14375476D02*
X14441428Y-14365952D01*
X14431905Y-14356428D01*
X14422381Y-14337381D01*
X14422381Y-14280238D01*
X14431905Y-14261190D01*
X14441428Y-14251667D01*
X14460476Y-14242143D01*
X14489048Y-14242143D01*
X14508095Y-14251667D01*
X14517619Y-14261190D01*
X14527143Y-14280238D01*
X14527143Y-14337381D01*
X14517619Y-14356428D01*
X14508095Y-14365952D01*
X14489048Y-14375476D01*
X14460476Y-14375476D01*
X14641428Y-14375476D02*
X14622381Y-14365952D01*
X14612857Y-14346905D01*
X14612857Y-14175476D01*
X14793809Y-14365952D02*
X14774762Y-14375476D01*
X14736667Y-14375476D01*
X14717619Y-14365952D01*
X14708095Y-14346905D01*
X14708095Y-14270714D01*
X14717619Y-14251667D01*
X14736667Y-14242143D01*
X14774762Y-14242143D01*
X14793809Y-14251667D01*
X14803333Y-14270714D01*
X14803333Y-14289762D01*
X14708095Y-14308809D01*
X14879524Y-14365952D02*
X14898571Y-14375476D01*
X14936667Y-14375476D01*
X14955714Y-14365952D01*
X14965238Y-14346905D01*
X14965238Y-14337381D01*
X14955714Y-14318333D01*
X14936667Y-14308809D01*
X14908095Y-14308809D01*
X14889048Y-14299286D01*
X14879524Y-14280238D01*
X14879524Y-14270714D01*
X14889048Y-14251667D01*
X14908095Y-14242143D01*
X14936667Y-14242143D01*
X14955714Y-14251667D01*
X15031905Y-14451667D02*
X15041428Y-14442143D01*
X15060476Y-14413571D01*
X15070000Y-14394524D01*
X15079524Y-14365952D01*
X15089048Y-14318333D01*
X15089048Y-14280238D01*
X15079524Y-14232619D01*
X15070000Y-14204048D01*
X15060476Y-14185000D01*
X15041428Y-14156428D01*
X15031905Y-14146905D01*
X15393809Y-14451667D02*
X15384286Y-14442143D01*
X15365238Y-14413571D01*
X15355714Y-14394524D01*
X15346190Y-14365952D01*
X15336667Y-14318333D01*
X15336667Y-14280238D01*
X15346190Y-14232619D01*
X15355714Y-14204048D01*
X15365238Y-14185000D01*
X15384286Y-14156428D01*
X15393809Y-14146905D01*
X15470000Y-14242143D02*
X15470000Y-14375476D01*
X15470000Y-14261190D02*
X15479524Y-14251667D01*
X15498571Y-14242143D01*
X15527143Y-14242143D01*
X15546190Y-14251667D01*
X15555714Y-14270714D01*
X15555714Y-14375476D01*
X15679524Y-14375476D02*
X15660476Y-14365952D01*
X15650952Y-14356428D01*
X15641428Y-14337381D01*
X15641428Y-14280238D01*
X15650952Y-14261190D01*
X15660476Y-14251667D01*
X15679524Y-14242143D01*
X15708095Y-14242143D01*
X15727143Y-14251667D01*
X15736667Y-14261190D01*
X15746190Y-14280238D01*
X15746190Y-14337381D01*
X15736667Y-14356428D01*
X15727143Y-14365952D01*
X15708095Y-14375476D01*
X15679524Y-14375476D01*
X15803333Y-14242143D02*
X15879524Y-14242143D01*
X15831905Y-14175476D02*
X15831905Y-14346905D01*
X15841428Y-14365952D01*
X15860476Y-14375476D01*
X15879524Y-14375476D01*
X16098571Y-14242143D02*
X16098571Y-14442143D01*
X16098571Y-14251667D02*
X16117619Y-14242143D01*
X16155714Y-14242143D01*
X16174762Y-14251667D01*
X16184286Y-14261190D01*
X16193809Y-14280238D01*
X16193809Y-14337381D01*
X16184286Y-14356428D01*
X16174762Y-14365952D01*
X16155714Y-14375476D01*
X16117619Y-14375476D01*
X16098571Y-14365952D01*
X16308095Y-14375476D02*
X16289048Y-14365952D01*
X16279524Y-14346905D01*
X16279524Y-14175476D01*
X16470000Y-14375476D02*
X16470000Y-14270714D01*
X16460476Y-14251667D01*
X16441428Y-14242143D01*
X16403333Y-14242143D01*
X16384286Y-14251667D01*
X16470000Y-14365952D02*
X16450952Y-14375476D01*
X16403333Y-14375476D01*
X16384286Y-14365952D01*
X16374762Y-14346905D01*
X16374762Y-14327857D01*
X16384286Y-14308809D01*
X16403333Y-14299286D01*
X16450952Y-14299286D01*
X16470000Y-14289762D01*
X16536667Y-14242143D02*
X16612857Y-14242143D01*
X16565238Y-14175476D02*
X16565238Y-14346905D01*
X16574762Y-14365952D01*
X16593809Y-14375476D01*
X16612857Y-14375476D01*
X16755714Y-14365952D02*
X16736667Y-14375476D01*
X16698571Y-14375476D01*
X16679524Y-14365952D01*
X16670000Y-14346905D01*
X16670000Y-14270714D01*
X16679524Y-14251667D01*
X16698571Y-14242143D01*
X16736667Y-14242143D01*
X16755714Y-14251667D01*
X16765238Y-14270714D01*
X16765238Y-14289762D01*
X16670000Y-14308809D01*
X16936667Y-14375476D02*
X16936667Y-14175476D01*
X16936667Y-14365952D02*
X16917619Y-14375476D01*
X16879524Y-14375476D01*
X16860476Y-14365952D01*
X16850952Y-14356428D01*
X16841429Y-14337381D01*
X16841429Y-14280238D01*
X16850952Y-14261190D01*
X16860476Y-14251667D01*
X16879524Y-14242143D01*
X16917619Y-14242143D01*
X16936667Y-14251667D01*
X17012857Y-14451667D02*
X17022381Y-14442143D01*
X17041429Y-14413571D01*
X17050952Y-14394524D01*
X17060476Y-14365952D01*
X17070000Y-14318333D01*
X17070000Y-14280238D01*
X17060476Y-14232619D01*
X17050952Y-14204048D01*
X17041429Y-14185000D01*
X17022381Y-14156428D01*
X17012857Y-14146905D01*
M02*
