M48
; DRILL file {KiCad 8.0.2-1.fc39} date 2024-05-17T12:16:26-0600
; FORMAT={-:-/ absolute / inch / decimal}
; #@! TF.CreationDate,2024-05-17T12:16:26-06:00
; #@! TF.GenerationSoftware,Kicad,Pcbnew,8.0.2-1.fc39
; #@! TF.FileFunction,Plated,1,2,PTH
FMAT,2
INCH
; #@! TA.AperFunction,Plated,PTH,ViaDrill
T1C0.0197
; #@! TA.AperFunction,Plated,PTH,ComponentDrill
T2C0.0394
; #@! TA.AperFunction,Plated,PTH,ComponentDrill
T3C0.0787
%
G90
G05
T1
X4.1594Y-4.002
X4.2546Y-3.5236
X4.2546Y-4.4803
X4.5256Y-3.1181
X4.5256Y-4.8859
X4.9311Y-2.8471
X4.9311Y-5.1568
X5.4094Y-2.752
X5.4094Y-5.252
X5.8878Y-2.8471
X5.8878Y-5.1568
X6.2933Y-3.1181
X6.2933Y-4.8859
X6.5643Y-3.5236
X6.5643Y-4.4803
X6.6594Y-4.002
T2
X5.1085Y-3.7021
X5.1085Y-3.8021
X5.1085Y-3.9021
X5.1085Y-4.0021
X5.1085Y-4.1021
X5.1085Y-4.2021
X5.1085Y-4.3021
X5.7108Y-3.7021
X5.7108Y-3.8021
X5.7108Y-3.9021
X5.7108Y-4.0021
X5.7108Y-4.1021
X5.7108Y-4.2021
X5.7108Y-4.3021
T3
G00X4.1518Y-4.2494
M15
G01X4.1903Y-4.2412
M16
G05
G00X4.1543Y-3.7485
M15
G01X4.1922Y-3.759
M16
G05
G00X4.341Y-4.7114
M15
G01X4.3734Y-4.6891
M16
G05
G00X4.3478Y-3.2883
M15
G01X4.3788Y-3.3125
M16
G05
G00X4.6926Y-5.0659
M15
G01X4.714Y-5.0328
M16
G05
G00X4.6999Y-2.9391
M15
G01X4.725Y-2.9695
M16
G05
G00X5.1609Y-5.2202
M15
G01X5.1524Y-5.2587
M16
G05
G00X5.6431Y-5.2226
M15
G01X5.6533Y-5.2606
M16
G05
G00X6.092Y-5.0392
M15
G01X6.1143Y-5.0717
M16
G05
G00X6.123Y-2.9439
M15
G01X6.1016Y-2.9769
M16
G05
G00X6.4357Y-4.6987
M15
G01X6.4688Y-4.7201
M16
G05
G00X6.4735Y-3.297
M15
G01X6.4432Y-3.3221
M16
G05
G00X6.623Y-4.2525
M15
G01X6.6617Y-4.2597
M16
G05
G00X6.6637Y-3.7604
M15
G01X6.6252Y-3.7686
M16
G05
M30
