%TF.GenerationSoftware,KiCad,Pcbnew,8.0.2-1*%
%TF.CreationDate,2024-05-14T17:19:14-06:00*%
%TF.ProjectId,seeeduino-xiao-breakout,73656565-6475-4696-9e6f-2d7869616f2d,rev?*%
%TF.SameCoordinates,Original*%
%TF.FileFunction,Legend,Bot*%
%TF.FilePolarity,Positive*%
%FSLAX46Y46*%
G04 Gerber Fmt 4.6, Leading zero omitted, Abs format (unit mm)*
G04 Created by KiCad (PCBNEW 8.0.2-1) date 2024-05-14 17:19:14*
%MOMM*%
%LPD*%
G01*
G04 APERTURE LIST*
%ADD10C,0.150000*%
%ADD11C,0.300000*%
%ADD12C,0.010000*%
%ADD13O,2.748280X1.998980*%
%ADD14C,3.200000*%
%ADD15C,5.000000*%
G04 APERTURE END LIST*
D10*
X115900000Y-117900000D02*
X158900000Y-117900000D01*
X158900000Y-124400000D01*
X115900000Y-124400000D01*
X115900000Y-117900000D01*
G36*
X115900000Y-117900000D02*
G01*
X158900000Y-117900000D01*
X158900000Y-124400000D01*
X115900000Y-124400000D01*
X115900000Y-117900000D01*
G37*
D11*
X154262155Y-114639638D02*
X153119298Y-114639638D01*
X153690727Y-116639638D02*
X153690727Y-114639638D01*
X152452631Y-116639638D02*
X152452631Y-114639638D01*
X151595488Y-116639638D02*
X151595488Y-115592019D01*
X151595488Y-115592019D02*
X151690726Y-115401542D01*
X151690726Y-115401542D02*
X151881202Y-115306304D01*
X151881202Y-115306304D02*
X152166917Y-115306304D01*
X152166917Y-115306304D02*
X152357393Y-115401542D01*
X152357393Y-115401542D02*
X152452631Y-115496780D01*
X150643107Y-116639638D02*
X150643107Y-115306304D01*
X150643107Y-114639638D02*
X150738345Y-114734876D01*
X150738345Y-114734876D02*
X150643107Y-114830114D01*
X150643107Y-114830114D02*
X150547869Y-114734876D01*
X150547869Y-114734876D02*
X150643107Y-114639638D01*
X150643107Y-114639638D02*
X150643107Y-114830114D01*
X149785964Y-116544400D02*
X149595488Y-116639638D01*
X149595488Y-116639638D02*
X149214536Y-116639638D01*
X149214536Y-116639638D02*
X149024059Y-116544400D01*
X149024059Y-116544400D02*
X148928821Y-116353923D01*
X148928821Y-116353923D02*
X148928821Y-116258685D01*
X148928821Y-116258685D02*
X149024059Y-116068209D01*
X149024059Y-116068209D02*
X149214536Y-115972971D01*
X149214536Y-115972971D02*
X149500250Y-115972971D01*
X149500250Y-115972971D02*
X149690726Y-115877733D01*
X149690726Y-115877733D02*
X149785964Y-115687257D01*
X149785964Y-115687257D02*
X149785964Y-115592019D01*
X149785964Y-115592019D02*
X149690726Y-115401542D01*
X149690726Y-115401542D02*
X149500250Y-115306304D01*
X149500250Y-115306304D02*
X149214536Y-115306304D01*
X149214536Y-115306304D02*
X149024059Y-115401542D01*
X146547868Y-116639638D02*
X146547868Y-114639638D01*
X146547868Y-115401542D02*
X146357392Y-115306304D01*
X146357392Y-115306304D02*
X145976439Y-115306304D01*
X145976439Y-115306304D02*
X145785963Y-115401542D01*
X145785963Y-115401542D02*
X145690725Y-115496780D01*
X145690725Y-115496780D02*
X145595487Y-115687257D01*
X145595487Y-115687257D02*
X145595487Y-116258685D01*
X145595487Y-116258685D02*
X145690725Y-116449161D01*
X145690725Y-116449161D02*
X145785963Y-116544400D01*
X145785963Y-116544400D02*
X145976439Y-116639638D01*
X145976439Y-116639638D02*
X146357392Y-116639638D01*
X146357392Y-116639638D02*
X146547868Y-116544400D01*
X144452630Y-116639638D02*
X144643106Y-116544400D01*
X144643106Y-116544400D02*
X144738344Y-116449161D01*
X144738344Y-116449161D02*
X144833582Y-116258685D01*
X144833582Y-116258685D02*
X144833582Y-115687257D01*
X144833582Y-115687257D02*
X144738344Y-115496780D01*
X144738344Y-115496780D02*
X144643106Y-115401542D01*
X144643106Y-115401542D02*
X144452630Y-115306304D01*
X144452630Y-115306304D02*
X144166915Y-115306304D01*
X144166915Y-115306304D02*
X143976439Y-115401542D01*
X143976439Y-115401542D02*
X143881201Y-115496780D01*
X143881201Y-115496780D02*
X143785963Y-115687257D01*
X143785963Y-115687257D02*
X143785963Y-116258685D01*
X143785963Y-116258685D02*
X143881201Y-116449161D01*
X143881201Y-116449161D02*
X143976439Y-116544400D01*
X143976439Y-116544400D02*
X144166915Y-116639638D01*
X144166915Y-116639638D02*
X144452630Y-116639638D01*
X142071677Y-116639638D02*
X142071677Y-115592019D01*
X142071677Y-115592019D02*
X142166915Y-115401542D01*
X142166915Y-115401542D02*
X142357391Y-115306304D01*
X142357391Y-115306304D02*
X142738344Y-115306304D01*
X142738344Y-115306304D02*
X142928820Y-115401542D01*
X142071677Y-116544400D02*
X142262153Y-116639638D01*
X142262153Y-116639638D02*
X142738344Y-116639638D01*
X142738344Y-116639638D02*
X142928820Y-116544400D01*
X142928820Y-116544400D02*
X143024058Y-116353923D01*
X143024058Y-116353923D02*
X143024058Y-116163447D01*
X143024058Y-116163447D02*
X142928820Y-115972971D01*
X142928820Y-115972971D02*
X142738344Y-115877733D01*
X142738344Y-115877733D02*
X142262153Y-115877733D01*
X142262153Y-115877733D02*
X142071677Y-115782495D01*
X141119296Y-116639638D02*
X141119296Y-115306304D01*
X141119296Y-115687257D02*
X141024058Y-115496780D01*
X141024058Y-115496780D02*
X140928820Y-115401542D01*
X140928820Y-115401542D02*
X140738344Y-115306304D01*
X140738344Y-115306304D02*
X140547867Y-115306304D01*
X139024058Y-116639638D02*
X139024058Y-114639638D01*
X139024058Y-116544400D02*
X139214534Y-116639638D01*
X139214534Y-116639638D02*
X139595487Y-116639638D01*
X139595487Y-116639638D02*
X139785963Y-116544400D01*
X139785963Y-116544400D02*
X139881201Y-116449161D01*
X139881201Y-116449161D02*
X139976439Y-116258685D01*
X139976439Y-116258685D02*
X139976439Y-115687257D01*
X139976439Y-115687257D02*
X139881201Y-115496780D01*
X139881201Y-115496780D02*
X139785963Y-115401542D01*
X139785963Y-115401542D02*
X139595487Y-115306304D01*
X139595487Y-115306304D02*
X139214534Y-115306304D01*
X139214534Y-115306304D02*
X139024058Y-115401542D01*
X136547867Y-116639638D02*
X136547867Y-114639638D01*
X136547867Y-115401542D02*
X136357391Y-115306304D01*
X136357391Y-115306304D02*
X135976438Y-115306304D01*
X135976438Y-115306304D02*
X135785962Y-115401542D01*
X135785962Y-115401542D02*
X135690724Y-115496780D01*
X135690724Y-115496780D02*
X135595486Y-115687257D01*
X135595486Y-115687257D02*
X135595486Y-116258685D01*
X135595486Y-116258685D02*
X135690724Y-116449161D01*
X135690724Y-116449161D02*
X135785962Y-116544400D01*
X135785962Y-116544400D02*
X135976438Y-116639638D01*
X135976438Y-116639638D02*
X136357391Y-116639638D01*
X136357391Y-116639638D02*
X136547867Y-116544400D01*
X133976438Y-116544400D02*
X134166914Y-116639638D01*
X134166914Y-116639638D02*
X134547867Y-116639638D01*
X134547867Y-116639638D02*
X134738343Y-116544400D01*
X134738343Y-116544400D02*
X134833581Y-116353923D01*
X134833581Y-116353923D02*
X134833581Y-115592019D01*
X134833581Y-115592019D02*
X134738343Y-115401542D01*
X134738343Y-115401542D02*
X134547867Y-115306304D01*
X134547867Y-115306304D02*
X134166914Y-115306304D01*
X134166914Y-115306304D02*
X133976438Y-115401542D01*
X133976438Y-115401542D02*
X133881200Y-115592019D01*
X133881200Y-115592019D02*
X133881200Y-115782495D01*
X133881200Y-115782495D02*
X134833581Y-115972971D01*
X132738343Y-116639638D02*
X132928819Y-116544400D01*
X132928819Y-116544400D02*
X133024057Y-116353923D01*
X133024057Y-116353923D02*
X133024057Y-114639638D01*
X131690724Y-116639638D02*
X131881200Y-116544400D01*
X131881200Y-116544400D02*
X131976438Y-116449161D01*
X131976438Y-116449161D02*
X132071676Y-116258685D01*
X132071676Y-116258685D02*
X132071676Y-115687257D01*
X132071676Y-115687257D02*
X131976438Y-115496780D01*
X131976438Y-115496780D02*
X131881200Y-115401542D01*
X131881200Y-115401542D02*
X131690724Y-115306304D01*
X131690724Y-115306304D02*
X131405009Y-115306304D01*
X131405009Y-115306304D02*
X131214533Y-115401542D01*
X131214533Y-115401542D02*
X131119295Y-115496780D01*
X131119295Y-115496780D02*
X131024057Y-115687257D01*
X131024057Y-115687257D02*
X131024057Y-116258685D01*
X131024057Y-116258685D02*
X131119295Y-116449161D01*
X131119295Y-116449161D02*
X131214533Y-116544400D01*
X131214533Y-116544400D02*
X131405009Y-116639638D01*
X131405009Y-116639638D02*
X131690724Y-116639638D01*
X130166914Y-115306304D02*
X130166914Y-116639638D01*
X130166914Y-115496780D02*
X130071676Y-115401542D01*
X130071676Y-115401542D02*
X129881200Y-115306304D01*
X129881200Y-115306304D02*
X129595485Y-115306304D01*
X129595485Y-115306304D02*
X129405009Y-115401542D01*
X129405009Y-115401542D02*
X129309771Y-115592019D01*
X129309771Y-115592019D02*
X129309771Y-116639638D01*
X127500247Y-115306304D02*
X127500247Y-116925352D01*
X127500247Y-116925352D02*
X127595485Y-117115828D01*
X127595485Y-117115828D02*
X127690723Y-117211066D01*
X127690723Y-117211066D02*
X127881200Y-117306304D01*
X127881200Y-117306304D02*
X128166914Y-117306304D01*
X128166914Y-117306304D02*
X128357390Y-117211066D01*
X127500247Y-116544400D02*
X127690723Y-116639638D01*
X127690723Y-116639638D02*
X128071676Y-116639638D01*
X128071676Y-116639638D02*
X128262152Y-116544400D01*
X128262152Y-116544400D02*
X128357390Y-116449161D01*
X128357390Y-116449161D02*
X128452628Y-116258685D01*
X128452628Y-116258685D02*
X128452628Y-115687257D01*
X128452628Y-115687257D02*
X128357390Y-115496780D01*
X128357390Y-115496780D02*
X128262152Y-115401542D01*
X128262152Y-115401542D02*
X128071676Y-115306304D01*
X128071676Y-115306304D02*
X127690723Y-115306304D01*
X127690723Y-115306304D02*
X127500247Y-115401542D01*
X126643104Y-116544400D02*
X126452628Y-116639638D01*
X126452628Y-116639638D02*
X126071676Y-116639638D01*
X126071676Y-116639638D02*
X125881199Y-116544400D01*
X125881199Y-116544400D02*
X125785961Y-116353923D01*
X125785961Y-116353923D02*
X125785961Y-116258685D01*
X125785961Y-116258685D02*
X125881199Y-116068209D01*
X125881199Y-116068209D02*
X126071676Y-115972971D01*
X126071676Y-115972971D02*
X126357390Y-115972971D01*
X126357390Y-115972971D02*
X126547866Y-115877733D01*
X126547866Y-115877733D02*
X126643104Y-115687257D01*
X126643104Y-115687257D02*
X126643104Y-115592019D01*
X126643104Y-115592019D02*
X126547866Y-115401542D01*
X126547866Y-115401542D02*
X126357390Y-115306304D01*
X126357390Y-115306304D02*
X126071676Y-115306304D01*
X126071676Y-115306304D02*
X125881199Y-115401542D01*
X123690722Y-115306304D02*
X122928818Y-115306304D01*
X123405008Y-114639638D02*
X123405008Y-116353923D01*
X123405008Y-116353923D02*
X123309770Y-116544400D01*
X123309770Y-116544400D02*
X123119294Y-116639638D01*
X123119294Y-116639638D02*
X122928818Y-116639638D01*
X121976437Y-116639638D02*
X122166913Y-116544400D01*
X122166913Y-116544400D02*
X122262151Y-116449161D01*
X122262151Y-116449161D02*
X122357389Y-116258685D01*
X122357389Y-116258685D02*
X122357389Y-115687257D01*
X122357389Y-115687257D02*
X122262151Y-115496780D01*
X122262151Y-115496780D02*
X122166913Y-115401542D01*
X122166913Y-115401542D02*
X121976437Y-115306304D01*
X121976437Y-115306304D02*
X121690722Y-115306304D01*
X121690722Y-115306304D02*
X121500246Y-115401542D01*
X121500246Y-115401542D02*
X121405008Y-115496780D01*
X121405008Y-115496780D02*
X121309770Y-115687257D01*
X121309770Y-115687257D02*
X121309770Y-116258685D01*
X121309770Y-116258685D02*
X121405008Y-116449161D01*
X121405008Y-116449161D02*
X121500246Y-116544400D01*
X121500246Y-116544400D02*
X121690722Y-116639638D01*
X121690722Y-116639638D02*
X121976437Y-116639638D01*
X120452627Y-116449161D02*
X120357389Y-116544400D01*
X120357389Y-116544400D02*
X120452627Y-116639638D01*
X120452627Y-116639638D02*
X120547865Y-116544400D01*
X120547865Y-116544400D02*
X120452627Y-116449161D01*
X120452627Y-116449161D02*
X120452627Y-116639638D01*
X120452627Y-115401542D02*
X120357389Y-115496780D01*
X120357389Y-115496780D02*
X120452627Y-115592019D01*
X120452627Y-115592019D02*
X120547865Y-115496780D01*
X120547865Y-115496780D02*
X120452627Y-115401542D01*
X120452627Y-115401542D02*
X120452627Y-115592019D01*
G36*
X130800000Y-91350000D02*
G01*
X131200000Y-91350000D01*
X131200000Y-90950000D01*
X130800000Y-90950000D01*
X130800000Y-91350000D01*
G37*
G36*
X130800000Y-90550000D02*
G01*
X131200000Y-90550000D01*
X131200000Y-90150000D01*
X130800000Y-90150000D01*
X130800000Y-90550000D01*
G37*
G36*
X130800000Y-89750000D02*
G01*
X131200000Y-89750000D01*
X131200000Y-89350000D01*
X130800000Y-89350000D01*
X130800000Y-89750000D01*
G37*
G36*
X130800000Y-88550000D02*
G01*
X131200000Y-88550000D01*
X131200000Y-88150000D01*
X130800000Y-88150000D01*
X130800000Y-88550000D01*
G37*
G36*
X130800000Y-88150000D02*
G01*
X131200000Y-88150000D01*
X131200000Y-87750000D01*
X130800000Y-87750000D01*
X130800000Y-88150000D01*
G37*
G36*
X130800000Y-87750000D02*
G01*
X131200000Y-87750000D01*
X131200000Y-87350000D01*
X130800000Y-87350000D01*
X130800000Y-87750000D01*
G37*
G36*
X130800000Y-87350000D02*
G01*
X131200000Y-87350000D01*
X131200000Y-86950000D01*
X130800000Y-86950000D01*
X130800000Y-87350000D01*
G37*
G36*
X130800000Y-85750000D02*
G01*
X131200000Y-85750000D01*
X131200000Y-85350000D01*
X130800000Y-85350000D01*
X130800000Y-85750000D01*
G37*
G36*
X130800000Y-82950000D02*
G01*
X131200000Y-82950000D01*
X131200000Y-82550000D01*
X130800000Y-82550000D01*
X130800000Y-82950000D01*
G37*
G36*
X130800000Y-82550000D02*
G01*
X131200000Y-82550000D01*
X131200000Y-82150000D01*
X130800000Y-82150000D01*
X130800000Y-82550000D01*
G37*
G36*
X130800000Y-82150000D02*
G01*
X131200000Y-82150000D01*
X131200000Y-81750000D01*
X130800000Y-81750000D01*
X130800000Y-82150000D01*
G37*
G36*
X130800000Y-81350000D02*
G01*
X131200000Y-81350000D01*
X131200000Y-80950000D01*
X130800000Y-80950000D01*
X130800000Y-81350000D01*
G37*
G36*
X130800000Y-80950000D02*
G01*
X131200000Y-80950000D01*
X131200000Y-80550000D01*
X130800000Y-80550000D01*
X130800000Y-80950000D01*
G37*
G36*
X130800000Y-80550000D02*
G01*
X131200000Y-80550000D01*
X131200000Y-80150000D01*
X130800000Y-80150000D01*
X130800000Y-80550000D01*
G37*
G36*
X130800000Y-80150000D02*
G01*
X131200000Y-80150000D01*
X131200000Y-79750000D01*
X130800000Y-79750000D01*
X130800000Y-80150000D01*
G37*
G36*
X130800000Y-79750000D02*
G01*
X131200000Y-79750000D01*
X131200000Y-79350000D01*
X130800000Y-79350000D01*
X130800000Y-79750000D01*
G37*
G36*
X130800000Y-79350000D02*
G01*
X131200000Y-79350000D01*
X131200000Y-78950000D01*
X130800000Y-78950000D01*
X130800000Y-79350000D01*
G37*
G36*
X130800000Y-78950000D02*
G01*
X131200000Y-78950000D01*
X131200000Y-78550000D01*
X130800000Y-78550000D01*
X130800000Y-78950000D01*
G37*
G36*
X131200000Y-90150000D02*
G01*
X131600000Y-90150000D01*
X131600000Y-89750000D01*
X131200000Y-89750000D01*
X131200000Y-90150000D01*
G37*
G36*
X131200000Y-89750000D02*
G01*
X131600000Y-89750000D01*
X131600000Y-89350000D01*
X131200000Y-89350000D01*
X131200000Y-89750000D01*
G37*
G36*
X131200000Y-88150000D02*
G01*
X131600000Y-88150000D01*
X131600000Y-87750000D01*
X131200000Y-87750000D01*
X131200000Y-88150000D01*
G37*
G36*
X131200000Y-87750000D02*
G01*
X131600000Y-87750000D01*
X131600000Y-87350000D01*
X131200000Y-87350000D01*
X131200000Y-87750000D01*
G37*
G36*
X131200000Y-86550000D02*
G01*
X131600000Y-86550000D01*
X131600000Y-86150000D01*
X131200000Y-86150000D01*
X131200000Y-86550000D01*
G37*
G36*
X131200000Y-86150000D02*
G01*
X131600000Y-86150000D01*
X131600000Y-85750000D01*
X131200000Y-85750000D01*
X131200000Y-86150000D01*
G37*
G36*
X131200000Y-85750000D02*
G01*
X131600000Y-85750000D01*
X131600000Y-85350000D01*
X131200000Y-85350000D01*
X131200000Y-85750000D01*
G37*
G36*
X131200000Y-84150000D02*
G01*
X131600000Y-84150000D01*
X131600000Y-83750000D01*
X131200000Y-83750000D01*
X131200000Y-84150000D01*
G37*
G36*
X131200000Y-82950000D02*
G01*
X131600000Y-82950000D01*
X131600000Y-82550000D01*
X131200000Y-82550000D01*
X131200000Y-82950000D01*
G37*
G36*
X131200000Y-82150000D02*
G01*
X131600000Y-82150000D01*
X131600000Y-81750000D01*
X131200000Y-81750000D01*
X131200000Y-82150000D01*
G37*
G36*
X131200000Y-81350000D02*
G01*
X131600000Y-81350000D01*
X131600000Y-80950000D01*
X131200000Y-80950000D01*
X131200000Y-81350000D01*
G37*
G36*
X131200000Y-78950000D02*
G01*
X131600000Y-78950000D01*
X131600000Y-78550000D01*
X131200000Y-78550000D01*
X131200000Y-78950000D01*
G37*
G36*
X131600000Y-91750000D02*
G01*
X132000000Y-91750000D01*
X132000000Y-91350000D01*
X131600000Y-91350000D01*
X131600000Y-91750000D01*
G37*
G36*
X131600000Y-90950000D02*
G01*
X132000000Y-90950000D01*
X132000000Y-90550000D01*
X131600000Y-90550000D01*
X131600000Y-90950000D01*
G37*
G36*
X131600000Y-90550000D02*
G01*
X132000000Y-90550000D01*
X132000000Y-90150000D01*
X131600000Y-90150000D01*
X131600000Y-90550000D01*
G37*
G36*
X131600000Y-90150000D02*
G01*
X132000000Y-90150000D01*
X132000000Y-89750000D01*
X131600000Y-89750000D01*
X131600000Y-90150000D01*
G37*
G36*
X131600000Y-89750000D02*
G01*
X132000000Y-89750000D01*
X132000000Y-89350000D01*
X131600000Y-89350000D01*
X131600000Y-89750000D01*
G37*
G36*
X131600000Y-87350000D02*
G01*
X132000000Y-87350000D01*
X132000000Y-86950000D01*
X131600000Y-86950000D01*
X131600000Y-87350000D01*
G37*
G36*
X131600000Y-86950000D02*
G01*
X132000000Y-86950000D01*
X132000000Y-86550000D01*
X131600000Y-86550000D01*
X131600000Y-86950000D01*
G37*
G36*
X131600000Y-86150000D02*
G01*
X132000000Y-86150000D01*
X132000000Y-85750000D01*
X131600000Y-85750000D01*
X131600000Y-86150000D01*
G37*
G36*
X131600000Y-85350000D02*
G01*
X132000000Y-85350000D01*
X132000000Y-84950000D01*
X131600000Y-84950000D01*
X131600000Y-85350000D01*
G37*
G36*
X131600000Y-84950000D02*
G01*
X132000000Y-84950000D01*
X132000000Y-84550000D01*
X131600000Y-84550000D01*
X131600000Y-84950000D01*
G37*
G36*
X131600000Y-84150000D02*
G01*
X132000000Y-84150000D01*
X132000000Y-83750000D01*
X131600000Y-83750000D01*
X131600000Y-84150000D01*
G37*
G36*
X131600000Y-82550000D02*
G01*
X132000000Y-82550000D01*
X132000000Y-82150000D01*
X131600000Y-82150000D01*
X131600000Y-82550000D01*
G37*
G36*
X131600000Y-81350000D02*
G01*
X132000000Y-81350000D01*
X132000000Y-80950000D01*
X131600000Y-80950000D01*
X131600000Y-81350000D01*
G37*
G36*
X131600000Y-80550000D02*
G01*
X132000000Y-80550000D01*
X132000000Y-80150000D01*
X131600000Y-80150000D01*
X131600000Y-80550000D01*
G37*
G36*
X131600000Y-80150000D02*
G01*
X132000000Y-80150000D01*
X132000000Y-79750000D01*
X131600000Y-79750000D01*
X131600000Y-80150000D01*
G37*
G36*
X131600000Y-79750000D02*
G01*
X132000000Y-79750000D01*
X132000000Y-79350000D01*
X131600000Y-79350000D01*
X131600000Y-79750000D01*
G37*
G36*
X131600000Y-78950000D02*
G01*
X132000000Y-78950000D01*
X132000000Y-78550000D01*
X131600000Y-78550000D01*
X131600000Y-78950000D01*
G37*
G36*
X132000000Y-90950000D02*
G01*
X132400000Y-90950000D01*
X132400000Y-90550000D01*
X132000000Y-90550000D01*
X132000000Y-90950000D01*
G37*
G36*
X132000000Y-90550000D02*
G01*
X132400000Y-90550000D01*
X132400000Y-90150000D01*
X132000000Y-90150000D01*
X132000000Y-90550000D01*
G37*
G36*
X132000000Y-89750000D02*
G01*
X132400000Y-89750000D01*
X132400000Y-89350000D01*
X132000000Y-89350000D01*
X132000000Y-89750000D01*
G37*
G36*
X132000000Y-88950000D02*
G01*
X132400000Y-88950000D01*
X132400000Y-88550000D01*
X132000000Y-88550000D01*
X132000000Y-88950000D01*
G37*
G36*
X132000000Y-87350000D02*
G01*
X132400000Y-87350000D01*
X132400000Y-86950000D01*
X132000000Y-86950000D01*
X132000000Y-87350000D01*
G37*
G36*
X132000000Y-86950000D02*
G01*
X132400000Y-86950000D01*
X132400000Y-86550000D01*
X132000000Y-86550000D01*
X132000000Y-86950000D01*
G37*
G36*
X132000000Y-85750000D02*
G01*
X132400000Y-85750000D01*
X132400000Y-85350000D01*
X132000000Y-85350000D01*
X132000000Y-85750000D01*
G37*
G36*
X132000000Y-85350000D02*
G01*
X132400000Y-85350000D01*
X132400000Y-84950000D01*
X132000000Y-84950000D01*
X132000000Y-85350000D01*
G37*
G36*
X132000000Y-84950000D02*
G01*
X132400000Y-84950000D01*
X132400000Y-84550000D01*
X132000000Y-84550000D01*
X132000000Y-84950000D01*
G37*
G36*
X132000000Y-84550000D02*
G01*
X132400000Y-84550000D01*
X132400000Y-84150000D01*
X132000000Y-84150000D01*
X132000000Y-84550000D01*
G37*
G36*
X132000000Y-83750000D02*
G01*
X132400000Y-83750000D01*
X132400000Y-83350000D01*
X132000000Y-83350000D01*
X132000000Y-83750000D01*
G37*
G36*
X132000000Y-83350000D02*
G01*
X132400000Y-83350000D01*
X132400000Y-82950000D01*
X132000000Y-82950000D01*
X132000000Y-83350000D01*
G37*
G36*
X132000000Y-82950000D02*
G01*
X132400000Y-82950000D01*
X132400000Y-82550000D01*
X132000000Y-82550000D01*
X132000000Y-82950000D01*
G37*
G36*
X132000000Y-82550000D02*
G01*
X132400000Y-82550000D01*
X132400000Y-82150000D01*
X132000000Y-82150000D01*
X132000000Y-82550000D01*
G37*
G36*
X132000000Y-82150000D02*
G01*
X132400000Y-82150000D01*
X132400000Y-81750000D01*
X132000000Y-81750000D01*
X132000000Y-82150000D01*
G37*
G36*
X132000000Y-81350000D02*
G01*
X132400000Y-81350000D01*
X132400000Y-80950000D01*
X132000000Y-80950000D01*
X132000000Y-81350000D01*
G37*
G36*
X132000000Y-80550000D02*
G01*
X132400000Y-80550000D01*
X132400000Y-80150000D01*
X132000000Y-80150000D01*
X132000000Y-80550000D01*
G37*
G36*
X132000000Y-80150000D02*
G01*
X132400000Y-80150000D01*
X132400000Y-79750000D01*
X132000000Y-79750000D01*
X132000000Y-80150000D01*
G37*
G36*
X132000000Y-79750000D02*
G01*
X132400000Y-79750000D01*
X132400000Y-79350000D01*
X132000000Y-79350000D01*
X132000000Y-79750000D01*
G37*
G36*
X132000000Y-78950000D02*
G01*
X132400000Y-78950000D01*
X132400000Y-78550000D01*
X132000000Y-78550000D01*
X132000000Y-78950000D01*
G37*
G36*
X132400000Y-91750000D02*
G01*
X132800000Y-91750000D01*
X132800000Y-91350000D01*
X132400000Y-91350000D01*
X132400000Y-91750000D01*
G37*
G36*
X132400000Y-91350000D02*
G01*
X132800000Y-91350000D01*
X132800000Y-90950000D01*
X132400000Y-90950000D01*
X132400000Y-91350000D01*
G37*
G36*
X132400000Y-90150000D02*
G01*
X132800000Y-90150000D01*
X132800000Y-89750000D01*
X132400000Y-89750000D01*
X132400000Y-90150000D01*
G37*
G36*
X132400000Y-89750000D02*
G01*
X132800000Y-89750000D01*
X132800000Y-89350000D01*
X132400000Y-89350000D01*
X132400000Y-89750000D01*
G37*
G36*
X132400000Y-89350000D02*
G01*
X132800000Y-89350000D01*
X132800000Y-88950000D01*
X132400000Y-88950000D01*
X132400000Y-89350000D01*
G37*
G36*
X132400000Y-88950000D02*
G01*
X132800000Y-88950000D01*
X132800000Y-88550000D01*
X132400000Y-88550000D01*
X132400000Y-88950000D01*
G37*
G36*
X132400000Y-88550000D02*
G01*
X132800000Y-88550000D01*
X132800000Y-88150000D01*
X132400000Y-88150000D01*
X132400000Y-88550000D01*
G37*
G36*
X132400000Y-88150000D02*
G01*
X132800000Y-88150000D01*
X132800000Y-87750000D01*
X132400000Y-87750000D01*
X132400000Y-88150000D01*
G37*
G36*
X132400000Y-87750000D02*
G01*
X132800000Y-87750000D01*
X132800000Y-87350000D01*
X132400000Y-87350000D01*
X132400000Y-87750000D01*
G37*
G36*
X132400000Y-86550000D02*
G01*
X132800000Y-86550000D01*
X132800000Y-86150000D01*
X132400000Y-86150000D01*
X132400000Y-86550000D01*
G37*
G36*
X132400000Y-86150000D02*
G01*
X132800000Y-86150000D01*
X132800000Y-85750000D01*
X132400000Y-85750000D01*
X132400000Y-86150000D01*
G37*
G36*
X132400000Y-85750000D02*
G01*
X132800000Y-85750000D01*
X132800000Y-85350000D01*
X132400000Y-85350000D01*
X132400000Y-85750000D01*
G37*
G36*
X132400000Y-85350000D02*
G01*
X132800000Y-85350000D01*
X132800000Y-84950000D01*
X132400000Y-84950000D01*
X132400000Y-85350000D01*
G37*
G36*
X132400000Y-84950000D02*
G01*
X132800000Y-84950000D01*
X132800000Y-84550000D01*
X132400000Y-84550000D01*
X132400000Y-84950000D01*
G37*
G36*
X132400000Y-83750000D02*
G01*
X132800000Y-83750000D01*
X132800000Y-83350000D01*
X132400000Y-83350000D01*
X132400000Y-83750000D01*
G37*
G36*
X132400000Y-82950000D02*
G01*
X132800000Y-82950000D01*
X132800000Y-82550000D01*
X132400000Y-82550000D01*
X132400000Y-82950000D01*
G37*
G36*
X132400000Y-81350000D02*
G01*
X132800000Y-81350000D01*
X132800000Y-80950000D01*
X132400000Y-80950000D01*
X132400000Y-81350000D01*
G37*
G36*
X132400000Y-80550000D02*
G01*
X132800000Y-80550000D01*
X132800000Y-80150000D01*
X132400000Y-80150000D01*
X132400000Y-80550000D01*
G37*
G36*
X132400000Y-80150000D02*
G01*
X132800000Y-80150000D01*
X132800000Y-79750000D01*
X132400000Y-79750000D01*
X132400000Y-80150000D01*
G37*
G36*
X132400000Y-79750000D02*
G01*
X132800000Y-79750000D01*
X132800000Y-79350000D01*
X132400000Y-79350000D01*
X132400000Y-79750000D01*
G37*
G36*
X132400000Y-78950000D02*
G01*
X132800000Y-78950000D01*
X132800000Y-78550000D01*
X132400000Y-78550000D01*
X132400000Y-78950000D01*
G37*
G36*
X132800000Y-91350000D02*
G01*
X133200000Y-91350000D01*
X133200000Y-90950000D01*
X132800000Y-90950000D01*
X132800000Y-91350000D01*
G37*
G36*
X132800000Y-90950000D02*
G01*
X133200000Y-90950000D01*
X133200000Y-90550000D01*
X132800000Y-90550000D01*
X132800000Y-90950000D01*
G37*
G36*
X132800000Y-90550000D02*
G01*
X133200000Y-90550000D01*
X133200000Y-90150000D01*
X132800000Y-90150000D01*
X132800000Y-90550000D01*
G37*
G36*
X132800000Y-90150000D02*
G01*
X133200000Y-90150000D01*
X133200000Y-89750000D01*
X132800000Y-89750000D01*
X132800000Y-90150000D01*
G37*
G36*
X132800000Y-88550000D02*
G01*
X133200000Y-88550000D01*
X133200000Y-88150000D01*
X132800000Y-88150000D01*
X132800000Y-88550000D01*
G37*
G36*
X132800000Y-87750000D02*
G01*
X133200000Y-87750000D01*
X133200000Y-87350000D01*
X132800000Y-87350000D01*
X132800000Y-87750000D01*
G37*
G36*
X132800000Y-86150000D02*
G01*
X133200000Y-86150000D01*
X133200000Y-85750000D01*
X132800000Y-85750000D01*
X132800000Y-86150000D01*
G37*
G36*
X132800000Y-84550000D02*
G01*
X133200000Y-84550000D01*
X133200000Y-84150000D01*
X132800000Y-84150000D01*
X132800000Y-84550000D01*
G37*
G36*
X132800000Y-84150000D02*
G01*
X133200000Y-84150000D01*
X133200000Y-83750000D01*
X132800000Y-83750000D01*
X132800000Y-84150000D01*
G37*
G36*
X132800000Y-83750000D02*
G01*
X133200000Y-83750000D01*
X133200000Y-83350000D01*
X132800000Y-83350000D01*
X132800000Y-83750000D01*
G37*
G36*
X132800000Y-83350000D02*
G01*
X133200000Y-83350000D01*
X133200000Y-82950000D01*
X132800000Y-82950000D01*
X132800000Y-83350000D01*
G37*
G36*
X132800000Y-82950000D02*
G01*
X133200000Y-82950000D01*
X133200000Y-82550000D01*
X132800000Y-82550000D01*
X132800000Y-82950000D01*
G37*
G36*
X132800000Y-82550000D02*
G01*
X133200000Y-82550000D01*
X133200000Y-82150000D01*
X132800000Y-82150000D01*
X132800000Y-82550000D01*
G37*
G36*
X132800000Y-81350000D02*
G01*
X133200000Y-81350000D01*
X133200000Y-80950000D01*
X132800000Y-80950000D01*
X132800000Y-81350000D01*
G37*
G36*
X132800000Y-78950000D02*
G01*
X133200000Y-78950000D01*
X133200000Y-78550000D01*
X132800000Y-78550000D01*
X132800000Y-78950000D01*
G37*
G36*
X133200000Y-91750000D02*
G01*
X133600000Y-91750000D01*
X133600000Y-91350000D01*
X133200000Y-91350000D01*
X133200000Y-91750000D01*
G37*
G36*
X133200000Y-91350000D02*
G01*
X133600000Y-91350000D01*
X133600000Y-90950000D01*
X133200000Y-90950000D01*
X133200000Y-91350000D01*
G37*
G36*
X133200000Y-90950000D02*
G01*
X133600000Y-90950000D01*
X133600000Y-90550000D01*
X133200000Y-90550000D01*
X133200000Y-90950000D01*
G37*
G36*
X133200000Y-90150000D02*
G01*
X133600000Y-90150000D01*
X133600000Y-89750000D01*
X133200000Y-89750000D01*
X133200000Y-90150000D01*
G37*
G36*
X133200000Y-89350000D02*
G01*
X133600000Y-89350000D01*
X133600000Y-88950000D01*
X133200000Y-88950000D01*
X133200000Y-89350000D01*
G37*
G36*
X133200000Y-88550000D02*
G01*
X133600000Y-88550000D01*
X133600000Y-88150000D01*
X133200000Y-88150000D01*
X133200000Y-88550000D01*
G37*
G36*
X133200000Y-88150000D02*
G01*
X133600000Y-88150000D01*
X133600000Y-87750000D01*
X133200000Y-87750000D01*
X133200000Y-88150000D01*
G37*
G36*
X133200000Y-87750000D02*
G01*
X133600000Y-87750000D01*
X133600000Y-87350000D01*
X133200000Y-87350000D01*
X133200000Y-87750000D01*
G37*
G36*
X133200000Y-87350000D02*
G01*
X133600000Y-87350000D01*
X133600000Y-86950000D01*
X133200000Y-86950000D01*
X133200000Y-87350000D01*
G37*
G36*
X133200000Y-86550000D02*
G01*
X133600000Y-86550000D01*
X133600000Y-86150000D01*
X133200000Y-86150000D01*
X133200000Y-86550000D01*
G37*
G36*
X133200000Y-85750000D02*
G01*
X133600000Y-85750000D01*
X133600000Y-85350000D01*
X133200000Y-85350000D01*
X133200000Y-85750000D01*
G37*
G36*
X133200000Y-85350000D02*
G01*
X133600000Y-85350000D01*
X133600000Y-84950000D01*
X133200000Y-84950000D01*
X133200000Y-85350000D01*
G37*
G36*
X133200000Y-84950000D02*
G01*
X133600000Y-84950000D01*
X133600000Y-84550000D01*
X133200000Y-84550000D01*
X133200000Y-84950000D01*
G37*
G36*
X133200000Y-84550000D02*
G01*
X133600000Y-84550000D01*
X133600000Y-84150000D01*
X133200000Y-84150000D01*
X133200000Y-84550000D01*
G37*
G36*
X133200000Y-83350000D02*
G01*
X133600000Y-83350000D01*
X133600000Y-82950000D01*
X133200000Y-82950000D01*
X133200000Y-83350000D01*
G37*
G36*
X133200000Y-82550000D02*
G01*
X133600000Y-82550000D01*
X133600000Y-82150000D01*
X133200000Y-82150000D01*
X133200000Y-82550000D01*
G37*
G36*
X133200000Y-82150000D02*
G01*
X133600000Y-82150000D01*
X133600000Y-81750000D01*
X133200000Y-81750000D01*
X133200000Y-82150000D01*
G37*
G36*
X133200000Y-81350000D02*
G01*
X133600000Y-81350000D01*
X133600000Y-80950000D01*
X133200000Y-80950000D01*
X133200000Y-81350000D01*
G37*
G36*
X133200000Y-80950000D02*
G01*
X133600000Y-80950000D01*
X133600000Y-80550000D01*
X133200000Y-80550000D01*
X133200000Y-80950000D01*
G37*
G36*
X133200000Y-80550000D02*
G01*
X133600000Y-80550000D01*
X133600000Y-80150000D01*
X133200000Y-80150000D01*
X133200000Y-80550000D01*
G37*
G36*
X133200000Y-80150000D02*
G01*
X133600000Y-80150000D01*
X133600000Y-79750000D01*
X133200000Y-79750000D01*
X133200000Y-80150000D01*
G37*
G36*
X133200000Y-79750000D02*
G01*
X133600000Y-79750000D01*
X133600000Y-79350000D01*
X133200000Y-79350000D01*
X133200000Y-79750000D01*
G37*
G36*
X133200000Y-79350000D02*
G01*
X133600000Y-79350000D01*
X133600000Y-78950000D01*
X133200000Y-78950000D01*
X133200000Y-79350000D01*
G37*
G36*
X133200000Y-78950000D02*
G01*
X133600000Y-78950000D01*
X133600000Y-78550000D01*
X133200000Y-78550000D01*
X133200000Y-78950000D01*
G37*
G36*
X133600000Y-91750000D02*
G01*
X134000000Y-91750000D01*
X134000000Y-91350000D01*
X133600000Y-91350000D01*
X133600000Y-91750000D01*
G37*
G36*
X133600000Y-90150000D02*
G01*
X134000000Y-90150000D01*
X134000000Y-89750000D01*
X133600000Y-89750000D01*
X133600000Y-90150000D01*
G37*
G36*
X133600000Y-88550000D02*
G01*
X134000000Y-88550000D01*
X134000000Y-88150000D01*
X133600000Y-88150000D01*
X133600000Y-88550000D01*
G37*
G36*
X133600000Y-87750000D02*
G01*
X134000000Y-87750000D01*
X134000000Y-87350000D01*
X133600000Y-87350000D01*
X133600000Y-87750000D01*
G37*
G36*
X133600000Y-87350000D02*
G01*
X134000000Y-87350000D01*
X134000000Y-86950000D01*
X133600000Y-86950000D01*
X133600000Y-87350000D01*
G37*
G36*
X133600000Y-86150000D02*
G01*
X134000000Y-86150000D01*
X134000000Y-85750000D01*
X133600000Y-85750000D01*
X133600000Y-86150000D01*
G37*
G36*
X133600000Y-85750000D02*
G01*
X134000000Y-85750000D01*
X134000000Y-85350000D01*
X133600000Y-85350000D01*
X133600000Y-85750000D01*
G37*
G36*
X133600000Y-85350000D02*
G01*
X134000000Y-85350000D01*
X134000000Y-84950000D01*
X133600000Y-84950000D01*
X133600000Y-85350000D01*
G37*
G36*
X133600000Y-84950000D02*
G01*
X134000000Y-84950000D01*
X134000000Y-84550000D01*
X133600000Y-84550000D01*
X133600000Y-84950000D01*
G37*
G36*
X133600000Y-84150000D02*
G01*
X134000000Y-84150000D01*
X134000000Y-83750000D01*
X133600000Y-83750000D01*
X133600000Y-84150000D01*
G37*
G36*
X133600000Y-83750000D02*
G01*
X134000000Y-83750000D01*
X134000000Y-83350000D01*
X133600000Y-83350000D01*
X133600000Y-83750000D01*
G37*
G36*
X133600000Y-83350000D02*
G01*
X134000000Y-83350000D01*
X134000000Y-82950000D01*
X133600000Y-82950000D01*
X133600000Y-83350000D01*
G37*
G36*
X133600000Y-82950000D02*
G01*
X134000000Y-82950000D01*
X134000000Y-82550000D01*
X133600000Y-82550000D01*
X133600000Y-82950000D01*
G37*
G36*
X134000000Y-91350000D02*
G01*
X134400000Y-91350000D01*
X134400000Y-90950000D01*
X134000000Y-90950000D01*
X134000000Y-91350000D01*
G37*
G36*
X134000000Y-90150000D02*
G01*
X134400000Y-90150000D01*
X134400000Y-89750000D01*
X134000000Y-89750000D01*
X134000000Y-90150000D01*
G37*
G36*
X134000000Y-89750000D02*
G01*
X134400000Y-89750000D01*
X134400000Y-89350000D01*
X134000000Y-89350000D01*
X134000000Y-89750000D01*
G37*
G36*
X134000000Y-89350000D02*
G01*
X134400000Y-89350000D01*
X134400000Y-88950000D01*
X134000000Y-88950000D01*
X134000000Y-89350000D01*
G37*
G36*
X134000000Y-88950000D02*
G01*
X134400000Y-88950000D01*
X134400000Y-88550000D01*
X134000000Y-88550000D01*
X134000000Y-88950000D01*
G37*
G36*
X134000000Y-88550000D02*
G01*
X134400000Y-88550000D01*
X134400000Y-88150000D01*
X134000000Y-88150000D01*
X134000000Y-88550000D01*
G37*
G36*
X134000000Y-88150000D02*
G01*
X134400000Y-88150000D01*
X134400000Y-87750000D01*
X134000000Y-87750000D01*
X134000000Y-88150000D01*
G37*
G36*
X134000000Y-87750000D02*
G01*
X134400000Y-87750000D01*
X134400000Y-87350000D01*
X134000000Y-87350000D01*
X134000000Y-87750000D01*
G37*
G36*
X134000000Y-86550000D02*
G01*
X134400000Y-86550000D01*
X134400000Y-86150000D01*
X134000000Y-86150000D01*
X134000000Y-86550000D01*
G37*
G36*
X134000000Y-86150000D02*
G01*
X134400000Y-86150000D01*
X134400000Y-85750000D01*
X134000000Y-85750000D01*
X134000000Y-86150000D01*
G37*
G36*
X134000000Y-85750000D02*
G01*
X134400000Y-85750000D01*
X134400000Y-85350000D01*
X134000000Y-85350000D01*
X134000000Y-85750000D01*
G37*
G36*
X134000000Y-84150000D02*
G01*
X134400000Y-84150000D01*
X134400000Y-83750000D01*
X134000000Y-83750000D01*
X134000000Y-84150000D01*
G37*
G36*
X134000000Y-83750000D02*
G01*
X134400000Y-83750000D01*
X134400000Y-83350000D01*
X134000000Y-83350000D01*
X134000000Y-83750000D01*
G37*
G36*
X134000000Y-82150000D02*
G01*
X134400000Y-82150000D01*
X134400000Y-81750000D01*
X134000000Y-81750000D01*
X134000000Y-82150000D01*
G37*
G36*
X134000000Y-81750000D02*
G01*
X134400000Y-81750000D01*
X134400000Y-81350000D01*
X134000000Y-81350000D01*
X134000000Y-81750000D01*
G37*
G36*
X134000000Y-81350000D02*
G01*
X134400000Y-81350000D01*
X134400000Y-80950000D01*
X134000000Y-80950000D01*
X134000000Y-81350000D01*
G37*
G36*
X134000000Y-80550000D02*
G01*
X134400000Y-80550000D01*
X134400000Y-80150000D01*
X134000000Y-80150000D01*
X134000000Y-80550000D01*
G37*
G36*
X134000000Y-80150000D02*
G01*
X134400000Y-80150000D01*
X134400000Y-79750000D01*
X134000000Y-79750000D01*
X134000000Y-80150000D01*
G37*
G36*
X134000000Y-79750000D02*
G01*
X134400000Y-79750000D01*
X134400000Y-79350000D01*
X134000000Y-79350000D01*
X134000000Y-79750000D01*
G37*
G36*
X134000000Y-79350000D02*
G01*
X134400000Y-79350000D01*
X134400000Y-78950000D01*
X134000000Y-78950000D01*
X134000000Y-79350000D01*
G37*
G36*
X134400000Y-91750000D02*
G01*
X134800000Y-91750000D01*
X134800000Y-91350000D01*
X134400000Y-91350000D01*
X134400000Y-91750000D01*
G37*
G36*
X134400000Y-91350000D02*
G01*
X134800000Y-91350000D01*
X134800000Y-90950000D01*
X134400000Y-90950000D01*
X134400000Y-91350000D01*
G37*
G36*
X134400000Y-90550000D02*
G01*
X134800000Y-90550000D01*
X134800000Y-90150000D01*
X134400000Y-90150000D01*
X134400000Y-90550000D01*
G37*
G36*
X134400000Y-90150000D02*
G01*
X134800000Y-90150000D01*
X134800000Y-89750000D01*
X134400000Y-89750000D01*
X134400000Y-90150000D01*
G37*
G36*
X134400000Y-89750000D02*
G01*
X134800000Y-89750000D01*
X134800000Y-89350000D01*
X134400000Y-89350000D01*
X134400000Y-89750000D01*
G37*
G36*
X134400000Y-89350000D02*
G01*
X134800000Y-89350000D01*
X134800000Y-88950000D01*
X134400000Y-88950000D01*
X134400000Y-89350000D01*
G37*
G36*
X134400000Y-88550000D02*
G01*
X134800000Y-88550000D01*
X134800000Y-88150000D01*
X134400000Y-88150000D01*
X134400000Y-88550000D01*
G37*
G36*
X134400000Y-88150000D02*
G01*
X134800000Y-88150000D01*
X134800000Y-87750000D01*
X134400000Y-87750000D01*
X134400000Y-88150000D01*
G37*
G36*
X134400000Y-87750000D02*
G01*
X134800000Y-87750000D01*
X134800000Y-87350000D01*
X134400000Y-87350000D01*
X134400000Y-87750000D01*
G37*
G36*
X134400000Y-87350000D02*
G01*
X134800000Y-87350000D01*
X134800000Y-86950000D01*
X134400000Y-86950000D01*
X134400000Y-87350000D01*
G37*
G36*
X134400000Y-86550000D02*
G01*
X134800000Y-86550000D01*
X134800000Y-86150000D01*
X134400000Y-86150000D01*
X134400000Y-86550000D01*
G37*
G36*
X134400000Y-85750000D02*
G01*
X134800000Y-85750000D01*
X134800000Y-85350000D01*
X134400000Y-85350000D01*
X134400000Y-85750000D01*
G37*
G36*
X134400000Y-83750000D02*
G01*
X134800000Y-83750000D01*
X134800000Y-83350000D01*
X134400000Y-83350000D01*
X134400000Y-83750000D01*
G37*
G36*
X134400000Y-82950000D02*
G01*
X134800000Y-82950000D01*
X134800000Y-82550000D01*
X134400000Y-82550000D01*
X134400000Y-82950000D01*
G37*
G36*
X134400000Y-82550000D02*
G01*
X134800000Y-82550000D01*
X134800000Y-82150000D01*
X134400000Y-82150000D01*
X134400000Y-82550000D01*
G37*
G36*
X134400000Y-82150000D02*
G01*
X134800000Y-82150000D01*
X134800000Y-81750000D01*
X134400000Y-81750000D01*
X134400000Y-82150000D01*
G37*
G36*
X134400000Y-81750000D02*
G01*
X134800000Y-81750000D01*
X134800000Y-81350000D01*
X134400000Y-81350000D01*
X134400000Y-81750000D01*
G37*
G36*
X134400000Y-79350000D02*
G01*
X134800000Y-79350000D01*
X134800000Y-78950000D01*
X134400000Y-78950000D01*
X134400000Y-79350000D01*
G37*
G36*
X134400000Y-78950000D02*
G01*
X134800000Y-78950000D01*
X134800000Y-78550000D01*
X134400000Y-78550000D01*
X134400000Y-78950000D01*
G37*
G36*
X134800000Y-91350000D02*
G01*
X135200000Y-91350000D01*
X135200000Y-90950000D01*
X134800000Y-90950000D01*
X134800000Y-91350000D01*
G37*
G36*
X134800000Y-90950000D02*
G01*
X135200000Y-90950000D01*
X135200000Y-90550000D01*
X134800000Y-90550000D01*
X134800000Y-90950000D01*
G37*
G36*
X134800000Y-90150000D02*
G01*
X135200000Y-90150000D01*
X135200000Y-89750000D01*
X134800000Y-89750000D01*
X134800000Y-90150000D01*
G37*
G36*
X134800000Y-89750000D02*
G01*
X135200000Y-89750000D01*
X135200000Y-89350000D01*
X134800000Y-89350000D01*
X134800000Y-89750000D01*
G37*
G36*
X134800000Y-89350000D02*
G01*
X135200000Y-89350000D01*
X135200000Y-88950000D01*
X134800000Y-88950000D01*
X134800000Y-89350000D01*
G37*
G36*
X134800000Y-88550000D02*
G01*
X135200000Y-88550000D01*
X135200000Y-88150000D01*
X134800000Y-88150000D01*
X134800000Y-88550000D01*
G37*
G36*
X134800000Y-87350000D02*
G01*
X135200000Y-87350000D01*
X135200000Y-86950000D01*
X134800000Y-86950000D01*
X134800000Y-87350000D01*
G37*
G36*
X134800000Y-86550000D02*
G01*
X135200000Y-86550000D01*
X135200000Y-86150000D01*
X134800000Y-86150000D01*
X134800000Y-86550000D01*
G37*
G36*
X134800000Y-86150000D02*
G01*
X135200000Y-86150000D01*
X135200000Y-85750000D01*
X134800000Y-85750000D01*
X134800000Y-86150000D01*
G37*
G36*
X134800000Y-85750000D02*
G01*
X135200000Y-85750000D01*
X135200000Y-85350000D01*
X134800000Y-85350000D01*
X134800000Y-85750000D01*
G37*
G36*
X134800000Y-85350000D02*
G01*
X135200000Y-85350000D01*
X135200000Y-84950000D01*
X134800000Y-84950000D01*
X134800000Y-85350000D01*
G37*
G36*
X134800000Y-83350000D02*
G01*
X135200000Y-83350000D01*
X135200000Y-82950000D01*
X134800000Y-82950000D01*
X134800000Y-83350000D01*
G37*
G36*
X134800000Y-82150000D02*
G01*
X135200000Y-82150000D01*
X135200000Y-81750000D01*
X134800000Y-81750000D01*
X134800000Y-82150000D01*
G37*
G36*
X134800000Y-81350000D02*
G01*
X135200000Y-81350000D01*
X135200000Y-80950000D01*
X134800000Y-80950000D01*
X134800000Y-81350000D01*
G37*
G36*
X134800000Y-80950000D02*
G01*
X135200000Y-80950000D01*
X135200000Y-80550000D01*
X134800000Y-80550000D01*
X134800000Y-80950000D01*
G37*
G36*
X134800000Y-80550000D02*
G01*
X135200000Y-80550000D01*
X135200000Y-80150000D01*
X134800000Y-80150000D01*
X134800000Y-80550000D01*
G37*
G36*
X134800000Y-80150000D02*
G01*
X135200000Y-80150000D01*
X135200000Y-79750000D01*
X134800000Y-79750000D01*
X134800000Y-80150000D01*
G37*
G36*
X134800000Y-79350000D02*
G01*
X135200000Y-79350000D01*
X135200000Y-78950000D01*
X134800000Y-78950000D01*
X134800000Y-79350000D01*
G37*
G36*
X135200000Y-91750000D02*
G01*
X135600000Y-91750000D01*
X135600000Y-91350000D01*
X135200000Y-91350000D01*
X135200000Y-91750000D01*
G37*
G36*
X135200000Y-90550000D02*
G01*
X135600000Y-90550000D01*
X135600000Y-90150000D01*
X135200000Y-90150000D01*
X135200000Y-90550000D01*
G37*
G36*
X135200000Y-90150000D02*
G01*
X135600000Y-90150000D01*
X135600000Y-89750000D01*
X135200000Y-89750000D01*
X135200000Y-90150000D01*
G37*
G36*
X135200000Y-89750000D02*
G01*
X135600000Y-89750000D01*
X135600000Y-89350000D01*
X135200000Y-89350000D01*
X135200000Y-89750000D01*
G37*
G36*
X135200000Y-89350000D02*
G01*
X135600000Y-89350000D01*
X135600000Y-88950000D01*
X135200000Y-88950000D01*
X135200000Y-89350000D01*
G37*
G36*
X135200000Y-87750000D02*
G01*
X135600000Y-87750000D01*
X135600000Y-87350000D01*
X135200000Y-87350000D01*
X135200000Y-87750000D01*
G37*
G36*
X135200000Y-87350000D02*
G01*
X135600000Y-87350000D01*
X135600000Y-86950000D01*
X135200000Y-86950000D01*
X135200000Y-87350000D01*
G37*
G36*
X135200000Y-86950000D02*
G01*
X135600000Y-86950000D01*
X135600000Y-86550000D01*
X135200000Y-86550000D01*
X135200000Y-86950000D01*
G37*
G36*
X135200000Y-86150000D02*
G01*
X135600000Y-86150000D01*
X135600000Y-85750000D01*
X135200000Y-85750000D01*
X135200000Y-86150000D01*
G37*
G36*
X135200000Y-85750000D02*
G01*
X135600000Y-85750000D01*
X135600000Y-85350000D01*
X135200000Y-85350000D01*
X135200000Y-85750000D01*
G37*
G36*
X135200000Y-85350000D02*
G01*
X135600000Y-85350000D01*
X135600000Y-84950000D01*
X135200000Y-84950000D01*
X135200000Y-85350000D01*
G37*
G36*
X135200000Y-84950000D02*
G01*
X135600000Y-84950000D01*
X135600000Y-84550000D01*
X135200000Y-84550000D01*
X135200000Y-84950000D01*
G37*
G36*
X135200000Y-84550000D02*
G01*
X135600000Y-84550000D01*
X135600000Y-84150000D01*
X135200000Y-84150000D01*
X135200000Y-84550000D01*
G37*
G36*
X135200000Y-84150000D02*
G01*
X135600000Y-84150000D01*
X135600000Y-83750000D01*
X135200000Y-83750000D01*
X135200000Y-84150000D01*
G37*
G36*
X135200000Y-82950000D02*
G01*
X135600000Y-82950000D01*
X135600000Y-82550000D01*
X135200000Y-82550000D01*
X135200000Y-82950000D01*
G37*
G36*
X135200000Y-82550000D02*
G01*
X135600000Y-82550000D01*
X135600000Y-82150000D01*
X135200000Y-82150000D01*
X135200000Y-82550000D01*
G37*
G36*
X135200000Y-82150000D02*
G01*
X135600000Y-82150000D01*
X135600000Y-81750000D01*
X135200000Y-81750000D01*
X135200000Y-82150000D01*
G37*
G36*
X135200000Y-80950000D02*
G01*
X135600000Y-80950000D01*
X135600000Y-80550000D01*
X135200000Y-80550000D01*
X135200000Y-80950000D01*
G37*
G36*
X135200000Y-78950000D02*
G01*
X135600000Y-78950000D01*
X135600000Y-78550000D01*
X135200000Y-78550000D01*
X135200000Y-78950000D01*
G37*
G36*
X135600000Y-90950000D02*
G01*
X136000000Y-90950000D01*
X136000000Y-90550000D01*
X135600000Y-90550000D01*
X135600000Y-90950000D01*
G37*
G36*
X135600000Y-90550000D02*
G01*
X136000000Y-90550000D01*
X136000000Y-90150000D01*
X135600000Y-90150000D01*
X135600000Y-90550000D01*
G37*
G36*
X135600000Y-90150000D02*
G01*
X136000000Y-90150000D01*
X136000000Y-89750000D01*
X135600000Y-89750000D01*
X135600000Y-90150000D01*
G37*
G36*
X135600000Y-89750000D02*
G01*
X136000000Y-89750000D01*
X136000000Y-89350000D01*
X135600000Y-89350000D01*
X135600000Y-89750000D01*
G37*
G36*
X135600000Y-89350000D02*
G01*
X136000000Y-89350000D01*
X136000000Y-88950000D01*
X135600000Y-88950000D01*
X135600000Y-89350000D01*
G37*
G36*
X135600000Y-88950000D02*
G01*
X136000000Y-88950000D01*
X136000000Y-88550000D01*
X135600000Y-88550000D01*
X135600000Y-88950000D01*
G37*
G36*
X135600000Y-88150000D02*
G01*
X136000000Y-88150000D01*
X136000000Y-87750000D01*
X135600000Y-87750000D01*
X135600000Y-88150000D01*
G37*
G36*
X135600000Y-87350000D02*
G01*
X136000000Y-87350000D01*
X136000000Y-86950000D01*
X135600000Y-86950000D01*
X135600000Y-87350000D01*
G37*
G36*
X135600000Y-86150000D02*
G01*
X136000000Y-86150000D01*
X136000000Y-85750000D01*
X135600000Y-85750000D01*
X135600000Y-86150000D01*
G37*
G36*
X135600000Y-85750000D02*
G01*
X136000000Y-85750000D01*
X136000000Y-85350000D01*
X135600000Y-85350000D01*
X135600000Y-85750000D01*
G37*
G36*
X135600000Y-85350000D02*
G01*
X136000000Y-85350000D01*
X136000000Y-84950000D01*
X135600000Y-84950000D01*
X135600000Y-85350000D01*
G37*
G36*
X135600000Y-84950000D02*
G01*
X136000000Y-84950000D01*
X136000000Y-84550000D01*
X135600000Y-84550000D01*
X135600000Y-84950000D01*
G37*
G36*
X135600000Y-84550000D02*
G01*
X136000000Y-84550000D01*
X136000000Y-84150000D01*
X135600000Y-84150000D01*
X135600000Y-84550000D01*
G37*
G36*
X135600000Y-82950000D02*
G01*
X136000000Y-82950000D01*
X136000000Y-82550000D01*
X135600000Y-82550000D01*
X135600000Y-82950000D01*
G37*
G36*
X135600000Y-82550000D02*
G01*
X136000000Y-82550000D01*
X136000000Y-82150000D01*
X135600000Y-82150000D01*
X135600000Y-82550000D01*
G37*
G36*
X135600000Y-81350000D02*
G01*
X136000000Y-81350000D01*
X136000000Y-80950000D01*
X135600000Y-80950000D01*
X135600000Y-81350000D01*
G37*
G36*
X135600000Y-80950000D02*
G01*
X136000000Y-80950000D01*
X136000000Y-80550000D01*
X135600000Y-80550000D01*
X135600000Y-80950000D01*
G37*
G36*
X135600000Y-80150000D02*
G01*
X136000000Y-80150000D01*
X136000000Y-79750000D01*
X135600000Y-79750000D01*
X135600000Y-80150000D01*
G37*
G36*
X135600000Y-79750000D02*
G01*
X136000000Y-79750000D01*
X136000000Y-79350000D01*
X135600000Y-79350000D01*
X135600000Y-79750000D01*
G37*
G36*
X135600000Y-78950000D02*
G01*
X136000000Y-78950000D01*
X136000000Y-78550000D01*
X135600000Y-78550000D01*
X135600000Y-78950000D01*
G37*
G36*
X136000000Y-91750000D02*
G01*
X136400000Y-91750000D01*
X136400000Y-91350000D01*
X136000000Y-91350000D01*
X136000000Y-91750000D01*
G37*
G36*
X136000000Y-90150000D02*
G01*
X136400000Y-90150000D01*
X136400000Y-89750000D01*
X136000000Y-89750000D01*
X136000000Y-90150000D01*
G37*
G36*
X136000000Y-89350000D02*
G01*
X136400000Y-89350000D01*
X136400000Y-88950000D01*
X136000000Y-88950000D01*
X136000000Y-89350000D01*
G37*
G36*
X136000000Y-88950000D02*
G01*
X136400000Y-88950000D01*
X136400000Y-88550000D01*
X136000000Y-88550000D01*
X136000000Y-88950000D01*
G37*
G36*
X136000000Y-88550000D02*
G01*
X136400000Y-88550000D01*
X136400000Y-88150000D01*
X136000000Y-88150000D01*
X136000000Y-88550000D01*
G37*
G36*
X136000000Y-88150000D02*
G01*
X136400000Y-88150000D01*
X136400000Y-87750000D01*
X136000000Y-87750000D01*
X136000000Y-88150000D01*
G37*
G36*
X136000000Y-87350000D02*
G01*
X136400000Y-87350000D01*
X136400000Y-86950000D01*
X136000000Y-86950000D01*
X136000000Y-87350000D01*
G37*
G36*
X136000000Y-86550000D02*
G01*
X136400000Y-86550000D01*
X136400000Y-86150000D01*
X136000000Y-86150000D01*
X136000000Y-86550000D01*
G37*
G36*
X136000000Y-85750000D02*
G01*
X136400000Y-85750000D01*
X136400000Y-85350000D01*
X136000000Y-85350000D01*
X136000000Y-85750000D01*
G37*
G36*
X136000000Y-85350000D02*
G01*
X136400000Y-85350000D01*
X136400000Y-84950000D01*
X136000000Y-84950000D01*
X136000000Y-85350000D01*
G37*
G36*
X136000000Y-84550000D02*
G01*
X136400000Y-84550000D01*
X136400000Y-84150000D01*
X136000000Y-84150000D01*
X136000000Y-84550000D01*
G37*
G36*
X136000000Y-84150000D02*
G01*
X136400000Y-84150000D01*
X136400000Y-83750000D01*
X136000000Y-83750000D01*
X136000000Y-84150000D01*
G37*
G36*
X136000000Y-82150000D02*
G01*
X136400000Y-82150000D01*
X136400000Y-81750000D01*
X136000000Y-81750000D01*
X136000000Y-82150000D01*
G37*
G36*
X136000000Y-80950000D02*
G01*
X136400000Y-80950000D01*
X136400000Y-80550000D01*
X136000000Y-80550000D01*
X136000000Y-80950000D01*
G37*
G36*
X136000000Y-80550000D02*
G01*
X136400000Y-80550000D01*
X136400000Y-80150000D01*
X136000000Y-80150000D01*
X136000000Y-80550000D01*
G37*
G36*
X136000000Y-80150000D02*
G01*
X136400000Y-80150000D01*
X136400000Y-79750000D01*
X136000000Y-79750000D01*
X136000000Y-80150000D01*
G37*
G36*
X136000000Y-79750000D02*
G01*
X136400000Y-79750000D01*
X136400000Y-79350000D01*
X136000000Y-79350000D01*
X136000000Y-79750000D01*
G37*
G36*
X136400000Y-91750000D02*
G01*
X136800000Y-91750000D01*
X136800000Y-91350000D01*
X136400000Y-91350000D01*
X136400000Y-91750000D01*
G37*
G36*
X136400000Y-91350000D02*
G01*
X136800000Y-91350000D01*
X136800000Y-90950000D01*
X136400000Y-90950000D01*
X136400000Y-91350000D01*
G37*
G36*
X136400000Y-90950000D02*
G01*
X136800000Y-90950000D01*
X136800000Y-90550000D01*
X136400000Y-90550000D01*
X136400000Y-90950000D01*
G37*
G36*
X136400000Y-90150000D02*
G01*
X136800000Y-90150000D01*
X136800000Y-89750000D01*
X136400000Y-89750000D01*
X136400000Y-90150000D01*
G37*
G36*
X136400000Y-87750000D02*
G01*
X136800000Y-87750000D01*
X136800000Y-87350000D01*
X136400000Y-87350000D01*
X136400000Y-87750000D01*
G37*
G36*
X136400000Y-87350000D02*
G01*
X136800000Y-87350000D01*
X136800000Y-86950000D01*
X136400000Y-86950000D01*
X136400000Y-87350000D01*
G37*
G36*
X136400000Y-86950000D02*
G01*
X136800000Y-86950000D01*
X136800000Y-86550000D01*
X136400000Y-86550000D01*
X136400000Y-86950000D01*
G37*
G36*
X136400000Y-86550000D02*
G01*
X136800000Y-86550000D01*
X136800000Y-86150000D01*
X136400000Y-86150000D01*
X136400000Y-86550000D01*
G37*
G36*
X136400000Y-86150000D02*
G01*
X136800000Y-86150000D01*
X136800000Y-85750000D01*
X136400000Y-85750000D01*
X136400000Y-86150000D01*
G37*
G36*
X136400000Y-85350000D02*
G01*
X136800000Y-85350000D01*
X136800000Y-84950000D01*
X136400000Y-84950000D01*
X136400000Y-85350000D01*
G37*
G36*
X136400000Y-84550000D02*
G01*
X136800000Y-84550000D01*
X136800000Y-84150000D01*
X136400000Y-84150000D01*
X136400000Y-84550000D01*
G37*
G36*
X136400000Y-83350000D02*
G01*
X136800000Y-83350000D01*
X136800000Y-82950000D01*
X136400000Y-82950000D01*
X136400000Y-83350000D01*
G37*
G36*
X136400000Y-82950000D02*
G01*
X136800000Y-82950000D01*
X136800000Y-82550000D01*
X136400000Y-82550000D01*
X136400000Y-82950000D01*
G37*
G36*
X136400000Y-82550000D02*
G01*
X136800000Y-82550000D01*
X136800000Y-82150000D01*
X136400000Y-82150000D01*
X136400000Y-82550000D01*
G37*
G36*
X136400000Y-81750000D02*
G01*
X136800000Y-81750000D01*
X136800000Y-81350000D01*
X136400000Y-81350000D01*
X136400000Y-81750000D01*
G37*
G36*
X136400000Y-81350000D02*
G01*
X136800000Y-81350000D01*
X136800000Y-80950000D01*
X136400000Y-80950000D01*
X136400000Y-81350000D01*
G37*
G36*
X136400000Y-80950000D02*
G01*
X136800000Y-80950000D01*
X136800000Y-80550000D01*
X136400000Y-80550000D01*
X136400000Y-80950000D01*
G37*
G36*
X136400000Y-80150000D02*
G01*
X136800000Y-80150000D01*
X136800000Y-79750000D01*
X136400000Y-79750000D01*
X136400000Y-80150000D01*
G37*
G36*
X136800000Y-91750000D02*
G01*
X137200000Y-91750000D01*
X137200000Y-91350000D01*
X136800000Y-91350000D01*
X136800000Y-91750000D01*
G37*
G36*
X136800000Y-91350000D02*
G01*
X137200000Y-91350000D01*
X137200000Y-90950000D01*
X136800000Y-90950000D01*
X136800000Y-91350000D01*
G37*
G36*
X136800000Y-88950000D02*
G01*
X137200000Y-88950000D01*
X137200000Y-88550000D01*
X136800000Y-88550000D01*
X136800000Y-88950000D01*
G37*
G36*
X136800000Y-88550000D02*
G01*
X137200000Y-88550000D01*
X137200000Y-88150000D01*
X136800000Y-88150000D01*
X136800000Y-88550000D01*
G37*
G36*
X136800000Y-87750000D02*
G01*
X137200000Y-87750000D01*
X137200000Y-87350000D01*
X136800000Y-87350000D01*
X136800000Y-87750000D01*
G37*
G36*
X136800000Y-87350000D02*
G01*
X137200000Y-87350000D01*
X137200000Y-86950000D01*
X136800000Y-86950000D01*
X136800000Y-87350000D01*
G37*
G36*
X136800000Y-86950000D02*
G01*
X137200000Y-86950000D01*
X137200000Y-86550000D01*
X136800000Y-86550000D01*
X136800000Y-86950000D01*
G37*
G36*
X136800000Y-86550000D02*
G01*
X137200000Y-86550000D01*
X137200000Y-86150000D01*
X136800000Y-86150000D01*
X136800000Y-86550000D01*
G37*
G36*
X136800000Y-86150000D02*
G01*
X137200000Y-86150000D01*
X137200000Y-85750000D01*
X136800000Y-85750000D01*
X136800000Y-86150000D01*
G37*
G36*
X136800000Y-83750000D02*
G01*
X137200000Y-83750000D01*
X137200000Y-83350000D01*
X136800000Y-83350000D01*
X136800000Y-83750000D01*
G37*
G36*
X136800000Y-82950000D02*
G01*
X137200000Y-82950000D01*
X137200000Y-82550000D01*
X136800000Y-82550000D01*
X136800000Y-82950000D01*
G37*
G36*
X136800000Y-82550000D02*
G01*
X137200000Y-82550000D01*
X137200000Y-82150000D01*
X136800000Y-82150000D01*
X136800000Y-82550000D01*
G37*
G36*
X136800000Y-82150000D02*
G01*
X137200000Y-82150000D01*
X137200000Y-81750000D01*
X136800000Y-81750000D01*
X136800000Y-82150000D01*
G37*
G36*
X136800000Y-81750000D02*
G01*
X137200000Y-81750000D01*
X137200000Y-81350000D01*
X136800000Y-81350000D01*
X136800000Y-81750000D01*
G37*
G36*
X136800000Y-80950000D02*
G01*
X137200000Y-80950000D01*
X137200000Y-80550000D01*
X136800000Y-80550000D01*
X136800000Y-80950000D01*
G37*
G36*
X136800000Y-80550000D02*
G01*
X137200000Y-80550000D01*
X137200000Y-80150000D01*
X136800000Y-80150000D01*
X136800000Y-80550000D01*
G37*
G36*
X136800000Y-80150000D02*
G01*
X137200000Y-80150000D01*
X137200000Y-79750000D01*
X136800000Y-79750000D01*
X136800000Y-80150000D01*
G37*
G36*
X137200000Y-91750000D02*
G01*
X137600000Y-91750000D01*
X137600000Y-91350000D01*
X137200000Y-91350000D01*
X137200000Y-91750000D01*
G37*
G36*
X137200000Y-91350000D02*
G01*
X137600000Y-91350000D01*
X137600000Y-90950000D01*
X137200000Y-90950000D01*
X137200000Y-91350000D01*
G37*
G36*
X137200000Y-90950000D02*
G01*
X137600000Y-90950000D01*
X137600000Y-90550000D01*
X137200000Y-90550000D01*
X137200000Y-90950000D01*
G37*
G36*
X137200000Y-90150000D02*
G01*
X137600000Y-90150000D01*
X137600000Y-89750000D01*
X137200000Y-89750000D01*
X137200000Y-90150000D01*
G37*
G36*
X137200000Y-89350000D02*
G01*
X137600000Y-89350000D01*
X137600000Y-88950000D01*
X137200000Y-88950000D01*
X137200000Y-89350000D01*
G37*
G36*
X137200000Y-88150000D02*
G01*
X137600000Y-88150000D01*
X137600000Y-87750000D01*
X137200000Y-87750000D01*
X137200000Y-88150000D01*
G37*
G36*
X137200000Y-86950000D02*
G01*
X137600000Y-86950000D01*
X137600000Y-86550000D01*
X137200000Y-86550000D01*
X137200000Y-86950000D01*
G37*
G36*
X137200000Y-86550000D02*
G01*
X137600000Y-86550000D01*
X137600000Y-86150000D01*
X137200000Y-86150000D01*
X137200000Y-86550000D01*
G37*
G36*
X137200000Y-86150000D02*
G01*
X137600000Y-86150000D01*
X137600000Y-85750000D01*
X137200000Y-85750000D01*
X137200000Y-86150000D01*
G37*
G36*
X137200000Y-84950000D02*
G01*
X137600000Y-84950000D01*
X137600000Y-84550000D01*
X137200000Y-84550000D01*
X137200000Y-84950000D01*
G37*
G36*
X137200000Y-84550000D02*
G01*
X137600000Y-84550000D01*
X137600000Y-84150000D01*
X137200000Y-84150000D01*
X137200000Y-84550000D01*
G37*
G36*
X137200000Y-84150000D02*
G01*
X137600000Y-84150000D01*
X137600000Y-83750000D01*
X137200000Y-83750000D01*
X137200000Y-84150000D01*
G37*
G36*
X137200000Y-82950000D02*
G01*
X137600000Y-82950000D01*
X137600000Y-82550000D01*
X137200000Y-82550000D01*
X137200000Y-82950000D01*
G37*
G36*
X137200000Y-82550000D02*
G01*
X137600000Y-82550000D01*
X137600000Y-82150000D01*
X137200000Y-82150000D01*
X137200000Y-82550000D01*
G37*
G36*
X137200000Y-81350000D02*
G01*
X137600000Y-81350000D01*
X137600000Y-80950000D01*
X137200000Y-80950000D01*
X137200000Y-81350000D01*
G37*
G36*
X137200000Y-80150000D02*
G01*
X137600000Y-80150000D01*
X137600000Y-79750000D01*
X137200000Y-79750000D01*
X137200000Y-80150000D01*
G37*
G36*
X137200000Y-79750000D02*
G01*
X137600000Y-79750000D01*
X137600000Y-79350000D01*
X137200000Y-79350000D01*
X137200000Y-79750000D01*
G37*
G36*
X137200000Y-79350000D02*
G01*
X137600000Y-79350000D01*
X137600000Y-78950000D01*
X137200000Y-78950000D01*
X137200000Y-79350000D01*
G37*
G36*
X137200000Y-78950000D02*
G01*
X137600000Y-78950000D01*
X137600000Y-78550000D01*
X137200000Y-78550000D01*
X137200000Y-78950000D01*
G37*
G36*
X137600000Y-91750000D02*
G01*
X138000000Y-91750000D01*
X138000000Y-91350000D01*
X137600000Y-91350000D01*
X137600000Y-91750000D01*
G37*
G36*
X137600000Y-90950000D02*
G01*
X138000000Y-90950000D01*
X138000000Y-90550000D01*
X137600000Y-90550000D01*
X137600000Y-90950000D01*
G37*
G36*
X137600000Y-90550000D02*
G01*
X138000000Y-90550000D01*
X138000000Y-90150000D01*
X137600000Y-90150000D01*
X137600000Y-90550000D01*
G37*
G36*
X137600000Y-88950000D02*
G01*
X138000000Y-88950000D01*
X138000000Y-88550000D01*
X137600000Y-88550000D01*
X137600000Y-88950000D01*
G37*
G36*
X137600000Y-88550000D02*
G01*
X138000000Y-88550000D01*
X138000000Y-88150000D01*
X137600000Y-88150000D01*
X137600000Y-88550000D01*
G37*
G36*
X137600000Y-87350000D02*
G01*
X138000000Y-87350000D01*
X138000000Y-86950000D01*
X137600000Y-86950000D01*
X137600000Y-87350000D01*
G37*
G36*
X137600000Y-86950000D02*
G01*
X138000000Y-86950000D01*
X138000000Y-86550000D01*
X137600000Y-86550000D01*
X137600000Y-86950000D01*
G37*
G36*
X137600000Y-86150000D02*
G01*
X138000000Y-86150000D01*
X138000000Y-85750000D01*
X137600000Y-85750000D01*
X137600000Y-86150000D01*
G37*
G36*
X137600000Y-85350000D02*
G01*
X138000000Y-85350000D01*
X138000000Y-84950000D01*
X137600000Y-84950000D01*
X137600000Y-85350000D01*
G37*
G36*
X137600000Y-84550000D02*
G01*
X138000000Y-84550000D01*
X138000000Y-84150000D01*
X137600000Y-84150000D01*
X137600000Y-84550000D01*
G37*
G36*
X137600000Y-82550000D02*
G01*
X138000000Y-82550000D01*
X138000000Y-82150000D01*
X137600000Y-82150000D01*
X137600000Y-82550000D01*
G37*
G36*
X137600000Y-80150000D02*
G01*
X138000000Y-80150000D01*
X138000000Y-79750000D01*
X137600000Y-79750000D01*
X137600000Y-80150000D01*
G37*
G36*
X137600000Y-79750000D02*
G01*
X138000000Y-79750000D01*
X138000000Y-79350000D01*
X137600000Y-79350000D01*
X137600000Y-79750000D01*
G37*
G36*
X137600000Y-78950000D02*
G01*
X138000000Y-78950000D01*
X138000000Y-78550000D01*
X137600000Y-78550000D01*
X137600000Y-78950000D01*
G37*
G36*
X138000000Y-91350000D02*
G01*
X138400000Y-91350000D01*
X138400000Y-90950000D01*
X138000000Y-90950000D01*
X138000000Y-91350000D01*
G37*
G36*
X138000000Y-90550000D02*
G01*
X138400000Y-90550000D01*
X138400000Y-90150000D01*
X138000000Y-90150000D01*
X138000000Y-90550000D01*
G37*
G36*
X138000000Y-89750000D02*
G01*
X138400000Y-89750000D01*
X138400000Y-89350000D01*
X138000000Y-89350000D01*
X138000000Y-89750000D01*
G37*
G36*
X138000000Y-89350000D02*
G01*
X138400000Y-89350000D01*
X138400000Y-88950000D01*
X138000000Y-88950000D01*
X138000000Y-89350000D01*
G37*
G36*
X138000000Y-88950000D02*
G01*
X138400000Y-88950000D01*
X138400000Y-88550000D01*
X138000000Y-88550000D01*
X138000000Y-88950000D01*
G37*
G36*
X138000000Y-88550000D02*
G01*
X138400000Y-88550000D01*
X138400000Y-88150000D01*
X138000000Y-88150000D01*
X138000000Y-88550000D01*
G37*
G36*
X138000000Y-87750000D02*
G01*
X138400000Y-87750000D01*
X138400000Y-87350000D01*
X138000000Y-87350000D01*
X138000000Y-87750000D01*
G37*
G36*
X138000000Y-87350000D02*
G01*
X138400000Y-87350000D01*
X138400000Y-86950000D01*
X138000000Y-86950000D01*
X138000000Y-87350000D01*
G37*
G36*
X138000000Y-86950000D02*
G01*
X138400000Y-86950000D01*
X138400000Y-86550000D01*
X138000000Y-86550000D01*
X138000000Y-86950000D01*
G37*
G36*
X138000000Y-86150000D02*
G01*
X138400000Y-86150000D01*
X138400000Y-85750000D01*
X138000000Y-85750000D01*
X138000000Y-86150000D01*
G37*
G36*
X138000000Y-85750000D02*
G01*
X138400000Y-85750000D01*
X138400000Y-85350000D01*
X138000000Y-85350000D01*
X138000000Y-85750000D01*
G37*
G36*
X138000000Y-83350000D02*
G01*
X138400000Y-83350000D01*
X138400000Y-82950000D01*
X138000000Y-82950000D01*
X138000000Y-83350000D01*
G37*
G36*
X138000000Y-82950000D02*
G01*
X138400000Y-82950000D01*
X138400000Y-82550000D01*
X138000000Y-82550000D01*
X138000000Y-82950000D01*
G37*
G36*
X138000000Y-81350000D02*
G01*
X138400000Y-81350000D01*
X138400000Y-80950000D01*
X138000000Y-80950000D01*
X138000000Y-81350000D01*
G37*
G36*
X138000000Y-80950000D02*
G01*
X138400000Y-80950000D01*
X138400000Y-80550000D01*
X138000000Y-80550000D01*
X138000000Y-80950000D01*
G37*
G36*
X138000000Y-80550000D02*
G01*
X138400000Y-80550000D01*
X138400000Y-80150000D01*
X138000000Y-80150000D01*
X138000000Y-80550000D01*
G37*
G36*
X138000000Y-80150000D02*
G01*
X138400000Y-80150000D01*
X138400000Y-79750000D01*
X138000000Y-79750000D01*
X138000000Y-80150000D01*
G37*
G36*
X138000000Y-78950000D02*
G01*
X138400000Y-78950000D01*
X138400000Y-78550000D01*
X138000000Y-78550000D01*
X138000000Y-78950000D01*
G37*
G36*
X138400000Y-91750000D02*
G01*
X138800000Y-91750000D01*
X138800000Y-91350000D01*
X138400000Y-91350000D01*
X138400000Y-91750000D01*
G37*
G36*
X138400000Y-91350000D02*
G01*
X138800000Y-91350000D01*
X138800000Y-90950000D01*
X138400000Y-90950000D01*
X138400000Y-91350000D01*
G37*
G36*
X138400000Y-90950000D02*
G01*
X138800000Y-90950000D01*
X138800000Y-90550000D01*
X138400000Y-90550000D01*
X138400000Y-90950000D01*
G37*
G36*
X138400000Y-89350000D02*
G01*
X138800000Y-89350000D01*
X138800000Y-88950000D01*
X138400000Y-88950000D01*
X138400000Y-89350000D01*
G37*
G36*
X138400000Y-88950000D02*
G01*
X138800000Y-88950000D01*
X138800000Y-88550000D01*
X138400000Y-88550000D01*
X138400000Y-88950000D01*
G37*
G36*
X138400000Y-88550000D02*
G01*
X138800000Y-88550000D01*
X138800000Y-88150000D01*
X138400000Y-88150000D01*
X138400000Y-88550000D01*
G37*
G36*
X138400000Y-88150000D02*
G01*
X138800000Y-88150000D01*
X138800000Y-87750000D01*
X138400000Y-87750000D01*
X138400000Y-88150000D01*
G37*
G36*
X138400000Y-87750000D02*
G01*
X138800000Y-87750000D01*
X138800000Y-87350000D01*
X138400000Y-87350000D01*
X138400000Y-87750000D01*
G37*
G36*
X138400000Y-86950000D02*
G01*
X138800000Y-86950000D01*
X138800000Y-86550000D01*
X138400000Y-86550000D01*
X138400000Y-86950000D01*
G37*
G36*
X138400000Y-86550000D02*
G01*
X138800000Y-86550000D01*
X138800000Y-86150000D01*
X138400000Y-86150000D01*
X138400000Y-86550000D01*
G37*
G36*
X138400000Y-85750000D02*
G01*
X138800000Y-85750000D01*
X138800000Y-85350000D01*
X138400000Y-85350000D01*
X138400000Y-85750000D01*
G37*
G36*
X138400000Y-84950000D02*
G01*
X138800000Y-84950000D01*
X138800000Y-84550000D01*
X138400000Y-84550000D01*
X138400000Y-84950000D01*
G37*
G36*
X138400000Y-84550000D02*
G01*
X138800000Y-84550000D01*
X138800000Y-84150000D01*
X138400000Y-84150000D01*
X138400000Y-84550000D01*
G37*
G36*
X138400000Y-83350000D02*
G01*
X138800000Y-83350000D01*
X138800000Y-82950000D01*
X138400000Y-82950000D01*
X138400000Y-83350000D01*
G37*
G36*
X138400000Y-80950000D02*
G01*
X138800000Y-80950000D01*
X138800000Y-80550000D01*
X138400000Y-80550000D01*
X138400000Y-80950000D01*
G37*
G36*
X138400000Y-79350000D02*
G01*
X138800000Y-79350000D01*
X138800000Y-78950000D01*
X138400000Y-78950000D01*
X138400000Y-79350000D01*
G37*
G36*
X138400000Y-78950000D02*
G01*
X138800000Y-78950000D01*
X138800000Y-78550000D01*
X138400000Y-78550000D01*
X138400000Y-78950000D01*
G37*
G36*
X138800000Y-91750000D02*
G01*
X139200000Y-91750000D01*
X139200000Y-91350000D01*
X138800000Y-91350000D01*
X138800000Y-91750000D01*
G37*
G36*
X138800000Y-90950000D02*
G01*
X139200000Y-90950000D01*
X139200000Y-90550000D01*
X138800000Y-90550000D01*
X138800000Y-90950000D01*
G37*
G36*
X138800000Y-90150000D02*
G01*
X139200000Y-90150000D01*
X139200000Y-89750000D01*
X138800000Y-89750000D01*
X138800000Y-90150000D01*
G37*
G36*
X138800000Y-88950000D02*
G01*
X139200000Y-88950000D01*
X139200000Y-88550000D01*
X138800000Y-88550000D01*
X138800000Y-88950000D01*
G37*
G36*
X138800000Y-88550000D02*
G01*
X139200000Y-88550000D01*
X139200000Y-88150000D01*
X138800000Y-88150000D01*
X138800000Y-88550000D01*
G37*
G36*
X138800000Y-86950000D02*
G01*
X139200000Y-86950000D01*
X139200000Y-86550000D01*
X138800000Y-86550000D01*
X138800000Y-86950000D01*
G37*
G36*
X138800000Y-86150000D02*
G01*
X139200000Y-86150000D01*
X139200000Y-85750000D01*
X138800000Y-85750000D01*
X138800000Y-86150000D01*
G37*
G36*
X138800000Y-85350000D02*
G01*
X139200000Y-85350000D01*
X139200000Y-84950000D01*
X138800000Y-84950000D01*
X138800000Y-85350000D01*
G37*
G36*
X138800000Y-84550000D02*
G01*
X139200000Y-84550000D01*
X139200000Y-84150000D01*
X138800000Y-84150000D01*
X138800000Y-84550000D01*
G37*
G36*
X138800000Y-83750000D02*
G01*
X139200000Y-83750000D01*
X139200000Y-83350000D01*
X138800000Y-83350000D01*
X138800000Y-83750000D01*
G37*
G36*
X138800000Y-83350000D02*
G01*
X139200000Y-83350000D01*
X139200000Y-82950000D01*
X138800000Y-82950000D01*
X138800000Y-83350000D01*
G37*
G36*
X138800000Y-82950000D02*
G01*
X139200000Y-82950000D01*
X139200000Y-82550000D01*
X138800000Y-82550000D01*
X138800000Y-82950000D01*
G37*
G36*
X138800000Y-82550000D02*
G01*
X139200000Y-82550000D01*
X139200000Y-82150000D01*
X138800000Y-82150000D01*
X138800000Y-82550000D01*
G37*
G36*
X138800000Y-81350000D02*
G01*
X139200000Y-81350000D01*
X139200000Y-80950000D01*
X138800000Y-80950000D01*
X138800000Y-81350000D01*
G37*
G36*
X138800000Y-80950000D02*
G01*
X139200000Y-80950000D01*
X139200000Y-80550000D01*
X138800000Y-80550000D01*
X138800000Y-80950000D01*
G37*
G36*
X138800000Y-80550000D02*
G01*
X139200000Y-80550000D01*
X139200000Y-80150000D01*
X138800000Y-80150000D01*
X138800000Y-80550000D01*
G37*
G36*
X138800000Y-79350000D02*
G01*
X139200000Y-79350000D01*
X139200000Y-78950000D01*
X138800000Y-78950000D01*
X138800000Y-79350000D01*
G37*
G36*
X139200000Y-91350000D02*
G01*
X139600000Y-91350000D01*
X139600000Y-90950000D01*
X139200000Y-90950000D01*
X139200000Y-91350000D01*
G37*
G36*
X139200000Y-90550000D02*
G01*
X139600000Y-90550000D01*
X139600000Y-90150000D01*
X139200000Y-90150000D01*
X139200000Y-90550000D01*
G37*
G36*
X139200000Y-90150000D02*
G01*
X139600000Y-90150000D01*
X139600000Y-89750000D01*
X139200000Y-89750000D01*
X139200000Y-90150000D01*
G37*
G36*
X139200000Y-89750000D02*
G01*
X139600000Y-89750000D01*
X139600000Y-89350000D01*
X139200000Y-89350000D01*
X139200000Y-89750000D01*
G37*
G36*
X139200000Y-88150000D02*
G01*
X139600000Y-88150000D01*
X139600000Y-87750000D01*
X139200000Y-87750000D01*
X139200000Y-88150000D01*
G37*
G36*
X139200000Y-87350000D02*
G01*
X139600000Y-87350000D01*
X139600000Y-86950000D01*
X139200000Y-86950000D01*
X139200000Y-87350000D01*
G37*
G36*
X139200000Y-86550000D02*
G01*
X139600000Y-86550000D01*
X139600000Y-86150000D01*
X139200000Y-86150000D01*
X139200000Y-86550000D01*
G37*
G36*
X139200000Y-85350000D02*
G01*
X139600000Y-85350000D01*
X139600000Y-84950000D01*
X139200000Y-84950000D01*
X139200000Y-85350000D01*
G37*
G36*
X139200000Y-84950000D02*
G01*
X139600000Y-84950000D01*
X139600000Y-84550000D01*
X139200000Y-84550000D01*
X139200000Y-84950000D01*
G37*
G36*
X139200000Y-83350000D02*
G01*
X139600000Y-83350000D01*
X139600000Y-82950000D01*
X139200000Y-82950000D01*
X139200000Y-83350000D01*
G37*
G36*
X139200000Y-80150000D02*
G01*
X139600000Y-80150000D01*
X139600000Y-79750000D01*
X139200000Y-79750000D01*
X139200000Y-80150000D01*
G37*
G36*
X139200000Y-79750000D02*
G01*
X139600000Y-79750000D01*
X139600000Y-79350000D01*
X139200000Y-79350000D01*
X139200000Y-79750000D01*
G37*
G36*
X139200000Y-78950000D02*
G01*
X139600000Y-78950000D01*
X139600000Y-78550000D01*
X139200000Y-78550000D01*
X139200000Y-78950000D01*
G37*
G36*
X139600000Y-91750000D02*
G01*
X140000000Y-91750000D01*
X140000000Y-91350000D01*
X139600000Y-91350000D01*
X139600000Y-91750000D01*
G37*
G36*
X139600000Y-90950000D02*
G01*
X140000000Y-90950000D01*
X140000000Y-90550000D01*
X139600000Y-90550000D01*
X139600000Y-90950000D01*
G37*
G36*
X139600000Y-90550000D02*
G01*
X140000000Y-90550000D01*
X140000000Y-90150000D01*
X139600000Y-90150000D01*
X139600000Y-90550000D01*
G37*
G36*
X139600000Y-90150000D02*
G01*
X140000000Y-90150000D01*
X140000000Y-89750000D01*
X139600000Y-89750000D01*
X139600000Y-90150000D01*
G37*
G36*
X139600000Y-89350000D02*
G01*
X140000000Y-89350000D01*
X140000000Y-88950000D01*
X139600000Y-88950000D01*
X139600000Y-89350000D01*
G37*
G36*
X139600000Y-88550000D02*
G01*
X140000000Y-88550000D01*
X140000000Y-88150000D01*
X139600000Y-88150000D01*
X139600000Y-88550000D01*
G37*
G36*
X139600000Y-87750000D02*
G01*
X140000000Y-87750000D01*
X140000000Y-87350000D01*
X139600000Y-87350000D01*
X139600000Y-87750000D01*
G37*
G36*
X139600000Y-87350000D02*
G01*
X140000000Y-87350000D01*
X140000000Y-86950000D01*
X139600000Y-86950000D01*
X139600000Y-87350000D01*
G37*
G36*
X139600000Y-85750000D02*
G01*
X140000000Y-85750000D01*
X140000000Y-85350000D01*
X139600000Y-85350000D01*
X139600000Y-85750000D01*
G37*
G36*
X139600000Y-84950000D02*
G01*
X140000000Y-84950000D01*
X140000000Y-84550000D01*
X139600000Y-84550000D01*
X139600000Y-84950000D01*
G37*
G36*
X139600000Y-84150000D02*
G01*
X140000000Y-84150000D01*
X140000000Y-83750000D01*
X139600000Y-83750000D01*
X139600000Y-84150000D01*
G37*
G36*
X139600000Y-82150000D02*
G01*
X140000000Y-82150000D01*
X140000000Y-81750000D01*
X139600000Y-81750000D01*
X139600000Y-82150000D01*
G37*
G36*
X139600000Y-81750000D02*
G01*
X140000000Y-81750000D01*
X140000000Y-81350000D01*
X139600000Y-81350000D01*
X139600000Y-81750000D01*
G37*
G36*
X139600000Y-81350000D02*
G01*
X140000000Y-81350000D01*
X140000000Y-80950000D01*
X139600000Y-80950000D01*
X139600000Y-81350000D01*
G37*
G36*
X139600000Y-80950000D02*
G01*
X140000000Y-80950000D01*
X140000000Y-80550000D01*
X139600000Y-80550000D01*
X139600000Y-80950000D01*
G37*
G36*
X139600000Y-80150000D02*
G01*
X140000000Y-80150000D01*
X140000000Y-79750000D01*
X139600000Y-79750000D01*
X139600000Y-80150000D01*
G37*
G36*
X139600000Y-79750000D02*
G01*
X140000000Y-79750000D01*
X140000000Y-79350000D01*
X139600000Y-79350000D01*
X139600000Y-79750000D01*
G37*
G36*
X139600000Y-79350000D02*
G01*
X140000000Y-79350000D01*
X140000000Y-78950000D01*
X139600000Y-78950000D01*
X139600000Y-79350000D01*
G37*
G36*
X140000000Y-91750000D02*
G01*
X140400000Y-91750000D01*
X140400000Y-91350000D01*
X140000000Y-91350000D01*
X140000000Y-91750000D01*
G37*
G36*
X140000000Y-90950000D02*
G01*
X140400000Y-90950000D01*
X140400000Y-90550000D01*
X140000000Y-90550000D01*
X140000000Y-90950000D01*
G37*
G36*
X140000000Y-89750000D02*
G01*
X140400000Y-89750000D01*
X140400000Y-89350000D01*
X140000000Y-89350000D01*
X140000000Y-89750000D01*
G37*
G36*
X140000000Y-89350000D02*
G01*
X140400000Y-89350000D01*
X140400000Y-88950000D01*
X140000000Y-88950000D01*
X140000000Y-89350000D01*
G37*
G36*
X140000000Y-88950000D02*
G01*
X140400000Y-88950000D01*
X140400000Y-88550000D01*
X140000000Y-88550000D01*
X140000000Y-88950000D01*
G37*
G36*
X140000000Y-87750000D02*
G01*
X140400000Y-87750000D01*
X140400000Y-87350000D01*
X140000000Y-87350000D01*
X140000000Y-87750000D01*
G37*
G36*
X140000000Y-85350000D02*
G01*
X140400000Y-85350000D01*
X140400000Y-84950000D01*
X140000000Y-84950000D01*
X140000000Y-85350000D01*
G37*
G36*
X140000000Y-84950000D02*
G01*
X140400000Y-84950000D01*
X140400000Y-84550000D01*
X140000000Y-84550000D01*
X140000000Y-84950000D01*
G37*
G36*
X140000000Y-83750000D02*
G01*
X140400000Y-83750000D01*
X140400000Y-83350000D01*
X140000000Y-83350000D01*
X140000000Y-83750000D01*
G37*
G36*
X140000000Y-82150000D02*
G01*
X140400000Y-82150000D01*
X140400000Y-81750000D01*
X140000000Y-81750000D01*
X140000000Y-82150000D01*
G37*
G36*
X140000000Y-81750000D02*
G01*
X140400000Y-81750000D01*
X140400000Y-81350000D01*
X140000000Y-81350000D01*
X140000000Y-81750000D01*
G37*
G36*
X140000000Y-80950000D02*
G01*
X140400000Y-80950000D01*
X140400000Y-80550000D01*
X140000000Y-80550000D01*
X140000000Y-80950000D01*
G37*
G36*
X140000000Y-80550000D02*
G01*
X140400000Y-80550000D01*
X140400000Y-80150000D01*
X140000000Y-80150000D01*
X140000000Y-80550000D01*
G37*
G36*
X140000000Y-79350000D02*
G01*
X140400000Y-79350000D01*
X140400000Y-78950000D01*
X140000000Y-78950000D01*
X140000000Y-79350000D01*
G37*
G36*
X140400000Y-91750000D02*
G01*
X140800000Y-91750000D01*
X140800000Y-91350000D01*
X140400000Y-91350000D01*
X140400000Y-91750000D01*
G37*
G36*
X140400000Y-90950000D02*
G01*
X140800000Y-90950000D01*
X140800000Y-90550000D01*
X140400000Y-90550000D01*
X140400000Y-90950000D01*
G37*
G36*
X140400000Y-90550000D02*
G01*
X140800000Y-90550000D01*
X140800000Y-90150000D01*
X140400000Y-90150000D01*
X140400000Y-90550000D01*
G37*
G36*
X140400000Y-89750000D02*
G01*
X140800000Y-89750000D01*
X140800000Y-89350000D01*
X140400000Y-89350000D01*
X140400000Y-89750000D01*
G37*
G36*
X140400000Y-89350000D02*
G01*
X140800000Y-89350000D01*
X140800000Y-88950000D01*
X140400000Y-88950000D01*
X140400000Y-89350000D01*
G37*
G36*
X140400000Y-88950000D02*
G01*
X140800000Y-88950000D01*
X140800000Y-88550000D01*
X140400000Y-88550000D01*
X140400000Y-88950000D01*
G37*
G36*
X140400000Y-88550000D02*
G01*
X140800000Y-88550000D01*
X140800000Y-88150000D01*
X140400000Y-88150000D01*
X140400000Y-88550000D01*
G37*
G36*
X140400000Y-88150000D02*
G01*
X140800000Y-88150000D01*
X140800000Y-87750000D01*
X140400000Y-87750000D01*
X140400000Y-88150000D01*
G37*
G36*
X140400000Y-87750000D02*
G01*
X140800000Y-87750000D01*
X140800000Y-87350000D01*
X140400000Y-87350000D01*
X140400000Y-87750000D01*
G37*
G36*
X140400000Y-86950000D02*
G01*
X140800000Y-86950000D01*
X140800000Y-86550000D01*
X140400000Y-86550000D01*
X140400000Y-86950000D01*
G37*
G36*
X140400000Y-86550000D02*
G01*
X140800000Y-86550000D01*
X140800000Y-86150000D01*
X140400000Y-86150000D01*
X140400000Y-86550000D01*
G37*
G36*
X140400000Y-86150000D02*
G01*
X140800000Y-86150000D01*
X140800000Y-85750000D01*
X140400000Y-85750000D01*
X140400000Y-86150000D01*
G37*
G36*
X140400000Y-84950000D02*
G01*
X140800000Y-84950000D01*
X140800000Y-84550000D01*
X140400000Y-84550000D01*
X140400000Y-84950000D01*
G37*
G36*
X140400000Y-84550000D02*
G01*
X140800000Y-84550000D01*
X140800000Y-84150000D01*
X140400000Y-84150000D01*
X140400000Y-84550000D01*
G37*
G36*
X140400000Y-83350000D02*
G01*
X140800000Y-83350000D01*
X140800000Y-82950000D01*
X140400000Y-82950000D01*
X140400000Y-83350000D01*
G37*
G36*
X140400000Y-82550000D02*
G01*
X140800000Y-82550000D01*
X140800000Y-82150000D01*
X140400000Y-82150000D01*
X140400000Y-82550000D01*
G37*
G36*
X140400000Y-81750000D02*
G01*
X140800000Y-81750000D01*
X140800000Y-81350000D01*
X140400000Y-81350000D01*
X140400000Y-81750000D01*
G37*
G36*
X140400000Y-81350000D02*
G01*
X140800000Y-81350000D01*
X140800000Y-80950000D01*
X140400000Y-80950000D01*
X140400000Y-81350000D01*
G37*
G36*
X140400000Y-80150000D02*
G01*
X140800000Y-80150000D01*
X140800000Y-79750000D01*
X140400000Y-79750000D01*
X140400000Y-80150000D01*
G37*
G36*
X140400000Y-79350000D02*
G01*
X140800000Y-79350000D01*
X140800000Y-78950000D01*
X140400000Y-78950000D01*
X140400000Y-79350000D01*
G37*
G36*
X140400000Y-78950000D02*
G01*
X140800000Y-78950000D01*
X140800000Y-78550000D01*
X140400000Y-78550000D01*
X140400000Y-78950000D01*
G37*
G36*
X140800000Y-88150000D02*
G01*
X141200000Y-88150000D01*
X141200000Y-87750000D01*
X140800000Y-87750000D01*
X140800000Y-88150000D01*
G37*
G36*
X140800000Y-86950000D02*
G01*
X141200000Y-86950000D01*
X141200000Y-86550000D01*
X140800000Y-86550000D01*
X140800000Y-86950000D01*
G37*
G36*
X140800000Y-86150000D02*
G01*
X141200000Y-86150000D01*
X141200000Y-85750000D01*
X140800000Y-85750000D01*
X140800000Y-86150000D01*
G37*
G36*
X140800000Y-84950000D02*
G01*
X141200000Y-84950000D01*
X141200000Y-84550000D01*
X140800000Y-84550000D01*
X140800000Y-84950000D01*
G37*
G36*
X140800000Y-83750000D02*
G01*
X141200000Y-83750000D01*
X141200000Y-83350000D01*
X140800000Y-83350000D01*
X140800000Y-83750000D01*
G37*
G36*
X140800000Y-83350000D02*
G01*
X141200000Y-83350000D01*
X141200000Y-82950000D01*
X140800000Y-82950000D01*
X140800000Y-83350000D01*
G37*
G36*
X140800000Y-82150000D02*
G01*
X141200000Y-82150000D01*
X141200000Y-81750000D01*
X140800000Y-81750000D01*
X140800000Y-82150000D01*
G37*
G36*
X141200000Y-91750000D02*
G01*
X141600000Y-91750000D01*
X141600000Y-91350000D01*
X141200000Y-91350000D01*
X141200000Y-91750000D01*
G37*
G36*
X141200000Y-91350000D02*
G01*
X141600000Y-91350000D01*
X141600000Y-90950000D01*
X141200000Y-90950000D01*
X141200000Y-91350000D01*
G37*
G36*
X141200000Y-90950000D02*
G01*
X141600000Y-90950000D01*
X141600000Y-90550000D01*
X141200000Y-90550000D01*
X141200000Y-90950000D01*
G37*
G36*
X141200000Y-90550000D02*
G01*
X141600000Y-90550000D01*
X141600000Y-90150000D01*
X141200000Y-90150000D01*
X141200000Y-90550000D01*
G37*
G36*
X141200000Y-90150000D02*
G01*
X141600000Y-90150000D01*
X141600000Y-89750000D01*
X141200000Y-89750000D01*
X141200000Y-90150000D01*
G37*
G36*
X141200000Y-89750000D02*
G01*
X141600000Y-89750000D01*
X141600000Y-89350000D01*
X141200000Y-89350000D01*
X141200000Y-89750000D01*
G37*
G36*
X141200000Y-89350000D02*
G01*
X141600000Y-89350000D01*
X141600000Y-88950000D01*
X141200000Y-88950000D01*
X141200000Y-89350000D01*
G37*
G36*
X141200000Y-88550000D02*
G01*
X141600000Y-88550000D01*
X141600000Y-88150000D01*
X141200000Y-88150000D01*
X141200000Y-88550000D01*
G37*
G36*
X141200000Y-87750000D02*
G01*
X141600000Y-87750000D01*
X141600000Y-87350000D01*
X141200000Y-87350000D01*
X141200000Y-87750000D01*
G37*
G36*
X141200000Y-86950000D02*
G01*
X141600000Y-86950000D01*
X141600000Y-86550000D01*
X141200000Y-86550000D01*
X141200000Y-86950000D01*
G37*
G36*
X141200000Y-86150000D02*
G01*
X141600000Y-86150000D01*
X141600000Y-85750000D01*
X141200000Y-85750000D01*
X141200000Y-86150000D01*
G37*
G36*
X141200000Y-85350000D02*
G01*
X141600000Y-85350000D01*
X141600000Y-84950000D01*
X141200000Y-84950000D01*
X141200000Y-85350000D01*
G37*
G36*
X141200000Y-84550000D02*
G01*
X141600000Y-84550000D01*
X141600000Y-84150000D01*
X141200000Y-84150000D01*
X141200000Y-84550000D01*
G37*
G36*
X141200000Y-83750000D02*
G01*
X141600000Y-83750000D01*
X141600000Y-83350000D01*
X141200000Y-83350000D01*
X141200000Y-83750000D01*
G37*
G36*
X141200000Y-82950000D02*
G01*
X141600000Y-82950000D01*
X141600000Y-82550000D01*
X141200000Y-82550000D01*
X141200000Y-82950000D01*
G37*
G36*
X141200000Y-82150000D02*
G01*
X141600000Y-82150000D01*
X141600000Y-81750000D01*
X141200000Y-81750000D01*
X141200000Y-82150000D01*
G37*
G36*
X141200000Y-81350000D02*
G01*
X141600000Y-81350000D01*
X141600000Y-80950000D01*
X141200000Y-80950000D01*
X141200000Y-81350000D01*
G37*
G36*
X141200000Y-80950000D02*
G01*
X141600000Y-80950000D01*
X141600000Y-80550000D01*
X141200000Y-80550000D01*
X141200000Y-80950000D01*
G37*
G36*
X141200000Y-80550000D02*
G01*
X141600000Y-80550000D01*
X141600000Y-80150000D01*
X141200000Y-80150000D01*
X141200000Y-80550000D01*
G37*
G36*
X141200000Y-80150000D02*
G01*
X141600000Y-80150000D01*
X141600000Y-79750000D01*
X141200000Y-79750000D01*
X141200000Y-80150000D01*
G37*
G36*
X141200000Y-79750000D02*
G01*
X141600000Y-79750000D01*
X141600000Y-79350000D01*
X141200000Y-79350000D01*
X141200000Y-79750000D01*
G37*
G36*
X141200000Y-79350000D02*
G01*
X141600000Y-79350000D01*
X141600000Y-78950000D01*
X141200000Y-78950000D01*
X141200000Y-79350000D01*
G37*
G36*
X141200000Y-78950000D02*
G01*
X141600000Y-78950000D01*
X141600000Y-78550000D01*
X141200000Y-78550000D01*
X141200000Y-78950000D01*
G37*
G36*
X141600000Y-91750000D02*
G01*
X142000000Y-91750000D01*
X142000000Y-91350000D01*
X141600000Y-91350000D01*
X141600000Y-91750000D01*
G37*
G36*
X141600000Y-89350000D02*
G01*
X142000000Y-89350000D01*
X142000000Y-88950000D01*
X141600000Y-88950000D01*
X141600000Y-89350000D01*
G37*
G36*
X141600000Y-88550000D02*
G01*
X142000000Y-88550000D01*
X142000000Y-88150000D01*
X141600000Y-88150000D01*
X141600000Y-88550000D01*
G37*
G36*
X141600000Y-88150000D02*
G01*
X142000000Y-88150000D01*
X142000000Y-87750000D01*
X141600000Y-87750000D01*
X141600000Y-88150000D01*
G37*
G36*
X141600000Y-87350000D02*
G01*
X142000000Y-87350000D01*
X142000000Y-86950000D01*
X141600000Y-86950000D01*
X141600000Y-87350000D01*
G37*
G36*
X141600000Y-86950000D02*
G01*
X142000000Y-86950000D01*
X142000000Y-86550000D01*
X141600000Y-86550000D01*
X141600000Y-86950000D01*
G37*
G36*
X141600000Y-86150000D02*
G01*
X142000000Y-86150000D01*
X142000000Y-85750000D01*
X141600000Y-85750000D01*
X141600000Y-86150000D01*
G37*
G36*
X141600000Y-85750000D02*
G01*
X142000000Y-85750000D01*
X142000000Y-85350000D01*
X141600000Y-85350000D01*
X141600000Y-85750000D01*
G37*
G36*
X141600000Y-84950000D02*
G01*
X142000000Y-84950000D01*
X142000000Y-84550000D01*
X141600000Y-84550000D01*
X141600000Y-84950000D01*
G37*
G36*
X141600000Y-84150000D02*
G01*
X142000000Y-84150000D01*
X142000000Y-83750000D01*
X141600000Y-83750000D01*
X141600000Y-84150000D01*
G37*
G36*
X141600000Y-83350000D02*
G01*
X142000000Y-83350000D01*
X142000000Y-82950000D01*
X141600000Y-82950000D01*
X141600000Y-83350000D01*
G37*
G36*
X141600000Y-82550000D02*
G01*
X142000000Y-82550000D01*
X142000000Y-82150000D01*
X141600000Y-82150000D01*
X141600000Y-82550000D01*
G37*
G36*
X141600000Y-82150000D02*
G01*
X142000000Y-82150000D01*
X142000000Y-81750000D01*
X141600000Y-81750000D01*
X141600000Y-82150000D01*
G37*
G36*
X141600000Y-81350000D02*
G01*
X142000000Y-81350000D01*
X142000000Y-80950000D01*
X141600000Y-80950000D01*
X141600000Y-81350000D01*
G37*
G36*
X141600000Y-78950000D02*
G01*
X142000000Y-78950000D01*
X142000000Y-78550000D01*
X141600000Y-78550000D01*
X141600000Y-78950000D01*
G37*
G36*
X142000000Y-91750000D02*
G01*
X142400000Y-91750000D01*
X142400000Y-91350000D01*
X142000000Y-91350000D01*
X142000000Y-91750000D01*
G37*
G36*
X142000000Y-90950000D02*
G01*
X142400000Y-90950000D01*
X142400000Y-90550000D01*
X142000000Y-90550000D01*
X142000000Y-90950000D01*
G37*
G36*
X142000000Y-90550000D02*
G01*
X142400000Y-90550000D01*
X142400000Y-90150000D01*
X142000000Y-90150000D01*
X142000000Y-90550000D01*
G37*
G36*
X142000000Y-90150000D02*
G01*
X142400000Y-90150000D01*
X142400000Y-89750000D01*
X142000000Y-89750000D01*
X142000000Y-90150000D01*
G37*
G36*
X142000000Y-89350000D02*
G01*
X142400000Y-89350000D01*
X142400000Y-88950000D01*
X142000000Y-88950000D01*
X142000000Y-89350000D01*
G37*
G36*
X142000000Y-88550000D02*
G01*
X142400000Y-88550000D01*
X142400000Y-88150000D01*
X142000000Y-88150000D01*
X142000000Y-88550000D01*
G37*
G36*
X142000000Y-87750000D02*
G01*
X142400000Y-87750000D01*
X142400000Y-87350000D01*
X142000000Y-87350000D01*
X142000000Y-87750000D01*
G37*
G36*
X142000000Y-87350000D02*
G01*
X142400000Y-87350000D01*
X142400000Y-86950000D01*
X142000000Y-86950000D01*
X142000000Y-87350000D01*
G37*
G36*
X142000000Y-86150000D02*
G01*
X142400000Y-86150000D01*
X142400000Y-85750000D01*
X142000000Y-85750000D01*
X142000000Y-86150000D01*
G37*
G36*
X142000000Y-85350000D02*
G01*
X142400000Y-85350000D01*
X142400000Y-84950000D01*
X142000000Y-84950000D01*
X142000000Y-85350000D01*
G37*
G36*
X142000000Y-83750000D02*
G01*
X142400000Y-83750000D01*
X142400000Y-83350000D01*
X142000000Y-83350000D01*
X142000000Y-83750000D01*
G37*
G36*
X142000000Y-82950000D02*
G01*
X142400000Y-82950000D01*
X142400000Y-82550000D01*
X142000000Y-82550000D01*
X142000000Y-82950000D01*
G37*
G36*
X142000000Y-82550000D02*
G01*
X142400000Y-82550000D01*
X142400000Y-82150000D01*
X142000000Y-82150000D01*
X142000000Y-82550000D01*
G37*
G36*
X142000000Y-81350000D02*
G01*
X142400000Y-81350000D01*
X142400000Y-80950000D01*
X142000000Y-80950000D01*
X142000000Y-81350000D01*
G37*
G36*
X142000000Y-80550000D02*
G01*
X142400000Y-80550000D01*
X142400000Y-80150000D01*
X142000000Y-80150000D01*
X142000000Y-80550000D01*
G37*
G36*
X142000000Y-80150000D02*
G01*
X142400000Y-80150000D01*
X142400000Y-79750000D01*
X142000000Y-79750000D01*
X142000000Y-80150000D01*
G37*
G36*
X142000000Y-79750000D02*
G01*
X142400000Y-79750000D01*
X142400000Y-79350000D01*
X142000000Y-79350000D01*
X142000000Y-79750000D01*
G37*
G36*
X142000000Y-78950000D02*
G01*
X142400000Y-78950000D01*
X142400000Y-78550000D01*
X142000000Y-78550000D01*
X142000000Y-78950000D01*
G37*
G36*
X142400000Y-91750000D02*
G01*
X142800000Y-91750000D01*
X142800000Y-91350000D01*
X142400000Y-91350000D01*
X142400000Y-91750000D01*
G37*
G36*
X142400000Y-90950000D02*
G01*
X142800000Y-90950000D01*
X142800000Y-90550000D01*
X142400000Y-90550000D01*
X142400000Y-90950000D01*
G37*
G36*
X142400000Y-90550000D02*
G01*
X142800000Y-90550000D01*
X142800000Y-90150000D01*
X142400000Y-90150000D01*
X142400000Y-90550000D01*
G37*
G36*
X142400000Y-90150000D02*
G01*
X142800000Y-90150000D01*
X142800000Y-89750000D01*
X142400000Y-89750000D01*
X142400000Y-90150000D01*
G37*
G36*
X142400000Y-89350000D02*
G01*
X142800000Y-89350000D01*
X142800000Y-88950000D01*
X142400000Y-88950000D01*
X142400000Y-89350000D01*
G37*
G36*
X142400000Y-88550000D02*
G01*
X142800000Y-88550000D01*
X142800000Y-88150000D01*
X142400000Y-88150000D01*
X142400000Y-88550000D01*
G37*
G36*
X142400000Y-87350000D02*
G01*
X142800000Y-87350000D01*
X142800000Y-86950000D01*
X142400000Y-86950000D01*
X142400000Y-87350000D01*
G37*
G36*
X142400000Y-86950000D02*
G01*
X142800000Y-86950000D01*
X142800000Y-86550000D01*
X142400000Y-86550000D01*
X142400000Y-86950000D01*
G37*
G36*
X142400000Y-85750000D02*
G01*
X142800000Y-85750000D01*
X142800000Y-85350000D01*
X142400000Y-85350000D01*
X142400000Y-85750000D01*
G37*
G36*
X142400000Y-84150000D02*
G01*
X142800000Y-84150000D01*
X142800000Y-83750000D01*
X142400000Y-83750000D01*
X142400000Y-84150000D01*
G37*
G36*
X142400000Y-82950000D02*
G01*
X142800000Y-82950000D01*
X142800000Y-82550000D01*
X142400000Y-82550000D01*
X142400000Y-82950000D01*
G37*
G36*
X142400000Y-82550000D02*
G01*
X142800000Y-82550000D01*
X142800000Y-82150000D01*
X142400000Y-82150000D01*
X142400000Y-82550000D01*
G37*
G36*
X142400000Y-82150000D02*
G01*
X142800000Y-82150000D01*
X142800000Y-81750000D01*
X142400000Y-81750000D01*
X142400000Y-82150000D01*
G37*
G36*
X142400000Y-81350000D02*
G01*
X142800000Y-81350000D01*
X142800000Y-80950000D01*
X142400000Y-80950000D01*
X142400000Y-81350000D01*
G37*
G36*
X142400000Y-80550000D02*
G01*
X142800000Y-80550000D01*
X142800000Y-80150000D01*
X142400000Y-80150000D01*
X142400000Y-80550000D01*
G37*
G36*
X142400000Y-80150000D02*
G01*
X142800000Y-80150000D01*
X142800000Y-79750000D01*
X142400000Y-79750000D01*
X142400000Y-80150000D01*
G37*
G36*
X142400000Y-79750000D02*
G01*
X142800000Y-79750000D01*
X142800000Y-79350000D01*
X142400000Y-79350000D01*
X142400000Y-79750000D01*
G37*
G36*
X142400000Y-78950000D02*
G01*
X142800000Y-78950000D01*
X142800000Y-78550000D01*
X142400000Y-78550000D01*
X142400000Y-78950000D01*
G37*
G36*
X142800000Y-91750000D02*
G01*
X143200000Y-91750000D01*
X143200000Y-91350000D01*
X142800000Y-91350000D01*
X142800000Y-91750000D01*
G37*
G36*
X142800000Y-90950000D02*
G01*
X143200000Y-90950000D01*
X143200000Y-90550000D01*
X142800000Y-90550000D01*
X142800000Y-90950000D01*
G37*
G36*
X142800000Y-90550000D02*
G01*
X143200000Y-90550000D01*
X143200000Y-90150000D01*
X142800000Y-90150000D01*
X142800000Y-90550000D01*
G37*
G36*
X142800000Y-90150000D02*
G01*
X143200000Y-90150000D01*
X143200000Y-89750000D01*
X142800000Y-89750000D01*
X142800000Y-90150000D01*
G37*
G36*
X142800000Y-89350000D02*
G01*
X143200000Y-89350000D01*
X143200000Y-88950000D01*
X142800000Y-88950000D01*
X142800000Y-89350000D01*
G37*
G36*
X142800000Y-88150000D02*
G01*
X143200000Y-88150000D01*
X143200000Y-87750000D01*
X142800000Y-87750000D01*
X142800000Y-88150000D01*
G37*
G36*
X142800000Y-87750000D02*
G01*
X143200000Y-87750000D01*
X143200000Y-87350000D01*
X142800000Y-87350000D01*
X142800000Y-87750000D01*
G37*
G36*
X142800000Y-86950000D02*
G01*
X143200000Y-86950000D01*
X143200000Y-86550000D01*
X142800000Y-86550000D01*
X142800000Y-86950000D01*
G37*
G36*
X142800000Y-85750000D02*
G01*
X143200000Y-85750000D01*
X143200000Y-85350000D01*
X142800000Y-85350000D01*
X142800000Y-85750000D01*
G37*
G36*
X142800000Y-84550000D02*
G01*
X143200000Y-84550000D01*
X143200000Y-84150000D01*
X142800000Y-84150000D01*
X142800000Y-84550000D01*
G37*
G36*
X142800000Y-84150000D02*
G01*
X143200000Y-84150000D01*
X143200000Y-83750000D01*
X142800000Y-83750000D01*
X142800000Y-84150000D01*
G37*
G36*
X142800000Y-83350000D02*
G01*
X143200000Y-83350000D01*
X143200000Y-82950000D01*
X142800000Y-82950000D01*
X142800000Y-83350000D01*
G37*
G36*
X142800000Y-82950000D02*
G01*
X143200000Y-82950000D01*
X143200000Y-82550000D01*
X142800000Y-82550000D01*
X142800000Y-82950000D01*
G37*
G36*
X142800000Y-82150000D02*
G01*
X143200000Y-82150000D01*
X143200000Y-81750000D01*
X142800000Y-81750000D01*
X142800000Y-82150000D01*
G37*
G36*
X142800000Y-81350000D02*
G01*
X143200000Y-81350000D01*
X143200000Y-80950000D01*
X142800000Y-80950000D01*
X142800000Y-81350000D01*
G37*
G36*
X142800000Y-80550000D02*
G01*
X143200000Y-80550000D01*
X143200000Y-80150000D01*
X142800000Y-80150000D01*
X142800000Y-80550000D01*
G37*
G36*
X142800000Y-80150000D02*
G01*
X143200000Y-80150000D01*
X143200000Y-79750000D01*
X142800000Y-79750000D01*
X142800000Y-80150000D01*
G37*
G36*
X142800000Y-79750000D02*
G01*
X143200000Y-79750000D01*
X143200000Y-79350000D01*
X142800000Y-79350000D01*
X142800000Y-79750000D01*
G37*
G36*
X142800000Y-78950000D02*
G01*
X143200000Y-78950000D01*
X143200000Y-78550000D01*
X142800000Y-78550000D01*
X142800000Y-78950000D01*
G37*
G36*
X143200000Y-91750000D02*
G01*
X143600000Y-91750000D01*
X143600000Y-91350000D01*
X143200000Y-91350000D01*
X143200000Y-91750000D01*
G37*
G36*
X143200000Y-89350000D02*
G01*
X143600000Y-89350000D01*
X143600000Y-88950000D01*
X143200000Y-88950000D01*
X143200000Y-89350000D01*
G37*
G36*
X143200000Y-88150000D02*
G01*
X143600000Y-88150000D01*
X143600000Y-87750000D01*
X143200000Y-87750000D01*
X143200000Y-88150000D01*
G37*
G36*
X143200000Y-86950000D02*
G01*
X143600000Y-86950000D01*
X143600000Y-86550000D01*
X143200000Y-86550000D01*
X143200000Y-86950000D01*
G37*
G36*
X143200000Y-86150000D02*
G01*
X143600000Y-86150000D01*
X143600000Y-85750000D01*
X143200000Y-85750000D01*
X143200000Y-86150000D01*
G37*
G36*
X143200000Y-85750000D02*
G01*
X143600000Y-85750000D01*
X143600000Y-85350000D01*
X143200000Y-85350000D01*
X143200000Y-85750000D01*
G37*
G36*
X143200000Y-84950000D02*
G01*
X143600000Y-84950000D01*
X143600000Y-84550000D01*
X143200000Y-84550000D01*
X143200000Y-84950000D01*
G37*
G36*
X143200000Y-84550000D02*
G01*
X143600000Y-84550000D01*
X143600000Y-84150000D01*
X143200000Y-84150000D01*
X143200000Y-84550000D01*
G37*
G36*
X143200000Y-83350000D02*
G01*
X143600000Y-83350000D01*
X143600000Y-82950000D01*
X143200000Y-82950000D01*
X143200000Y-83350000D01*
G37*
G36*
X143200000Y-82950000D02*
G01*
X143600000Y-82950000D01*
X143600000Y-82550000D01*
X143200000Y-82550000D01*
X143200000Y-82950000D01*
G37*
G36*
X143200000Y-81350000D02*
G01*
X143600000Y-81350000D01*
X143600000Y-80950000D01*
X143200000Y-80950000D01*
X143200000Y-81350000D01*
G37*
G36*
X143200000Y-78950000D02*
G01*
X143600000Y-78950000D01*
X143600000Y-78550000D01*
X143200000Y-78550000D01*
X143200000Y-78950000D01*
G37*
G36*
X143600000Y-91750000D02*
G01*
X144000000Y-91750000D01*
X144000000Y-91350000D01*
X143600000Y-91350000D01*
X143600000Y-91750000D01*
G37*
G36*
X143600000Y-91350000D02*
G01*
X144000000Y-91350000D01*
X144000000Y-90950000D01*
X143600000Y-90950000D01*
X143600000Y-91350000D01*
G37*
G36*
X143600000Y-90950000D02*
G01*
X144000000Y-90950000D01*
X144000000Y-90550000D01*
X143600000Y-90550000D01*
X143600000Y-90950000D01*
G37*
G36*
X143600000Y-90550000D02*
G01*
X144000000Y-90550000D01*
X144000000Y-90150000D01*
X143600000Y-90150000D01*
X143600000Y-90550000D01*
G37*
G36*
X143600000Y-90150000D02*
G01*
X144000000Y-90150000D01*
X144000000Y-89750000D01*
X143600000Y-89750000D01*
X143600000Y-90150000D01*
G37*
G36*
X143600000Y-89750000D02*
G01*
X144000000Y-89750000D01*
X144000000Y-89350000D01*
X143600000Y-89350000D01*
X143600000Y-89750000D01*
G37*
G36*
X143600000Y-89350000D02*
G01*
X144000000Y-89350000D01*
X144000000Y-88950000D01*
X143600000Y-88950000D01*
X143600000Y-89350000D01*
G37*
G36*
X143600000Y-88550000D02*
G01*
X144000000Y-88550000D01*
X144000000Y-88150000D01*
X143600000Y-88150000D01*
X143600000Y-88550000D01*
G37*
G36*
X143600000Y-87350000D02*
G01*
X144000000Y-87350000D01*
X144000000Y-86950000D01*
X143600000Y-86950000D01*
X143600000Y-87350000D01*
G37*
G36*
X143600000Y-86550000D02*
G01*
X144000000Y-86550000D01*
X144000000Y-86150000D01*
X143600000Y-86150000D01*
X143600000Y-86550000D01*
G37*
G36*
X143600000Y-85750000D02*
G01*
X144000000Y-85750000D01*
X144000000Y-85350000D01*
X143600000Y-85350000D01*
X143600000Y-85750000D01*
G37*
G36*
X143600000Y-85350000D02*
G01*
X144000000Y-85350000D01*
X144000000Y-84950000D01*
X143600000Y-84950000D01*
X143600000Y-85350000D01*
G37*
G36*
X143600000Y-84150000D02*
G01*
X144000000Y-84150000D01*
X144000000Y-83750000D01*
X143600000Y-83750000D01*
X143600000Y-84150000D01*
G37*
G36*
X143600000Y-83750000D02*
G01*
X144000000Y-83750000D01*
X144000000Y-83350000D01*
X143600000Y-83350000D01*
X143600000Y-83750000D01*
G37*
G36*
X143600000Y-82150000D02*
G01*
X144000000Y-82150000D01*
X144000000Y-81750000D01*
X143600000Y-81750000D01*
X143600000Y-82150000D01*
G37*
G36*
X143600000Y-81350000D02*
G01*
X144000000Y-81350000D01*
X144000000Y-80950000D01*
X143600000Y-80950000D01*
X143600000Y-81350000D01*
G37*
G36*
X143600000Y-80950000D02*
G01*
X144000000Y-80950000D01*
X144000000Y-80550000D01*
X143600000Y-80550000D01*
X143600000Y-80950000D01*
G37*
G36*
X143600000Y-80550000D02*
G01*
X144000000Y-80550000D01*
X144000000Y-80150000D01*
X143600000Y-80150000D01*
X143600000Y-80550000D01*
G37*
G36*
X143600000Y-80150000D02*
G01*
X144000000Y-80150000D01*
X144000000Y-79750000D01*
X143600000Y-79750000D01*
X143600000Y-80150000D01*
G37*
G36*
X143600000Y-79750000D02*
G01*
X144000000Y-79750000D01*
X144000000Y-79350000D01*
X143600000Y-79350000D01*
X143600000Y-79750000D01*
G37*
G36*
X143600000Y-79350000D02*
G01*
X144000000Y-79350000D01*
X144000000Y-78950000D01*
X143600000Y-78950000D01*
X143600000Y-79350000D01*
G37*
G36*
X143600000Y-78950000D02*
G01*
X144000000Y-78950000D01*
X144000000Y-78550000D01*
X143600000Y-78550000D01*
X143600000Y-78950000D01*
G37*
D12*
X134007842Y-104529381D02*
X134068889Y-104548439D01*
X134144069Y-104580115D01*
X134180469Y-104597138D01*
X134206740Y-104600215D01*
X134212549Y-104576620D01*
X134212555Y-104575952D01*
X134224856Y-104553426D01*
X134267281Y-104541879D01*
X134349510Y-104538628D01*
X134486471Y-104538628D01*
X134486471Y-105733922D01*
X134212549Y-105733922D01*
X134212549Y-104909779D01*
X134144454Y-104846670D01*
X134123180Y-104828735D01*
X134059811Y-104798091D01*
X133981776Y-104796863D01*
X133875520Y-104823903D01*
X133839701Y-104825615D01*
X133797683Y-104799383D01*
X133741757Y-104737035D01*
X133714628Y-104702547D01*
X133682543Y-104653852D01*
X133677599Y-104622855D01*
X133695563Y-104596707D01*
X133750710Y-104563641D01*
X133836363Y-104537472D01*
X133929292Y-104524496D01*
X134007842Y-104529381D01*
G36*
X134007842Y-104529381D02*
G01*
X134068889Y-104548439D01*
X134144069Y-104580115D01*
X134180469Y-104597138D01*
X134206740Y-104600215D01*
X134212549Y-104576620D01*
X134212555Y-104575952D01*
X134224856Y-104553426D01*
X134267281Y-104541879D01*
X134349510Y-104538628D01*
X134486471Y-104538628D01*
X134486471Y-105733922D01*
X134212549Y-105733922D01*
X134212549Y-104909779D01*
X134144454Y-104846670D01*
X134123180Y-104828735D01*
X134059811Y-104798091D01*
X133981776Y-104796863D01*
X133875520Y-104823903D01*
X133839701Y-104825615D01*
X133797683Y-104799383D01*
X133741757Y-104737035D01*
X133714628Y-104702547D01*
X133682543Y-104653852D01*
X133677599Y-104622855D01*
X133695563Y-104596707D01*
X133750710Y-104563641D01*
X133836363Y-104537472D01*
X133929292Y-104524496D01*
X134007842Y-104529381D01*
G37*
X134370525Y-106422675D02*
X134445760Y-106457886D01*
X134511373Y-106509497D01*
X134511373Y-106457886D01*
X134513008Y-106438290D01*
X134528221Y-106417513D01*
X134569362Y-106408337D01*
X134648334Y-106406275D01*
X134785295Y-106406275D01*
X134785295Y-107626471D01*
X134511373Y-107626471D01*
X134511373Y-107229211D01*
X134511340Y-107206405D01*
X134509003Y-107046089D01*
X134503268Y-106915500D01*
X134494544Y-106821314D01*
X134483241Y-106770208D01*
X134472862Y-106750915D01*
X134408968Y-106690406D01*
X134321937Y-106663622D01*
X134226904Y-106676117D01*
X134203594Y-106684586D01*
X134153937Y-106699555D01*
X134119999Y-106694907D01*
X134085850Y-106664479D01*
X134035559Y-106602111D01*
X133953992Y-106499123D01*
X134011323Y-106452699D01*
X134065823Y-106424755D01*
X134161554Y-106405883D01*
X134269456Y-106405265D01*
X134370525Y-106422675D01*
G36*
X134370525Y-106422675D02*
G01*
X134445760Y-106457886D01*
X134511373Y-106509497D01*
X134511373Y-106457886D01*
X134513008Y-106438290D01*
X134528221Y-106417513D01*
X134569362Y-106408337D01*
X134648334Y-106406275D01*
X134785295Y-106406275D01*
X134785295Y-107626471D01*
X134511373Y-107626471D01*
X134511373Y-107229211D01*
X134511340Y-107206405D01*
X134509003Y-107046089D01*
X134503268Y-106915500D01*
X134494544Y-106821314D01*
X134483241Y-106770208D01*
X134472862Y-106750915D01*
X134408968Y-106690406D01*
X134321937Y-106663622D01*
X134226904Y-106676117D01*
X134203594Y-106684586D01*
X134153937Y-106699555D01*
X134119999Y-106694907D01*
X134085850Y-106664479D01*
X134035559Y-106602111D01*
X133953992Y-106499123D01*
X134011323Y-106452699D01*
X134065823Y-106424755D01*
X134161554Y-106405883D01*
X134269456Y-106405265D01*
X134370525Y-106422675D01*
G37*
X139566471Y-107626471D02*
X139317451Y-107626471D01*
X139317451Y-107242111D01*
X139317176Y-107152706D01*
X139314344Y-107004629D01*
X139307176Y-106895003D01*
X139294116Y-106816252D01*
X139273608Y-106760798D01*
X139244098Y-106721061D01*
X139204031Y-106689465D01*
X139160290Y-106665921D01*
X139108496Y-106659246D01*
X139034831Y-106674090D01*
X139011159Y-106680271D01*
X138952069Y-106689572D01*
X138909818Y-106676245D01*
X138860848Y-106634996D01*
X138851555Y-106626026D01*
X138800179Y-106570534D01*
X138767047Y-106525415D01*
X138762502Y-106514545D01*
X138771508Y-106474409D01*
X138817174Y-106442320D01*
X138889246Y-106419799D01*
X138977471Y-106408367D01*
X139071594Y-106409544D01*
X139161362Y-106424850D01*
X139236520Y-106455806D01*
X139260343Y-106470260D01*
X139300449Y-106491417D01*
X139315296Y-106486572D01*
X139317451Y-106455712D01*
X139317957Y-106444633D01*
X139329970Y-106420091D01*
X139367236Y-106408921D01*
X139441961Y-106406275D01*
X139566471Y-106406275D01*
X139566471Y-107626471D01*
G36*
X139566471Y-107626471D02*
G01*
X139317451Y-107626471D01*
X139317451Y-107242111D01*
X139317176Y-107152706D01*
X139314344Y-107004629D01*
X139307176Y-106895003D01*
X139294116Y-106816252D01*
X139273608Y-106760798D01*
X139244098Y-106721061D01*
X139204031Y-106689465D01*
X139160290Y-106665921D01*
X139108496Y-106659246D01*
X139034831Y-106674090D01*
X139011159Y-106680271D01*
X138952069Y-106689572D01*
X138909818Y-106676245D01*
X138860848Y-106634996D01*
X138851555Y-106626026D01*
X138800179Y-106570534D01*
X138767047Y-106525415D01*
X138762502Y-106514545D01*
X138771508Y-106474409D01*
X138817174Y-106442320D01*
X138889246Y-106419799D01*
X138977471Y-106408367D01*
X139071594Y-106409544D01*
X139161362Y-106424850D01*
X139236520Y-106455806D01*
X139260343Y-106470260D01*
X139300449Y-106491417D01*
X139315296Y-106486572D01*
X139317451Y-106455712D01*
X139317957Y-106444633D01*
X139329970Y-106420091D01*
X139367236Y-106408921D01*
X139441961Y-106406275D01*
X139566471Y-106406275D01*
X139566471Y-107626471D01*
G37*
X134984510Y-104926245D02*
X134986611Y-105100624D01*
X134994833Y-105241460D01*
X135011491Y-105343825D01*
X135038891Y-105413458D01*
X135079343Y-105456093D01*
X135135152Y-105477468D01*
X135208628Y-105483318D01*
X135278783Y-105478097D01*
X135335443Y-105457659D01*
X135376626Y-105416254D01*
X135404640Y-105348147D01*
X135421793Y-105247600D01*
X135430392Y-105108879D01*
X135432746Y-104926245D01*
X135432746Y-104538628D01*
X135681765Y-104538628D01*
X135681765Y-105005928D01*
X135681338Y-105130659D01*
X135678018Y-105291955D01*
X135669687Y-105414965D01*
X135654326Y-105506729D01*
X135629919Y-105574291D01*
X135594447Y-105624691D01*
X135545892Y-105664971D01*
X135482235Y-105702174D01*
X135348562Y-105749270D01*
X135209055Y-105752342D01*
X135077524Y-105708971D01*
X135020135Y-105680857D01*
X134991664Y-105676654D01*
X134984510Y-105696520D01*
X134972632Y-105718826D01*
X134930116Y-105730576D01*
X134847549Y-105733922D01*
X134710589Y-105733922D01*
X134710589Y-104538628D01*
X134984510Y-104538628D01*
X134984510Y-104926245D01*
G36*
X134984510Y-104926245D02*
G01*
X134986611Y-105100624D01*
X134994833Y-105241460D01*
X135011491Y-105343825D01*
X135038891Y-105413458D01*
X135079343Y-105456093D01*
X135135152Y-105477468D01*
X135208628Y-105483318D01*
X135278783Y-105478097D01*
X135335443Y-105457659D01*
X135376626Y-105416254D01*
X135404640Y-105348147D01*
X135421793Y-105247600D01*
X135430392Y-105108879D01*
X135432746Y-104926245D01*
X135432746Y-104538628D01*
X135681765Y-104538628D01*
X135681765Y-105005928D01*
X135681338Y-105130659D01*
X135678018Y-105291955D01*
X135669687Y-105414965D01*
X135654326Y-105506729D01*
X135629919Y-105574291D01*
X135594447Y-105624691D01*
X135545892Y-105664971D01*
X135482235Y-105702174D01*
X135348562Y-105749270D01*
X135209055Y-105752342D01*
X135077524Y-105708971D01*
X135020135Y-105680857D01*
X134991664Y-105676654D01*
X134984510Y-105696520D01*
X134972632Y-105718826D01*
X134930116Y-105730576D01*
X134847549Y-105733922D01*
X134710589Y-105733922D01*
X134710589Y-104538628D01*
X134984510Y-104538628D01*
X134984510Y-104926245D01*
G37*
X139147906Y-104536271D02*
X139261422Y-104571937D01*
X139311473Y-104596177D01*
X139336646Y-104598681D01*
X139342353Y-104576620D01*
X139342359Y-104575952D01*
X139354660Y-104553426D01*
X139397084Y-104541879D01*
X139479314Y-104538628D01*
X139616275Y-104538628D01*
X139616275Y-105733922D01*
X139342353Y-105733922D01*
X139342353Y-105321907D01*
X139342166Y-105182779D01*
X139340885Y-105068493D01*
X139337458Y-104988519D01*
X139330832Y-104934708D01*
X139319954Y-104898912D01*
X139303771Y-104872982D01*
X139281230Y-104848770D01*
X139250527Y-104823017D01*
X139162239Y-104788416D01*
X139069565Y-104798571D01*
X138984671Y-104853298D01*
X138960406Y-104878768D01*
X138942987Y-104904545D01*
X138931304Y-104938848D01*
X138924212Y-104989933D01*
X138920564Y-105066056D01*
X138919215Y-105175471D01*
X138919020Y-105326435D01*
X138919020Y-105733922D01*
X138645098Y-105733922D01*
X138645645Y-105291912D01*
X138645682Y-105272223D01*
X138648058Y-105084209D01*
X138655353Y-104938159D01*
X138669445Y-104826971D01*
X138692207Y-104743544D01*
X138725514Y-104680775D01*
X138771241Y-104631561D01*
X138831264Y-104588802D01*
X138893240Y-104559199D01*
X139018055Y-104532305D01*
X139147906Y-104536271D01*
G36*
X139147906Y-104536271D02*
G01*
X139261422Y-104571937D01*
X139311473Y-104596177D01*
X139336646Y-104598681D01*
X139342353Y-104576620D01*
X139342359Y-104575952D01*
X139354660Y-104553426D01*
X139397084Y-104541879D01*
X139479314Y-104538628D01*
X139616275Y-104538628D01*
X139616275Y-105733922D01*
X139342353Y-105733922D01*
X139342353Y-105321907D01*
X139342166Y-105182779D01*
X139340885Y-105068493D01*
X139337458Y-104988519D01*
X139330832Y-104934708D01*
X139319954Y-104898912D01*
X139303771Y-104872982D01*
X139281230Y-104848770D01*
X139250527Y-104823017D01*
X139162239Y-104788416D01*
X139069565Y-104798571D01*
X138984671Y-104853298D01*
X138960406Y-104878768D01*
X138942987Y-104904545D01*
X138931304Y-104938848D01*
X138924212Y-104989933D01*
X138920564Y-105066056D01*
X138919215Y-105175471D01*
X138919020Y-105326435D01*
X138919020Y-105733922D01*
X138645098Y-105733922D01*
X138645645Y-105291912D01*
X138645682Y-105272223D01*
X138648058Y-105084209D01*
X138655353Y-104938159D01*
X138669445Y-104826971D01*
X138692207Y-104743544D01*
X138725514Y-104680775D01*
X138771241Y-104631561D01*
X138831264Y-104588802D01*
X138893240Y-104559199D01*
X139018055Y-104532305D01*
X139147906Y-104536271D01*
G37*
X133307341Y-104544329D02*
X133443218Y-104597267D01*
X133558135Y-104684655D01*
X133643013Y-104804680D01*
X133648745Y-104816918D01*
X133685135Y-104936281D01*
X133703316Y-105078864D01*
X133703173Y-105227318D01*
X133684590Y-105364297D01*
X133647452Y-105472451D01*
X133601599Y-105547831D01*
X133500669Y-105654620D01*
X133374469Y-105722500D01*
X133266497Y-105749950D01*
X133102088Y-105752947D01*
X132944764Y-105711549D01*
X132805251Y-105627546D01*
X132714954Y-105553116D01*
X132796284Y-105469205D01*
X132847665Y-105419496D01*
X132894141Y-105391820D01*
X132937235Y-105397914D01*
X132992353Y-105435098D01*
X133014331Y-105449655D01*
X133107178Y-105479449D01*
X133213895Y-105479431D01*
X133313808Y-105448723D01*
X133351429Y-105424064D01*
X133406613Y-105351245D01*
X133434278Y-105244290D01*
X133436058Y-105098517D01*
X133436053Y-105098435D01*
X133415470Y-104968014D01*
X133370128Y-104877587D01*
X133295518Y-104821652D01*
X133187128Y-104794704D01*
X133118871Y-104791079D01*
X133059231Y-104805921D01*
X132998065Y-104848918D01*
X132918912Y-104915520D01*
X132818672Y-104834965D01*
X132782050Y-104804105D01*
X132736307Y-104759889D01*
X132718432Y-104733832D01*
X132724762Y-104722089D01*
X132761221Y-104686036D01*
X132819301Y-104640185D01*
X132864744Y-104610348D01*
X133009024Y-104549056D01*
X133159583Y-104527654D01*
X133307341Y-104544329D01*
G36*
X133307341Y-104544329D02*
G01*
X133443218Y-104597267D01*
X133558135Y-104684655D01*
X133643013Y-104804680D01*
X133648745Y-104816918D01*
X133685135Y-104936281D01*
X133703316Y-105078864D01*
X133703173Y-105227318D01*
X133684590Y-105364297D01*
X133647452Y-105472451D01*
X133601599Y-105547831D01*
X133500669Y-105654620D01*
X133374469Y-105722500D01*
X133266497Y-105749950D01*
X133102088Y-105752947D01*
X132944764Y-105711549D01*
X132805251Y-105627546D01*
X132714954Y-105553116D01*
X132796284Y-105469205D01*
X132847665Y-105419496D01*
X132894141Y-105391820D01*
X132937235Y-105397914D01*
X132992353Y-105435098D01*
X133014331Y-105449655D01*
X133107178Y-105479449D01*
X133213895Y-105479431D01*
X133313808Y-105448723D01*
X133351429Y-105424064D01*
X133406613Y-105351245D01*
X133434278Y-105244290D01*
X133436058Y-105098517D01*
X133436053Y-105098435D01*
X133415470Y-104968014D01*
X133370128Y-104877587D01*
X133295518Y-104821652D01*
X133187128Y-104794704D01*
X133118871Y-104791079D01*
X133059231Y-104805921D01*
X132998065Y-104848918D01*
X132918912Y-104915520D01*
X132818672Y-104834965D01*
X132782050Y-104804105D01*
X132736307Y-104759889D01*
X132718432Y-104733832D01*
X132724762Y-104722089D01*
X132761221Y-104686036D01*
X132819301Y-104640185D01*
X132864744Y-104610348D01*
X133009024Y-104549056D01*
X133159583Y-104527654D01*
X133307341Y-104544329D01*
G37*
X136870953Y-105222173D02*
X136864005Y-105300982D01*
X136833299Y-105451438D01*
X136778376Y-105566246D01*
X136694780Y-105652966D01*
X136578058Y-105719155D01*
X136532739Y-105734908D01*
X136415373Y-105754562D01*
X136291866Y-105754027D01*
X136187651Y-105732439D01*
X136185603Y-105731655D01*
X136101618Y-105682251D01*
X136016770Y-105605770D01*
X135946366Y-105518311D01*
X135905714Y-105435969D01*
X135893663Y-105375779D01*
X135883346Y-105263084D01*
X135881617Y-105162632D01*
X136132502Y-105162632D01*
X136147500Y-105283119D01*
X136182735Y-105382123D01*
X136236117Y-105446815D01*
X136256350Y-105457922D01*
X136333506Y-105478111D01*
X136422749Y-105482265D01*
X136497828Y-105468235D01*
X136527132Y-105448116D01*
X136568264Y-105377760D01*
X136594146Y-105267645D01*
X136603138Y-105123145D01*
X136602994Y-105081549D01*
X136599870Y-104997264D01*
X136589482Y-104942281D01*
X136567688Y-104901655D01*
X136530347Y-104860437D01*
X136459293Y-104810481D01*
X136366791Y-104790057D01*
X136277418Y-104809509D01*
X136203210Y-104865771D01*
X136156201Y-104955775D01*
X136139828Y-105033494D01*
X136132502Y-105162632D01*
X135881617Y-105162632D01*
X135881137Y-105134738D01*
X135886672Y-105006993D01*
X135899588Y-104896101D01*
X135919522Y-104818315D01*
X135965953Y-104730245D01*
X136064498Y-104621959D01*
X136190453Y-104553364D01*
X136340074Y-104526213D01*
X136509615Y-104542259D01*
X136537825Y-104549094D01*
X136669201Y-104608040D01*
X136768198Y-104704814D01*
X136834820Y-104839423D01*
X136869070Y-105011874D01*
X136870067Y-105123145D01*
X136870953Y-105222173D01*
G36*
X136870953Y-105222173D02*
G01*
X136864005Y-105300982D01*
X136833299Y-105451438D01*
X136778376Y-105566246D01*
X136694780Y-105652966D01*
X136578058Y-105719155D01*
X136532739Y-105734908D01*
X136415373Y-105754562D01*
X136291866Y-105754027D01*
X136187651Y-105732439D01*
X136185603Y-105731655D01*
X136101618Y-105682251D01*
X136016770Y-105605770D01*
X135946366Y-105518311D01*
X135905714Y-105435969D01*
X135893663Y-105375779D01*
X135883346Y-105263084D01*
X135881617Y-105162632D01*
X136132502Y-105162632D01*
X136147500Y-105283119D01*
X136182735Y-105382123D01*
X136236117Y-105446815D01*
X136256350Y-105457922D01*
X136333506Y-105478111D01*
X136422749Y-105482265D01*
X136497828Y-105468235D01*
X136527132Y-105448116D01*
X136568264Y-105377760D01*
X136594146Y-105267645D01*
X136603138Y-105123145D01*
X136602994Y-105081549D01*
X136599870Y-104997264D01*
X136589482Y-104942281D01*
X136567688Y-104901655D01*
X136530347Y-104860437D01*
X136459293Y-104810481D01*
X136366791Y-104790057D01*
X136277418Y-104809509D01*
X136203210Y-104865771D01*
X136156201Y-104955775D01*
X136139828Y-105033494D01*
X136132502Y-105162632D01*
X135881617Y-105162632D01*
X135881137Y-105134738D01*
X135886672Y-105006993D01*
X135899588Y-104896101D01*
X135919522Y-104818315D01*
X135965953Y-104730245D01*
X136064498Y-104621959D01*
X136190453Y-104553364D01*
X136340074Y-104526213D01*
X136509615Y-104542259D01*
X136537825Y-104549094D01*
X136669201Y-104608040D01*
X136768198Y-104704814D01*
X136834820Y-104839423D01*
X136869070Y-105011874D01*
X136870067Y-105123145D01*
X136870953Y-105222173D01*
G37*
X137069270Y-106797297D02*
X137102936Y-106897741D01*
X137142761Y-107008935D01*
X137176017Y-107093172D01*
X137199954Y-107143587D01*
X137211824Y-107153318D01*
X137214688Y-107144856D01*
X137230191Y-107092953D01*
X137254883Y-107006265D01*
X137286023Y-106894497D01*
X137320870Y-106767353D01*
X137415674Y-106418726D01*
X137560426Y-106411163D01*
X137572645Y-106410557D01*
X137650703Y-106409755D01*
X137688212Y-106417768D01*
X137692989Y-106436065D01*
X137686955Y-106453934D01*
X137667103Y-106515095D01*
X137636023Y-106611960D01*
X137595930Y-106737602D01*
X137549037Y-106885091D01*
X137497561Y-107047500D01*
X137314321Y-107626471D01*
X137085105Y-107626471D01*
X136977101Y-107259167D01*
X136957158Y-107191720D01*
X136920300Y-107069101D01*
X136888805Y-106966930D01*
X136865510Y-106894336D01*
X136853250Y-106860446D01*
X136849757Y-106857918D01*
X136832758Y-106879778D01*
X136808489Y-106937586D01*
X136780982Y-107022309D01*
X136779528Y-107027285D01*
X136742700Y-107152322D01*
X136700562Y-107293896D01*
X136661950Y-107422316D01*
X136599339Y-107629044D01*
X136368411Y-107614020D01*
X136261470Y-107277843D01*
X136214519Y-107130128D01*
X136161926Y-106964458D01*
X136111565Y-106805638D01*
X136069878Y-106673971D01*
X135985227Y-106406275D01*
X136268429Y-106406275D01*
X136337072Y-106661520D01*
X136355321Y-106728963D01*
X136389833Y-106854697D01*
X136421793Y-106969083D01*
X136446089Y-107053726D01*
X136486463Y-107190686D01*
X136615224Y-106804706D01*
X136743986Y-106418726D01*
X136842472Y-106411332D01*
X136940959Y-106403939D01*
X137069270Y-106797297D01*
G36*
X137069270Y-106797297D02*
G01*
X137102936Y-106897741D01*
X137142761Y-107008935D01*
X137176017Y-107093172D01*
X137199954Y-107143587D01*
X137211824Y-107153318D01*
X137214688Y-107144856D01*
X137230191Y-107092953D01*
X137254883Y-107006265D01*
X137286023Y-106894497D01*
X137320870Y-106767353D01*
X137415674Y-106418726D01*
X137560426Y-106411163D01*
X137572645Y-106410557D01*
X137650703Y-106409755D01*
X137688212Y-106417768D01*
X137692989Y-106436065D01*
X137686955Y-106453934D01*
X137667103Y-106515095D01*
X137636023Y-106611960D01*
X137595930Y-106737602D01*
X137549037Y-106885091D01*
X137497561Y-107047500D01*
X137314321Y-107626471D01*
X137085105Y-107626471D01*
X136977101Y-107259167D01*
X136957158Y-107191720D01*
X136920300Y-107069101D01*
X136888805Y-106966930D01*
X136865510Y-106894336D01*
X136853250Y-106860446D01*
X136849757Y-106857918D01*
X136832758Y-106879778D01*
X136808489Y-106937586D01*
X136780982Y-107022309D01*
X136779528Y-107027285D01*
X136742700Y-107152322D01*
X136700562Y-107293896D01*
X136661950Y-107422316D01*
X136599339Y-107629044D01*
X136368411Y-107614020D01*
X136261470Y-107277843D01*
X136214519Y-107130128D01*
X136161926Y-106964458D01*
X136111565Y-106805638D01*
X136069878Y-106673971D01*
X135985227Y-106406275D01*
X136268429Y-106406275D01*
X136337072Y-106661520D01*
X136355321Y-106728963D01*
X136389833Y-106854697D01*
X136421793Y-106969083D01*
X136446089Y-107053726D01*
X136486463Y-107190686D01*
X136615224Y-106804706D01*
X136743986Y-106418726D01*
X136842472Y-106411332D01*
X136940959Y-106403939D01*
X137069270Y-106797297D01*
G37*
X143073818Y-105204666D02*
X143070603Y-105282653D01*
X143063305Y-105377754D01*
X143050873Y-105445160D01*
X143030343Y-105498570D01*
X142998751Y-105551685D01*
X142997406Y-105553699D01*
X142919616Y-105639755D01*
X142824438Y-105705391D01*
X142713760Y-105744339D01*
X142568163Y-105756985D01*
X142425463Y-105732119D01*
X142297909Y-105672198D01*
X142197753Y-105579681D01*
X142168999Y-105535967D01*
X142115301Y-105400073D01*
X142088670Y-105232408D01*
X142089125Y-105189997D01*
X142356763Y-105189997D01*
X142357267Y-105269314D01*
X142365677Y-105322267D01*
X142384838Y-105362956D01*
X142417598Y-105405479D01*
X142463058Y-105447676D01*
X142553980Y-105485333D01*
X142651608Y-105478338D01*
X142744914Y-105426002D01*
X142771234Y-105401006D01*
X142799336Y-105358214D01*
X142814920Y-105298068D01*
X142823753Y-105204348D01*
X142826186Y-105133944D01*
X142812856Y-104990168D01*
X142771947Y-104887231D01*
X142703281Y-104824567D01*
X142622789Y-104794560D01*
X142526794Y-104797086D01*
X142437811Y-104847746D01*
X142416538Y-104867031D01*
X142389693Y-104900774D01*
X142373766Y-104944920D01*
X142364929Y-105012601D01*
X142359355Y-105116950D01*
X142356763Y-105189997D01*
X142089125Y-105189997D01*
X142090724Y-105041126D01*
X142093345Y-105013996D01*
X142129918Y-104840229D01*
X142197581Y-104705334D01*
X142296478Y-104609163D01*
X142426753Y-104551568D01*
X142588550Y-104532402D01*
X142649679Y-104534201D01*
X142775039Y-104556211D01*
X142877546Y-104608746D01*
X142973115Y-104698686D01*
X142988400Y-104716737D01*
X143029624Y-104777530D01*
X143056717Y-104846367D01*
X143071740Y-104933600D01*
X143076754Y-105049582D01*
X143075156Y-105133944D01*
X143073818Y-105204666D01*
G36*
X143073818Y-105204666D02*
G01*
X143070603Y-105282653D01*
X143063305Y-105377754D01*
X143050873Y-105445160D01*
X143030343Y-105498570D01*
X142998751Y-105551685D01*
X142997406Y-105553699D01*
X142919616Y-105639755D01*
X142824438Y-105705391D01*
X142713760Y-105744339D01*
X142568163Y-105756985D01*
X142425463Y-105732119D01*
X142297909Y-105672198D01*
X142197753Y-105579681D01*
X142168999Y-105535967D01*
X142115301Y-105400073D01*
X142088670Y-105232408D01*
X142089125Y-105189997D01*
X142356763Y-105189997D01*
X142357267Y-105269314D01*
X142365677Y-105322267D01*
X142384838Y-105362956D01*
X142417598Y-105405479D01*
X142463058Y-105447676D01*
X142553980Y-105485333D01*
X142651608Y-105478338D01*
X142744914Y-105426002D01*
X142771234Y-105401006D01*
X142799336Y-105358214D01*
X142814920Y-105298068D01*
X142823753Y-105204348D01*
X142826186Y-105133944D01*
X142812856Y-104990168D01*
X142771947Y-104887231D01*
X142703281Y-104824567D01*
X142622789Y-104794560D01*
X142526794Y-104797086D01*
X142437811Y-104847746D01*
X142416538Y-104867031D01*
X142389693Y-104900774D01*
X142373766Y-104944920D01*
X142364929Y-105012601D01*
X142359355Y-105116950D01*
X142356763Y-105189997D01*
X142089125Y-105189997D01*
X142090724Y-105041126D01*
X142093345Y-105013996D01*
X142129918Y-104840229D01*
X142197581Y-104705334D01*
X142296478Y-104609163D01*
X142426753Y-104551568D01*
X142588550Y-104532402D01*
X142649679Y-104534201D01*
X142775039Y-104556211D01*
X142877546Y-104608746D01*
X142973115Y-104698686D01*
X142988400Y-104716737D01*
X143029624Y-104777530D01*
X143056717Y-104846367D01*
X143071740Y-104933600D01*
X143076754Y-105049582D01*
X143075156Y-105133944D01*
X143073818Y-105204666D01*
G37*
X138767979Y-107109570D02*
X138764822Y-107216032D01*
X138758474Y-107290192D01*
X138757386Y-107296989D01*
X138714660Y-107418555D01*
X138636634Y-107521619D01*
X138534274Y-107591444D01*
X138424354Y-107620346D01*
X138289151Y-107618103D01*
X138164776Y-107579351D01*
X138132379Y-107562998D01*
X138090720Y-107545475D01*
X138074867Y-107550927D01*
X138072353Y-107579351D01*
X138071199Y-107593525D01*
X138056292Y-107614488D01*
X138014889Y-107624140D01*
X137935393Y-107626471D01*
X137798432Y-107626471D01*
X137798432Y-107028607D01*
X138072353Y-107028607D01*
X138074316Y-107132181D01*
X138082283Y-107201138D01*
X138099292Y-107248379D01*
X138128383Y-107287968D01*
X138205196Y-107346831D01*
X138295086Y-107366564D01*
X138382254Y-107342162D01*
X138455669Y-107274090D01*
X138475075Y-107224278D01*
X138489410Y-107136070D01*
X138495711Y-107029052D01*
X138493726Y-106919284D01*
X138483199Y-106822827D01*
X138463876Y-106755743D01*
X138457703Y-106744742D01*
X138398193Y-106689453D01*
X138317546Y-106664959D01*
X138230933Y-106670656D01*
X138153522Y-106705940D01*
X138100486Y-106770208D01*
X138098294Y-106775613D01*
X138085143Y-106835921D01*
X138075866Y-106926039D01*
X138072353Y-107028607D01*
X137798432Y-107028607D01*
X137798432Y-105933137D01*
X138072353Y-105933137D01*
X138072353Y-106513601D01*
X138123090Y-106467685D01*
X138171942Y-106439146D01*
X138264402Y-106415290D01*
X138372485Y-106407603D01*
X138478036Y-106417040D01*
X138562900Y-106444557D01*
X138623641Y-106483699D01*
X138686207Y-106550379D01*
X138728315Y-106640053D01*
X138753627Y-106761355D01*
X138765806Y-106922918D01*
X138767596Y-106988225D01*
X138767725Y-107029052D01*
X138767979Y-107109570D01*
G36*
X138767979Y-107109570D02*
G01*
X138764822Y-107216032D01*
X138758474Y-107290192D01*
X138757386Y-107296989D01*
X138714660Y-107418555D01*
X138636634Y-107521619D01*
X138534274Y-107591444D01*
X138424354Y-107620346D01*
X138289151Y-107618103D01*
X138164776Y-107579351D01*
X138132379Y-107562998D01*
X138090720Y-107545475D01*
X138074867Y-107550927D01*
X138072353Y-107579351D01*
X138071199Y-107593525D01*
X138056292Y-107614488D01*
X138014889Y-107624140D01*
X137935393Y-107626471D01*
X137798432Y-107626471D01*
X137798432Y-107028607D01*
X138072353Y-107028607D01*
X138074316Y-107132181D01*
X138082283Y-107201138D01*
X138099292Y-107248379D01*
X138128383Y-107287968D01*
X138205196Y-107346831D01*
X138295086Y-107366564D01*
X138382254Y-107342162D01*
X138455669Y-107274090D01*
X138475075Y-107224278D01*
X138489410Y-107136070D01*
X138495711Y-107029052D01*
X138493726Y-106919284D01*
X138483199Y-106822827D01*
X138463876Y-106755743D01*
X138457703Y-106744742D01*
X138398193Y-106689453D01*
X138317546Y-106664959D01*
X138230933Y-106670656D01*
X138153522Y-106705940D01*
X138100486Y-106770208D01*
X138098294Y-106775613D01*
X138085143Y-106835921D01*
X138075866Y-106926039D01*
X138072353Y-107028607D01*
X137798432Y-107028607D01*
X137798432Y-105933137D01*
X138072353Y-105933137D01*
X138072353Y-106513601D01*
X138123090Y-106467685D01*
X138171942Y-106439146D01*
X138264402Y-106415290D01*
X138372485Y-106407603D01*
X138478036Y-106417040D01*
X138562900Y-106444557D01*
X138623641Y-106483699D01*
X138686207Y-106550379D01*
X138728315Y-106640053D01*
X138753627Y-106761355D01*
X138765806Y-106922918D01*
X138767596Y-106988225D01*
X138767725Y-107029052D01*
X138767979Y-107109570D01*
G37*
X132685566Y-105056032D02*
X132682360Y-105246632D01*
X132681943Y-105250380D01*
X132646139Y-105425271D01*
X132581449Y-105561247D01*
X132485859Y-105661296D01*
X132357353Y-105728405D01*
X132333764Y-105736079D01*
X132187551Y-105758696D01*
X132036334Y-105746084D01*
X131895750Y-105701017D01*
X131781437Y-105626269D01*
X131695812Y-105547157D01*
X131786827Y-105475191D01*
X131877842Y-105403224D01*
X131987528Y-105456514D01*
X132114445Y-105499695D01*
X132226488Y-105500987D01*
X132318157Y-105461314D01*
X132384123Y-105381683D01*
X132407771Y-105333968D01*
X132420972Y-105293189D01*
X132413334Y-105265641D01*
X132379063Y-105248731D01*
X132312368Y-105239864D01*
X132207454Y-105236445D01*
X132058530Y-105235882D01*
X131697451Y-105235882D01*
X131697451Y-105063190D01*
X131700149Y-104987376D01*
X131954385Y-104987376D01*
X131966595Y-105001321D01*
X132002748Y-105008578D01*
X132071463Y-105011332D01*
X132181362Y-105011765D01*
X132240294Y-105011073D01*
X132333290Y-105006500D01*
X132396373Y-104998491D01*
X132419608Y-104988035D01*
X132413663Y-104949456D01*
X132371762Y-104875634D01*
X132301938Y-104814990D01*
X132218699Y-104778362D01*
X132136554Y-104776589D01*
X132074721Y-104805960D01*
X132004656Y-104872800D01*
X131960106Y-104955735D01*
X131957496Y-104964562D01*
X131954385Y-104987376D01*
X131700149Y-104987376D01*
X131700702Y-104971853D01*
X131710246Y-104881484D01*
X131723881Y-104820396D01*
X131733820Y-104797074D01*
X131806166Y-104693202D01*
X131910700Y-104606569D01*
X132032949Y-104549845D01*
X132096713Y-104534355D01*
X132248645Y-104527304D01*
X132384022Y-104563174D01*
X132499122Y-104637974D01*
X132590227Y-104747711D01*
X132653615Y-104888395D01*
X132672607Y-104988035D01*
X132685566Y-105056032D01*
G36*
X132685566Y-105056032D02*
G01*
X132682360Y-105246632D01*
X132681943Y-105250380D01*
X132646139Y-105425271D01*
X132581449Y-105561247D01*
X132485859Y-105661296D01*
X132357353Y-105728405D01*
X132333764Y-105736079D01*
X132187551Y-105758696D01*
X132036334Y-105746084D01*
X131895750Y-105701017D01*
X131781437Y-105626269D01*
X131695812Y-105547157D01*
X131786827Y-105475191D01*
X131877842Y-105403224D01*
X131987528Y-105456514D01*
X132114445Y-105499695D01*
X132226488Y-105500987D01*
X132318157Y-105461314D01*
X132384123Y-105381683D01*
X132407771Y-105333968D01*
X132420972Y-105293189D01*
X132413334Y-105265641D01*
X132379063Y-105248731D01*
X132312368Y-105239864D01*
X132207454Y-105236445D01*
X132058530Y-105235882D01*
X131697451Y-105235882D01*
X131697451Y-105063190D01*
X131700149Y-104987376D01*
X131954385Y-104987376D01*
X131966595Y-105001321D01*
X132002748Y-105008578D01*
X132071463Y-105011332D01*
X132181362Y-105011765D01*
X132240294Y-105011073D01*
X132333290Y-105006500D01*
X132396373Y-104998491D01*
X132419608Y-104988035D01*
X132413663Y-104949456D01*
X132371762Y-104875634D01*
X132301938Y-104814990D01*
X132218699Y-104778362D01*
X132136554Y-104776589D01*
X132074721Y-104805960D01*
X132004656Y-104872800D01*
X131960106Y-104955735D01*
X131957496Y-104964562D01*
X131954385Y-104987376D01*
X131700149Y-104987376D01*
X131700702Y-104971853D01*
X131710246Y-104881484D01*
X131723881Y-104820396D01*
X131733820Y-104797074D01*
X131806166Y-104693202D01*
X131910700Y-104606569D01*
X132032949Y-104549845D01*
X132096713Y-104534355D01*
X132248645Y-104527304D01*
X132384022Y-104563174D01*
X132499122Y-104637974D01*
X132590227Y-104747711D01*
X132653615Y-104888395D01*
X132672607Y-104988035D01*
X132685566Y-105056032D01*
G37*
X137595810Y-104537820D02*
X137739629Y-104573866D01*
X137844691Y-104640677D01*
X137911594Y-104738702D01*
X137940940Y-104868387D01*
X137934999Y-104992544D01*
X137892114Y-105097266D01*
X137809876Y-105174693D01*
X137686635Y-105226337D01*
X137520744Y-105253710D01*
X137412952Y-105268057D01*
X137314566Y-105299099D01*
X137263771Y-105344053D01*
X137260704Y-105402838D01*
X137281146Y-105439493D01*
X137344454Y-105482935D01*
X137434449Y-105503483D01*
X137539913Y-105500673D01*
X137649626Y-105474042D01*
X137752368Y-105423128D01*
X137854804Y-105355339D01*
X137944902Y-105446508D01*
X138035000Y-105537676D01*
X137960295Y-105598655D01*
X137931246Y-105619842D01*
X137849517Y-105667978D01*
X137761079Y-105709457D01*
X137691087Y-105733262D01*
X137588602Y-105750504D01*
X137462255Y-105750732D01*
X137307318Y-105731748D01*
X137167745Y-105683630D01*
X137068950Y-105607195D01*
X137010701Y-105502254D01*
X136992762Y-105368617D01*
X137005747Y-105251054D01*
X137047431Y-105154803D01*
X137122477Y-105085873D01*
X137235635Y-105040030D01*
X137391654Y-105013042D01*
X137409574Y-105011088D01*
X137506714Y-104998630D01*
X137585514Y-104985592D01*
X137630344Y-104974499D01*
X137645304Y-104965567D01*
X137670596Y-104919509D01*
X137666488Y-104860553D01*
X137632688Y-104809373D01*
X137614939Y-104798210D01*
X137540981Y-104780326D01*
X137445451Y-104781529D01*
X137345836Y-104800561D01*
X137259621Y-104836168D01*
X137169031Y-104889618D01*
X137098763Y-104807505D01*
X137081712Y-104786644D01*
X137043298Y-104730761D01*
X137027483Y-104692887D01*
X137044090Y-104669664D01*
X137095469Y-104633412D01*
X137169657Y-104594402D01*
X137180110Y-104589633D01*
X137277941Y-104552229D01*
X137372241Y-104534345D01*
X137489262Y-104530754D01*
X137595810Y-104537820D01*
G36*
X137595810Y-104537820D02*
G01*
X137739629Y-104573866D01*
X137844691Y-104640677D01*
X137911594Y-104738702D01*
X137940940Y-104868387D01*
X137934999Y-104992544D01*
X137892114Y-105097266D01*
X137809876Y-105174693D01*
X137686635Y-105226337D01*
X137520744Y-105253710D01*
X137412952Y-105268057D01*
X137314566Y-105299099D01*
X137263771Y-105344053D01*
X137260704Y-105402838D01*
X137281146Y-105439493D01*
X137344454Y-105482935D01*
X137434449Y-105503483D01*
X137539913Y-105500673D01*
X137649626Y-105474042D01*
X137752368Y-105423128D01*
X137854804Y-105355339D01*
X137944902Y-105446508D01*
X138035000Y-105537676D01*
X137960295Y-105598655D01*
X137931246Y-105619842D01*
X137849517Y-105667978D01*
X137761079Y-105709457D01*
X137691087Y-105733262D01*
X137588602Y-105750504D01*
X137462255Y-105750732D01*
X137307318Y-105731748D01*
X137167745Y-105683630D01*
X137068950Y-105607195D01*
X137010701Y-105502254D01*
X136992762Y-105368617D01*
X137005747Y-105251054D01*
X137047431Y-105154803D01*
X137122477Y-105085873D01*
X137235635Y-105040030D01*
X137391654Y-105013042D01*
X137409574Y-105011088D01*
X137506714Y-104998630D01*
X137585514Y-104985592D01*
X137630344Y-104974499D01*
X137645304Y-104965567D01*
X137670596Y-104919509D01*
X137666488Y-104860553D01*
X137632688Y-104809373D01*
X137614939Y-104798210D01*
X137540981Y-104780326D01*
X137445451Y-104781529D01*
X137345836Y-104800561D01*
X137259621Y-104836168D01*
X137169031Y-104889618D01*
X137098763Y-104807505D01*
X137081712Y-104786644D01*
X137043298Y-104730761D01*
X137027483Y-104692887D01*
X137044090Y-104669664D01*
X137095469Y-104633412D01*
X137169657Y-104594402D01*
X137180110Y-104589633D01*
X137277941Y-104552229D01*
X137372241Y-104534345D01*
X137489262Y-104530754D01*
X137595810Y-104537820D01*
G37*
X133962740Y-107016373D02*
X133959502Y-107109330D01*
X133930010Y-107287105D01*
X133869329Y-107426892D01*
X133776922Y-107529689D01*
X133652255Y-107596496D01*
X133611976Y-107608300D01*
X133468153Y-107624786D01*
X133316289Y-107610873D01*
X133179118Y-107567935D01*
X133130794Y-107543565D01*
X133061507Y-107501819D01*
X133019517Y-107467468D01*
X133013317Y-107459620D01*
X133001719Y-107430917D01*
X133018430Y-107399714D01*
X133069321Y-107352459D01*
X133093880Y-107331887D01*
X133142260Y-107294242D01*
X133167627Y-107278855D01*
X133174894Y-107280440D01*
X133216544Y-107297574D01*
X133278726Y-107327647D01*
X133299000Y-107337540D01*
X133418600Y-107374275D01*
X133522506Y-107364805D01*
X133613621Y-107308971D01*
X133624222Y-107298654D01*
X133674909Y-107234031D01*
X133703870Y-107172010D01*
X133719909Y-107103530D01*
X132967451Y-107103530D01*
X132967590Y-106972794D01*
X132967670Y-106959792D01*
X132977829Y-106854903D01*
X133241373Y-106854903D01*
X133244485Y-106876657D01*
X133260462Y-106891649D01*
X133298543Y-106899970D01*
X133367960Y-106903549D01*
X133477942Y-106904314D01*
X133539086Y-106903521D01*
X133629338Y-106898888D01*
X133691416Y-106891038D01*
X133714510Y-106881033D01*
X133694814Y-106798677D01*
X133637151Y-106721811D01*
X133553984Y-106668484D01*
X133457911Y-106650038D01*
X133387178Y-106670832D01*
X133316471Y-106721664D01*
X133262722Y-106787892D01*
X133241373Y-106854903D01*
X132977829Y-106854903D01*
X132983248Y-106798950D01*
X133028592Y-106668106D01*
X133107712Y-106555313D01*
X133155979Y-106507600D01*
X133255663Y-106443731D01*
X133374693Y-106412784D01*
X133525043Y-106410607D01*
X133597668Y-106419139D01*
X133731727Y-106463440D01*
X133834365Y-106544069D01*
X133906480Y-106662271D01*
X133948972Y-106819291D01*
X133953286Y-106881033D01*
X133962740Y-107016373D01*
G36*
X133962740Y-107016373D02*
G01*
X133959502Y-107109330D01*
X133930010Y-107287105D01*
X133869329Y-107426892D01*
X133776922Y-107529689D01*
X133652255Y-107596496D01*
X133611976Y-107608300D01*
X133468153Y-107624786D01*
X133316289Y-107610873D01*
X133179118Y-107567935D01*
X133130794Y-107543565D01*
X133061507Y-107501819D01*
X133019517Y-107467468D01*
X133013317Y-107459620D01*
X133001719Y-107430917D01*
X133018430Y-107399714D01*
X133069321Y-107352459D01*
X133093880Y-107331887D01*
X133142260Y-107294242D01*
X133167627Y-107278855D01*
X133174894Y-107280440D01*
X133216544Y-107297574D01*
X133278726Y-107327647D01*
X133299000Y-107337540D01*
X133418600Y-107374275D01*
X133522506Y-107364805D01*
X133613621Y-107308971D01*
X133624222Y-107298654D01*
X133674909Y-107234031D01*
X133703870Y-107172010D01*
X133719909Y-107103530D01*
X132967451Y-107103530D01*
X132967590Y-106972794D01*
X132967670Y-106959792D01*
X132977829Y-106854903D01*
X133241373Y-106854903D01*
X133244485Y-106876657D01*
X133260462Y-106891649D01*
X133298543Y-106899970D01*
X133367960Y-106903549D01*
X133477942Y-106904314D01*
X133539086Y-106903521D01*
X133629338Y-106898888D01*
X133691416Y-106891038D01*
X133714510Y-106881033D01*
X133694814Y-106798677D01*
X133637151Y-106721811D01*
X133553984Y-106668484D01*
X133457911Y-106650038D01*
X133387178Y-106670832D01*
X133316471Y-106721664D01*
X133262722Y-106787892D01*
X133241373Y-106854903D01*
X132977829Y-106854903D01*
X132983248Y-106798950D01*
X133028592Y-106668106D01*
X133107712Y-106555313D01*
X133155979Y-106507600D01*
X133255663Y-106443731D01*
X133374693Y-106412784D01*
X133525043Y-106410607D01*
X133597668Y-106419139D01*
X133731727Y-106463440D01*
X133834365Y-106544069D01*
X133906480Y-106662271D01*
X133948972Y-106819291D01*
X133953286Y-106881033D01*
X133962740Y-107016373D01*
G37*
X140780573Y-104986685D02*
X140789286Y-105161108D01*
X140787109Y-105237224D01*
X140762559Y-105403570D01*
X140708460Y-105534728D01*
X140621982Y-105636101D01*
X140500295Y-105713096D01*
X140382249Y-105749039D01*
X140234161Y-105755915D01*
X140084748Y-105729468D01*
X139951472Y-105671037D01*
X139902083Y-105638532D01*
X139847668Y-105596868D01*
X139822840Y-105569452D01*
X139824247Y-105558140D01*
X139852039Y-105519597D01*
X139904272Y-105472901D01*
X139994791Y-105403858D01*
X140100858Y-105456831D01*
X140129540Y-105469943D01*
X140213971Y-105498441D01*
X140284737Y-105509804D01*
X140336919Y-105500441D01*
X140418806Y-105455351D01*
X140487637Y-105385355D01*
X140527007Y-105304363D01*
X140543047Y-105235882D01*
X139790589Y-105235882D01*
X139790728Y-105105147D01*
X139791867Y-105063713D01*
X139800182Y-104974805D01*
X140064510Y-104974805D01*
X140064995Y-104979899D01*
X140078687Y-104995760D01*
X140117378Y-105005505D01*
X140189317Y-105010413D01*
X140302757Y-105011765D01*
X140340042Y-105011749D01*
X140436873Y-105010854D01*
X140495083Y-105006988D01*
X140523306Y-104997968D01*
X140530173Y-104981611D01*
X140524317Y-104955735D01*
X140523423Y-104952802D01*
X140472973Y-104862759D01*
X140393442Y-104800766D01*
X140298603Y-104777686D01*
X140263547Y-104779532D01*
X140198481Y-104801611D01*
X140136061Y-104857766D01*
X140119247Y-104877621D01*
X140080137Y-104934326D01*
X140064510Y-104974805D01*
X139800182Y-104974805D01*
X139801251Y-104963376D01*
X139816988Y-104880349D01*
X139834236Y-104833868D01*
X139894879Y-104732769D01*
X139976094Y-104640951D01*
X140061981Y-104578037D01*
X140086796Y-104566354D01*
X140231290Y-104527600D01*
X140378842Y-104531686D01*
X140517567Y-104576882D01*
X140635579Y-104661461D01*
X140699410Y-104739461D01*
X140751601Y-104849343D01*
X140779503Y-104981611D01*
X140780573Y-104986685D01*
G36*
X140780573Y-104986685D02*
G01*
X140789286Y-105161108D01*
X140787109Y-105237224D01*
X140762559Y-105403570D01*
X140708460Y-105534728D01*
X140621982Y-105636101D01*
X140500295Y-105713096D01*
X140382249Y-105749039D01*
X140234161Y-105755915D01*
X140084748Y-105729468D01*
X139951472Y-105671037D01*
X139902083Y-105638532D01*
X139847668Y-105596868D01*
X139822840Y-105569452D01*
X139824247Y-105558140D01*
X139852039Y-105519597D01*
X139904272Y-105472901D01*
X139994791Y-105403858D01*
X140100858Y-105456831D01*
X140129540Y-105469943D01*
X140213971Y-105498441D01*
X140284737Y-105509804D01*
X140336919Y-105500441D01*
X140418806Y-105455351D01*
X140487637Y-105385355D01*
X140527007Y-105304363D01*
X140543047Y-105235882D01*
X139790589Y-105235882D01*
X139790728Y-105105147D01*
X139791867Y-105063713D01*
X139800182Y-104974805D01*
X140064510Y-104974805D01*
X140064995Y-104979899D01*
X140078687Y-104995760D01*
X140117378Y-105005505D01*
X140189317Y-105010413D01*
X140302757Y-105011765D01*
X140340042Y-105011749D01*
X140436873Y-105010854D01*
X140495083Y-105006988D01*
X140523306Y-104997968D01*
X140530173Y-104981611D01*
X140524317Y-104955735D01*
X140523423Y-104952802D01*
X140472973Y-104862759D01*
X140393442Y-104800766D01*
X140298603Y-104777686D01*
X140263547Y-104779532D01*
X140198481Y-104801611D01*
X140136061Y-104857766D01*
X140119247Y-104877621D01*
X140080137Y-104934326D01*
X140064510Y-104974805D01*
X139800182Y-104974805D01*
X139801251Y-104963376D01*
X139816988Y-104880349D01*
X139834236Y-104833868D01*
X139894879Y-104732769D01*
X139976094Y-104640951D01*
X140061981Y-104578037D01*
X140086796Y-104566354D01*
X140231290Y-104527600D01*
X140378842Y-104531686D01*
X140517567Y-104576882D01*
X140635579Y-104661461D01*
X140699410Y-104739461D01*
X140751601Y-104849343D01*
X140779503Y-104981611D01*
X140780573Y-104986685D01*
G37*
X135992760Y-107298738D02*
X135962719Y-107411789D01*
X135897432Y-107508505D01*
X135798398Y-107578077D01*
X135788679Y-107582305D01*
X135680320Y-107612767D01*
X135558223Y-107624642D01*
X135442138Y-107617382D01*
X135351814Y-107590441D01*
X135315734Y-107572865D01*
X135289256Y-107568674D01*
X135283334Y-107590594D01*
X135272116Y-107610866D01*
X135228713Y-107622938D01*
X135144469Y-107626471D01*
X135005604Y-107626471D01*
X135013734Y-107147108D01*
X135014602Y-107103530D01*
X135283334Y-107103530D01*
X135283334Y-107190686D01*
X135292713Y-107255829D01*
X135333138Y-107327647D01*
X135348059Y-107340848D01*
X135409218Y-107368620D01*
X135501226Y-107375766D01*
X135556435Y-107372974D01*
X135659741Y-107351952D01*
X135723771Y-107312782D01*
X135745367Y-107258122D01*
X135721369Y-107190628D01*
X135707367Y-107172964D01*
X135644827Y-107133345D01*
X135545847Y-107110722D01*
X135404731Y-107103530D01*
X135283334Y-107103530D01*
X135014602Y-107103530D01*
X135015943Y-107036258D01*
X135021761Y-106870305D01*
X135031567Y-106743409D01*
X135047299Y-106648654D01*
X135070894Y-106579120D01*
X135104291Y-106527890D01*
X135149427Y-106488046D01*
X135208239Y-106452669D01*
X135238580Y-106439163D01*
X135343541Y-106413669D01*
X135470134Y-106403129D01*
X135601017Y-106407350D01*
X135718845Y-106426140D01*
X135806275Y-106459305D01*
X135836687Y-106478562D01*
X135906705Y-106535636D01*
X135930403Y-106583427D01*
X135924648Y-106592662D01*
X135888782Y-106624919D01*
X135830881Y-106667950D01*
X135801279Y-106688091D01*
X135750868Y-106716629D01*
X135718110Y-106719354D01*
X135687695Y-106699657D01*
X135611892Y-106659766D01*
X135509895Y-106643361D01*
X135405661Y-106655920D01*
X135403689Y-106656489D01*
X135330171Y-106688431D01*
X135293781Y-106738428D01*
X135283715Y-106821116D01*
X135283334Y-106899780D01*
X135543230Y-106908273D01*
X135584636Y-106909670D01*
X135689027Y-106914528D01*
X135759010Y-106922161D01*
X135806313Y-106935425D01*
X135842668Y-106957181D01*
X135879804Y-106990285D01*
X135941120Y-107066855D01*
X135986059Y-107180157D01*
X135990465Y-107258122D01*
X135992760Y-107298738D01*
G36*
X135992760Y-107298738D02*
G01*
X135962719Y-107411789D01*
X135897432Y-107508505D01*
X135798398Y-107578077D01*
X135788679Y-107582305D01*
X135680320Y-107612767D01*
X135558223Y-107624642D01*
X135442138Y-107617382D01*
X135351814Y-107590441D01*
X135315734Y-107572865D01*
X135289256Y-107568674D01*
X135283334Y-107590594D01*
X135272116Y-107610866D01*
X135228713Y-107622938D01*
X135144469Y-107626471D01*
X135005604Y-107626471D01*
X135013734Y-107147108D01*
X135014602Y-107103530D01*
X135283334Y-107103530D01*
X135283334Y-107190686D01*
X135292713Y-107255829D01*
X135333138Y-107327647D01*
X135348059Y-107340848D01*
X135409218Y-107368620D01*
X135501226Y-107375766D01*
X135556435Y-107372974D01*
X135659741Y-107351952D01*
X135723771Y-107312782D01*
X135745367Y-107258122D01*
X135721369Y-107190628D01*
X135707367Y-107172964D01*
X135644827Y-107133345D01*
X135545847Y-107110722D01*
X135404731Y-107103530D01*
X135283334Y-107103530D01*
X135014602Y-107103530D01*
X135015943Y-107036258D01*
X135021761Y-106870305D01*
X135031567Y-106743409D01*
X135047299Y-106648654D01*
X135070894Y-106579120D01*
X135104291Y-106527890D01*
X135149427Y-106488046D01*
X135208239Y-106452669D01*
X135238580Y-106439163D01*
X135343541Y-106413669D01*
X135470134Y-106403129D01*
X135601017Y-106407350D01*
X135718845Y-106426140D01*
X135806275Y-106459305D01*
X135836687Y-106478562D01*
X135906705Y-106535636D01*
X135930403Y-106583427D01*
X135924648Y-106592662D01*
X135888782Y-106624919D01*
X135830881Y-106667950D01*
X135801279Y-106688091D01*
X135750868Y-106716629D01*
X135718110Y-106719354D01*
X135687695Y-106699657D01*
X135611892Y-106659766D01*
X135509895Y-106643361D01*
X135405661Y-106655920D01*
X135403689Y-106656489D01*
X135330171Y-106688431D01*
X135293781Y-106738428D01*
X135283715Y-106821116D01*
X135283334Y-106899780D01*
X135543230Y-106908273D01*
X135584636Y-106909670D01*
X135689027Y-106914528D01*
X135759010Y-106922161D01*
X135806313Y-106935425D01*
X135842668Y-106957181D01*
X135879804Y-106990285D01*
X135941120Y-107066855D01*
X135986059Y-107180157D01*
X135990465Y-107258122D01*
X135992760Y-107298738D01*
G37*
X140781123Y-107294559D02*
X140780841Y-107297844D01*
X140750497Y-107425772D01*
X140683002Y-107521986D01*
X140575000Y-107591318D01*
X140519189Y-107608186D01*
X140423593Y-107621333D01*
X140319055Y-107624472D01*
X140224738Y-107617237D01*
X140159808Y-107599262D01*
X140120370Y-107584864D01*
X140081758Y-107599262D01*
X140067634Y-107607604D01*
X140011261Y-107621131D01*
X139935020Y-107626471D01*
X139815491Y-107626471D01*
X139815491Y-107144565D01*
X139815500Y-107103530D01*
X140089412Y-107103530D01*
X140089412Y-107199278D01*
X140098619Y-107272143D01*
X140134951Y-107336239D01*
X140155744Y-107350110D01*
X140229958Y-107371731D01*
X140322610Y-107377129D01*
X140413468Y-107366162D01*
X140482303Y-107338686D01*
X140516595Y-107302358D01*
X140537647Y-107237808D01*
X140518977Y-107186639D01*
X140457259Y-107142148D01*
X140358047Y-107113605D01*
X140227173Y-107103530D01*
X140089412Y-107103530D01*
X139815500Y-107103530D01*
X139815500Y-107102890D01*
X139815954Y-106945810D01*
X139817658Y-106829029D01*
X139821385Y-106744788D01*
X139827911Y-106685329D01*
X139838008Y-106642891D01*
X139852452Y-106609716D01*
X139872016Y-106578045D01*
X139934949Y-106503837D01*
X140024130Y-106447180D01*
X140141280Y-106415922D01*
X140295653Y-106406313D01*
X140300671Y-106406323D01*
X140407980Y-106411170D01*
X140504028Y-106423252D01*
X140569575Y-106440191D01*
X140587545Y-106448679D01*
X140644740Y-106484627D01*
X140696499Y-106527352D01*
X140730553Y-106565800D01*
X140734635Y-106588916D01*
X140726669Y-106595164D01*
X140639875Y-106661855D01*
X140581839Y-106701188D01*
X140543465Y-106717057D01*
X140515659Y-106713359D01*
X140489327Y-106693990D01*
X140440730Y-106669809D01*
X140358833Y-106653687D01*
X140266273Y-106649505D01*
X140182519Y-106658015D01*
X140127035Y-106679972D01*
X140124116Y-106682644D01*
X140099183Y-106732836D01*
X140089412Y-106807755D01*
X140089412Y-106904314D01*
X140319755Y-106904407D01*
X140425565Y-106906082D01*
X140514632Y-106913368D01*
X140578345Y-106928357D01*
X140629821Y-106953110D01*
X140641800Y-106960712D01*
X140728466Y-107044282D01*
X140774564Y-107154790D01*
X140778460Y-107237808D01*
X140781123Y-107294559D01*
G36*
X140781123Y-107294559D02*
G01*
X140780841Y-107297844D01*
X140750497Y-107425772D01*
X140683002Y-107521986D01*
X140575000Y-107591318D01*
X140519189Y-107608186D01*
X140423593Y-107621333D01*
X140319055Y-107624472D01*
X140224738Y-107617237D01*
X140159808Y-107599262D01*
X140120370Y-107584864D01*
X140081758Y-107599262D01*
X140067634Y-107607604D01*
X140011261Y-107621131D01*
X139935020Y-107626471D01*
X139815491Y-107626471D01*
X139815491Y-107144565D01*
X139815500Y-107103530D01*
X140089412Y-107103530D01*
X140089412Y-107199278D01*
X140098619Y-107272143D01*
X140134951Y-107336239D01*
X140155744Y-107350110D01*
X140229958Y-107371731D01*
X140322610Y-107377129D01*
X140413468Y-107366162D01*
X140482303Y-107338686D01*
X140516595Y-107302358D01*
X140537647Y-107237808D01*
X140518977Y-107186639D01*
X140457259Y-107142148D01*
X140358047Y-107113605D01*
X140227173Y-107103530D01*
X140089412Y-107103530D01*
X139815500Y-107103530D01*
X139815500Y-107102890D01*
X139815954Y-106945810D01*
X139817658Y-106829029D01*
X139821385Y-106744788D01*
X139827911Y-106685329D01*
X139838008Y-106642891D01*
X139852452Y-106609716D01*
X139872016Y-106578045D01*
X139934949Y-106503837D01*
X140024130Y-106447180D01*
X140141280Y-106415922D01*
X140295653Y-106406313D01*
X140300671Y-106406323D01*
X140407980Y-106411170D01*
X140504028Y-106423252D01*
X140569575Y-106440191D01*
X140587545Y-106448679D01*
X140644740Y-106484627D01*
X140696499Y-106527352D01*
X140730553Y-106565800D01*
X140734635Y-106588916D01*
X140726669Y-106595164D01*
X140639875Y-106661855D01*
X140581839Y-106701188D01*
X140543465Y-106717057D01*
X140515659Y-106713359D01*
X140489327Y-106693990D01*
X140440730Y-106669809D01*
X140358833Y-106653687D01*
X140266273Y-106649505D01*
X140182519Y-106658015D01*
X140127035Y-106679972D01*
X140124116Y-106682644D01*
X140099183Y-106732836D01*
X140089412Y-106807755D01*
X140089412Y-106904314D01*
X140319755Y-106904407D01*
X140425565Y-106906082D01*
X140514632Y-106913368D01*
X140578345Y-106928357D01*
X140629821Y-106953110D01*
X140641800Y-106960712D01*
X140728466Y-107044282D01*
X140774564Y-107154790D01*
X140778460Y-107237808D01*
X140781123Y-107294559D01*
G37*
X141907255Y-107629073D02*
X141776520Y-107621547D01*
X141645785Y-107614020D01*
X141639569Y-107215588D01*
X141637730Y-107118704D01*
X141632510Y-106973146D01*
X141623550Y-106866334D01*
X141609203Y-106791087D01*
X141587821Y-106740227D01*
X141557759Y-106706574D01*
X141517367Y-106682947D01*
X141441578Y-106658818D01*
X141366207Y-106668194D01*
X141286617Y-106719763D01*
X141210000Y-106784231D01*
X141210000Y-107626471D01*
X140936079Y-107626471D01*
X140936079Y-107169701D01*
X140936342Y-107026531D01*
X140937799Y-106899309D01*
X140941301Y-106806184D01*
X140947697Y-106738713D01*
X140957835Y-106688454D01*
X140972563Y-106646966D01*
X140992729Y-106605805D01*
X140997510Y-106597066D01*
X141061101Y-106511954D01*
X141135527Y-106452476D01*
X141225255Y-106421245D01*
X141344072Y-106407342D01*
X141463059Y-106414872D01*
X141559865Y-106444267D01*
X141633334Y-106482259D01*
X141633334Y-105660015D01*
X141532667Y-105712486D01*
X141490616Y-105731549D01*
X141357886Y-105758506D01*
X141225979Y-105739874D01*
X141103705Y-105677929D01*
X140999872Y-105574943D01*
X140983606Y-105550738D01*
X140967973Y-105515256D01*
X140957776Y-105467015D01*
X140951888Y-105396757D01*
X140949182Y-105295221D01*
X140948696Y-105189428D01*
X141211759Y-105189428D01*
X141211981Y-105277779D01*
X141218735Y-105336700D01*
X141233916Y-105378752D01*
X141259417Y-105416499D01*
X141291811Y-105451594D01*
X141343614Y-105478154D01*
X141421667Y-105484902D01*
X141490618Y-105479029D01*
X141558865Y-105449641D01*
X141602818Y-105390107D01*
X141626350Y-105294423D01*
X141633334Y-105156582D01*
X141631528Y-105083254D01*
X141613501Y-104944833D01*
X141576308Y-104851233D01*
X141520159Y-104803116D01*
X141463449Y-104789579D01*
X141364686Y-104795925D01*
X141281240Y-104835223D01*
X141261268Y-104853244D01*
X141240105Y-104884422D01*
X141227021Y-104930833D01*
X141219251Y-105004000D01*
X141214032Y-105115448D01*
X141211759Y-105189428D01*
X140948696Y-105189428D01*
X140948530Y-105153149D01*
X140948753Y-105088324D01*
X140952570Y-104937538D01*
X140963203Y-104824896D01*
X140983335Y-104741885D01*
X141015653Y-104679991D01*
X141062842Y-104630700D01*
X141127588Y-104585499D01*
X141180091Y-104559560D01*
X141304571Y-104530953D01*
X141435781Y-104534851D01*
X141552402Y-104571935D01*
X141602453Y-104596176D01*
X141627626Y-104598681D01*
X141633334Y-104576620D01*
X141633339Y-104575952D01*
X141645640Y-104553426D01*
X141688065Y-104541879D01*
X141770295Y-104538628D01*
X141907255Y-104538628D01*
X141907255Y-105156582D01*
X141907255Y-107629073D01*
G36*
X141907255Y-107629073D02*
G01*
X141776520Y-107621547D01*
X141645785Y-107614020D01*
X141639569Y-107215588D01*
X141637730Y-107118704D01*
X141632510Y-106973146D01*
X141623550Y-106866334D01*
X141609203Y-106791087D01*
X141587821Y-106740227D01*
X141557759Y-106706574D01*
X141517367Y-106682947D01*
X141441578Y-106658818D01*
X141366207Y-106668194D01*
X141286617Y-106719763D01*
X141210000Y-106784231D01*
X141210000Y-107626471D01*
X140936079Y-107626471D01*
X140936079Y-107169701D01*
X140936342Y-107026531D01*
X140937799Y-106899309D01*
X140941301Y-106806184D01*
X140947697Y-106738713D01*
X140957835Y-106688454D01*
X140972563Y-106646966D01*
X140992729Y-106605805D01*
X140997510Y-106597066D01*
X141061101Y-106511954D01*
X141135527Y-106452476D01*
X141225255Y-106421245D01*
X141344072Y-106407342D01*
X141463059Y-106414872D01*
X141559865Y-106444267D01*
X141633334Y-106482259D01*
X141633334Y-105660015D01*
X141532667Y-105712486D01*
X141490616Y-105731549D01*
X141357886Y-105758506D01*
X141225979Y-105739874D01*
X141103705Y-105677929D01*
X140999872Y-105574943D01*
X140983606Y-105550738D01*
X140967973Y-105515256D01*
X140957776Y-105467015D01*
X140951888Y-105396757D01*
X140949182Y-105295221D01*
X140948696Y-105189428D01*
X141211759Y-105189428D01*
X141211981Y-105277779D01*
X141218735Y-105336700D01*
X141233916Y-105378752D01*
X141259417Y-105416499D01*
X141291811Y-105451594D01*
X141343614Y-105478154D01*
X141421667Y-105484902D01*
X141490618Y-105479029D01*
X141558865Y-105449641D01*
X141602818Y-105390107D01*
X141626350Y-105294423D01*
X141633334Y-105156582D01*
X141631528Y-105083254D01*
X141613501Y-104944833D01*
X141576308Y-104851233D01*
X141520159Y-104803116D01*
X141463449Y-104789579D01*
X141364686Y-104795925D01*
X141281240Y-104835223D01*
X141261268Y-104853244D01*
X141240105Y-104884422D01*
X141227021Y-104930833D01*
X141219251Y-105004000D01*
X141214032Y-105115448D01*
X141211759Y-105189428D01*
X140948696Y-105189428D01*
X140948530Y-105153149D01*
X140948753Y-105088324D01*
X140952570Y-104937538D01*
X140963203Y-104824896D01*
X140983335Y-104741885D01*
X141015653Y-104679991D01*
X141062842Y-104630700D01*
X141127588Y-104585499D01*
X141180091Y-104559560D01*
X141304571Y-104530953D01*
X141435781Y-104534851D01*
X141552402Y-104571935D01*
X141602453Y-104596176D01*
X141627626Y-104598681D01*
X141633334Y-104576620D01*
X141633339Y-104575952D01*
X141645640Y-104553426D01*
X141688065Y-104541879D01*
X141770295Y-104538628D01*
X141907255Y-104538628D01*
X141907255Y-105156582D01*
X141907255Y-107629073D01*
G37*
X138121634Y-96283172D02*
X138234216Y-96880363D01*
X138649629Y-97051610D01*
X139065043Y-97222857D01*
X139563400Y-96883978D01*
X139662036Y-96817170D01*
X139792797Y-96729479D01*
X139906008Y-96654580D01*
X139995789Y-96596320D01*
X140056261Y-96558545D01*
X140081544Y-96545098D01*
X140097072Y-96554661D01*
X140143487Y-96594730D01*
X140213730Y-96660487D01*
X140301848Y-96745895D01*
X140401889Y-96844915D01*
X140507902Y-96951509D01*
X140613935Y-97059640D01*
X140714035Y-97163268D01*
X140802251Y-97256358D01*
X140872632Y-97332869D01*
X140919225Y-97386765D01*
X140936079Y-97412007D01*
X140932158Y-97422852D01*
X140905012Y-97471228D01*
X140855439Y-97550842D01*
X140787459Y-97655454D01*
X140705091Y-97778822D01*
X140612353Y-97914706D01*
X140561460Y-97988815D01*
X140473912Y-98117835D01*
X140398853Y-98230434D01*
X140340285Y-98320505D01*
X140302209Y-98381942D01*
X140288628Y-98408640D01*
X140288851Y-98410119D01*
X140300831Y-98443962D01*
X140328316Y-98513071D01*
X140367474Y-98608416D01*
X140414474Y-98720972D01*
X140465485Y-98841710D01*
X140516676Y-98961602D01*
X140564215Y-99071622D01*
X140604271Y-99162740D01*
X140633013Y-99225931D01*
X140646610Y-99252165D01*
X140654655Y-99254492D01*
X140703535Y-99264988D01*
X140790652Y-99282376D01*
X140909033Y-99305295D01*
X141051704Y-99332389D01*
X141211692Y-99362296D01*
X141296015Y-99378153D01*
X141450783Y-99408407D01*
X141586104Y-99436347D01*
X141694582Y-99460369D01*
X141768820Y-99478868D01*
X141801422Y-99490238D01*
X141807278Y-99501511D01*
X141816992Y-99556586D01*
X141824624Y-99648317D01*
X141830180Y-99768073D01*
X141833666Y-99907221D01*
X141835087Y-100057131D01*
X141834450Y-100209172D01*
X141831760Y-100354712D01*
X141827024Y-100485121D01*
X141820247Y-100591766D01*
X141811436Y-100666018D01*
X141800595Y-100699245D01*
X141794017Y-100702993D01*
X141744955Y-100719069D01*
X141659847Y-100740338D01*
X141548529Y-100764472D01*
X141420840Y-100789143D01*
X141377757Y-100797000D01*
X141178773Y-100833542D01*
X141022388Y-100862910D01*
X140903183Y-100886321D01*
X140815737Y-100904994D01*
X140754628Y-100920146D01*
X140714435Y-100932995D01*
X140689738Y-100944758D01*
X140675116Y-100956653D01*
X140673416Y-100958649D01*
X140649504Y-101000271D01*
X140614119Y-101076430D01*
X140570692Y-101178193D01*
X140522651Y-101296624D01*
X140473425Y-101422789D01*
X140426445Y-101547754D01*
X140385140Y-101662584D01*
X140352939Y-101758344D01*
X140333271Y-101826100D01*
X140329565Y-101856917D01*
X140332043Y-101860915D01*
X140357689Y-101899584D01*
X140405920Y-101970907D01*
X140472262Y-102068314D01*
X140552245Y-102185234D01*
X140641397Y-102315098D01*
X140665865Y-102350828D01*
X140751903Y-102478990D01*
X140826258Y-102593608D01*
X140884688Y-102687887D01*
X140922947Y-102755029D01*
X140936792Y-102788235D01*
X140933809Y-102796965D01*
X140902711Y-102839982D01*
X140841355Y-102910230D01*
X140754137Y-103002979D01*
X140645449Y-103113502D01*
X140519685Y-103237071D01*
X140447800Y-103306235D01*
X140334139Y-103413957D01*
X140234657Y-103506225D01*
X140154695Y-103578181D01*
X140099595Y-103624968D01*
X140074698Y-103641727D01*
X140057593Y-103635515D01*
X140004929Y-103606126D01*
X139928449Y-103558063D01*
X139838129Y-103497412D01*
X139773911Y-103453153D01*
X139645705Y-103365261D01*
X139508894Y-103271915D01*
X139383932Y-103187091D01*
X139139137Y-103021515D01*
X138933649Y-103132620D01*
X138885263Y-103158265D01*
X138797270Y-103202130D01*
X138729223Y-103232414D01*
X138692856Y-103243706D01*
X138680954Y-103229205D01*
X138651400Y-103173992D01*
X138607748Y-103082962D01*
X138552426Y-102961892D01*
X138487863Y-102816559D01*
X138416489Y-102652741D01*
X138340732Y-102476213D01*
X138263022Y-102292753D01*
X138185786Y-102108138D01*
X138111456Y-101928146D01*
X138042458Y-101758552D01*
X137981223Y-101605135D01*
X137930179Y-101473670D01*
X137891755Y-101369936D01*
X137868380Y-101299709D01*
X137862483Y-101268766D01*
X137862883Y-101267862D01*
X137890349Y-101239257D01*
X137947799Y-101194457D01*
X138023373Y-101142751D01*
X138047227Y-101126962D01*
X138228734Y-100977174D01*
X138378953Y-100798767D01*
X138494327Y-100599165D01*
X138571299Y-100385797D01*
X138606314Y-100166087D01*
X138595813Y-99947462D01*
X138553277Y-99753011D01*
X138476903Y-99556657D01*
X138365565Y-99381484D01*
X138212774Y-99215082D01*
X138152739Y-99161924D01*
X137958658Y-99030951D01*
X137748999Y-98942744D01*
X137529837Y-98896512D01*
X137307247Y-98891467D01*
X137087307Y-98926820D01*
X136876090Y-99001779D01*
X136679673Y-99115557D01*
X136504132Y-99267363D01*
X136355542Y-99456409D01*
X136326974Y-99503224D01*
X136229873Y-99717204D01*
X136178303Y-99940026D01*
X136170914Y-100165922D01*
X136206355Y-100389119D01*
X136283276Y-100603847D01*
X136400326Y-100804336D01*
X136556155Y-100984814D01*
X136749413Y-101139510D01*
X136755689Y-101143679D01*
X136830461Y-101196370D01*
X136886504Y-101241169D01*
X136912100Y-101268766D01*
X136908870Y-101290402D01*
X136888790Y-101353399D01*
X136853184Y-101451038D01*
X136804480Y-101577542D01*
X136745108Y-101727132D01*
X136677494Y-101894030D01*
X136604066Y-102072457D01*
X136527254Y-102256636D01*
X136449484Y-102440787D01*
X136373185Y-102619133D01*
X136300784Y-102785895D01*
X136234710Y-102935294D01*
X136177391Y-103061554D01*
X136131255Y-103158894D01*
X136098730Y-103221538D01*
X136082243Y-103243706D01*
X136068533Y-103240703D01*
X136014670Y-103219126D01*
X135935064Y-103181293D01*
X135841449Y-103132620D01*
X135635962Y-103021515D01*
X135391167Y-103187091D01*
X135318845Y-103236120D01*
X135184326Y-103327729D01*
X135050215Y-103419485D01*
X134936970Y-103497412D01*
X134874470Y-103539881D01*
X134793239Y-103592644D01*
X134733009Y-103628765D01*
X134703591Y-103642157D01*
X134690953Y-103636471D01*
X134645267Y-103601645D01*
X134574838Y-103540329D01*
X134485796Y-103458554D01*
X134384272Y-103362351D01*
X134276394Y-103257751D01*
X134168295Y-103150786D01*
X134066103Y-103047485D01*
X133975950Y-102953882D01*
X133903964Y-102876006D01*
X133856278Y-102819889D01*
X133839020Y-102791562D01*
X133840015Y-102786172D01*
X133860555Y-102742304D01*
X133904434Y-102666407D01*
X133967412Y-102565336D01*
X134045247Y-102445948D01*
X134133701Y-102315098D01*
X134158509Y-102279005D01*
X134245618Y-102152000D01*
X134322347Y-102039718D01*
X134384224Y-101948730D01*
X134426777Y-101885606D01*
X134445534Y-101856917D01*
X134445995Y-101855687D01*
X134440459Y-101820588D01*
X134419320Y-101749484D01*
X134386005Y-101651310D01*
X134343945Y-101535002D01*
X134296570Y-101409493D01*
X134247308Y-101283718D01*
X134199589Y-101166612D01*
X134156842Y-101067110D01*
X134122497Y-100994145D01*
X134099983Y-100956653D01*
X134097728Y-100954325D01*
X134081608Y-100942549D01*
X134054383Y-100930673D01*
X134010633Y-100917481D01*
X133944935Y-100901754D01*
X133851870Y-100882274D01*
X133726016Y-100857824D01*
X133561953Y-100827186D01*
X133354259Y-100789143D01*
X133311181Y-100781136D01*
X133187777Y-100756384D01*
X133083972Y-100732933D01*
X133009601Y-100713110D01*
X132974504Y-100699245D01*
X132968632Y-100687677D01*
X132958842Y-100632110D01*
X132951085Y-100539990D01*
X132945365Y-100419951D01*
X132941689Y-100280622D01*
X132940062Y-100130635D01*
X132940491Y-99978621D01*
X132942982Y-99833212D01*
X132947540Y-99703037D01*
X132954171Y-99596730D01*
X132962881Y-99522919D01*
X132973677Y-99490238D01*
X132984699Y-99485410D01*
X133039531Y-99470191D01*
X133132213Y-99448666D01*
X133255351Y-99422439D01*
X133401548Y-99393114D01*
X133563406Y-99362296D01*
X133651784Y-99345831D01*
X133803259Y-99317279D01*
X133933640Y-99292277D01*
X134035954Y-99272185D01*
X134103228Y-99258362D01*
X134128489Y-99252165D01*
X134129438Y-99250888D01*
X134145526Y-99218437D01*
X134176194Y-99150452D01*
X134217611Y-99055954D01*
X134265941Y-98943964D01*
X134317354Y-98823500D01*
X134368014Y-98703584D01*
X134414089Y-98593235D01*
X134451746Y-98501473D01*
X134477151Y-98437319D01*
X134486471Y-98409792D01*
X134482360Y-98400106D01*
X134455000Y-98354018D01*
X134405370Y-98276440D01*
X134337460Y-98173461D01*
X134255255Y-98051167D01*
X134162746Y-97915646D01*
X134111991Y-97841429D01*
X134024403Y-97711309D01*
X133949306Y-97597112D01*
X133890707Y-97505066D01*
X133852609Y-97441398D01*
X133839020Y-97412337D01*
X133848462Y-97396573D01*
X133887960Y-97349471D01*
X133952758Y-97278186D01*
X134036909Y-97188760D01*
X134134464Y-97087232D01*
X134239474Y-96979643D01*
X134345993Y-96872034D01*
X134448071Y-96770445D01*
X134539760Y-96680917D01*
X134615112Y-96609489D01*
X134668180Y-96562203D01*
X134693014Y-96545098D01*
X134706799Y-96551749D01*
X134757418Y-96582592D01*
X134839105Y-96635083D01*
X134945972Y-96705375D01*
X135072132Y-96789622D01*
X135211698Y-96883978D01*
X135710056Y-97222857D01*
X136125469Y-97051610D01*
X136540883Y-96880363D01*
X136653465Y-96283172D01*
X136766048Y-95685980D01*
X138009051Y-95685980D01*
X138121634Y-96283172D01*
G36*
X138121634Y-96283172D02*
G01*
X138234216Y-96880363D01*
X138649629Y-97051610D01*
X139065043Y-97222857D01*
X139563400Y-96883978D01*
X139662036Y-96817170D01*
X139792797Y-96729479D01*
X139906008Y-96654580D01*
X139995789Y-96596320D01*
X140056261Y-96558545D01*
X140081544Y-96545098D01*
X140097072Y-96554661D01*
X140143487Y-96594730D01*
X140213730Y-96660487D01*
X140301848Y-96745895D01*
X140401889Y-96844915D01*
X140507902Y-96951509D01*
X140613935Y-97059640D01*
X140714035Y-97163268D01*
X140802251Y-97256358D01*
X140872632Y-97332869D01*
X140919225Y-97386765D01*
X140936079Y-97412007D01*
X140932158Y-97422852D01*
X140905012Y-97471228D01*
X140855439Y-97550842D01*
X140787459Y-97655454D01*
X140705091Y-97778822D01*
X140612353Y-97914706D01*
X140561460Y-97988815D01*
X140473912Y-98117835D01*
X140398853Y-98230434D01*
X140340285Y-98320505D01*
X140302209Y-98381942D01*
X140288628Y-98408640D01*
X140288851Y-98410119D01*
X140300831Y-98443962D01*
X140328316Y-98513071D01*
X140367474Y-98608416D01*
X140414474Y-98720972D01*
X140465485Y-98841710D01*
X140516676Y-98961602D01*
X140564215Y-99071622D01*
X140604271Y-99162740D01*
X140633013Y-99225931D01*
X140646610Y-99252165D01*
X140654655Y-99254492D01*
X140703535Y-99264988D01*
X140790652Y-99282376D01*
X140909033Y-99305295D01*
X141051704Y-99332389D01*
X141211692Y-99362296D01*
X141296015Y-99378153D01*
X141450783Y-99408407D01*
X141586104Y-99436347D01*
X141694582Y-99460369D01*
X141768820Y-99478868D01*
X141801422Y-99490238D01*
X141807278Y-99501511D01*
X141816992Y-99556586D01*
X141824624Y-99648317D01*
X141830180Y-99768073D01*
X141833666Y-99907221D01*
X141835087Y-100057131D01*
X141834450Y-100209172D01*
X141831760Y-100354712D01*
X141827024Y-100485121D01*
X141820247Y-100591766D01*
X141811436Y-100666018D01*
X141800595Y-100699245D01*
X141794017Y-100702993D01*
X141744955Y-100719069D01*
X141659847Y-100740338D01*
X141548529Y-100764472D01*
X141420840Y-100789143D01*
X141377757Y-100797000D01*
X141178773Y-100833542D01*
X141022388Y-100862910D01*
X140903183Y-100886321D01*
X140815737Y-100904994D01*
X140754628Y-100920146D01*
X140714435Y-100932995D01*
X140689738Y-100944758D01*
X140675116Y-100956653D01*
X140673416Y-100958649D01*
X140649504Y-101000271D01*
X140614119Y-101076430D01*
X140570692Y-101178193D01*
X140522651Y-101296624D01*
X140473425Y-101422789D01*
X140426445Y-101547754D01*
X140385140Y-101662584D01*
X140352939Y-101758344D01*
X140333271Y-101826100D01*
X140329565Y-101856917D01*
X140332043Y-101860915D01*
X140357689Y-101899584D01*
X140405920Y-101970907D01*
X140472262Y-102068314D01*
X140552245Y-102185234D01*
X140641397Y-102315098D01*
X140665865Y-102350828D01*
X140751903Y-102478990D01*
X140826258Y-102593608D01*
X140884688Y-102687887D01*
X140922947Y-102755029D01*
X140936792Y-102788235D01*
X140933809Y-102796965D01*
X140902711Y-102839982D01*
X140841355Y-102910230D01*
X140754137Y-103002979D01*
X140645449Y-103113502D01*
X140519685Y-103237071D01*
X140447800Y-103306235D01*
X140334139Y-103413957D01*
X140234657Y-103506225D01*
X140154695Y-103578181D01*
X140099595Y-103624968D01*
X140074698Y-103641727D01*
X140057593Y-103635515D01*
X140004929Y-103606126D01*
X139928449Y-103558063D01*
X139838129Y-103497412D01*
X139773911Y-103453153D01*
X139645705Y-103365261D01*
X139508894Y-103271915D01*
X139383932Y-103187091D01*
X139139137Y-103021515D01*
X138933649Y-103132620D01*
X138885263Y-103158265D01*
X138797270Y-103202130D01*
X138729223Y-103232414D01*
X138692856Y-103243706D01*
X138680954Y-103229205D01*
X138651400Y-103173992D01*
X138607748Y-103082962D01*
X138552426Y-102961892D01*
X138487863Y-102816559D01*
X138416489Y-102652741D01*
X138340732Y-102476213D01*
X138263022Y-102292753D01*
X138185786Y-102108138D01*
X138111456Y-101928146D01*
X138042458Y-101758552D01*
X137981223Y-101605135D01*
X137930179Y-101473670D01*
X137891755Y-101369936D01*
X137868380Y-101299709D01*
X137862483Y-101268766D01*
X137862883Y-101267862D01*
X137890349Y-101239257D01*
X137947799Y-101194457D01*
X138023373Y-101142751D01*
X138047227Y-101126962D01*
X138228734Y-100977174D01*
X138378953Y-100798767D01*
X138494327Y-100599165D01*
X138571299Y-100385797D01*
X138606314Y-100166087D01*
X138595813Y-99947462D01*
X138553277Y-99753011D01*
X138476903Y-99556657D01*
X138365565Y-99381484D01*
X138212774Y-99215082D01*
X138152739Y-99161924D01*
X137958658Y-99030951D01*
X137748999Y-98942744D01*
X137529837Y-98896512D01*
X137307247Y-98891467D01*
X137087307Y-98926820D01*
X136876090Y-99001779D01*
X136679673Y-99115557D01*
X136504132Y-99267363D01*
X136355542Y-99456409D01*
X136326974Y-99503224D01*
X136229873Y-99717204D01*
X136178303Y-99940026D01*
X136170914Y-100165922D01*
X136206355Y-100389119D01*
X136283276Y-100603847D01*
X136400326Y-100804336D01*
X136556155Y-100984814D01*
X136749413Y-101139510D01*
X136755689Y-101143679D01*
X136830461Y-101196370D01*
X136886504Y-101241169D01*
X136912100Y-101268766D01*
X136908870Y-101290402D01*
X136888790Y-101353399D01*
X136853184Y-101451038D01*
X136804480Y-101577542D01*
X136745108Y-101727132D01*
X136677494Y-101894030D01*
X136604066Y-102072457D01*
X136527254Y-102256636D01*
X136449484Y-102440787D01*
X136373185Y-102619133D01*
X136300784Y-102785895D01*
X136234710Y-102935294D01*
X136177391Y-103061554D01*
X136131255Y-103158894D01*
X136098730Y-103221538D01*
X136082243Y-103243706D01*
X136068533Y-103240703D01*
X136014670Y-103219126D01*
X135935064Y-103181293D01*
X135841449Y-103132620D01*
X135635962Y-103021515D01*
X135391167Y-103187091D01*
X135318845Y-103236120D01*
X135184326Y-103327729D01*
X135050215Y-103419485D01*
X134936970Y-103497412D01*
X134874470Y-103539881D01*
X134793239Y-103592644D01*
X134733009Y-103628765D01*
X134703591Y-103642157D01*
X134690953Y-103636471D01*
X134645267Y-103601645D01*
X134574838Y-103540329D01*
X134485796Y-103458554D01*
X134384272Y-103362351D01*
X134276394Y-103257751D01*
X134168295Y-103150786D01*
X134066103Y-103047485D01*
X133975950Y-102953882D01*
X133903964Y-102876006D01*
X133856278Y-102819889D01*
X133839020Y-102791562D01*
X133840015Y-102786172D01*
X133860555Y-102742304D01*
X133904434Y-102666407D01*
X133967412Y-102565336D01*
X134045247Y-102445948D01*
X134133701Y-102315098D01*
X134158509Y-102279005D01*
X134245618Y-102152000D01*
X134322347Y-102039718D01*
X134384224Y-101948730D01*
X134426777Y-101885606D01*
X134445534Y-101856917D01*
X134445995Y-101855687D01*
X134440459Y-101820588D01*
X134419320Y-101749484D01*
X134386005Y-101651310D01*
X134343945Y-101535002D01*
X134296570Y-101409493D01*
X134247308Y-101283718D01*
X134199589Y-101166612D01*
X134156842Y-101067110D01*
X134122497Y-100994145D01*
X134099983Y-100956653D01*
X134097728Y-100954325D01*
X134081608Y-100942549D01*
X134054383Y-100930673D01*
X134010633Y-100917481D01*
X133944935Y-100901754D01*
X133851870Y-100882274D01*
X133726016Y-100857824D01*
X133561953Y-100827186D01*
X133354259Y-100789143D01*
X133311181Y-100781136D01*
X133187777Y-100756384D01*
X133083972Y-100732933D01*
X133009601Y-100713110D01*
X132974504Y-100699245D01*
X132968632Y-100687677D01*
X132958842Y-100632110D01*
X132951085Y-100539990D01*
X132945365Y-100419951D01*
X132941689Y-100280622D01*
X132940062Y-100130635D01*
X132940491Y-99978621D01*
X132942982Y-99833212D01*
X132947540Y-99703037D01*
X132954171Y-99596730D01*
X132962881Y-99522919D01*
X132973677Y-99490238D01*
X132984699Y-99485410D01*
X133039531Y-99470191D01*
X133132213Y-99448666D01*
X133255351Y-99422439D01*
X133401548Y-99393114D01*
X133563406Y-99362296D01*
X133651784Y-99345831D01*
X133803259Y-99317279D01*
X133933640Y-99292277D01*
X134035954Y-99272185D01*
X134103228Y-99258362D01*
X134128489Y-99252165D01*
X134129438Y-99250888D01*
X134145526Y-99218437D01*
X134176194Y-99150452D01*
X134217611Y-99055954D01*
X134265941Y-98943964D01*
X134317354Y-98823500D01*
X134368014Y-98703584D01*
X134414089Y-98593235D01*
X134451746Y-98501473D01*
X134477151Y-98437319D01*
X134486471Y-98409792D01*
X134482360Y-98400106D01*
X134455000Y-98354018D01*
X134405370Y-98276440D01*
X134337460Y-98173461D01*
X134255255Y-98051167D01*
X134162746Y-97915646D01*
X134111991Y-97841429D01*
X134024403Y-97711309D01*
X133949306Y-97597112D01*
X133890707Y-97505066D01*
X133852609Y-97441398D01*
X133839020Y-97412337D01*
X133848462Y-97396573D01*
X133887960Y-97349471D01*
X133952758Y-97278186D01*
X134036909Y-97188760D01*
X134134464Y-97087232D01*
X134239474Y-96979643D01*
X134345993Y-96872034D01*
X134448071Y-96770445D01*
X134539760Y-96680917D01*
X134615112Y-96609489D01*
X134668180Y-96562203D01*
X134693014Y-96545098D01*
X134706799Y-96551749D01*
X134757418Y-96582592D01*
X134839105Y-96635083D01*
X134945972Y-96705375D01*
X135072132Y-96789622D01*
X135211698Y-96883978D01*
X135710056Y-97222857D01*
X136125469Y-97051610D01*
X136540883Y-96880363D01*
X136653465Y-96283172D01*
X136766048Y-95685980D01*
X138009051Y-95685980D01*
X138121634Y-96283172D01*
G37*
%LPC*%
D13*
X129755304Y-94032180D03*
X129755304Y-96572180D03*
X129755304Y-99112180D03*
X129755304Y-101652180D03*
X129755304Y-104192180D03*
X129755304Y-106732180D03*
X129755304Y-109272180D03*
X145055496Y-109272180D03*
X145055496Y-106732180D03*
X145055496Y-104192180D03*
X145055496Y-101652180D03*
X145055496Y-99112180D03*
X145055496Y-96572180D03*
X145055496Y-94032180D03*
D14*
X164400000Y-101650000D03*
X137400000Y-128650000D03*
X137400000Y-74650000D03*
X110400000Y-101650000D03*
D15*
X155251984Y-75195017D03*
X163887012Y-119618394D03*
X164042157Y-84062237D03*
X119695827Y-75039873D03*
X106000219Y-95344446D03*
X130978036Y-133081810D03*
X119463636Y-128253422D03*
X143463697Y-133136290D03*
X110828607Y-83830046D03*
X168715400Y-108103993D03*
X110673463Y-119386204D03*
X155019794Y-128408567D03*
X105945740Y-107830107D03*
X168769879Y-95618331D03*
%LPD*%
M02*
