%TF.GenerationSoftware,KiCad,Pcbnew,8.0.2-1*%
%TF.CreationDate,2024-05-14T17:19:14-06:00*%
%TF.ProjectId,seeeduino-xiao-breakout,73656565-6475-4696-9e6f-2d7869616f2d,rev?*%
%TF.SameCoordinates,Original*%
%TF.FileFunction,Legend,Top*%
%TF.FilePolarity,Positive*%
%FSLAX46Y46*%
G04 Gerber Fmt 4.6, Leading zero omitted, Abs format (unit mm)*
G04 Created by KiCad (PCBNEW 8.0.2-1) date 2024-05-14 17:19:14*
%MOMM*%
%LPD*%
G01*
G04 APERTURE LIST*
G04 Aperture macros list*
%AMRoundRect*
0 Rectangle with rounded corners*
0 $1 Rounding radius*
0 $2 $3 $4 $5 $6 $7 $8 $9 X,Y pos of 4 corners*
0 Add a 4 corners polygon primitive as box body*
4,1,4,$2,$3,$4,$5,$6,$7,$8,$9,$2,$3,0*
0 Add four circle primitives for the rounded corners*
1,1,$1+$1,$2,$3*
1,1,$1+$1,$4,$5*
1,1,$1+$1,$6,$7*
1,1,$1+$1,$8,$9*
0 Add four rect primitives between the rounded corners*
20,1,$1+$1,$2,$3,$4,$5,0*
20,1,$1+$1,$4,$5,$6,$7,0*
20,1,$1+$1,$6,$7,$8,$9,0*
20,1,$1+$1,$8,$9,$2,$3,0*%
G04 Aperture macros list end*
%ADD10C,0.300000*%
%ADD11C,0.150000*%
%ADD12C,0.250000*%
%ADD13C,0.101600*%
%ADD14C,0.127000*%
%ADD15C,0.066040*%
%ADD16C,0.254000*%
%ADD17C,0.120000*%
%ADD18C,0.000000*%
%ADD19O,2.748280X1.998980*%
%ADD20RoundRect,0.250001X0.624999X-0.462499X0.624999X0.462499X-0.624999X0.462499X-0.624999X-0.462499X0*%
%ADD21RoundRect,0.250000X-0.625000X0.400000X-0.625000X-0.400000X0.625000X-0.400000X0.625000X0.400000X0*%
%ADD22C,3.200000*%
%ADD23C,5.000000*%
G04 APERTURE END LIST*
D10*
X114328572Y-83899757D02*
X115042858Y-83899757D01*
X114185715Y-84328328D02*
X114685715Y-82828328D01*
X114685715Y-82828328D02*
X115185715Y-84328328D01*
X116471429Y-84328328D02*
X115614286Y-84328328D01*
X116042857Y-84328328D02*
X116042857Y-82828328D01*
X116042857Y-82828328D02*
X115900000Y-83042614D01*
X115900000Y-83042614D02*
X115757143Y-83185471D01*
X115757143Y-83185471D02*
X115614286Y-83256900D01*
D11*
X133854819Y-123340476D02*
X133854819Y-123816666D01*
X133854819Y-123816666D02*
X134331009Y-123864285D01*
X134331009Y-123864285D02*
X134283390Y-123816666D01*
X134283390Y-123816666D02*
X134235771Y-123721428D01*
X134235771Y-123721428D02*
X134235771Y-123483333D01*
X134235771Y-123483333D02*
X134283390Y-123388095D01*
X134283390Y-123388095D02*
X134331009Y-123340476D01*
X134331009Y-123340476D02*
X134426247Y-123292857D01*
X134426247Y-123292857D02*
X134664342Y-123292857D01*
X134664342Y-123292857D02*
X134759580Y-123340476D01*
X134759580Y-123340476D02*
X134807200Y-123388095D01*
X134807200Y-123388095D02*
X134854819Y-123483333D01*
X134854819Y-123483333D02*
X134854819Y-123721428D01*
X134854819Y-123721428D02*
X134807200Y-123816666D01*
X134807200Y-123816666D02*
X134759580Y-123864285D01*
X133854819Y-123007142D02*
X134854819Y-122673809D01*
X134854819Y-122673809D02*
X133854819Y-122340476D01*
D10*
X113328572Y-116649757D02*
X114042858Y-116649757D01*
X113185715Y-117078328D02*
X113685715Y-115578328D01*
X113685715Y-115578328D02*
X114185715Y-117078328D01*
X115328572Y-116078328D02*
X115328572Y-117078328D01*
X114971429Y-115506900D02*
X114614286Y-116578328D01*
X114614286Y-116578328D02*
X115542857Y-116578328D01*
X130078572Y-128899757D02*
X130792858Y-128899757D01*
X129935715Y-129328328D02*
X130435715Y-127828328D01*
X130435715Y-127828328D02*
X130935715Y-129328328D01*
X132078572Y-127828328D02*
X131792857Y-127828328D01*
X131792857Y-127828328D02*
X131650000Y-127899757D01*
X131650000Y-127899757D02*
X131578572Y-127971185D01*
X131578572Y-127971185D02*
X131435714Y-128185471D01*
X131435714Y-128185471D02*
X131364286Y-128471185D01*
X131364286Y-128471185D02*
X131364286Y-129042614D01*
X131364286Y-129042614D02*
X131435714Y-129185471D01*
X131435714Y-129185471D02*
X131507143Y-129256900D01*
X131507143Y-129256900D02*
X131650000Y-129328328D01*
X131650000Y-129328328D02*
X131935714Y-129328328D01*
X131935714Y-129328328D02*
X132078572Y-129256900D01*
X132078572Y-129256900D02*
X132150000Y-129185471D01*
X132150000Y-129185471D02*
X132221429Y-129042614D01*
X132221429Y-129042614D02*
X132221429Y-128685471D01*
X132221429Y-128685471D02*
X132150000Y-128542614D01*
X132150000Y-128542614D02*
X132078572Y-128471185D01*
X132078572Y-128471185D02*
X131935714Y-128399757D01*
X131935714Y-128399757D02*
X131650000Y-128399757D01*
X131650000Y-128399757D02*
X131507143Y-128471185D01*
X131507143Y-128471185D02*
X131435714Y-128542614D01*
X131435714Y-128542614D02*
X131364286Y-128685471D01*
X159578572Y-116399757D02*
X160292858Y-116399757D01*
X159435715Y-116828328D02*
X159935715Y-115328328D01*
X159935715Y-115328328D02*
X160435715Y-116828328D01*
X161007143Y-116828328D02*
X161292857Y-116828328D01*
X161292857Y-116828328D02*
X161435714Y-116756900D01*
X161435714Y-116756900D02*
X161507143Y-116685471D01*
X161507143Y-116685471D02*
X161650000Y-116471185D01*
X161650000Y-116471185D02*
X161721429Y-116185471D01*
X161721429Y-116185471D02*
X161721429Y-115614042D01*
X161721429Y-115614042D02*
X161650000Y-115471185D01*
X161650000Y-115471185D02*
X161578572Y-115399757D01*
X161578572Y-115399757D02*
X161435714Y-115328328D01*
X161435714Y-115328328D02*
X161150000Y-115328328D01*
X161150000Y-115328328D02*
X161007143Y-115399757D01*
X161007143Y-115399757D02*
X160935714Y-115471185D01*
X160935714Y-115471185D02*
X160864286Y-115614042D01*
X160864286Y-115614042D02*
X160864286Y-115971185D01*
X160864286Y-115971185D02*
X160935714Y-116114042D01*
X160935714Y-116114042D02*
X161007143Y-116185471D01*
X161007143Y-116185471D02*
X161150000Y-116256900D01*
X161150000Y-116256900D02*
X161435714Y-116256900D01*
X161435714Y-116256900D02*
X161578572Y-116185471D01*
X161578572Y-116185471D02*
X161650000Y-116114042D01*
X161650000Y-116114042D02*
X161721429Y-115971185D01*
X157257143Y-83399757D02*
X157114286Y-83328328D01*
X157114286Y-83328328D02*
X156900000Y-83328328D01*
X156900000Y-83328328D02*
X156685714Y-83399757D01*
X156685714Y-83399757D02*
X156542857Y-83542614D01*
X156542857Y-83542614D02*
X156471428Y-83685471D01*
X156471428Y-83685471D02*
X156400000Y-83971185D01*
X156400000Y-83971185D02*
X156400000Y-84185471D01*
X156400000Y-84185471D02*
X156471428Y-84471185D01*
X156471428Y-84471185D02*
X156542857Y-84614042D01*
X156542857Y-84614042D02*
X156685714Y-84756900D01*
X156685714Y-84756900D02*
X156900000Y-84828328D01*
X156900000Y-84828328D02*
X157042857Y-84828328D01*
X157042857Y-84828328D02*
X157257143Y-84756900D01*
X157257143Y-84756900D02*
X157328571Y-84685471D01*
X157328571Y-84685471D02*
X157328571Y-84185471D01*
X157328571Y-84185471D02*
X157042857Y-84185471D01*
X157971428Y-84828328D02*
X157971428Y-83328328D01*
X157971428Y-83328328D02*
X158828571Y-84828328D01*
X158828571Y-84828328D02*
X158828571Y-83328328D01*
X159542857Y-84828328D02*
X159542857Y-83328328D01*
X159542857Y-83328328D02*
X159900000Y-83328328D01*
X159900000Y-83328328D02*
X160114286Y-83399757D01*
X160114286Y-83399757D02*
X160257143Y-83542614D01*
X160257143Y-83542614D02*
X160328572Y-83685471D01*
X160328572Y-83685471D02*
X160400000Y-83971185D01*
X160400000Y-83971185D02*
X160400000Y-84185471D01*
X160400000Y-84185471D02*
X160328572Y-84471185D01*
X160328572Y-84471185D02*
X160257143Y-84614042D01*
X160257143Y-84614042D02*
X160114286Y-84756900D01*
X160114286Y-84756900D02*
X159900000Y-84828328D01*
X159900000Y-84828328D02*
X159542857Y-84828328D01*
X123328572Y-75399757D02*
X124042858Y-75399757D01*
X123185715Y-75828328D02*
X123685715Y-74328328D01*
X123685715Y-74328328D02*
X124185715Y-75828328D01*
X124971429Y-74328328D02*
X125114286Y-74328328D01*
X125114286Y-74328328D02*
X125257143Y-74399757D01*
X125257143Y-74399757D02*
X125328572Y-74471185D01*
X125328572Y-74471185D02*
X125400000Y-74614042D01*
X125400000Y-74614042D02*
X125471429Y-74899757D01*
X125471429Y-74899757D02*
X125471429Y-75256900D01*
X125471429Y-75256900D02*
X125400000Y-75542614D01*
X125400000Y-75542614D02*
X125328572Y-75685471D01*
X125328572Y-75685471D02*
X125257143Y-75756900D01*
X125257143Y-75756900D02*
X125114286Y-75828328D01*
X125114286Y-75828328D02*
X124971429Y-75828328D01*
X124971429Y-75828328D02*
X124828572Y-75756900D01*
X124828572Y-75756900D02*
X124757143Y-75685471D01*
X124757143Y-75685471D02*
X124685714Y-75542614D01*
X124685714Y-75542614D02*
X124614286Y-75256900D01*
X124614286Y-75256900D02*
X124614286Y-74899757D01*
X124614286Y-74899757D02*
X124685714Y-74614042D01*
X124685714Y-74614042D02*
X124757143Y-74471185D01*
X124757143Y-74471185D02*
X124828572Y-74399757D01*
X124828572Y-74399757D02*
X124971429Y-74328328D01*
D12*
X127753016Y-85224049D02*
X127995873Y-85305001D01*
X127995873Y-85305001D02*
X128400635Y-85305001D01*
X128400635Y-85305001D02*
X128562540Y-85224049D01*
X128562540Y-85224049D02*
X128643492Y-85143096D01*
X128643492Y-85143096D02*
X128724445Y-84981191D01*
X128724445Y-84981191D02*
X128724445Y-84819287D01*
X128724445Y-84819287D02*
X128643492Y-84657382D01*
X128643492Y-84657382D02*
X128562540Y-84576429D01*
X128562540Y-84576429D02*
X128400635Y-84495477D01*
X128400635Y-84495477D02*
X128076826Y-84414525D01*
X128076826Y-84414525D02*
X127914921Y-84333572D01*
X127914921Y-84333572D02*
X127833968Y-84252620D01*
X127833968Y-84252620D02*
X127753016Y-84090715D01*
X127753016Y-84090715D02*
X127753016Y-83928810D01*
X127753016Y-83928810D02*
X127833968Y-83766906D01*
X127833968Y-83766906D02*
X127914921Y-83685953D01*
X127914921Y-83685953D02*
X128076826Y-83605001D01*
X128076826Y-83605001D02*
X128481587Y-83605001D01*
X128481587Y-83605001D02*
X128724445Y-83685953D01*
X130100635Y-85224049D02*
X129938731Y-85305001D01*
X129938731Y-85305001D02*
X129614921Y-85305001D01*
X129614921Y-85305001D02*
X129453016Y-85224049D01*
X129453016Y-85224049D02*
X129372064Y-85062144D01*
X129372064Y-85062144D02*
X129372064Y-84414525D01*
X129372064Y-84414525D02*
X129453016Y-84252620D01*
X129453016Y-84252620D02*
X129614921Y-84171668D01*
X129614921Y-84171668D02*
X129938731Y-84171668D01*
X129938731Y-84171668D02*
X130100635Y-84252620D01*
X130100635Y-84252620D02*
X130181588Y-84414525D01*
X130181588Y-84414525D02*
X130181588Y-84576429D01*
X130181588Y-84576429D02*
X129372064Y-84738334D01*
X131557778Y-85224049D02*
X131395874Y-85305001D01*
X131395874Y-85305001D02*
X131072064Y-85305001D01*
X131072064Y-85305001D02*
X130910159Y-85224049D01*
X130910159Y-85224049D02*
X130829207Y-85062144D01*
X130829207Y-85062144D02*
X130829207Y-84414525D01*
X130829207Y-84414525D02*
X130910159Y-84252620D01*
X130910159Y-84252620D02*
X131072064Y-84171668D01*
X131072064Y-84171668D02*
X131395874Y-84171668D01*
X131395874Y-84171668D02*
X131557778Y-84252620D01*
X131557778Y-84252620D02*
X131638731Y-84414525D01*
X131638731Y-84414525D02*
X131638731Y-84576429D01*
X131638731Y-84576429D02*
X130829207Y-84738334D01*
X133014921Y-85224049D02*
X132853017Y-85305001D01*
X132853017Y-85305001D02*
X132529207Y-85305001D01*
X132529207Y-85305001D02*
X132367302Y-85224049D01*
X132367302Y-85224049D02*
X132286350Y-85062144D01*
X132286350Y-85062144D02*
X132286350Y-84414525D01*
X132286350Y-84414525D02*
X132367302Y-84252620D01*
X132367302Y-84252620D02*
X132529207Y-84171668D01*
X132529207Y-84171668D02*
X132853017Y-84171668D01*
X132853017Y-84171668D02*
X133014921Y-84252620D01*
X133014921Y-84252620D02*
X133095874Y-84414525D01*
X133095874Y-84414525D02*
X133095874Y-84576429D01*
X133095874Y-84576429D02*
X132286350Y-84738334D01*
X134553017Y-85305001D02*
X134553017Y-83605001D01*
X134553017Y-85224049D02*
X134391112Y-85305001D01*
X134391112Y-85305001D02*
X134067303Y-85305001D01*
X134067303Y-85305001D02*
X133905398Y-85224049D01*
X133905398Y-85224049D02*
X133824445Y-85143096D01*
X133824445Y-85143096D02*
X133743493Y-84981191D01*
X133743493Y-84981191D02*
X133743493Y-84495477D01*
X133743493Y-84495477D02*
X133824445Y-84333572D01*
X133824445Y-84333572D02*
X133905398Y-84252620D01*
X133905398Y-84252620D02*
X134067303Y-84171668D01*
X134067303Y-84171668D02*
X134391112Y-84171668D01*
X134391112Y-84171668D02*
X134553017Y-84252620D01*
X136091112Y-84171668D02*
X136091112Y-85305001D01*
X135362540Y-84171668D02*
X135362540Y-85062144D01*
X135362540Y-85062144D02*
X135443493Y-85224049D01*
X135443493Y-85224049D02*
X135605398Y-85305001D01*
X135605398Y-85305001D02*
X135848255Y-85305001D01*
X135848255Y-85305001D02*
X136010159Y-85224049D01*
X136010159Y-85224049D02*
X136091112Y-85143096D01*
X136900635Y-85305001D02*
X136900635Y-84171668D01*
X136900635Y-83605001D02*
X136819683Y-83685953D01*
X136819683Y-83685953D02*
X136900635Y-83766906D01*
X136900635Y-83766906D02*
X136981588Y-83685953D01*
X136981588Y-83685953D02*
X136900635Y-83605001D01*
X136900635Y-83605001D02*
X136900635Y-83766906D01*
X137710159Y-84171668D02*
X137710159Y-85305001D01*
X137710159Y-84333572D02*
X137791112Y-84252620D01*
X137791112Y-84252620D02*
X137953017Y-84171668D01*
X137953017Y-84171668D02*
X138195874Y-84171668D01*
X138195874Y-84171668D02*
X138357778Y-84252620D01*
X138357778Y-84252620D02*
X138438731Y-84414525D01*
X138438731Y-84414525D02*
X138438731Y-85305001D01*
X139491112Y-85305001D02*
X139329207Y-85224049D01*
X139329207Y-85224049D02*
X139248254Y-85143096D01*
X139248254Y-85143096D02*
X139167302Y-84981191D01*
X139167302Y-84981191D02*
X139167302Y-84495477D01*
X139167302Y-84495477D02*
X139248254Y-84333572D01*
X139248254Y-84333572D02*
X139329207Y-84252620D01*
X139329207Y-84252620D02*
X139491112Y-84171668D01*
X139491112Y-84171668D02*
X139733969Y-84171668D01*
X139733969Y-84171668D02*
X139895873Y-84252620D01*
X139895873Y-84252620D02*
X139976826Y-84333572D01*
X139976826Y-84333572D02*
X140057778Y-84495477D01*
X140057778Y-84495477D02*
X140057778Y-84981191D01*
X140057778Y-84981191D02*
X139976826Y-85143096D01*
X139976826Y-85143096D02*
X139895873Y-85224049D01*
X139895873Y-85224049D02*
X139733969Y-85305001D01*
X139733969Y-85305001D02*
X139491112Y-85305001D01*
X141919683Y-83605001D02*
X143053016Y-85305001D01*
X143053016Y-83605001D02*
X141919683Y-85305001D01*
X143700635Y-85305001D02*
X143700635Y-83605001D01*
X144429207Y-84819287D02*
X145238731Y-84819287D01*
X144267302Y-85305001D02*
X144833969Y-83605001D01*
X144833969Y-83605001D02*
X145400636Y-85305001D01*
X146291112Y-83605001D02*
X146614921Y-83605001D01*
X146614921Y-83605001D02*
X146776826Y-83685953D01*
X146776826Y-83685953D02*
X146938731Y-83847858D01*
X146938731Y-83847858D02*
X147019683Y-84171668D01*
X147019683Y-84171668D02*
X147019683Y-84738334D01*
X147019683Y-84738334D02*
X146938731Y-85062144D01*
X146938731Y-85062144D02*
X146776826Y-85224049D01*
X146776826Y-85224049D02*
X146614921Y-85305001D01*
X146614921Y-85305001D02*
X146291112Y-85305001D01*
X146291112Y-85305001D02*
X146129207Y-85224049D01*
X146129207Y-85224049D02*
X145967302Y-85062144D01*
X145967302Y-85062144D02*
X145886350Y-84738334D01*
X145886350Y-84738334D02*
X145886350Y-84171668D01*
X145886350Y-84171668D02*
X145967302Y-83847858D01*
X145967302Y-83847858D02*
X146129207Y-83685953D01*
X146129207Y-83685953D02*
X146291112Y-83605001D01*
X117512541Y-87960954D02*
X117350636Y-88041906D01*
X117350636Y-88041906D02*
X117026827Y-88041906D01*
X117026827Y-88041906D02*
X116864922Y-87960954D01*
X116864922Y-87960954D02*
X116783969Y-87880001D01*
X116783969Y-87880001D02*
X116703017Y-87718096D01*
X116703017Y-87718096D02*
X116703017Y-87232382D01*
X116703017Y-87232382D02*
X116783969Y-87070477D01*
X116783969Y-87070477D02*
X116864922Y-86989525D01*
X116864922Y-86989525D02*
X117026827Y-86908573D01*
X117026827Y-86908573D02*
X117350636Y-86908573D01*
X117350636Y-86908573D02*
X117512541Y-86989525D01*
X118969684Y-88041906D02*
X118969684Y-87151430D01*
X118969684Y-87151430D02*
X118888731Y-86989525D01*
X118888731Y-86989525D02*
X118726827Y-86908573D01*
X118726827Y-86908573D02*
X118403017Y-86908573D01*
X118403017Y-86908573D02*
X118241112Y-86989525D01*
X118969684Y-87960954D02*
X118807779Y-88041906D01*
X118807779Y-88041906D02*
X118403017Y-88041906D01*
X118403017Y-88041906D02*
X118241112Y-87960954D01*
X118241112Y-87960954D02*
X118160160Y-87799049D01*
X118160160Y-87799049D02*
X118160160Y-87637144D01*
X118160160Y-87637144D02*
X118241112Y-87475239D01*
X118241112Y-87475239D02*
X118403017Y-87394287D01*
X118403017Y-87394287D02*
X118807779Y-87394287D01*
X118807779Y-87394287D02*
X118969684Y-87313334D01*
X119779207Y-86908573D02*
X119779207Y-88608573D01*
X119779207Y-86989525D02*
X119941112Y-86908573D01*
X119941112Y-86908573D02*
X120264922Y-86908573D01*
X120264922Y-86908573D02*
X120426826Y-86989525D01*
X120426826Y-86989525D02*
X120507779Y-87070477D01*
X120507779Y-87070477D02*
X120588731Y-87232382D01*
X120588731Y-87232382D02*
X120588731Y-87718096D01*
X120588731Y-87718096D02*
X120507779Y-87880001D01*
X120507779Y-87880001D02*
X120426826Y-87960954D01*
X120426826Y-87960954D02*
X120264922Y-88041906D01*
X120264922Y-88041906D02*
X119941112Y-88041906D01*
X119941112Y-88041906D02*
X119779207Y-87960954D01*
X122045874Y-88041906D02*
X122045874Y-87151430D01*
X122045874Y-87151430D02*
X121964921Y-86989525D01*
X121964921Y-86989525D02*
X121803017Y-86908573D01*
X121803017Y-86908573D02*
X121479207Y-86908573D01*
X121479207Y-86908573D02*
X121317302Y-86989525D01*
X122045874Y-87960954D02*
X121883969Y-88041906D01*
X121883969Y-88041906D02*
X121479207Y-88041906D01*
X121479207Y-88041906D02*
X121317302Y-87960954D01*
X121317302Y-87960954D02*
X121236350Y-87799049D01*
X121236350Y-87799049D02*
X121236350Y-87637144D01*
X121236350Y-87637144D02*
X121317302Y-87475239D01*
X121317302Y-87475239D02*
X121479207Y-87394287D01*
X121479207Y-87394287D02*
X121883969Y-87394287D01*
X121883969Y-87394287D02*
X122045874Y-87313334D01*
X123583969Y-87960954D02*
X123422064Y-88041906D01*
X123422064Y-88041906D02*
X123098255Y-88041906D01*
X123098255Y-88041906D02*
X122936350Y-87960954D01*
X122936350Y-87960954D02*
X122855397Y-87880001D01*
X122855397Y-87880001D02*
X122774445Y-87718096D01*
X122774445Y-87718096D02*
X122774445Y-87232382D01*
X122774445Y-87232382D02*
X122855397Y-87070477D01*
X122855397Y-87070477D02*
X122936350Y-86989525D01*
X122936350Y-86989525D02*
X123098255Y-86908573D01*
X123098255Y-86908573D02*
X123422064Y-86908573D01*
X123422064Y-86908573D02*
X123583969Y-86989525D01*
X124312540Y-88041906D02*
X124312540Y-86908573D01*
X124312540Y-86341906D02*
X124231588Y-86422858D01*
X124231588Y-86422858D02*
X124312540Y-86503811D01*
X124312540Y-86503811D02*
X124393493Y-86422858D01*
X124393493Y-86422858D02*
X124312540Y-86341906D01*
X124312540Y-86341906D02*
X124312540Y-86503811D01*
X124879207Y-86908573D02*
X125526826Y-86908573D01*
X125122064Y-86341906D02*
X125122064Y-87799049D01*
X125122064Y-87799049D02*
X125203017Y-87960954D01*
X125203017Y-87960954D02*
X125364922Y-88041906D01*
X125364922Y-88041906D02*
X125526826Y-88041906D01*
X126093493Y-88041906D02*
X126093493Y-86908573D01*
X126093493Y-86341906D02*
X126012541Y-86422858D01*
X126012541Y-86422858D02*
X126093493Y-86503811D01*
X126093493Y-86503811D02*
X126174446Y-86422858D01*
X126174446Y-86422858D02*
X126093493Y-86341906D01*
X126093493Y-86341906D02*
X126093493Y-86503811D01*
X126741113Y-86908573D02*
X127145875Y-88041906D01*
X127145875Y-88041906D02*
X127550636Y-86908573D01*
X128845874Y-87960954D02*
X128683970Y-88041906D01*
X128683970Y-88041906D02*
X128360160Y-88041906D01*
X128360160Y-88041906D02*
X128198255Y-87960954D01*
X128198255Y-87960954D02*
X128117303Y-87799049D01*
X128117303Y-87799049D02*
X128117303Y-87151430D01*
X128117303Y-87151430D02*
X128198255Y-86989525D01*
X128198255Y-86989525D02*
X128360160Y-86908573D01*
X128360160Y-86908573D02*
X128683970Y-86908573D01*
X128683970Y-86908573D02*
X128845874Y-86989525D01*
X128845874Y-86989525D02*
X128926827Y-87151430D01*
X128926827Y-87151430D02*
X128926827Y-87313334D01*
X128926827Y-87313334D02*
X128117303Y-87475239D01*
X130707779Y-86908573D02*
X131355398Y-86908573D01*
X130950636Y-86341906D02*
X130950636Y-87799049D01*
X130950636Y-87799049D02*
X131031589Y-87960954D01*
X131031589Y-87960954D02*
X131193494Y-88041906D01*
X131193494Y-88041906D02*
X131355398Y-88041906D01*
X132164923Y-88041906D02*
X132003018Y-87960954D01*
X132003018Y-87960954D02*
X131922065Y-87880001D01*
X131922065Y-87880001D02*
X131841113Y-87718096D01*
X131841113Y-87718096D02*
X131841113Y-87232382D01*
X131841113Y-87232382D02*
X131922065Y-87070477D01*
X131922065Y-87070477D02*
X132003018Y-86989525D01*
X132003018Y-86989525D02*
X132164923Y-86908573D01*
X132164923Y-86908573D02*
X132407780Y-86908573D01*
X132407780Y-86908573D02*
X132569684Y-86989525D01*
X132569684Y-86989525D02*
X132650637Y-87070477D01*
X132650637Y-87070477D02*
X132731589Y-87232382D01*
X132731589Y-87232382D02*
X132731589Y-87718096D01*
X132731589Y-87718096D02*
X132650637Y-87880001D01*
X132650637Y-87880001D02*
X132569684Y-87960954D01*
X132569684Y-87960954D02*
X132407780Y-88041906D01*
X132407780Y-88041906D02*
X132164923Y-88041906D01*
X134188732Y-86908573D02*
X134188732Y-88041906D01*
X133460160Y-86908573D02*
X133460160Y-87799049D01*
X133460160Y-87799049D02*
X133541113Y-87960954D01*
X133541113Y-87960954D02*
X133703018Y-88041906D01*
X133703018Y-88041906D02*
X133945875Y-88041906D01*
X133945875Y-88041906D02*
X134107779Y-87960954D01*
X134107779Y-87960954D02*
X134188732Y-87880001D01*
X135726827Y-87960954D02*
X135564922Y-88041906D01*
X135564922Y-88041906D02*
X135241113Y-88041906D01*
X135241113Y-88041906D02*
X135079208Y-87960954D01*
X135079208Y-87960954D02*
X134998255Y-87880001D01*
X134998255Y-87880001D02*
X134917303Y-87718096D01*
X134917303Y-87718096D02*
X134917303Y-87232382D01*
X134917303Y-87232382D02*
X134998255Y-87070477D01*
X134998255Y-87070477D02*
X135079208Y-86989525D01*
X135079208Y-86989525D02*
X135241113Y-86908573D01*
X135241113Y-86908573D02*
X135564922Y-86908573D01*
X135564922Y-86908573D02*
X135726827Y-86989525D01*
X136455398Y-88041906D02*
X136455398Y-86341906D01*
X137183970Y-88041906D02*
X137183970Y-87151430D01*
X137183970Y-87151430D02*
X137103017Y-86989525D01*
X137103017Y-86989525D02*
X136941113Y-86908573D01*
X136941113Y-86908573D02*
X136698256Y-86908573D01*
X136698256Y-86908573D02*
X136536351Y-86989525D01*
X136536351Y-86989525D02*
X136455398Y-87070477D01*
X139288731Y-88041906D02*
X139288731Y-86341906D01*
X139288731Y-86989525D02*
X139450636Y-86908573D01*
X139450636Y-86908573D02*
X139774446Y-86908573D01*
X139774446Y-86908573D02*
X139936350Y-86989525D01*
X139936350Y-86989525D02*
X140017303Y-87070477D01*
X140017303Y-87070477D02*
X140098255Y-87232382D01*
X140098255Y-87232382D02*
X140098255Y-87718096D01*
X140098255Y-87718096D02*
X140017303Y-87880001D01*
X140017303Y-87880001D02*
X139936350Y-87960954D01*
X139936350Y-87960954D02*
X139774446Y-88041906D01*
X139774446Y-88041906D02*
X139450636Y-88041906D01*
X139450636Y-88041906D02*
X139288731Y-87960954D01*
X140826826Y-88041906D02*
X140826826Y-86908573D01*
X140826826Y-87232382D02*
X140907779Y-87070477D01*
X140907779Y-87070477D02*
X140988731Y-86989525D01*
X140988731Y-86989525D02*
X141150636Y-86908573D01*
X141150636Y-86908573D02*
X141312541Y-86908573D01*
X142526826Y-87960954D02*
X142364922Y-88041906D01*
X142364922Y-88041906D02*
X142041112Y-88041906D01*
X142041112Y-88041906D02*
X141879207Y-87960954D01*
X141879207Y-87960954D02*
X141798255Y-87799049D01*
X141798255Y-87799049D02*
X141798255Y-87151430D01*
X141798255Y-87151430D02*
X141879207Y-86989525D01*
X141879207Y-86989525D02*
X142041112Y-86908573D01*
X142041112Y-86908573D02*
X142364922Y-86908573D01*
X142364922Y-86908573D02*
X142526826Y-86989525D01*
X142526826Y-86989525D02*
X142607779Y-87151430D01*
X142607779Y-87151430D02*
X142607779Y-87313334D01*
X142607779Y-87313334D02*
X141798255Y-87475239D01*
X144064922Y-88041906D02*
X144064922Y-87151430D01*
X144064922Y-87151430D02*
X143983969Y-86989525D01*
X143983969Y-86989525D02*
X143822065Y-86908573D01*
X143822065Y-86908573D02*
X143498255Y-86908573D01*
X143498255Y-86908573D02*
X143336350Y-86989525D01*
X144064922Y-87960954D02*
X143903017Y-88041906D01*
X143903017Y-88041906D02*
X143498255Y-88041906D01*
X143498255Y-88041906D02*
X143336350Y-87960954D01*
X143336350Y-87960954D02*
X143255398Y-87799049D01*
X143255398Y-87799049D02*
X143255398Y-87637144D01*
X143255398Y-87637144D02*
X143336350Y-87475239D01*
X143336350Y-87475239D02*
X143498255Y-87394287D01*
X143498255Y-87394287D02*
X143903017Y-87394287D01*
X143903017Y-87394287D02*
X144064922Y-87313334D01*
X144874445Y-88041906D02*
X144874445Y-86341906D01*
X145036350Y-87394287D02*
X145522064Y-88041906D01*
X145522064Y-86908573D02*
X144874445Y-87556192D01*
X146493493Y-88041906D02*
X146331588Y-87960954D01*
X146331588Y-87960954D02*
X146250635Y-87880001D01*
X146250635Y-87880001D02*
X146169683Y-87718096D01*
X146169683Y-87718096D02*
X146169683Y-87232382D01*
X146169683Y-87232382D02*
X146250635Y-87070477D01*
X146250635Y-87070477D02*
X146331588Y-86989525D01*
X146331588Y-86989525D02*
X146493493Y-86908573D01*
X146493493Y-86908573D02*
X146736350Y-86908573D01*
X146736350Y-86908573D02*
X146898254Y-86989525D01*
X146898254Y-86989525D02*
X146979207Y-87070477D01*
X146979207Y-87070477D02*
X147060159Y-87232382D01*
X147060159Y-87232382D02*
X147060159Y-87718096D01*
X147060159Y-87718096D02*
X146979207Y-87880001D01*
X146979207Y-87880001D02*
X146898254Y-87960954D01*
X146898254Y-87960954D02*
X146736350Y-88041906D01*
X146736350Y-88041906D02*
X146493493Y-88041906D01*
X148517302Y-86908573D02*
X148517302Y-88041906D01*
X147788730Y-86908573D02*
X147788730Y-87799049D01*
X147788730Y-87799049D02*
X147869683Y-87960954D01*
X147869683Y-87960954D02*
X148031588Y-88041906D01*
X148031588Y-88041906D02*
X148274445Y-88041906D01*
X148274445Y-88041906D02*
X148436349Y-87960954D01*
X148436349Y-87960954D02*
X148517302Y-87880001D01*
X149083968Y-86908573D02*
X149731587Y-86908573D01*
X149326825Y-86341906D02*
X149326825Y-87799049D01*
X149326825Y-87799049D02*
X149407778Y-87960954D01*
X149407778Y-87960954D02*
X149569683Y-88041906D01*
X149569683Y-88041906D02*
X149731587Y-88041906D01*
X151593492Y-88041906D02*
X151593492Y-86341906D01*
X151593492Y-86989525D02*
X151755397Y-86908573D01*
X151755397Y-86908573D02*
X152079207Y-86908573D01*
X152079207Y-86908573D02*
X152241111Y-86989525D01*
X152241111Y-86989525D02*
X152322064Y-87070477D01*
X152322064Y-87070477D02*
X152403016Y-87232382D01*
X152403016Y-87232382D02*
X152403016Y-87718096D01*
X152403016Y-87718096D02*
X152322064Y-87880001D01*
X152322064Y-87880001D02*
X152241111Y-87960954D01*
X152241111Y-87960954D02*
X152079207Y-88041906D01*
X152079207Y-88041906D02*
X151755397Y-88041906D01*
X151755397Y-88041906D02*
X151593492Y-87960954D01*
X153374445Y-88041906D02*
X153212540Y-87960954D01*
X153212540Y-87960954D02*
X153131587Y-87880001D01*
X153131587Y-87880001D02*
X153050635Y-87718096D01*
X153050635Y-87718096D02*
X153050635Y-87232382D01*
X153050635Y-87232382D02*
X153131587Y-87070477D01*
X153131587Y-87070477D02*
X153212540Y-86989525D01*
X153212540Y-86989525D02*
X153374445Y-86908573D01*
X153374445Y-86908573D02*
X153617302Y-86908573D01*
X153617302Y-86908573D02*
X153779206Y-86989525D01*
X153779206Y-86989525D02*
X153860159Y-87070477D01*
X153860159Y-87070477D02*
X153941111Y-87232382D01*
X153941111Y-87232382D02*
X153941111Y-87718096D01*
X153941111Y-87718096D02*
X153860159Y-87880001D01*
X153860159Y-87880001D02*
X153779206Y-87960954D01*
X153779206Y-87960954D02*
X153617302Y-88041906D01*
X153617302Y-88041906D02*
X153374445Y-88041906D01*
X155398254Y-88041906D02*
X155398254Y-87151430D01*
X155398254Y-87151430D02*
X155317301Y-86989525D01*
X155317301Y-86989525D02*
X155155397Y-86908573D01*
X155155397Y-86908573D02*
X154831587Y-86908573D01*
X154831587Y-86908573D02*
X154669682Y-86989525D01*
X155398254Y-87960954D02*
X155236349Y-88041906D01*
X155236349Y-88041906D02*
X154831587Y-88041906D01*
X154831587Y-88041906D02*
X154669682Y-87960954D01*
X154669682Y-87960954D02*
X154588730Y-87799049D01*
X154588730Y-87799049D02*
X154588730Y-87637144D01*
X154588730Y-87637144D02*
X154669682Y-87475239D01*
X154669682Y-87475239D02*
X154831587Y-87394287D01*
X154831587Y-87394287D02*
X155236349Y-87394287D01*
X155236349Y-87394287D02*
X155398254Y-87313334D01*
X156207777Y-88041906D02*
X156207777Y-86908573D01*
X156207777Y-87232382D02*
X156288730Y-87070477D01*
X156288730Y-87070477D02*
X156369682Y-86989525D01*
X156369682Y-86989525D02*
X156531587Y-86908573D01*
X156531587Y-86908573D02*
X156693492Y-86908573D01*
X157988730Y-88041906D02*
X157988730Y-86341906D01*
X157988730Y-87960954D02*
X157826825Y-88041906D01*
X157826825Y-88041906D02*
X157503016Y-88041906D01*
X157503016Y-88041906D02*
X157341111Y-87960954D01*
X157341111Y-87960954D02*
X157260158Y-87880001D01*
X157260158Y-87880001D02*
X157179206Y-87718096D01*
X157179206Y-87718096D02*
X157179206Y-87232382D01*
X157179206Y-87232382D02*
X157260158Y-87070477D01*
X157260158Y-87070477D02*
X157341111Y-86989525D01*
X157341111Y-86989525D02*
X157503016Y-86908573D01*
X157503016Y-86908573D02*
X157826825Y-86908573D01*
X157826825Y-86908573D02*
X157988730Y-86989525D01*
D10*
X142328572Y-128899757D02*
X143042858Y-128899757D01*
X142185715Y-129328328D02*
X142685715Y-127828328D01*
X142685715Y-127828328D02*
X143185715Y-129328328D01*
X143542857Y-127828328D02*
X144542857Y-127828328D01*
X144542857Y-127828328D02*
X143900000Y-129328328D01*
X109578572Y-108149757D02*
X110292858Y-108149757D01*
X109435715Y-108578328D02*
X109935715Y-107078328D01*
X109935715Y-107078328D02*
X110435715Y-108578328D01*
X110792857Y-107078328D02*
X111721429Y-107078328D01*
X111721429Y-107078328D02*
X111221429Y-107649757D01*
X111221429Y-107649757D02*
X111435714Y-107649757D01*
X111435714Y-107649757D02*
X111578572Y-107721185D01*
X111578572Y-107721185D02*
X111650000Y-107792614D01*
X111650000Y-107792614D02*
X111721429Y-107935471D01*
X111721429Y-107935471D02*
X111721429Y-108292614D01*
X111721429Y-108292614D02*
X111650000Y-108435471D01*
X111650000Y-108435471D02*
X111578572Y-108506900D01*
X111578572Y-108506900D02*
X111435714Y-108578328D01*
X111435714Y-108578328D02*
X111007143Y-108578328D01*
X111007143Y-108578328D02*
X110864286Y-108506900D01*
X110864286Y-108506900D02*
X110792857Y-108435471D01*
X161364286Y-108399757D02*
X162078572Y-108399757D01*
X161221429Y-108828328D02*
X161721429Y-107328328D01*
X161721429Y-107328328D02*
X162221429Y-108828328D01*
X163507143Y-108828328D02*
X162650000Y-108828328D01*
X163078571Y-108828328D02*
X163078571Y-107328328D01*
X163078571Y-107328328D02*
X162935714Y-107542614D01*
X162935714Y-107542614D02*
X162792857Y-107685471D01*
X162792857Y-107685471D02*
X162650000Y-107756900D01*
X164435714Y-107328328D02*
X164578571Y-107328328D01*
X164578571Y-107328328D02*
X164721428Y-107399757D01*
X164721428Y-107399757D02*
X164792857Y-107471185D01*
X164792857Y-107471185D02*
X164864285Y-107614042D01*
X164864285Y-107614042D02*
X164935714Y-107899757D01*
X164935714Y-107899757D02*
X164935714Y-108256900D01*
X164935714Y-108256900D02*
X164864285Y-108542614D01*
X164864285Y-108542614D02*
X164792857Y-108685471D01*
X164792857Y-108685471D02*
X164721428Y-108756900D01*
X164721428Y-108756900D02*
X164578571Y-108828328D01*
X164578571Y-108828328D02*
X164435714Y-108828328D01*
X164435714Y-108828328D02*
X164292857Y-108756900D01*
X164292857Y-108756900D02*
X164221428Y-108685471D01*
X164221428Y-108685471D02*
X164149999Y-108542614D01*
X164149999Y-108542614D02*
X164078571Y-108256900D01*
X164078571Y-108256900D02*
X164078571Y-107899757D01*
X164078571Y-107899757D02*
X164149999Y-107614042D01*
X164149999Y-107614042D02*
X164221428Y-107471185D01*
X164221428Y-107471185D02*
X164292857Y-107399757D01*
X164292857Y-107399757D02*
X164435714Y-107328328D01*
X161542857Y-94578328D02*
X162471429Y-94578328D01*
X162471429Y-94578328D02*
X161971429Y-95149757D01*
X161971429Y-95149757D02*
X162185714Y-95149757D01*
X162185714Y-95149757D02*
X162328572Y-95221185D01*
X162328572Y-95221185D02*
X162400000Y-95292614D01*
X162400000Y-95292614D02*
X162471429Y-95435471D01*
X162471429Y-95435471D02*
X162471429Y-95792614D01*
X162471429Y-95792614D02*
X162400000Y-95935471D01*
X162400000Y-95935471D02*
X162328572Y-96006900D01*
X162328572Y-96006900D02*
X162185714Y-96078328D01*
X162185714Y-96078328D02*
X161757143Y-96078328D01*
X161757143Y-96078328D02*
X161614286Y-96006900D01*
X161614286Y-96006900D02*
X161542857Y-95935471D01*
X162900000Y-94578328D02*
X163400000Y-96078328D01*
X163400000Y-96078328D02*
X163900000Y-94578328D01*
X164257142Y-94578328D02*
X165185714Y-94578328D01*
X165185714Y-94578328D02*
X164685714Y-95149757D01*
X164685714Y-95149757D02*
X164899999Y-95149757D01*
X164899999Y-95149757D02*
X165042857Y-95221185D01*
X165042857Y-95221185D02*
X165114285Y-95292614D01*
X165114285Y-95292614D02*
X165185714Y-95435471D01*
X165185714Y-95435471D02*
X165185714Y-95792614D01*
X165185714Y-95792614D02*
X165114285Y-95935471D01*
X165114285Y-95935471D02*
X165042857Y-96006900D01*
X165042857Y-96006900D02*
X164899999Y-96078328D01*
X164899999Y-96078328D02*
X164471428Y-96078328D01*
X164471428Y-96078328D02*
X164328571Y-96006900D01*
X164328571Y-96006900D02*
X164257142Y-95935471D01*
X153828572Y-123899757D02*
X154542858Y-123899757D01*
X153685715Y-124328328D02*
X154185715Y-122828328D01*
X154185715Y-122828328D02*
X154685715Y-124328328D01*
X155400000Y-123471185D02*
X155257143Y-123399757D01*
X155257143Y-123399757D02*
X155185714Y-123328328D01*
X155185714Y-123328328D02*
X155114286Y-123185471D01*
X155114286Y-123185471D02*
X155114286Y-123114042D01*
X155114286Y-123114042D02*
X155185714Y-122971185D01*
X155185714Y-122971185D02*
X155257143Y-122899757D01*
X155257143Y-122899757D02*
X155400000Y-122828328D01*
X155400000Y-122828328D02*
X155685714Y-122828328D01*
X155685714Y-122828328D02*
X155828572Y-122899757D01*
X155828572Y-122899757D02*
X155900000Y-122971185D01*
X155900000Y-122971185D02*
X155971429Y-123114042D01*
X155971429Y-123114042D02*
X155971429Y-123185471D01*
X155971429Y-123185471D02*
X155900000Y-123328328D01*
X155900000Y-123328328D02*
X155828572Y-123399757D01*
X155828572Y-123399757D02*
X155685714Y-123471185D01*
X155685714Y-123471185D02*
X155400000Y-123471185D01*
X155400000Y-123471185D02*
X155257143Y-123542614D01*
X155257143Y-123542614D02*
X155185714Y-123614042D01*
X155185714Y-123614042D02*
X155114286Y-123756900D01*
X155114286Y-123756900D02*
X155114286Y-124042614D01*
X155114286Y-124042614D02*
X155185714Y-124185471D01*
X155185714Y-124185471D02*
X155257143Y-124256900D01*
X155257143Y-124256900D02*
X155400000Y-124328328D01*
X155400000Y-124328328D02*
X155685714Y-124328328D01*
X155685714Y-124328328D02*
X155828572Y-124256900D01*
X155828572Y-124256900D02*
X155900000Y-124185471D01*
X155900000Y-124185471D02*
X155971429Y-124042614D01*
X155971429Y-124042614D02*
X155971429Y-123756900D01*
X155971429Y-123756900D02*
X155900000Y-123614042D01*
X155900000Y-123614042D02*
X155828572Y-123542614D01*
X155828572Y-123542614D02*
X155685714Y-123471185D01*
X150114286Y-74328328D02*
X149400000Y-74328328D01*
X149400000Y-74328328D02*
X149328572Y-75042614D01*
X149328572Y-75042614D02*
X149400000Y-74971185D01*
X149400000Y-74971185D02*
X149542858Y-74899757D01*
X149542858Y-74899757D02*
X149900000Y-74899757D01*
X149900000Y-74899757D02*
X150042858Y-74971185D01*
X150042858Y-74971185D02*
X150114286Y-75042614D01*
X150114286Y-75042614D02*
X150185715Y-75185471D01*
X150185715Y-75185471D02*
X150185715Y-75542614D01*
X150185715Y-75542614D02*
X150114286Y-75685471D01*
X150114286Y-75685471D02*
X150042858Y-75756900D01*
X150042858Y-75756900D02*
X149900000Y-75828328D01*
X149900000Y-75828328D02*
X149542858Y-75828328D01*
X149542858Y-75828328D02*
X149400000Y-75756900D01*
X149400000Y-75756900D02*
X149328572Y-75685471D01*
X150614286Y-74328328D02*
X151114286Y-75828328D01*
X151114286Y-75828328D02*
X151614286Y-74328328D01*
D11*
X144854819Y-124388094D02*
X144854819Y-123769047D01*
X144854819Y-123769047D02*
X145235771Y-124102380D01*
X145235771Y-124102380D02*
X145235771Y-123959523D01*
X145235771Y-123959523D02*
X145283390Y-123864285D01*
X145283390Y-123864285D02*
X145331009Y-123816666D01*
X145331009Y-123816666D02*
X145426247Y-123769047D01*
X145426247Y-123769047D02*
X145664342Y-123769047D01*
X145664342Y-123769047D02*
X145759580Y-123816666D01*
X145759580Y-123816666D02*
X145807200Y-123864285D01*
X145807200Y-123864285D02*
X145854819Y-123959523D01*
X145854819Y-123959523D02*
X145854819Y-124245237D01*
X145854819Y-124245237D02*
X145807200Y-124340475D01*
X145807200Y-124340475D02*
X145759580Y-124388094D01*
X144854819Y-123483332D02*
X145854819Y-123149999D01*
X145854819Y-123149999D02*
X144854819Y-122816666D01*
X144854819Y-122578570D02*
X144854819Y-121959523D01*
X144854819Y-121959523D02*
X145235771Y-122292856D01*
X145235771Y-122292856D02*
X145235771Y-122149999D01*
X145235771Y-122149999D02*
X145283390Y-122054761D01*
X145283390Y-122054761D02*
X145331009Y-122007142D01*
X145331009Y-122007142D02*
X145426247Y-121959523D01*
X145426247Y-121959523D02*
X145664342Y-121959523D01*
X145664342Y-121959523D02*
X145759580Y-122007142D01*
X145759580Y-122007142D02*
X145807200Y-122054761D01*
X145807200Y-122054761D02*
X145854819Y-122149999D01*
X145854819Y-122149999D02*
X145854819Y-122435713D01*
X145854819Y-122435713D02*
X145807200Y-122530951D01*
X145807200Y-122530951D02*
X145759580Y-122578570D01*
D10*
X109578572Y-95649757D02*
X110292858Y-95649757D01*
X109435715Y-96078328D02*
X109935715Y-94578328D01*
X109935715Y-94578328D02*
X110435715Y-96078328D01*
X110864286Y-94721185D02*
X110935714Y-94649757D01*
X110935714Y-94649757D02*
X111078572Y-94578328D01*
X111078572Y-94578328D02*
X111435714Y-94578328D01*
X111435714Y-94578328D02*
X111578572Y-94649757D01*
X111578572Y-94649757D02*
X111650000Y-94721185D01*
X111650000Y-94721185D02*
X111721429Y-94864042D01*
X111721429Y-94864042D02*
X111721429Y-95006900D01*
X111721429Y-95006900D02*
X111650000Y-95221185D01*
X111650000Y-95221185D02*
X110792857Y-96078328D01*
X110792857Y-96078328D02*
X111721429Y-96078328D01*
X118578572Y-124149757D02*
X119292858Y-124149757D01*
X118435715Y-124578328D02*
X118935715Y-123078328D01*
X118935715Y-123078328D02*
X119435715Y-124578328D01*
X120650000Y-123078328D02*
X119935714Y-123078328D01*
X119935714Y-123078328D02*
X119864286Y-123792614D01*
X119864286Y-123792614D02*
X119935714Y-123721185D01*
X119935714Y-123721185D02*
X120078572Y-123649757D01*
X120078572Y-123649757D02*
X120435714Y-123649757D01*
X120435714Y-123649757D02*
X120578572Y-123721185D01*
X120578572Y-123721185D02*
X120650000Y-123792614D01*
X120650000Y-123792614D02*
X120721429Y-123935471D01*
X120721429Y-123935471D02*
X120721429Y-124292614D01*
X120721429Y-124292614D02*
X120650000Y-124435471D01*
X120650000Y-124435471D02*
X120578572Y-124506900D01*
X120578572Y-124506900D02*
X120435714Y-124578328D01*
X120435714Y-124578328D02*
X120078572Y-124578328D01*
X120078572Y-124578328D02*
X119935714Y-124506900D01*
X119935714Y-124506900D02*
X119864286Y-124435471D01*
D13*
X137147166Y-89886485D02*
X137147166Y-90606152D01*
X137147166Y-90606152D02*
X137189500Y-90690818D01*
X137189500Y-90690818D02*
X137231833Y-90733152D01*
X137231833Y-90733152D02*
X137316500Y-90775485D01*
X137316500Y-90775485D02*
X137485833Y-90775485D01*
X137485833Y-90775485D02*
X137570500Y-90733152D01*
X137570500Y-90733152D02*
X137612833Y-90690818D01*
X137612833Y-90690818D02*
X137655166Y-90606152D01*
X137655166Y-90606152D02*
X137655166Y-89886485D01*
X138544166Y-90775485D02*
X138036166Y-90775485D01*
X138290166Y-90775485D02*
X138290166Y-89886485D01*
X138290166Y-89886485D02*
X138205499Y-90013485D01*
X138205499Y-90013485D02*
X138120833Y-90098152D01*
X138120833Y-90098152D02*
X138036166Y-90140485D01*
D11*
X130784819Y-123888094D02*
X129784819Y-123888094D01*
X129784819Y-123888094D02*
X129784819Y-123649999D01*
X129784819Y-123649999D02*
X129832438Y-123507142D01*
X129832438Y-123507142D02*
X129927676Y-123411904D01*
X129927676Y-123411904D02*
X130022914Y-123364285D01*
X130022914Y-123364285D02*
X130213390Y-123316666D01*
X130213390Y-123316666D02*
X130356247Y-123316666D01*
X130356247Y-123316666D02*
X130546723Y-123364285D01*
X130546723Y-123364285D02*
X130641961Y-123411904D01*
X130641961Y-123411904D02*
X130737200Y-123507142D01*
X130737200Y-123507142D02*
X130784819Y-123649999D01*
X130784819Y-123649999D02*
X130784819Y-123888094D01*
X130784819Y-122364285D02*
X130784819Y-122935713D01*
X130784819Y-122649999D02*
X129784819Y-122649999D01*
X129784819Y-122649999D02*
X129927676Y-122745237D01*
X129927676Y-122745237D02*
X130022914Y-122840475D01*
X130022914Y-122840475D02*
X130070533Y-122935713D01*
X141534819Y-123888094D02*
X140534819Y-123888094D01*
X140534819Y-123888094D02*
X140534819Y-123649999D01*
X140534819Y-123649999D02*
X140582438Y-123507142D01*
X140582438Y-123507142D02*
X140677676Y-123411904D01*
X140677676Y-123411904D02*
X140772914Y-123364285D01*
X140772914Y-123364285D02*
X140963390Y-123316666D01*
X140963390Y-123316666D02*
X141106247Y-123316666D01*
X141106247Y-123316666D02*
X141296723Y-123364285D01*
X141296723Y-123364285D02*
X141391961Y-123411904D01*
X141391961Y-123411904D02*
X141487200Y-123507142D01*
X141487200Y-123507142D02*
X141534819Y-123649999D01*
X141534819Y-123649999D02*
X141534819Y-123888094D01*
X140630057Y-122935713D02*
X140582438Y-122888094D01*
X140582438Y-122888094D02*
X140534819Y-122792856D01*
X140534819Y-122792856D02*
X140534819Y-122554761D01*
X140534819Y-122554761D02*
X140582438Y-122459523D01*
X140582438Y-122459523D02*
X140630057Y-122411904D01*
X140630057Y-122411904D02*
X140725295Y-122364285D01*
X140725295Y-122364285D02*
X140820533Y-122364285D01*
X140820533Y-122364285D02*
X140963390Y-122411904D01*
X140963390Y-122411904D02*
X141534819Y-122983332D01*
X141534819Y-122983332D02*
X141534819Y-122364285D01*
X130604819Y-117566666D02*
X130128628Y-117899999D01*
X130604819Y-118138094D02*
X129604819Y-118138094D01*
X129604819Y-118138094D02*
X129604819Y-117757142D01*
X129604819Y-117757142D02*
X129652438Y-117661904D01*
X129652438Y-117661904D02*
X129700057Y-117614285D01*
X129700057Y-117614285D02*
X129795295Y-117566666D01*
X129795295Y-117566666D02*
X129938152Y-117566666D01*
X129938152Y-117566666D02*
X130033390Y-117614285D01*
X130033390Y-117614285D02*
X130081009Y-117661904D01*
X130081009Y-117661904D02*
X130128628Y-117757142D01*
X130128628Y-117757142D02*
X130128628Y-118138094D01*
X130604819Y-116614285D02*
X130604819Y-117185713D01*
X130604819Y-116899999D02*
X129604819Y-116899999D01*
X129604819Y-116899999D02*
X129747676Y-116995237D01*
X129747676Y-116995237D02*
X129842914Y-117090475D01*
X129842914Y-117090475D02*
X129890533Y-117185713D01*
X141604819Y-117566666D02*
X141128628Y-117899999D01*
X141604819Y-118138094D02*
X140604819Y-118138094D01*
X140604819Y-118138094D02*
X140604819Y-117757142D01*
X140604819Y-117757142D02*
X140652438Y-117661904D01*
X140652438Y-117661904D02*
X140700057Y-117614285D01*
X140700057Y-117614285D02*
X140795295Y-117566666D01*
X140795295Y-117566666D02*
X140938152Y-117566666D01*
X140938152Y-117566666D02*
X141033390Y-117614285D01*
X141033390Y-117614285D02*
X141081009Y-117661904D01*
X141081009Y-117661904D02*
X141128628Y-117757142D01*
X141128628Y-117757142D02*
X141128628Y-118138094D01*
X140700057Y-117185713D02*
X140652438Y-117138094D01*
X140652438Y-117138094D02*
X140604819Y-117042856D01*
X140604819Y-117042856D02*
X140604819Y-116804761D01*
X140604819Y-116804761D02*
X140652438Y-116709523D01*
X140652438Y-116709523D02*
X140700057Y-116661904D01*
X140700057Y-116661904D02*
X140795295Y-116614285D01*
X140795295Y-116614285D02*
X140890533Y-116614285D01*
X140890533Y-116614285D02*
X141033390Y-116661904D01*
X141033390Y-116661904D02*
X141604819Y-117233332D01*
X141604819Y-117233332D02*
X141604819Y-116614285D01*
D14*
X127400000Y-91886190D02*
X127400000Y-112650000D01*
X127400000Y-112650000D02*
X147400000Y-112650000D01*
X128000000Y-91150000D02*
X127400000Y-91886190D01*
D15*
X132173000Y-91068000D02*
X133951000Y-91068000D01*
X132173000Y-93735000D02*
X132173000Y-91068000D01*
X132173000Y-93735000D02*
X133951000Y-93735000D01*
X132173000Y-95132000D02*
X133951000Y-95132000D01*
X132173000Y-97801540D02*
X132173000Y-95132000D01*
X132173000Y-97801540D02*
X133951000Y-97801540D01*
D14*
X132884200Y-97080180D02*
X132884200Y-89726880D01*
X132889280Y-89726880D02*
X141883420Y-89726880D01*
D15*
X133951000Y-93735000D02*
X133951000Y-91068000D01*
X133951000Y-97801540D02*
X133951000Y-95132000D01*
X134840000Y-91830000D02*
X139920000Y-91830000D01*
X134840000Y-94370000D02*
X134840000Y-91830000D01*
X134840000Y-94370000D02*
X139920000Y-94370000D01*
X139920000Y-94370000D02*
X139920000Y-91830000D01*
X140809000Y-91068000D02*
X142587000Y-91068000D01*
X140809000Y-93735000D02*
X140809000Y-91068000D01*
X140809000Y-93735000D02*
X142587000Y-93735000D01*
X140809000Y-95132000D02*
X142587000Y-95132000D01*
X140809000Y-97801540D02*
X140809000Y-95132000D01*
X140809000Y-97801540D02*
X142587000Y-97801540D01*
D14*
X141883420Y-89726880D02*
X141883420Y-97080180D01*
X141883420Y-97080180D02*
X132884200Y-97080180D01*
D15*
X142587000Y-93735000D02*
X142587000Y-91068000D01*
X142587000Y-97801540D02*
X142587000Y-95132000D01*
D14*
X147400000Y-91150000D02*
X128000000Y-91150000D01*
X147400000Y-112650000D02*
X147400000Y-91150000D01*
D16*
X126927000Y-93989000D02*
G75*
G02*
X126673000Y-93989000I-127000J0D01*
G01*
X126673000Y-93989000D02*
G75*
G02*
X126927000Y-93989000I127000J0D01*
G01*
D17*
X131015000Y-125610000D02*
X133285000Y-125610000D01*
X133285000Y-125610000D02*
X133285000Y-121550000D01*
X131015000Y-121550000D02*
X131015000Y-125610000D01*
X141765000Y-125610000D02*
X144035000Y-125610000D01*
X144035000Y-125610000D02*
X144035000Y-121550000D01*
X141765000Y-121550000D02*
X141765000Y-125610000D01*
X133060000Y-116672936D02*
X133060000Y-118127064D01*
X131240000Y-116672936D02*
X131240000Y-118127064D01*
X143810000Y-116672936D02*
X143810000Y-118127064D01*
X141990000Y-116672936D02*
X141990000Y-118127064D01*
D18*
G36*
X121740378Y-113074131D02*
G01*
X121854149Y-113074676D01*
X121955016Y-113075543D01*
X122040056Y-113076706D01*
X122106345Y-113078138D01*
X122150959Y-113079815D01*
X122170973Y-113081709D01*
X122171718Y-113082050D01*
X122175123Y-113098570D01*
X122177937Y-113136710D01*
X122179787Y-113190071D01*
X122180294Y-113229523D01*
X122180971Y-113369097D01*
X122128434Y-113369132D01*
X122094345Y-113367523D01*
X122079539Y-113357144D01*
X122075976Y-113329755D01*
X122075896Y-113315298D01*
X122072692Y-113275359D01*
X122060521Y-113246464D01*
X122035542Y-113226710D01*
X121993916Y-113214191D01*
X121931805Y-113207003D01*
X121850311Y-113203377D01*
X121683618Y-113198701D01*
X121683618Y-113535835D01*
X121757075Y-113528643D01*
X121821453Y-113515608D01*
X121861485Y-113490814D01*
X121878769Y-113453091D01*
X121879757Y-113438679D01*
X121889834Y-113405117D01*
X121919456Y-113391257D01*
X121953310Y-113393986D01*
X121963267Y-113398776D01*
X121970123Y-113411095D01*
X121974440Y-113435386D01*
X121976782Y-113476094D01*
X121977712Y-113537664D01*
X121977827Y-113587348D01*
X121977827Y-113775455D01*
X121928792Y-113775455D01*
X121895632Y-113772838D01*
X121882057Y-113761062D01*
X121879757Y-113740430D01*
X121867733Y-113695331D01*
X121832917Y-113664867D01*
X121777193Y-113650399D01*
X121753668Y-113649365D01*
X121683618Y-113649365D01*
X121683618Y-114013623D01*
X121831418Y-114013623D01*
X121916461Y-114011638D01*
X121976799Y-114005459D01*
X122015482Y-113994752D01*
X122019034Y-113993034D01*
X122056403Y-113959058D01*
X122081209Y-113906049D01*
X122089906Y-113843414D01*
X122092866Y-113816545D01*
X122107375Y-113805526D01*
X122138941Y-113803475D01*
X122187976Y-113803475D01*
X122187976Y-114139713D01*
X121305350Y-114139713D01*
X121305350Y-114098318D01*
X121309125Y-114069445D01*
X121326006Y-114054877D01*
X121353886Y-114047818D01*
X121378105Y-114042750D01*
X121397199Y-114035605D01*
X121411810Y-114023272D01*
X121422581Y-114002644D01*
X121430154Y-113970612D01*
X121435170Y-113924066D01*
X121438272Y-113859899D01*
X121440102Y-113775002D01*
X121441301Y-113666265D01*
X121441685Y-113622713D01*
X121442545Y-113500997D01*
X121442399Y-113404243D01*
X121440683Y-113329393D01*
X121436831Y-113273392D01*
X121430280Y-113233185D01*
X121420465Y-113205714D01*
X121406822Y-113187925D01*
X121388787Y-113176762D01*
X121365795Y-113169169D01*
X121357540Y-113167054D01*
X121322810Y-113155357D01*
X121308066Y-113138519D01*
X121305350Y-113114517D01*
X121308737Y-113087168D01*
X121324661Y-113076418D01*
X121350883Y-113074694D01*
X121485821Y-113074114D01*
X121616627Y-113073935D01*
X121740378Y-113074131D01*
G37*
G36*
X126361970Y-111275599D02*
G01*
X126418153Y-111421781D01*
X126472365Y-111561605D01*
X126523627Y-111692626D01*
X126570961Y-111812399D01*
X126613390Y-111918481D01*
X126649933Y-112008427D01*
X126679613Y-112079793D01*
X126701452Y-112130134D01*
X126714471Y-112157006D01*
X126715394Y-112158539D01*
X126754739Y-112208144D01*
X126800943Y-112247814D01*
X126846458Y-112271825D01*
X126870794Y-112276340D01*
X126884422Y-112280501D01*
X126891905Y-112296931D01*
X126894933Y-112331661D01*
X126895314Y-112363954D01*
X126895316Y-112451516D01*
X125972943Y-112451516D01*
X125968297Y-112402482D01*
X125966318Y-112356158D01*
X125968085Y-112314920D01*
X125975468Y-112287802D01*
X125995204Y-112277518D01*
X126017119Y-112276314D01*
X126080495Y-112269741D01*
X126137119Y-112252324D01*
X126178091Y-112227181D01*
X126187397Y-112216691D01*
X126203727Y-112178697D01*
X126207051Y-112127383D01*
X126197100Y-112059345D01*
X126173605Y-111971180D01*
X126165989Y-111946863D01*
X126123153Y-111813138D01*
X125361225Y-111821070D01*
X125316049Y-111954164D01*
X125287577Y-112046989D01*
X125273302Y-112118809D01*
X125273575Y-112172978D01*
X125288752Y-112212853D01*
X125319185Y-112241789D01*
X125347892Y-112256563D01*
X125395090Y-112270000D01*
X125446905Y-112276322D01*
X125451839Y-112276392D01*
X125508329Y-112276392D01*
X125508325Y-112451516D01*
X124625700Y-112451516D01*
X124625702Y-112365514D01*
X124625703Y-112279511D01*
X124672016Y-112270822D01*
X124715993Y-112251621D01*
X124764147Y-112213233D01*
X124809563Y-112162201D01*
X124843724Y-112108273D01*
X124853274Y-112086692D01*
X124872155Y-112041468D01*
X124899391Y-111975015D01*
X124934010Y-111889748D01*
X124975036Y-111788080D01*
X125021497Y-111672426D01*
X125066906Y-111558969D01*
X125452913Y-111558969D01*
X125458270Y-111565253D01*
X125476820Y-111569859D01*
X125511542Y-111572951D01*
X125565415Y-111574695D01*
X125641416Y-111575255D01*
X125739493Y-111574821D01*
X125846314Y-111573427D01*
X125926770Y-111571063D01*
X125982499Y-111567624D01*
X126015142Y-111563008D01*
X126026339Y-111557111D01*
X126026365Y-111556723D01*
X126022086Y-111539760D01*
X126010165Y-111499710D01*
X125991708Y-111440104D01*
X125967825Y-111364475D01*
X125939621Y-111276354D01*
X125908204Y-111179272D01*
X125902778Y-111162603D01*
X125865965Y-111050354D01*
X125836379Y-110962133D01*
X125812935Y-110895213D01*
X125794549Y-110846862D01*
X125780136Y-110814352D01*
X125768612Y-110794952D01*
X125758892Y-110785933D01*
X125752502Y-110784335D01*
X125743197Y-110787933D01*
X125732374Y-110800495D01*
X125718890Y-110824672D01*
X125701603Y-110863118D01*
X125679369Y-110918483D01*
X125651046Y-110993420D01*
X125615492Y-111090581D01*
X125589510Y-111162603D01*
X125554530Y-111260465D01*
X125522841Y-111350183D01*
X125495648Y-111428252D01*
X125474159Y-111491170D01*
X125459582Y-111535435D01*
X125453123Y-111557543D01*
X125452913Y-111558969D01*
X125066906Y-111558969D01*
X125072418Y-111545198D01*
X125126826Y-111408811D01*
X125183745Y-111265679D01*
X125185733Y-111260673D01*
X125502772Y-110462107D01*
X125775278Y-110458320D01*
X126047785Y-110454532D01*
X126361970Y-111275599D01*
G37*
G36*
X120086497Y-113111926D02*
G01*
X120082983Y-113142608D01*
X120066799Y-113157667D01*
X120038860Y-113164834D01*
X120014099Y-113170092D01*
X119994643Y-113177597D01*
X119979815Y-113190507D01*
X119968937Y-113211977D01*
X119961330Y-113245162D01*
X119956318Y-113293219D01*
X119953222Y-113359304D01*
X119951365Y-113446573D01*
X119950070Y-113558180D01*
X119949861Y-113579276D01*
X119948913Y-113701972D01*
X119949101Y-113799715D01*
X119950964Y-113875568D01*
X119955042Y-113932591D01*
X119961876Y-113973846D01*
X119972004Y-114002394D01*
X119985968Y-114021297D01*
X120004306Y-114033615D01*
X120027558Y-114042410D01*
X120031758Y-114043691D01*
X120067529Y-114057334D01*
X120083226Y-114074505D01*
X120086487Y-114099901D01*
X120086487Y-114139713D01*
X119582129Y-114139713D01*
X119582129Y-114097950D01*
X119587385Y-114066040D01*
X119608478Y-114050474D01*
X119620657Y-114047034D01*
X119645666Y-114040827D01*
X119665394Y-114033367D01*
X119680467Y-114021538D01*
X119691511Y-114002223D01*
X119699153Y-113972306D01*
X119704018Y-113928671D01*
X119706732Y-113868201D01*
X119707922Y-113787780D01*
X119708214Y-113684293D01*
X119708219Y-113611248D01*
X119707697Y-113493847D01*
X119706191Y-113392488D01*
X119703792Y-113309776D01*
X119700588Y-113248316D01*
X119696671Y-113210714D01*
X119694038Y-113200729D01*
X119671308Y-113180269D01*
X119634896Y-113165873D01*
X119630994Y-113165066D01*
X119597954Y-113155835D01*
X119584486Y-113139170D01*
X119582154Y-113111926D01*
X119582179Y-113067953D01*
X120086508Y-113067953D01*
X120086497Y-113111926D01*
G37*
G36*
X113725979Y-113216927D02*
G01*
X113725712Y-113282982D01*
X113724182Y-113326190D01*
X113720295Y-113351724D01*
X113712960Y-113364758D01*
X113701084Y-113370464D01*
X113693183Y-113372170D01*
X113643989Y-113372541D01*
X113611998Y-113353052D01*
X113599922Y-113315427D01*
X113599890Y-113312942D01*
X113586860Y-113264096D01*
X113565502Y-113235436D01*
X113540666Y-113215354D01*
X113511272Y-113204912D01*
X113467427Y-113201254D01*
X113446417Y-113201048D01*
X113361721Y-113201048D01*
X113361928Y-113582818D01*
X113362181Y-113705875D01*
X113363171Y-113803926D01*
X113365470Y-113879988D01*
X113369645Y-113937073D01*
X113376267Y-113978198D01*
X113385905Y-114006375D01*
X113399129Y-114024620D01*
X113416508Y-114035947D01*
X113438613Y-114043370D01*
X113449455Y-114046053D01*
X113484162Y-114057175D01*
X113498953Y-114073537D01*
X113501820Y-114099075D01*
X113501820Y-114139713D01*
X112969443Y-114139713D01*
X112969443Y-114098914D01*
X112972516Y-114072118D01*
X112986982Y-114057987D01*
X113020709Y-114049469D01*
X113025560Y-114048635D01*
X113052785Y-114043459D01*
X113074434Y-114036153D01*
X113091146Y-114023725D01*
X113103559Y-114003188D01*
X113112312Y-113971552D01*
X113118045Y-113925827D01*
X113121397Y-113863024D01*
X113123006Y-113780154D01*
X113123512Y-113674226D01*
X113123552Y-113590208D01*
X113123552Y-113201048D01*
X113050000Y-113201239D01*
X113001001Y-113202977D01*
X112959059Y-113207183D01*
X112944365Y-113210025D01*
X112912218Y-113231299D01*
X112886253Y-113270687D01*
X112872330Y-113318283D01*
X112871374Y-113333446D01*
X112866625Y-113360666D01*
X112857364Y-113370568D01*
X112833765Y-113372102D01*
X112804826Y-113373393D01*
X112766299Y-113374817D01*
X112762371Y-113221385D01*
X112758442Y-113067953D01*
X113725979Y-113067953D01*
X113725979Y-113216927D01*
G37*
G36*
X115706569Y-110416626D02*
G01*
X115781161Y-110424022D01*
X115795601Y-110426384D01*
X115955109Y-110468059D01*
X116097556Y-110531859D01*
X116222372Y-110617253D01*
X116328986Y-110723713D01*
X116416827Y-110850711D01*
X116485326Y-110997716D01*
X116516970Y-111095541D01*
X116528299Y-111140399D01*
X116536438Y-111184217D01*
X116541879Y-111232921D01*
X116545112Y-111292434D01*
X116546629Y-111368683D01*
X116546934Y-111456812D01*
X116546581Y-111549259D01*
X116545269Y-111619723D01*
X116542386Y-111674235D01*
X116537317Y-111718829D01*
X116529450Y-111759540D01*
X116518171Y-111802399D01*
X116508473Y-111835080D01*
X116460177Y-111967991D01*
X116400373Y-112081547D01*
X116324478Y-112183543D01*
X116268355Y-112243381D01*
X116150526Y-112340917D01*
X116017612Y-112414950D01*
X115869135Y-112465745D01*
X115866106Y-112466501D01*
X115796767Y-112478953D01*
X115708276Y-112487972D01*
X115609154Y-112493346D01*
X115507925Y-112494862D01*
X115413110Y-112492311D01*
X115333233Y-112485480D01*
X115302096Y-112480500D01*
X115140535Y-112436085D01*
X114997050Y-112370525D01*
X114872201Y-112284321D01*
X114766549Y-112177976D01*
X114680657Y-112051993D01*
X114615086Y-111906872D01*
X114596282Y-111849090D01*
X114561098Y-111689733D01*
X114544664Y-111519525D01*
X114546351Y-111379757D01*
X115019455Y-111379757D01*
X115020207Y-111563296D01*
X115038526Y-111725970D01*
X115074338Y-111867479D01*
X115127564Y-111987522D01*
X115198130Y-112085799D01*
X115199341Y-112087129D01*
X115286291Y-112163197D01*
X115383901Y-112213728D01*
X115490581Y-112238384D01*
X115604740Y-112236829D01*
X115724786Y-112208723D01*
X115742581Y-112202426D01*
X115830752Y-112155146D01*
X115908086Y-112083053D01*
X115973471Y-111987612D01*
X116025796Y-111870289D01*
X116047766Y-111800055D01*
X116057242Y-111759178D01*
X116064101Y-111712962D01*
X116068700Y-111656302D01*
X116071394Y-111584089D01*
X116072538Y-111491217D01*
X116072642Y-111442802D01*
X116072342Y-111346900D01*
X116071120Y-111273563D01*
X116068492Y-111217338D01*
X116063973Y-111172773D01*
X116057081Y-111134418D01*
X116047330Y-111096819D01*
X116039704Y-111071708D01*
X115995013Y-110951765D01*
X115942963Y-110855934D01*
X115881167Y-110780752D01*
X115807241Y-110722756D01*
X115793615Y-110714542D01*
X115703070Y-110676607D01*
X115600084Y-110657642D01*
X115493091Y-110657923D01*
X115390518Y-110677723D01*
X115333567Y-110699577D01*
X115242517Y-110758135D01*
X115166839Y-110840054D01*
X115106579Y-110945239D01*
X115061778Y-111073596D01*
X115032481Y-111225031D01*
X115019455Y-111379757D01*
X114546351Y-111379757D01*
X114546759Y-111345969D01*
X114567158Y-111176566D01*
X114605641Y-111018820D01*
X114622382Y-110970300D01*
X114684662Y-110842600D01*
X114770108Y-110725988D01*
X114875030Y-110623566D01*
X114995735Y-110538435D01*
X115128533Y-110473698D01*
X115260066Y-110434427D01*
X115329602Y-110424007D01*
X115417891Y-110416883D01*
X115516063Y-110413190D01*
X115615246Y-110413060D01*
X115706569Y-110416626D01*
G37*
G36*
X122653806Y-113065060D02*
G01*
X122779394Y-113069271D01*
X122880538Y-113074841D01*
X122960806Y-113082468D01*
X123023768Y-113092851D01*
X123072991Y-113106688D01*
X123112043Y-113124677D01*
X123144494Y-113147516D01*
X123163175Y-113164730D01*
X123207147Y-113226138D01*
X123231063Y-113297809D01*
X123235547Y-113373538D01*
X123221223Y-113447120D01*
X123188715Y-113512349D01*
X123138645Y-113563019D01*
X123122113Y-113573445D01*
X123070111Y-113602614D01*
X123104707Y-113618378D01*
X123132564Y-113638082D01*
X123157379Y-113672353D01*
X123180988Y-113724913D01*
X123205224Y-113799489D01*
X123219586Y-113851615D01*
X123239414Y-113919904D01*
X123258194Y-113967168D01*
X123278977Y-114000102D01*
X123294932Y-114016928D01*
X123328454Y-114059888D01*
X123336790Y-114097486D01*
X123336790Y-114139713D01*
X123204189Y-114139713D01*
X123140880Y-114139018D01*
X123099889Y-114136270D01*
X123075531Y-114130468D01*
X123062123Y-114120615D01*
X123057824Y-114113996D01*
X123049354Y-114090983D01*
X123036233Y-114046862D01*
X123020200Y-113987803D01*
X123002993Y-113919980D01*
X123001616Y-113914354D01*
X122981748Y-113836776D01*
X122965062Y-113781781D01*
X122949656Y-113744397D01*
X122933628Y-113719652D01*
X122923040Y-113708907D01*
X122891447Y-113686733D01*
X122864281Y-113676090D01*
X122863174Y-113675995D01*
X122831931Y-113673500D01*
X122797408Y-113670105D01*
X122758414Y-113667167D01*
X122732519Y-113671268D01*
X122717055Y-113686863D01*
X122709358Y-113718407D01*
X122706760Y-113770356D01*
X122706550Y-113821931D01*
X122708421Y-113903901D01*
X122714919Y-113962452D01*
X122727781Y-114002034D01*
X122748746Y-114027098D01*
X122779552Y-114042096D01*
X122794077Y-114046053D01*
X122828784Y-114057175D01*
X122843576Y-114073537D01*
X122846442Y-114099075D01*
X122846442Y-114139713D01*
X122342085Y-114139713D01*
X122342085Y-114097333D01*
X122346559Y-114066143D01*
X122365789Y-114051240D01*
X122384617Y-114046446D01*
X122408099Y-114040835D01*
X122426714Y-114032423D01*
X122441026Y-114018182D01*
X122451600Y-113995083D01*
X122459001Y-113960097D01*
X122463793Y-113910194D01*
X122466541Y-113842347D01*
X122467809Y-113753526D01*
X122468162Y-113640702D01*
X122468174Y-113598214D01*
X122468139Y-113554981D01*
X122468079Y-113479252D01*
X122467388Y-113385225D01*
X122465493Y-113313048D01*
X122461785Y-113259636D01*
X122455655Y-113221906D01*
X122448053Y-113201048D01*
X122706343Y-113201048D01*
X122706343Y-113554981D01*
X122808404Y-113548431D01*
X122880421Y-113539798D01*
X122933078Y-113525006D01*
X122948375Y-113517042D01*
X122981427Y-113480703D01*
X123003178Y-113427847D01*
X123010287Y-113368819D01*
X123006575Y-113336678D01*
X122986086Y-113278160D01*
X122952196Y-113237756D01*
X122901241Y-113213189D01*
X122829559Y-113202183D01*
X122788312Y-113201048D01*
X122706343Y-113201048D01*
X122448053Y-113201048D01*
X122446494Y-113196771D01*
X122433695Y-113181147D01*
X122416649Y-113171950D01*
X122394746Y-113166094D01*
X122382426Y-113163584D01*
X122354991Y-113154304D01*
X122343882Y-113135032D01*
X122342085Y-113106068D01*
X122342085Y-113056620D01*
X122653806Y-113065060D01*
G37*
G36*
X119828467Y-104456696D02*
G01*
X119851802Y-104489076D01*
X119882283Y-104537603D01*
X119917257Y-104597802D01*
X119954071Y-104665198D01*
X119990070Y-104735314D01*
X120004004Y-104763861D01*
X120049531Y-104865922D01*
X120080649Y-104954834D01*
X120099948Y-105039722D01*
X120110020Y-105129709D01*
X120110610Y-105139169D01*
X120112804Y-105177793D01*
X120113977Y-105212610D01*
X120113260Y-105245621D01*
X120109781Y-105278828D01*
X120102668Y-105314234D01*
X120091051Y-105353840D01*
X120074058Y-105399649D01*
X120050819Y-105453663D01*
X120020461Y-105517883D01*
X119982115Y-105594311D01*
X119934908Y-105684951D01*
X119877970Y-105791803D01*
X119810429Y-105916870D01*
X119731415Y-106062153D01*
X119640055Y-106229656D01*
X119620549Y-106265405D01*
X119569444Y-106358424D01*
X119522198Y-106443185D01*
X119480572Y-106516628D01*
X119446326Y-106575691D01*
X119421219Y-106617314D01*
X119407013Y-106638435D01*
X119404906Y-106640431D01*
X119394133Y-106630251D01*
X119373911Y-106599217D01*
X119346860Y-106551761D01*
X119315601Y-106492315D01*
X119305912Y-106473040D01*
X119252466Y-106361018D01*
X119212956Y-106266181D01*
X119185591Y-106182523D01*
X119168585Y-106104036D01*
X119160147Y-106024712D01*
X119158503Y-105978003D01*
X119159286Y-105917015D01*
X119164442Y-105860221D01*
X119175380Y-105803715D01*
X119193509Y-105743591D01*
X119220237Y-105675941D01*
X119256972Y-105596858D01*
X119305125Y-105502436D01*
X119366102Y-105388769D01*
X119380447Y-105362493D01*
X119481015Y-105176569D01*
X119566628Y-105013710D01*
X119637520Y-104873433D01*
X119693925Y-104755256D01*
X119736075Y-104658696D01*
X119764203Y-104583270D01*
X119774806Y-104546485D01*
X119788526Y-104497665D01*
X119802335Y-104461679D01*
X119813561Y-104445293D01*
X119814932Y-104444941D01*
X119828467Y-104456696D01*
G37*
G36*
X114516243Y-113510517D02*
G01*
X114557420Y-113617285D01*
X114596452Y-113716988D01*
X114631978Y-113806259D01*
X114662635Y-113881731D01*
X114687060Y-113940039D01*
X114703891Y-113977815D01*
X114710354Y-113990134D01*
X114739064Y-114019660D01*
X114769896Y-114035935D01*
X114794425Y-114047547D01*
X114803826Y-114071773D01*
X114804744Y-114092197D01*
X114804744Y-114139713D01*
X114300386Y-114139713D01*
X114300386Y-114090678D01*
X114302958Y-114057560D01*
X114314726Y-114043995D01*
X114336332Y-114041643D01*
X114385263Y-114034059D01*
X114414629Y-114010310D01*
X114424932Y-113968901D01*
X114416673Y-113908337D01*
X114399681Y-113852509D01*
X114375059Y-113782460D01*
X114178021Y-113778581D01*
X113980984Y-113774703D01*
X113951551Y-113861859D01*
X113936125Y-113912288D01*
X113925469Y-113956207D01*
X113922118Y-113980826D01*
X113934671Y-114013779D01*
X113968877Y-114035165D01*
X114012262Y-114041643D01*
X114036539Y-114045152D01*
X114046484Y-114061205D01*
X114048208Y-114090678D01*
X114048208Y-114139713D01*
X113585880Y-114139713D01*
X113585880Y-114090678D01*
X113590606Y-114054090D01*
X113605434Y-114041671D01*
X113606475Y-114041643D01*
X113620658Y-114037755D01*
X113636274Y-114024648D01*
X113654389Y-114000161D01*
X113676070Y-113962132D01*
X113702384Y-113908399D01*
X113734398Y-113836800D01*
X113773177Y-113745174D01*
X113819790Y-113631358D01*
X113825225Y-113617843D01*
X114035111Y-113617843D01*
X114042948Y-113626409D01*
X114069696Y-113631903D01*
X114118607Y-113634733D01*
X114174297Y-113635355D01*
X114242449Y-113634354D01*
X114286150Y-113631051D01*
X114308904Y-113624998D01*
X114314396Y-113617432D01*
X114310007Y-113593963D01*
X114298205Y-113552417D01*
X114281040Y-113498583D01*
X114260563Y-113438252D01*
X114238821Y-113377213D01*
X114217866Y-113321257D01*
X114199747Y-113276173D01*
X114186514Y-113247752D01*
X114181086Y-113240851D01*
X114172518Y-113253076D01*
X114156898Y-113286058D01*
X114136431Y-113334106D01*
X114113320Y-113391531D01*
X114089767Y-113452642D01*
X114067978Y-113511748D01*
X114050154Y-113563159D01*
X114038499Y-113601185D01*
X114035111Y-113617843D01*
X113825225Y-113617843D01*
X113867721Y-113512163D01*
X114045328Y-113067953D01*
X114346827Y-113067953D01*
X114516243Y-113510517D01*
G37*
G36*
X125858577Y-113365987D02*
G01*
X125816873Y-113372107D01*
X125778681Y-113374027D01*
X125757072Y-113361547D01*
X125744728Y-113328852D01*
X125741335Y-113312059D01*
X125728843Y-113263237D01*
X125709098Y-113232173D01*
X125676090Y-113214450D01*
X125623806Y-113205652D01*
X125593552Y-113203493D01*
X125493591Y-113197845D01*
X125497457Y-113590270D01*
X125498720Y-113706140D01*
X125500115Y-113797268D01*
X125501880Y-113866933D01*
X125504249Y-113918413D01*
X125507457Y-113954985D01*
X125511742Y-113979928D01*
X125517338Y-113996521D01*
X125524481Y-114008040D01*
X125527765Y-114011896D01*
X125560378Y-114035166D01*
X125601317Y-114049933D01*
X125633791Y-114059542D01*
X125646633Y-114077299D01*
X125648428Y-114099242D01*
X125648428Y-114139713D01*
X125116051Y-114139713D01*
X125116051Y-114099242D01*
X125120144Y-114070578D01*
X125138011Y-114056194D01*
X125163162Y-114049933D01*
X125204302Y-114035061D01*
X125236714Y-114011892D01*
X125244540Y-114001473D01*
X125250712Y-113987310D01*
X125255460Y-113966117D01*
X125259019Y-113934607D01*
X125261620Y-113889493D01*
X125263497Y-113827490D01*
X125264880Y-113745310D01*
X125266003Y-113639666D01*
X125266417Y-113591868D01*
X125269679Y-113201048D01*
X125180744Y-113201048D01*
X125107157Y-113207166D01*
X125056906Y-113226493D01*
X125027891Y-113260489D01*
X125018012Y-113310613D01*
X125017981Y-113314144D01*
X125016590Y-113349363D01*
X125007023Y-113365013D01*
X124981193Y-113369035D01*
X124961942Y-113369167D01*
X124905902Y-113369167D01*
X124905900Y-113218560D01*
X124905897Y-113067953D01*
X125858571Y-113067953D01*
X125858577Y-113365987D01*
G37*
G36*
X119413151Y-103658340D02*
G01*
X119433530Y-103691260D01*
X119460114Y-103740129D01*
X119490497Y-103800041D01*
X119522271Y-103866089D01*
X119553030Y-103933368D01*
X119580367Y-103996969D01*
X119601876Y-104051987D01*
X119605764Y-104062963D01*
X119624325Y-104122047D01*
X119635754Y-104175212D01*
X119641651Y-104233258D01*
X119643616Y-104306983D01*
X119643668Y-104318753D01*
X119643218Y-104372367D01*
X119640690Y-104419621D01*
X119634775Y-104464027D01*
X119624163Y-104509102D01*
X119607542Y-104558360D01*
X119583604Y-104615315D01*
X119551039Y-104683481D01*
X119508535Y-104766374D01*
X119454783Y-104867508D01*
X119404002Y-104961693D01*
X119318652Y-105120397D01*
X119246257Y-105257124D01*
X119185778Y-105374172D01*
X119136176Y-105473840D01*
X119096409Y-105558425D01*
X119065440Y-105630226D01*
X119042229Y-105691540D01*
X119025735Y-105744666D01*
X119014919Y-105791900D01*
X119008763Y-105835328D01*
X118996560Y-105844943D01*
X118990210Y-105845540D01*
X118976555Y-105833884D01*
X118953365Y-105802606D01*
X118924204Y-105756853D01*
X118900455Y-105715948D01*
X118836263Y-105598219D01*
X118786255Y-105499030D01*
X118748835Y-105413770D01*
X118722405Y-105337828D01*
X118705367Y-105266593D01*
X118696123Y-105195452D01*
X118693076Y-105119796D01*
X118693064Y-105117319D01*
X118696766Y-105016829D01*
X118709190Y-104938543D01*
X118717027Y-104911509D01*
X118728396Y-104885004D01*
X118751030Y-104838364D01*
X118783398Y-104774417D01*
X118823970Y-104695994D01*
X118871216Y-104605923D01*
X118923606Y-104507034D01*
X118979608Y-104402157D01*
X119037693Y-104294120D01*
X119096330Y-104185753D01*
X119153989Y-104079885D01*
X119209139Y-103979345D01*
X119260251Y-103886964D01*
X119305793Y-103805569D01*
X119344236Y-103737991D01*
X119374049Y-103687059D01*
X119393702Y-103655602D01*
X119401383Y-103646277D01*
X119413151Y-103658340D01*
G37*
G36*
X112483812Y-113039499D02*
G01*
X112577916Y-113052344D01*
X112585375Y-113053737D01*
X112637264Y-113063590D01*
X112677107Y-113071009D01*
X112698141Y-113074742D01*
X112699752Y-113074956D01*
X112701165Y-113088020D01*
X112702305Y-113123426D01*
X112703042Y-113175495D01*
X112703254Y-113227828D01*
X112702857Y-113295058D01*
X112701157Y-113338899D01*
X112697386Y-113363972D01*
X112690782Y-113374904D01*
X112680578Y-113376318D01*
X112678737Y-113376004D01*
X112645946Y-113372009D01*
X112615692Y-113370239D01*
X112589297Y-113366034D01*
X112578806Y-113349650D01*
X112577165Y-113322204D01*
X112564553Y-113265031D01*
X112531303Y-113212232D01*
X112484292Y-113173470D01*
X112465086Y-113164727D01*
X112390968Y-113148495D01*
X112317524Y-113150550D01*
X112250975Y-113169143D01*
X112197545Y-113202520D01*
X112163455Y-113248929D01*
X112163108Y-113249751D01*
X112149085Y-113297306D01*
X112151305Y-113338818D01*
X112171863Y-113376549D01*
X112212851Y-113412760D01*
X112276362Y-113449710D01*
X112364491Y-113489662D01*
X112397921Y-113503324D01*
X112505666Y-113549543D01*
X112588717Y-113593011D01*
X112649847Y-113636508D01*
X112691828Y-113682812D01*
X112717436Y-113734704D01*
X112729443Y-113794961D01*
X112731274Y-113837360D01*
X112719447Y-113930147D01*
X112684435Y-114007850D01*
X112626941Y-114070028D01*
X112547666Y-114116243D01*
X112447313Y-114146054D01*
X112326586Y-114159023D01*
X112219912Y-114157238D01*
X112173518Y-114153233D01*
X112115668Y-114146678D01*
X112054132Y-114138651D01*
X111996680Y-114130229D01*
X111951081Y-114122491D01*
X111925106Y-114116516D01*
X111924327Y-114116231D01*
X111915194Y-114106127D01*
X111909223Y-114081376D01*
X111905901Y-114037791D01*
X111904715Y-113971187D01*
X111904689Y-113956085D01*
X111904689Y-113803475D01*
X111972468Y-113803475D01*
X112013092Y-113804366D01*
X112033250Y-113810576D01*
X112040497Y-113827411D01*
X112042086Y-113852370D01*
X112055966Y-113923315D01*
X112091828Y-113977311D01*
X112149976Y-114014628D01*
X112230711Y-114035540D01*
X112247492Y-114037565D01*
X112330917Y-114036971D01*
X112398837Y-114017689D01*
X112448693Y-113981436D01*
X112477925Y-113929930D01*
X112484732Y-113878344D01*
X112481022Y-113841230D01*
X112469389Y-113810138D01*
X112446401Y-113782203D01*
X112408627Y-113754561D01*
X112352636Y-113724344D01*
X112274995Y-113688688D01*
X112238809Y-113672990D01*
X112143776Y-113630583D01*
X112071401Y-113594026D01*
X112017680Y-113560550D01*
X111978610Y-113527386D01*
X111950188Y-113491762D01*
X111933414Y-113461688D01*
X111908212Y-113380264D01*
X111908584Y-113298676D01*
X111932438Y-113221211D01*
X111977684Y-113152162D01*
X112042231Y-113095816D01*
X112123988Y-113056464D01*
X112132152Y-113053893D01*
X112199845Y-113040435D01*
X112286523Y-113033548D01*
X112383930Y-113033235D01*
X112483812Y-113039499D01*
G37*
G36*
X120590844Y-113109717D02*
G01*
X120588311Y-113139629D01*
X120575363Y-113154707D01*
X120543975Y-113162893D01*
X120535744Y-113164248D01*
X120492268Y-113177591D01*
X120472719Y-113198026D01*
X120474918Y-113217763D01*
X120485320Y-113258969D01*
X120502433Y-113317305D01*
X120524768Y-113388434D01*
X120550834Y-113468020D01*
X120579141Y-113551726D01*
X120608197Y-113635214D01*
X120636513Y-113714147D01*
X120662598Y-113784189D01*
X120684961Y-113841001D01*
X120702113Y-113880248D01*
X120712562Y-113897592D01*
X120713270Y-113897988D01*
X120721942Y-113886910D01*
X120737129Y-113853225D01*
X120757429Y-113801206D01*
X120781438Y-113735124D01*
X120807754Y-113659250D01*
X120834974Y-113577856D01*
X120861695Y-113495213D01*
X120886513Y-113415592D01*
X120908026Y-113343266D01*
X120924831Y-113282506D01*
X120935524Y-113237583D01*
X120938703Y-113212768D01*
X120938612Y-113211917D01*
X120928768Y-113189178D01*
X120902526Y-113174343D01*
X120874545Y-113166834D01*
X120837183Y-113156606D01*
X120819920Y-113143172D01*
X120815141Y-113119192D01*
X120815003Y-113109443D01*
X120815003Y-113065250D01*
X121039162Y-113066149D01*
X121263321Y-113067047D01*
X121263321Y-113110784D01*
X121256315Y-113147491D01*
X121231402Y-113169031D01*
X121229037Y-113170141D01*
X121194494Y-113194626D01*
X121174594Y-113217922D01*
X121165255Y-113238478D01*
X121147937Y-113282171D01*
X121123874Y-113345673D01*
X121094300Y-113425657D01*
X121060447Y-113518799D01*
X121023549Y-113621770D01*
X120995226Y-113701725D01*
X120836018Y-114153368D01*
X120707253Y-114153545D01*
X120650064Y-114152470D01*
X120604277Y-114149440D01*
X120576533Y-114144999D01*
X120571497Y-114142412D01*
X120565126Y-114126997D01*
X120550259Y-114088449D01*
X120528085Y-114029926D01*
X120499791Y-113954589D01*
X120466565Y-113865597D01*
X120429595Y-113766109D01*
X120402981Y-113694230D01*
X120354785Y-113564100D01*
X120315117Y-113457800D01*
X120282885Y-113372846D01*
X120256995Y-113306752D01*
X120236355Y-113257031D01*
X120219871Y-113221200D01*
X120206450Y-113196772D01*
X120194999Y-113181261D01*
X120184425Y-113172184D01*
X120173635Y-113167053D01*
X120170700Y-113166072D01*
X120147061Y-113150384D01*
X120140775Y-113137059D01*
X120138347Y-113111657D01*
X120138784Y-113093434D01*
X120145972Y-113081154D01*
X120163795Y-113073582D01*
X120196140Y-113069483D01*
X120246891Y-113067621D01*
X120319935Y-113066762D01*
X120363183Y-113066352D01*
X120590844Y-113063998D01*
X120590844Y-113109717D01*
G37*
G36*
X117393074Y-110542664D02*
G01*
X117416243Y-110591934D01*
X117446949Y-110657212D01*
X117480794Y-110729150D01*
X117506762Y-110784335D01*
X117529306Y-110832342D01*
X117561872Y-110901826D01*
X117602629Y-110988877D01*
X117649745Y-111089582D01*
X117701392Y-111200029D01*
X117755739Y-111316306D01*
X117810955Y-111434500D01*
X117814832Y-111442802D01*
X117876200Y-111573698D01*
X117927134Y-111681085D01*
X117968696Y-111767005D01*
X118001951Y-111833503D01*
X118027961Y-111882620D01*
X118047788Y-111916400D01*
X118062495Y-111936886D01*
X118073147Y-111946122D01*
X118077230Y-111947159D01*
X118083754Y-111946296D01*
X118089127Y-111942055D01*
X118093459Y-111931958D01*
X118096863Y-111913529D01*
X118099450Y-111884288D01*
X118101333Y-111841758D01*
X118102622Y-111783462D01*
X118103430Y-111706921D01*
X118103868Y-111609659D01*
X118104048Y-111489197D01*
X118104082Y-111351737D01*
X118104001Y-111205673D01*
X118103689Y-111084970D01*
X118103045Y-110986972D01*
X118101966Y-110909020D01*
X118100350Y-110848457D01*
X118098094Y-110802626D01*
X118095095Y-110768868D01*
X118091253Y-110744527D01*
X118086464Y-110726944D01*
X118080626Y-110713461D01*
X118079419Y-110711198D01*
X118052095Y-110672395D01*
X118016672Y-110647750D01*
X117965369Y-110632953D01*
X117928557Y-110627567D01*
X117858908Y-110619318D01*
X117858908Y-110455102D01*
X118706509Y-110455102D01*
X118706509Y-110620148D01*
X118638190Y-110628239D01*
X118589699Y-110637787D01*
X118547568Y-110652364D01*
X118535447Y-110658885D01*
X118520633Y-110668954D01*
X118507937Y-110679698D01*
X118497197Y-110693231D01*
X118488248Y-110711668D01*
X118480928Y-110737124D01*
X118475072Y-110771714D01*
X118470517Y-110817551D01*
X118467100Y-110876751D01*
X118464657Y-110951429D01*
X118463025Y-111043698D01*
X118462041Y-111155674D01*
X118461540Y-111289471D01*
X118461359Y-111447205D01*
X118461335Y-111617476D01*
X118461335Y-112458521D01*
X117899555Y-112458521D01*
X117546399Y-111747518D01*
X117468879Y-111591751D01*
X117402666Y-111459451D01*
X117346829Y-111348877D01*
X117300436Y-111258290D01*
X117262553Y-111185952D01*
X117232250Y-111130122D01*
X117208593Y-111089061D01*
X117190650Y-111061031D01*
X117177490Y-111044292D01*
X117168180Y-111037104D01*
X117165320Y-111036514D01*
X117158249Y-111037192D01*
X117152500Y-111040959D01*
X117147950Y-111050413D01*
X117144476Y-111068152D01*
X117141957Y-111096773D01*
X117140268Y-111138876D01*
X117139289Y-111197058D01*
X117138897Y-111273917D01*
X117138968Y-111372051D01*
X117139382Y-111494058D01*
X117139740Y-111579179D01*
X117140813Y-111740893D01*
X117142538Y-111875578D01*
X117144945Y-111984221D01*
X117148066Y-112067805D01*
X117151932Y-112127316D01*
X117156576Y-112163738D01*
X117158697Y-112172183D01*
X117189711Y-112224079D01*
X117240530Y-112259620D01*
X117306276Y-112275714D01*
X117323028Y-112276340D01*
X117353002Y-112276474D01*
X117371121Y-112280571D01*
X117380501Y-112294272D01*
X117384258Y-112323219D01*
X117385507Y-112373054D01*
X117385804Y-112389995D01*
X117386881Y-112447558D01*
X116964426Y-112449537D01*
X116541970Y-112451516D01*
X116541973Y-112365689D01*
X116541975Y-112279862D01*
X116619137Y-112273463D01*
X116687146Y-112260010D01*
X116734611Y-112230322D01*
X116765864Y-112180577D01*
X116780608Y-112130894D01*
X116784871Y-112097152D01*
X116788208Y-112038874D01*
X116790629Y-111955456D01*
X116792142Y-111846296D01*
X116792757Y-111710790D01*
X116792483Y-111548336D01*
X116791695Y-111407777D01*
X116790549Y-111254325D01*
X116789369Y-111126375D01*
X116788052Y-111021405D01*
X116786491Y-110936897D01*
X116784581Y-110870331D01*
X116782216Y-110819189D01*
X116779291Y-110780950D01*
X116775699Y-110753096D01*
X116771335Y-110733106D01*
X116766094Y-110718463D01*
X116762486Y-110711198D01*
X116738120Y-110675056D01*
X116707957Y-110651947D01*
X116664031Y-110637461D01*
X116614448Y-110629225D01*
X116541975Y-110619611D01*
X116541975Y-110455102D01*
X117351910Y-110455102D01*
X117393074Y-110542664D01*
G37*
G36*
X116108517Y-113074144D02*
G01*
X116210430Y-113074613D01*
X116304912Y-113075280D01*
X116388219Y-113076121D01*
X116456609Y-113077113D01*
X116506341Y-113078231D01*
X116533672Y-113079451D01*
X116537770Y-113080094D01*
X116540390Y-113095795D01*
X116542561Y-113133185D01*
X116543995Y-113185936D01*
X116544388Y-113224148D01*
X116544967Y-113362162D01*
X116494436Y-113366510D01*
X116460997Y-113367648D01*
X116446971Y-113358264D01*
X116443935Y-113331027D01*
X116443905Y-113322530D01*
X116435967Y-113278366D01*
X116417155Y-113241127D01*
X116404306Y-113227344D01*
X116388507Y-113217825D01*
X116364470Y-113211590D01*
X116326905Y-113207659D01*
X116270527Y-113205052D01*
X116213556Y-113203398D01*
X116036708Y-113198743D01*
X116044622Y-113530281D01*
X116121333Y-113527909D01*
X116186058Y-113517543D01*
X116227842Y-113491186D01*
X116246624Y-113448888D01*
X116247766Y-113432293D01*
X116257810Y-113404177D01*
X116279817Y-113394326D01*
X116305379Y-113390697D01*
X116323319Y-113393838D01*
X116334985Y-113407685D01*
X116341722Y-113436177D01*
X116344877Y-113483252D01*
X116345794Y-113552848D01*
X116345836Y-113587488D01*
X116345836Y-113775455D01*
X116296801Y-113775455D01*
X116263641Y-113772838D01*
X116250066Y-113761062D01*
X116247766Y-113740430D01*
X116236152Y-113694711D01*
X116202353Y-113664919D01*
X116147937Y-113652115D01*
X116117467Y-113652160D01*
X116044622Y-113656370D01*
X116040701Y-113834997D01*
X116036780Y-114013623D01*
X116192004Y-114013623D01*
X116279385Y-114011785D01*
X116343190Y-114005197D01*
X116387687Y-113992253D01*
X116417145Y-113971345D01*
X116435830Y-113940867D01*
X116443175Y-113919034D01*
X116452942Y-113875810D01*
X116457739Y-113838806D01*
X116457837Y-113834997D01*
X116462303Y-113813528D01*
X116480872Y-113804776D01*
X116506950Y-113803475D01*
X116555985Y-113803475D01*
X116555985Y-114139713D01*
X115673359Y-114139713D01*
X115673359Y-114099901D01*
X115677297Y-114072868D01*
X115694154Y-114056354D01*
X115728966Y-114043428D01*
X115753340Y-114034560D01*
X115772676Y-114022156D01*
X115787500Y-114003188D01*
X115798337Y-113974627D01*
X115805715Y-113933445D01*
X115810157Y-113876612D01*
X115812190Y-113801101D01*
X115812340Y-113703882D01*
X115811133Y-113581927D01*
X115810993Y-113570930D01*
X115809370Y-113456321D01*
X115807338Y-113366539D01*
X115804189Y-113298390D01*
X115799216Y-113248684D01*
X115791710Y-113214228D01*
X115780965Y-113191831D01*
X115766274Y-113178299D01*
X115746927Y-113170441D01*
X115722219Y-113165066D01*
X115720986Y-113164834D01*
X115688293Y-113155276D01*
X115675259Y-113137825D01*
X115673359Y-113115429D01*
X115678207Y-113085285D01*
X115695940Y-113075013D01*
X115701379Y-113074732D01*
X115795602Y-113074168D01*
X115897360Y-113073898D01*
X116002912Y-113073898D01*
X116108517Y-113074144D01*
G37*
G36*
X120590844Y-111057529D02*
G01*
X120384719Y-111057529D01*
X120375302Y-110956206D01*
X120362944Y-110869559D01*
X120341787Y-110804352D01*
X120308280Y-110757555D01*
X120258870Y-110726136D01*
X120190005Y-110707064D01*
X120098133Y-110697306D01*
X120070330Y-110695932D01*
X119918367Y-110689671D01*
X119918978Y-111381460D01*
X119919335Y-111520246D01*
X119920126Y-111652214D01*
X119921300Y-111774371D01*
X119922808Y-111883723D01*
X119924601Y-111977279D01*
X119926629Y-112052045D01*
X119928844Y-112105029D01*
X119931196Y-112133237D01*
X119931398Y-112134385D01*
X119951829Y-112196865D01*
X119987125Y-112239099D01*
X120040918Y-112263973D01*
X120107132Y-112273834D01*
X120198566Y-112279657D01*
X120198568Y-112365586D01*
X120198570Y-112451516D01*
X119203872Y-112451516D01*
X119203867Y-112363954D01*
X119203861Y-112276392D01*
X119277413Y-112276186D01*
X119346728Y-112270146D01*
X119396432Y-112250233D01*
X119432896Y-112213069D01*
X119449035Y-112185217D01*
X119455311Y-112171713D01*
X119460574Y-112156767D01*
X119464913Y-112137931D01*
X119468416Y-112112755D01*
X119471173Y-112078791D01*
X119473273Y-112033592D01*
X119474804Y-111974709D01*
X119475856Y-111899694D01*
X119476518Y-111806097D01*
X119476879Y-111691472D01*
X119477028Y-111553369D01*
X119477055Y-111414782D01*
X119477055Y-110700275D01*
X119322946Y-110700598D01*
X119222022Y-110704482D01*
X119145138Y-110717367D01*
X119089065Y-110741811D01*
X119050571Y-110780376D01*
X119026429Y-110835621D01*
X119013407Y-110910106D01*
X119010445Y-110948311D01*
X119004122Y-111057529D01*
X118812665Y-111057529D01*
X118808622Y-110762126D01*
X118807685Y-110674124D01*
X118807365Y-110596013D01*
X118807637Y-110531985D01*
X118808476Y-110486231D01*
X118809856Y-110462943D01*
X118810416Y-110460912D01*
X118825072Y-110459898D01*
X118865370Y-110458939D01*
X118928933Y-110458053D01*
X119013383Y-110457253D01*
X119116342Y-110456557D01*
X119235433Y-110455978D01*
X119368279Y-110455534D01*
X119512501Y-110455238D01*
X119665722Y-110455107D01*
X119703549Y-110455102D01*
X120590844Y-110455102D01*
X120590844Y-111057529D01*
G37*
G36*
X124835854Y-113111926D02*
G01*
X124832479Y-113142295D01*
X124816756Y-113157371D01*
X124786988Y-113165066D01*
X124763238Y-113170496D01*
X124744429Y-113178898D01*
X124729984Y-113193305D01*
X124719328Y-113216751D01*
X124711887Y-113252270D01*
X124707085Y-113302893D01*
X124704348Y-113371656D01*
X124703100Y-113461591D01*
X124702766Y-113575731D01*
X124702758Y-113609377D01*
X124702886Y-113722105D01*
X124703416Y-113810183D01*
X124704566Y-113876980D01*
X124706553Y-113925864D01*
X124709594Y-113960206D01*
X124713908Y-113983373D01*
X124719711Y-113998736D01*
X124727223Y-114009662D01*
X124728728Y-114011368D01*
X124762291Y-114036065D01*
X124795275Y-114048967D01*
X124824950Y-114060736D01*
X124835238Y-114084526D01*
X124835852Y-114098796D01*
X124835852Y-114139713D01*
X124331495Y-114139713D01*
X124331495Y-114099901D01*
X124335516Y-114072675D01*
X124352656Y-114056120D01*
X124386223Y-114043691D01*
X124410832Y-114034808D01*
X124430212Y-114022479D01*
X124444983Y-114003535D01*
X124455767Y-113974804D01*
X124463184Y-113933116D01*
X124467853Y-113875300D01*
X124470396Y-113798185D01*
X124471432Y-113698600D01*
X124471594Y-113607336D01*
X124471011Y-113482663D01*
X124468800Y-113383210D01*
X124464271Y-113306189D01*
X124456734Y-113248817D01*
X124445497Y-113208306D01*
X124429871Y-113181873D01*
X124409164Y-113166730D01*
X124382685Y-113160094D01*
X124360436Y-113159018D01*
X124339992Y-113153381D01*
X124332178Y-113131407D01*
X124331496Y-113113486D01*
X124331498Y-113067953D01*
X124835855Y-113067953D01*
X124835854Y-113111926D01*
G37*
G36*
X123907472Y-113054093D02*
G01*
X123985705Y-113059335D01*
X124059451Y-113068283D01*
X124123272Y-113080380D01*
X124171728Y-113095071D01*
X124199381Y-113111800D01*
X124202954Y-113117512D01*
X124206707Y-113142362D01*
X124208682Y-113187220D01*
X124208621Y-113244118D01*
X124207914Y-113270000D01*
X124203417Y-113397187D01*
X124150216Y-113397187D01*
X124116075Y-113395399D01*
X124099452Y-113384721D01*
X124091780Y-113357177D01*
X124089427Y-113340613D01*
X124068545Y-113269149D01*
X124027750Y-113217382D01*
X123967112Y-113185368D01*
X123886699Y-113173159D01*
X123876172Y-113173028D01*
X123796285Y-113182393D01*
X123734527Y-113209390D01*
X123693059Y-113252368D01*
X123674038Y-113309676D01*
X123673028Y-113328344D01*
X123680855Y-113372552D01*
X123706348Y-113411154D01*
X123752523Y-113446960D01*
X123822397Y-113482782D01*
X123852688Y-113495710D01*
X123945217Y-113534270D01*
X124015828Y-113565176D01*
X124068789Y-113590736D01*
X124108372Y-113613255D01*
X124138847Y-113635042D01*
X124164484Y-113658403D01*
X124175778Y-113670259D01*
X124221477Y-113738815D01*
X124243734Y-113815468D01*
X124243612Y-113894730D01*
X124222176Y-113971114D01*
X124180489Y-114039130D01*
X124119615Y-114093292D01*
X124090593Y-114109625D01*
X124008367Y-114139102D01*
X123908963Y-114158556D01*
X123801749Y-114166929D01*
X123696095Y-114163159D01*
X123659018Y-114158435D01*
X123627158Y-114153435D01*
X123578668Y-114145812D01*
X123529427Y-114138062D01*
X123434859Y-114123171D01*
X123434859Y-113817484D01*
X123496059Y-113817484D01*
X123534234Y-113818741D01*
X123553096Y-113827286D01*
X123561353Y-113850280D01*
X123564848Y-113874058D01*
X123584980Y-113944112D01*
X123624629Y-113995376D01*
X123684738Y-114028539D01*
X123766249Y-114044296D01*
X123798551Y-114045804D01*
X123880160Y-114038316D01*
X123940554Y-114012814D01*
X123979514Y-113969474D01*
X123996821Y-113908475D01*
X123997734Y-113883734D01*
X123990782Y-113837804D01*
X123968765Y-113800268D01*
X123927814Y-113767157D01*
X123864059Y-113734499D01*
X123843871Y-113725842D01*
X123725054Y-113674260D01*
X123630659Y-113628095D01*
X123558154Y-113585108D01*
X123505009Y-113543058D01*
X123468692Y-113499705D01*
X123446672Y-113452807D01*
X123436418Y-113400124D01*
X123434859Y-113363770D01*
X123444968Y-113273216D01*
X123476059Y-113199318D01*
X123529285Y-113140786D01*
X123605796Y-113096328D01*
X123700248Y-113066154D01*
X123759304Y-113056947D01*
X123830192Y-113053112D01*
X123907472Y-113054093D01*
G37*
G36*
X114510535Y-110619992D02*
G01*
X114434203Y-110629529D01*
X114386298Y-110637495D01*
X114347726Y-110650041D01*
X114317583Y-110669956D01*
X114294970Y-110700027D01*
X114278986Y-110743043D01*
X114268729Y-110801794D01*
X114263299Y-110879067D01*
X114261794Y-110977651D01*
X114263313Y-111100334D01*
X114264516Y-111154678D01*
X114267387Y-111275987D01*
X114270617Y-111413751D01*
X114273946Y-111556800D01*
X114277115Y-111693967D01*
X114279817Y-111812064D01*
X114283184Y-111933316D01*
X114287255Y-112028750D01*
X114292191Y-112100563D01*
X114298148Y-112150952D01*
X114305285Y-112182115D01*
X114306727Y-112185899D01*
X114341167Y-112233725D01*
X114395159Y-112264738D01*
X114464127Y-112276366D01*
X114467810Y-112276392D01*
X114524545Y-112276392D01*
X114524549Y-112451516D01*
X113669945Y-112451516D01*
X113669939Y-112276392D01*
X113726675Y-112276392D01*
X113775655Y-112270710D01*
X113820981Y-112256796D01*
X113825848Y-112254447D01*
X113845575Y-112243327D01*
X113861870Y-112230513D01*
X113875060Y-112213390D01*
X113885473Y-112189340D01*
X113893436Y-112155748D01*
X113899276Y-112109996D01*
X113903322Y-112049469D01*
X113905900Y-111971551D01*
X113907339Y-111873623D01*
X113907966Y-111753071D01*
X113908108Y-111607278D01*
X113908108Y-111597361D01*
X113908021Y-111454597D01*
X113907593Y-111337655D01*
X113906572Y-111244340D01*
X113904710Y-111172454D01*
X113901755Y-111119801D01*
X113897456Y-111084182D01*
X113891564Y-111063403D01*
X113883827Y-111055265D01*
X113873996Y-111057572D01*
X113861819Y-111068127D01*
X113849350Y-111082046D01*
X113838244Y-111099367D01*
X113815331Y-111138589D01*
X113782143Y-111196970D01*
X113740213Y-111271772D01*
X113691073Y-111360253D01*
X113636256Y-111459674D01*
X113577295Y-111567295D01*
X113552151Y-111613388D01*
X113492097Y-111723177D01*
X113435657Y-111825521D01*
X113384341Y-111917744D01*
X113339660Y-111997166D01*
X113303124Y-112061111D01*
X113276245Y-112106900D01*
X113260532Y-112131855D01*
X113257603Y-112135499D01*
X113231082Y-112144953D01*
X113219403Y-112143196D01*
X113208650Y-112129621D01*
X113186119Y-112093984D01*
X113153312Y-112038898D01*
X113111730Y-111966974D01*
X113062875Y-111880822D01*
X113008249Y-111783056D01*
X112949354Y-111676286D01*
X112919916Y-111622434D01*
X112859176Y-111511318D01*
X112801853Y-111407074D01*
X112749488Y-111312454D01*
X112703618Y-111230213D01*
X112665783Y-111163104D01*
X112637523Y-111113881D01*
X112620375Y-111085298D01*
X112616687Y-111079893D01*
X112596737Y-111060605D01*
X112580605Y-111063508D01*
X112574657Y-111068766D01*
X112569669Y-111079071D01*
X112565608Y-111100761D01*
X112562391Y-111136199D01*
X112559939Y-111187749D01*
X112558170Y-111257775D01*
X112557003Y-111348639D01*
X112556357Y-111462704D01*
X112556150Y-111602335D01*
X112556150Y-111608148D01*
X112556220Y-111743347D01*
X112556524Y-111853477D01*
X112557205Y-111941487D01*
X112558408Y-112010329D01*
X112560275Y-112062952D01*
X112562949Y-112102306D01*
X112566574Y-112131343D01*
X112571293Y-112153011D01*
X112577249Y-112170262D01*
X112584170Y-112185217D01*
X112619764Y-112236304D01*
X112667049Y-112265490D01*
X112731646Y-112276018D01*
X112741782Y-112276186D01*
X112801324Y-112276392D01*
X112801324Y-112451516D01*
X111946719Y-112451516D01*
X111946719Y-112363954D01*
X111946718Y-112276392D01*
X112016547Y-112276392D01*
X112085091Y-112265620D01*
X112136169Y-112233068D01*
X112170182Y-112178383D01*
X112183605Y-112129288D01*
X112187589Y-112093884D01*
X112191350Y-112035416D01*
X112194847Y-111957360D01*
X112198040Y-111863192D01*
X112200891Y-111756388D01*
X112203359Y-111640425D01*
X112205404Y-111518779D01*
X112206987Y-111394926D01*
X112208069Y-111272343D01*
X112208609Y-111154505D01*
X112208567Y-111044890D01*
X112207905Y-110946973D01*
X112206582Y-110864230D01*
X112204558Y-110800138D01*
X112201795Y-110758173D01*
X112199429Y-110743916D01*
X112169950Y-110689244D01*
X112122110Y-110652542D01*
X112053133Y-110631855D01*
X112037060Y-110629529D01*
X111960728Y-110619992D01*
X111960728Y-110454685D01*
X112376530Y-110458396D01*
X112792333Y-110462107D01*
X112998947Y-110924434D01*
X113054233Y-111047696D01*
X113099564Y-111147565D01*
X113136122Y-111226361D01*
X113165088Y-111286402D01*
X113187646Y-111330009D01*
X113204976Y-111359499D01*
X113218262Y-111377192D01*
X113228685Y-111385406D01*
X113234612Y-111386762D01*
X113243990Y-111383326D01*
X113255927Y-111371519D01*
X113271645Y-111349094D01*
X113292362Y-111313804D01*
X113319297Y-111263402D01*
X113353671Y-111195640D01*
X113396702Y-111108271D01*
X113449609Y-110999048D01*
X113485477Y-110924434D01*
X113707290Y-110462107D01*
X114108913Y-110458389D01*
X114510535Y-110454672D01*
X114510535Y-110619992D01*
G37*
G36*
X126909331Y-113111786D02*
G01*
X126903459Y-113146434D01*
X126880399Y-113167079D01*
X126868312Y-113172605D01*
X126851762Y-113180596D01*
X126835812Y-113191976D01*
X126818342Y-113209674D01*
X126797235Y-113236620D01*
X126770372Y-113275742D01*
X126735633Y-113329969D01*
X126690901Y-113402231D01*
X126634056Y-113495455D01*
X126630307Y-113501625D01*
X126503034Y-113711139D01*
X126503034Y-113845254D01*
X126505117Y-113922970D01*
X126512701Y-113977426D01*
X126527790Y-114013163D01*
X126552386Y-114034723D01*
X126588492Y-114046645D01*
X126592187Y-114047365D01*
X126628309Y-114059789D01*
X126644721Y-114083036D01*
X126646564Y-114090689D01*
X126648968Y-114119515D01*
X126645797Y-114132379D01*
X126630083Y-114134739D01*
X126590966Y-114136784D01*
X126533064Y-114138381D01*
X126460993Y-114139400D01*
X126388619Y-114139713D01*
X126138776Y-114139713D01*
X126138776Y-114098796D01*
X126143143Y-114069272D01*
X126161870Y-114054286D01*
X126184308Y-114048202D01*
X126223316Y-114037596D01*
X126249896Y-114022008D01*
X126266389Y-113996449D01*
X126275138Y-113955929D01*
X126278485Y-113895461D01*
X126278875Y-113846803D01*
X126278875Y-113698335D01*
X126144920Y-113467204D01*
X126090971Y-113374904D01*
X126048260Y-113304148D01*
X126014530Y-113251922D01*
X125987528Y-113215210D01*
X125964998Y-113190999D01*
X125944686Y-113176275D01*
X125924335Y-113168022D01*
X125920293Y-113166941D01*
X125895967Y-113154597D01*
X125887137Y-113128288D01*
X125886596Y-113113219D01*
X125889137Y-113082290D01*
X125902617Y-113070833D01*
X125932128Y-113070377D01*
X125963244Y-113071376D01*
X126015399Y-113072354D01*
X126081615Y-113073207D01*
X126154912Y-113073829D01*
X126163293Y-113073880D01*
X126348925Y-113074958D01*
X126348925Y-113115875D01*
X126343769Y-113146850D01*
X126322575Y-113161923D01*
X126308065Y-113165766D01*
X126275991Y-113178980D01*
X126258854Y-113196505D01*
X126261084Y-113216929D01*
X126273469Y-113254681D01*
X126293255Y-113303917D01*
X126317690Y-113358794D01*
X126344020Y-113413468D01*
X126369492Y-113462094D01*
X126391354Y-113498829D01*
X126406851Y-113517830D01*
X126410837Y-113519104D01*
X126425820Y-113503922D01*
X126448229Y-113469333D01*
X126474805Y-113421837D01*
X126502290Y-113367928D01*
X126527425Y-113314105D01*
X126546951Y-113266864D01*
X126557612Y-113232703D01*
X126558663Y-113224348D01*
X126552818Y-113193076D01*
X126529279Y-113173887D01*
X126516403Y-113168498D01*
X126486537Y-113152605D01*
X126477159Y-113130064D01*
X126477876Y-113113083D01*
X126482019Y-113073775D01*
X126909341Y-113067953D01*
X126909331Y-113111786D01*
G37*
G36*
X115620189Y-113109983D02*
G01*
X115621606Y-113143954D01*
X115621614Y-113195823D01*
X115620236Y-113255506D01*
X115619793Y-113267595D01*
X115615261Y-113383177D01*
X115562072Y-113383177D01*
X115529565Y-113381833D01*
X115513006Y-113372820D01*
X115505387Y-113348660D01*
X115501615Y-113318688D01*
X115491438Y-113267215D01*
X115471300Y-113234033D01*
X115435808Y-113214810D01*
X115379565Y-113205213D01*
X115358311Y-113203593D01*
X115267071Y-113197783D01*
X115267071Y-113596527D01*
X115267179Y-113713181D01*
X115267632Y-113805020D01*
X115268630Y-113875250D01*
X115270370Y-113927075D01*
X115273051Y-113963699D01*
X115276869Y-113988328D01*
X115282022Y-114004166D01*
X115288710Y-114014419D01*
X115293146Y-114018868D01*
X115326087Y-114037048D01*
X115363168Y-114045557D01*
X115393553Y-114050891D01*
X115405361Y-114067177D01*
X115407143Y-114094181D01*
X115407171Y-114139713D01*
X114888803Y-114139713D01*
X114888803Y-114098223D01*
X114892284Y-114070454D01*
X114907868Y-114054345D01*
X114943265Y-114042069D01*
X114944407Y-114041761D01*
X114968513Y-114033736D01*
X114987677Y-114022078D01*
X115002413Y-114003800D01*
X115013233Y-113975918D01*
X115020651Y-113935448D01*
X115025179Y-113879404D01*
X115027330Y-113804801D01*
X115027617Y-113708656D01*
X115026554Y-113587982D01*
X115026282Y-113565306D01*
X115021898Y-113208053D01*
X114934366Y-113203882D01*
X114883888Y-113202855D01*
X114851715Y-113207359D01*
X114828309Y-113219799D01*
X114811780Y-113234768D01*
X114785104Y-113273262D01*
X114776753Y-113322514D01*
X114776724Y-113326500D01*
X114776724Y-113383177D01*
X114664644Y-113383177D01*
X114664636Y-113067953D01*
X115616053Y-113067953D01*
X115620189Y-113109983D01*
G37*
G36*
X121602147Y-110455307D02*
G01*
X121671986Y-110456143D01*
X121721327Y-110457939D01*
X121753932Y-110461023D01*
X121773561Y-110465725D01*
X121783974Y-110472373D01*
X121788319Y-110479619D01*
X121794957Y-110496862D01*
X121810690Y-110537897D01*
X121834606Y-110600342D01*
X121865794Y-110681816D01*
X121903342Y-110779939D01*
X121946339Y-110892330D01*
X121993874Y-111016606D01*
X122045037Y-111150388D01*
X122092564Y-111274682D01*
X122147202Y-111417064D01*
X122200013Y-111553692D01*
X122249961Y-111681948D01*
X122296006Y-111799212D01*
X122337111Y-111902863D01*
X122372238Y-111990282D01*
X122400350Y-112058849D01*
X122420408Y-112105945D01*
X122430004Y-112126488D01*
X122473822Y-112195526D01*
X122522093Y-112240581D01*
X122580265Y-112265674D01*
X122629216Y-112273466D01*
X122706768Y-112269484D01*
X122767399Y-112243215D01*
X122811266Y-112194589D01*
X122814683Y-112188593D01*
X122820359Y-112176432D01*
X122825100Y-112160893D01*
X122828990Y-112139522D01*
X122832113Y-112109866D01*
X122834550Y-112069472D01*
X122836386Y-112015885D01*
X122837702Y-111946653D01*
X122838583Y-111859322D01*
X122839110Y-111751437D01*
X122839367Y-111620547D01*
X122839437Y-111464196D01*
X122839438Y-111456812D01*
X122839418Y-111294508D01*
X122839199Y-111157819D01*
X122838539Y-111044343D01*
X122837200Y-110951674D01*
X122834941Y-110877409D01*
X122831521Y-110819143D01*
X122826701Y-110774472D01*
X122820239Y-110740993D01*
X122811897Y-110716301D01*
X122801433Y-110697992D01*
X122788608Y-110683662D01*
X122773181Y-110670908D01*
X122759924Y-110661052D01*
X122722728Y-110642702D01*
X122673682Y-110629463D01*
X122654850Y-110626824D01*
X122587259Y-110620329D01*
X122587259Y-110455102D01*
X123400967Y-110455102D01*
X123742506Y-111187120D01*
X123805398Y-111321608D01*
X123865143Y-111448771D01*
X123920632Y-111566287D01*
X123970754Y-111671834D01*
X124014401Y-111763090D01*
X124050462Y-111837734D01*
X124077828Y-111893444D01*
X124095390Y-111927897D01*
X124101609Y-111938567D01*
X124128290Y-111950855D01*
X124143162Y-111948790D01*
X124149041Y-111944932D01*
X124153817Y-111936629D01*
X124157565Y-111921359D01*
X124160359Y-111896600D01*
X124162274Y-111859828D01*
X124163384Y-111808522D01*
X124163763Y-111740159D01*
X124163487Y-111652216D01*
X124162628Y-111542170D01*
X124161263Y-111407499D01*
X124160688Y-111354928D01*
X124158965Y-111204791D01*
X124157202Y-111080057D01*
X124155088Y-110978113D01*
X124152308Y-110896345D01*
X124148547Y-110832138D01*
X124143492Y-110782878D01*
X124136830Y-110745951D01*
X124128245Y-110718741D01*
X124117425Y-110698636D01*
X124104055Y-110683020D01*
X124087821Y-110669279D01*
X124077414Y-110661468D01*
X124040086Y-110642794D01*
X123991556Y-110629246D01*
X123975842Y-110626863D01*
X123911197Y-110619577D01*
X123911197Y-110455102D01*
X124751793Y-110455102D01*
X124751793Y-110539161D01*
X124751236Y-110585691D01*
X124747377Y-110610806D01*
X124736938Y-110621109D01*
X124716639Y-110623205D01*
X124710046Y-110623221D01*
X124641522Y-110633913D01*
X124581925Y-110663178D01*
X124539100Y-110706795D01*
X124532216Y-110718877D01*
X124526883Y-110731087D01*
X124522319Y-110746107D01*
X124518450Y-110766142D01*
X124515203Y-110793399D01*
X124512504Y-110830083D01*
X124510281Y-110878401D01*
X124508459Y-110940558D01*
X124506966Y-111018760D01*
X124505728Y-111115214D01*
X124504671Y-111232124D01*
X124503722Y-111371698D01*
X124502808Y-111536141D01*
X124502409Y-111614717D01*
X124498199Y-112459109D01*
X124223657Y-112455313D01*
X123949116Y-112451516D01*
X123833219Y-112220353D01*
X123799270Y-112152335D01*
X123755382Y-112063931D01*
X123703918Y-111959927D01*
X123647242Y-111845110D01*
X123587717Y-111724268D01*
X123527707Y-111602189D01*
X123481887Y-111508786D01*
X123420727Y-111384355D01*
X123370415Y-111282985D01*
X123329720Y-111202452D01*
X123297411Y-111140534D01*
X123272257Y-111095009D01*
X123253028Y-111063655D01*
X123238492Y-111044247D01*
X123227418Y-111034565D01*
X123218576Y-111032386D01*
X123218069Y-111032448D01*
X123210942Y-111034115D01*
X123205121Y-111038602D01*
X123200472Y-111048503D01*
X123196865Y-111066409D01*
X123194168Y-111094913D01*
X123192248Y-111136608D01*
X123190973Y-111194085D01*
X123190211Y-111269938D01*
X123189831Y-111366758D01*
X123189700Y-111487138D01*
X123189686Y-111589906D01*
X123189737Y-111729253D01*
X123189981Y-111843390D01*
X123190551Y-111935128D01*
X123191582Y-112007276D01*
X123193208Y-112062647D01*
X123195564Y-112104048D01*
X123198783Y-112134291D01*
X123203001Y-112156187D01*
X123208351Y-112172544D01*
X123214967Y-112186174D01*
X123218473Y-112192301D01*
X123258078Y-112241169D01*
X123309273Y-112268081D01*
X123375317Y-112276186D01*
X123434859Y-112276392D01*
X123434861Y-112363954D01*
X123434862Y-112451516D01*
X121697632Y-112451516D01*
X121697628Y-112280312D01*
X121775768Y-112272248D01*
X121853253Y-112255589D01*
X121907829Y-112224405D01*
X121938781Y-112179423D01*
X121945398Y-112121368D01*
X121942691Y-112102337D01*
X121933190Y-112064297D01*
X121917593Y-112013117D01*
X121898633Y-111956596D01*
X121879042Y-111902534D01*
X121861552Y-111858728D01*
X121848898Y-111832977D01*
X121847742Y-111831352D01*
X121836964Y-111825787D01*
X121812678Y-111821603D01*
X121772264Y-111818703D01*
X121713101Y-111816993D01*
X121632569Y-111816377D01*
X121528049Y-111816761D01*
X121461597Y-111817342D01*
X121089272Y-111821070D01*
X121041488Y-111970850D01*
X121014850Y-112064731D01*
X121003056Y-112137062D01*
X121007208Y-112190716D01*
X121028407Y-112228561D01*
X121067755Y-112253468D01*
X121126353Y-112268307D01*
X121157161Y-112272248D01*
X121235301Y-112280312D01*
X121235298Y-112365914D01*
X121235296Y-112451516D01*
X120366682Y-112451516D01*
X120364932Y-112419994D01*
X120362887Y-112350694D01*
X120366261Y-112305807D01*
X120375573Y-112282162D01*
X120388396Y-112276392D01*
X120432915Y-112264384D01*
X120481823Y-112231567D01*
X120528171Y-112182758D01*
X120533239Y-112176043D01*
X120547966Y-112149799D01*
X120572151Y-112098614D01*
X120605273Y-112023729D01*
X120646810Y-111926383D01*
X120696242Y-111807820D01*
X120753046Y-111669279D01*
X120805152Y-111540539D01*
X121200197Y-111540539D01*
X121201243Y-111553662D01*
X121206238Y-111560546D01*
X121213497Y-111563797D01*
X121236738Y-111566875D01*
X121280934Y-111569295D01*
X121340818Y-111571056D01*
X121411124Y-111572157D01*
X121486584Y-111572599D01*
X121561932Y-111572378D01*
X121631901Y-111571496D01*
X121691223Y-111569951D01*
X121734633Y-111567741D01*
X121756864Y-111564867D01*
X121758611Y-111563885D01*
X121755587Y-111548788D01*
X121744717Y-111510531D01*
X121727062Y-111452519D01*
X121703680Y-111378157D01*
X121675631Y-111290852D01*
X121643976Y-111194009D01*
X121635921Y-111169608D01*
X121597928Y-111055528D01*
X121567268Y-110965558D01*
X121542895Y-110897074D01*
X121523765Y-110847448D01*
X121508831Y-110814053D01*
X121497049Y-110794264D01*
X121487373Y-110785453D01*
X121482569Y-110784335D01*
X121473441Y-110788446D01*
X121462422Y-110802490D01*
X121448434Y-110829036D01*
X121430397Y-110870651D01*
X121407233Y-110929902D01*
X121377862Y-111009357D01*
X121341205Y-111111585D01*
X121320666Y-111169608D01*
X121281586Y-111280606D01*
X121251150Y-111368096D01*
X121228576Y-111434956D01*
X121213081Y-111484065D01*
X121203882Y-111518299D01*
X121200197Y-111540539D01*
X120805152Y-111540539D01*
X120816702Y-111512001D01*
X120886688Y-111337228D01*
X120907087Y-111285981D01*
X121237411Y-110455102D01*
X121508051Y-110455102D01*
X121602147Y-110455307D01*
G37*
G36*
X119427313Y-113071301D02*
G01*
X119457361Y-113075319D01*
X119474332Y-113082577D01*
X119481962Y-113093726D01*
X119483984Y-113109416D01*
X119484060Y-113117962D01*
X119480930Y-113147436D01*
X119473552Y-113160059D01*
X119441788Y-113163117D01*
X119416045Y-113167173D01*
X119395665Y-113174956D01*
X119379990Y-113189191D01*
X119368359Y-113212606D01*
X119360116Y-113247927D01*
X119354600Y-113297881D01*
X119351153Y-113365195D01*
X119349116Y-113452595D01*
X119347831Y-113562810D01*
X119346762Y-113684872D01*
X119342558Y-114153723D01*
X119038784Y-114153723D01*
X119017448Y-114101185D01*
X119003635Y-114069291D01*
X118980634Y-114018465D01*
X118951355Y-113955048D01*
X118918708Y-113885384D01*
X118909785Y-113866519D01*
X118870333Y-113783034D01*
X118827208Y-113691371D01*
X118785699Y-113602789D01*
X118751896Y-113530281D01*
X118714684Y-113451663D01*
X118686644Y-113396536D01*
X118666180Y-113362523D01*
X118651699Y-113347244D01*
X118641605Y-113348323D01*
X118636201Y-113357784D01*
X118633963Y-113377651D01*
X118632343Y-113421155D01*
X118631393Y-113483922D01*
X118631167Y-113561574D01*
X118631718Y-113649735D01*
X118632183Y-113688058D01*
X118633776Y-113789778D01*
X118635597Y-113867247D01*
X118637991Y-113924235D01*
X118641302Y-113964511D01*
X118645877Y-113991846D01*
X118652060Y-114010007D01*
X118660197Y-114022765D01*
X118663148Y-114026187D01*
X118699145Y-114049490D01*
X118729695Y-114055653D01*
X118756511Y-114058622D01*
X118767508Y-114073158D01*
X118769553Y-114104688D01*
X118769553Y-114153723D01*
X118307226Y-114153723D01*
X118307226Y-114104688D01*
X118309600Y-114071724D01*
X118321450Y-114058205D01*
X118348255Y-114055653D01*
X118396535Y-114043151D01*
X118430331Y-114008221D01*
X118440981Y-113980952D01*
X118442904Y-113959024D01*
X118444333Y-113913164D01*
X118445230Y-113847454D01*
X118445560Y-113765978D01*
X118445287Y-113672818D01*
X118444505Y-113583125D01*
X118443099Y-113465215D01*
X118441263Y-113372252D01*
X118438077Y-113301166D01*
X118432623Y-113248887D01*
X118423979Y-113212346D01*
X118411227Y-113188474D01*
X118393446Y-113174202D01*
X118369717Y-113166460D01*
X118339120Y-113162179D01*
X118317733Y-113160059D01*
X118310360Y-113147071D01*
X118307227Y-113117222D01*
X118307226Y-113116641D01*
X118307226Y-113074264D01*
X118531513Y-113078114D01*
X118755800Y-113081963D01*
X118942003Y-113481246D01*
X118988003Y-113578801D01*
X119030705Y-113667293D01*
X119068595Y-113743746D01*
X119100159Y-113805183D01*
X119123883Y-113848628D01*
X119138254Y-113871105D01*
X119141517Y-113873524D01*
X119145657Y-113857717D01*
X119149178Y-113817019D01*
X119151954Y-113754553D01*
X119153859Y-113673443D01*
X119154767Y-113576815D01*
X119154826Y-113542914D01*
X119154650Y-113432957D01*
X119153619Y-113347695D01*
X119150981Y-113283801D01*
X119145986Y-113237950D01*
X119137881Y-113206818D01*
X119125915Y-113187078D01*
X119109335Y-113175404D01*
X119087391Y-113168473D01*
X119069359Y-113164834D01*
X119036621Y-113155222D01*
X119023585Y-113137741D01*
X119021732Y-113116149D01*
X119021732Y-113076398D01*
X119221374Y-113072176D01*
X119313054Y-113070380D01*
X119380456Y-113069872D01*
X119427313Y-113071301D01*
G37*
G36*
X117634721Y-113113486D02*
G01*
X117631660Y-113145075D01*
X117618016Y-113157370D01*
X117599088Y-113159018D01*
X117564927Y-113168705D01*
X117530271Y-113192235D01*
X117528109Y-113194335D01*
X117492792Y-113229652D01*
X117497223Y-113555090D01*
X117499173Y-113670579D01*
X117502056Y-113761498D01*
X117506692Y-113831297D01*
X117513899Y-113883426D01*
X117524497Y-113921336D01*
X117539303Y-113948477D01*
X117559138Y-113968297D01*
X117584819Y-113984248D01*
X117600984Y-113992267D01*
X117657877Y-114008483D01*
X117724928Y-114011926D01*
X117791036Y-114003287D01*
X117845099Y-113983257D01*
X117855594Y-113976431D01*
X117879699Y-113957152D01*
X117898445Y-113936860D01*
X117912504Y-113911913D01*
X117922544Y-113878670D01*
X117929236Y-113833490D01*
X117933250Y-113772731D01*
X117935255Y-113692751D01*
X117935921Y-113589910D01*
X117935963Y-113539560D01*
X117935905Y-113435736D01*
X117935507Y-113356309D01*
X117934428Y-113297654D01*
X117932332Y-113256149D01*
X117928878Y-113228170D01*
X117923728Y-113210093D01*
X117916543Y-113198296D01*
X117906984Y-113189155D01*
X117902888Y-113185810D01*
X117867597Y-113166061D01*
X117836341Y-113159018D01*
X117812338Y-113154160D01*
X117803591Y-113134046D01*
X117802868Y-113116988D01*
X117802868Y-113074958D01*
X118237176Y-113074958D01*
X118237176Y-113116988D01*
X118231331Y-113149410D01*
X118217713Y-113159018D01*
X118193447Y-113167290D01*
X118165176Y-113185772D01*
X118155036Y-113194609D01*
X118147141Y-113205010D01*
X118141127Y-113220431D01*
X118136630Y-113244330D01*
X118133290Y-113280166D01*
X118130741Y-113331396D01*
X118128621Y-113401478D01*
X118126568Y-113493868D01*
X118125097Y-113567543D01*
X118118092Y-113922559D01*
X118074557Y-113999614D01*
X118041566Y-114050339D01*
X118005090Y-114085608D01*
X117953456Y-114116646D01*
X117952155Y-114117318D01*
X117910120Y-114137155D01*
X117871300Y-114149792D01*
X117826503Y-114157140D01*
X117766534Y-114161113D01*
X117736507Y-114162177D01*
X117669045Y-114162673D01*
X117604533Y-114160432D01*
X117553208Y-114155911D01*
X117537309Y-114153289D01*
X117445506Y-114121199D01*
X117370249Y-114067861D01*
X117314210Y-113995244D01*
X117308759Y-113985044D01*
X117269542Y-113908362D01*
X117266514Y-113563167D01*
X117265421Y-113455171D01*
X117264086Y-113371661D01*
X117262227Y-113309101D01*
X117259566Y-113263957D01*
X117255821Y-113232694D01*
X117250712Y-113211779D01*
X117243958Y-113197676D01*
X117236797Y-113188495D01*
X117208317Y-113166563D01*
X117184260Y-113159018D01*
X117165669Y-113151972D01*
X117158759Y-113126427D01*
X117158401Y-113113486D01*
X117158391Y-113067953D01*
X117634693Y-113067953D01*
X117634721Y-113113486D01*
G37*
G36*
X118480166Y-105260921D02*
G01*
X118499996Y-105298160D01*
X118531235Y-105357428D01*
X118572398Y-105435877D01*
X118622002Y-105530657D01*
X118678561Y-105638920D01*
X118740591Y-105757818D01*
X118806608Y-105884503D01*
X118875127Y-106016125D01*
X118944662Y-106149838D01*
X119013731Y-106282791D01*
X119080847Y-106412138D01*
X119144527Y-106535028D01*
X119186623Y-106616381D01*
X119242276Y-106723798D01*
X119286736Y-106808829D01*
X119321571Y-106874032D01*
X119348354Y-106921965D01*
X119368655Y-106955185D01*
X119384044Y-106976249D01*
X119396091Y-106987716D01*
X119406368Y-106992143D01*
X119416445Y-106992088D01*
X119417259Y-106991971D01*
X119422400Y-106990543D01*
X119428247Y-106986857D01*
X119435538Y-106979558D01*
X119445012Y-106967291D01*
X119457408Y-106948700D01*
X119473464Y-106922429D01*
X119493919Y-106887122D01*
X119519512Y-106841425D01*
X119550981Y-106783981D01*
X119589065Y-106713434D01*
X119634503Y-106628430D01*
X119688032Y-106527612D01*
X119750393Y-106409625D01*
X119822323Y-106273113D01*
X119904561Y-106116721D01*
X119997847Y-105939093D01*
X120102917Y-105738873D01*
X120177261Y-105597159D01*
X120414270Y-105145339D01*
X121935797Y-105145339D01*
X121935797Y-105673951D01*
X121838861Y-105680887D01*
X121747867Y-105695272D01*
X121678970Y-105725071D01*
X121629642Y-105772337D01*
X121597352Y-105839124D01*
X121585682Y-105886275D01*
X121583105Y-105914272D01*
X121580783Y-105967649D01*
X121578716Y-106043769D01*
X121576903Y-106139991D01*
X121575345Y-106253679D01*
X121574042Y-106382193D01*
X121572993Y-106522895D01*
X121572199Y-106673146D01*
X121571659Y-106830309D01*
X121571374Y-106991744D01*
X121571343Y-107154813D01*
X121571568Y-107316878D01*
X121572047Y-107475301D01*
X121572780Y-107627442D01*
X121573768Y-107770663D01*
X121575011Y-107902326D01*
X121576508Y-108019793D01*
X121578260Y-108120425D01*
X121580267Y-108201584D01*
X121582528Y-108260630D01*
X121585044Y-108294926D01*
X121585682Y-108299163D01*
X121598497Y-108349183D01*
X121615472Y-108392934D01*
X121625029Y-108409652D01*
X121672247Y-108453979D01*
X121738193Y-108487007D01*
X121814685Y-108505242D01*
X121854706Y-108507722D01*
X121935797Y-108507722D01*
X121935797Y-109133415D01*
X122086404Y-109179245D01*
X122355808Y-109269273D01*
X122624108Y-109374376D01*
X122882336Y-109490788D01*
X123115021Y-109611122D01*
X123184019Y-109650246D01*
X123231528Y-109679479D01*
X123261111Y-109701481D01*
X123276330Y-109718912D01*
X123280747Y-109734432D01*
X123280750Y-109734872D01*
X123270311Y-109763232D01*
X123238844Y-109773422D01*
X123189686Y-109766450D01*
X123129687Y-109752723D01*
X123046199Y-109735947D01*
X122943503Y-109716812D01*
X122825879Y-109696007D01*
X122697609Y-109674222D01*
X122562972Y-109652147D01*
X122426249Y-109630472D01*
X122291721Y-109609887D01*
X122163669Y-109591080D01*
X122046373Y-109574743D01*
X121944113Y-109561564D01*
X121861170Y-109552233D01*
X121858743Y-109551992D01*
X121806776Y-109546380D01*
X121761303Y-109540659D01*
X121739658Y-109537347D01*
X121714650Y-109534117D01*
X121666401Y-109528991D01*
X121599591Y-109522390D01*
X121518904Y-109514738D01*
X121429020Y-109506458D01*
X121334622Y-109497973D01*
X121240392Y-109489706D01*
X121151011Y-109482079D01*
X121071162Y-109475517D01*
X121005525Y-109470441D01*
X120976117Y-109468365D01*
X120901640Y-109463280D01*
X120818476Y-109457429D01*
X120751958Y-109452616D01*
X120643701Y-109445963D01*
X120511382Y-109440033D01*
X120358953Y-109434859D01*
X120190363Y-109430475D01*
X120009563Y-109426915D01*
X119820504Y-109424211D01*
X119627134Y-109422398D01*
X119433405Y-109421508D01*
X119243267Y-109421576D01*
X119060671Y-109422635D01*
X118889566Y-109424718D01*
X118733902Y-109427859D01*
X118597631Y-109432092D01*
X118552399Y-109433964D01*
X118460930Y-109438572D01*
X118352250Y-109444863D01*
X118232529Y-109452405D01*
X118107936Y-109460769D01*
X117984642Y-109469526D01*
X117868815Y-109478244D01*
X117766626Y-109486494D01*
X117684243Y-109493846D01*
X117662769Y-109495970D01*
X117400430Y-109524651D01*
X117136601Y-109557038D01*
X116875166Y-109592511D01*
X116620006Y-109630452D01*
X116375005Y-109670241D01*
X116144044Y-109711258D01*
X115931006Y-109752885D01*
X115739773Y-109794501D01*
X115637758Y-109819046D01*
X115608052Y-109819668D01*
X115594206Y-109803222D01*
X115591168Y-109777712D01*
X115604448Y-109752040D01*
X115637049Y-109722800D01*
X115691976Y-109686583D01*
X115702849Y-109680025D01*
X115833717Y-109606568D01*
X115985034Y-109529745D01*
X116149969Y-109452582D01*
X116321691Y-109378106D01*
X116493368Y-109309341D01*
X116658170Y-109249314D01*
X116727435Y-109226226D01*
X116891880Y-109173193D01*
X116892052Y-108840457D01*
X116892223Y-108507722D01*
X116973314Y-108507722D01*
X117052022Y-108498279D01*
X117124314Y-108472281D01*
X117182008Y-108433221D01*
X117202991Y-108409652D01*
X117220148Y-108375507D01*
X117235912Y-108327329D01*
X117242338Y-108299163D01*
X117244915Y-108271166D01*
X117247237Y-108217788D01*
X117249304Y-108141669D01*
X117251117Y-108045446D01*
X117252675Y-107931759D01*
X117253978Y-107803245D01*
X117255027Y-107662543D01*
X117255822Y-107512292D01*
X117256090Y-107434163D01*
X118167126Y-107434163D01*
X118167201Y-107612336D01*
X118167460Y-107764686D01*
X118167958Y-107893410D01*
X118168749Y-108000703D01*
X118169885Y-108088762D01*
X118171422Y-108159784D01*
X118173412Y-108215964D01*
X118175909Y-108259500D01*
X118178968Y-108292587D01*
X118182641Y-108317422D01*
X118186984Y-108336201D01*
X118189393Y-108343919D01*
X118226670Y-108414462D01*
X118283725Y-108465230D01*
X118360616Y-108496260D01*
X118457403Y-108507588D01*
X118464837Y-108507643D01*
X118531385Y-108507722D01*
X118531385Y-108860896D01*
X118597932Y-108852476D01*
X118637907Y-108848394D01*
X118697816Y-108843475D01*
X118769609Y-108838332D01*
X118845239Y-108833580D01*
X118846608Y-108833500D01*
X118919370Y-108830325D01*
X119014810Y-108827733D01*
X119128108Y-108825728D01*
X119254445Y-108824312D01*
X119388999Y-108823488D01*
X119526952Y-108823259D01*
X119663483Y-108823627D01*
X119793773Y-108824594D01*
X119913001Y-108826164D01*
X120016348Y-108828339D01*
X120098994Y-108831121D01*
X120132019Y-108832799D01*
X120296636Y-108842653D01*
X120296636Y-108510884D01*
X120391203Y-108505517D01*
X120484522Y-108491853D01*
X120555992Y-108462175D01*
X120607336Y-108415616D01*
X120624965Y-108387733D01*
X120630856Y-108375861D01*
X120635888Y-108362974D01*
X120640128Y-108346896D01*
X120643644Y-108325448D01*
X120646504Y-108296451D01*
X120648776Y-108257728D01*
X120650526Y-108207098D01*
X120651824Y-108142386D01*
X120652737Y-108061411D01*
X120653331Y-107961996D01*
X120653676Y-107841963D01*
X120653838Y-107699133D01*
X120653886Y-107531327D01*
X120653889Y-107457171D01*
X120653859Y-107278794D01*
X120653730Y-107126384D01*
X120653442Y-106997890D01*
X120652936Y-106891260D01*
X120652151Y-106804442D01*
X120651028Y-106735383D01*
X120649508Y-106682033D01*
X120647529Y-106642340D01*
X120645034Y-106614250D01*
X120641961Y-106595712D01*
X120638252Y-106584675D01*
X120633846Y-106579086D01*
X120628684Y-106576893D01*
X120628263Y-106576808D01*
X120602022Y-106573934D01*
X120578622Y-106578249D01*
X120555327Y-106592640D01*
X120529401Y-106619994D01*
X120498106Y-106663199D01*
X120458707Y-106725140D01*
X120408482Y-106808681D01*
X120344491Y-106916800D01*
X120266966Y-107048277D01*
X120176425Y-107202228D01*
X120073388Y-107377769D01*
X119958374Y-107574018D01*
X119831902Y-107790089D01*
X119785004Y-107870270D01*
X119707449Y-108002890D01*
X119642763Y-108113362D01*
X119589639Y-108203708D01*
X119546769Y-108275950D01*
X119512846Y-108332108D01*
X119486563Y-108374205D01*
X119466613Y-108404262D01*
X119451687Y-108424300D01*
X119440480Y-108436341D01*
X119431684Y-108442407D01*
X119423991Y-108444519D01*
X119416095Y-108444698D01*
X119413550Y-108444677D01*
X119408357Y-108445276D01*
X119403962Y-108446181D01*
X119399541Y-108446049D01*
X119394269Y-108443539D01*
X119387324Y-108437310D01*
X119377882Y-108426021D01*
X119365120Y-108408330D01*
X119348213Y-108382896D01*
X119326338Y-108348377D01*
X119298673Y-108303433D01*
X119264392Y-108246723D01*
X119222673Y-108176904D01*
X119172692Y-108092635D01*
X119113625Y-107992576D01*
X119044649Y-107875385D01*
X118964940Y-107739720D01*
X118873676Y-107584240D01*
X118770031Y-107407605D01*
X118653182Y-107208472D01*
X118624467Y-107159542D01*
X118544094Y-107022944D01*
X118476410Y-106908781D01*
X118420207Y-106815158D01*
X118374274Y-106740182D01*
X118337400Y-106681957D01*
X118308376Y-106638590D01*
X118285990Y-106608186D01*
X118269034Y-106588852D01*
X118256296Y-106578693D01*
X118252142Y-106576784D01*
X118210126Y-106570909D01*
X118190582Y-106576627D01*
X118185704Y-106581079D01*
X118181549Y-106589944D01*
X118178058Y-106605313D01*
X118175176Y-106629280D01*
X118172844Y-106663937D01*
X118171005Y-106711374D01*
X118169602Y-106773685D01*
X118168579Y-106852962D01*
X118167877Y-106951296D01*
X118167440Y-107070780D01*
X118167210Y-107213506D01*
X118167130Y-107381566D01*
X118167126Y-107434163D01*
X117256090Y-107434163D01*
X117256361Y-107355129D01*
X117256646Y-107193694D01*
X117256677Y-107030625D01*
X117256452Y-106868560D01*
X117255974Y-106710137D01*
X117255240Y-106557996D01*
X117254252Y-106414775D01*
X117253009Y-106283111D01*
X117251512Y-106165644D01*
X117249760Y-106065013D01*
X117247753Y-105983854D01*
X117245492Y-105924808D01*
X117242976Y-105890512D01*
X117242338Y-105886275D01*
X117218557Y-105807550D01*
X117179169Y-105749504D01*
X117121642Y-105710086D01*
X117043446Y-105687242D01*
X116989159Y-105680887D01*
X116892223Y-105673951D01*
X116892223Y-105145339D01*
X118417838Y-105145339D01*
X118480166Y-105260921D01*
G37*
%LPC*%
D19*
X129755304Y-94032180D03*
X129755304Y-96572180D03*
X129755304Y-99112180D03*
X129755304Y-101652180D03*
X129755304Y-104192180D03*
X129755304Y-106732180D03*
X129755304Y-109272180D03*
X145055496Y-109272180D03*
X145055496Y-106732180D03*
X145055496Y-104192180D03*
X145055496Y-101652180D03*
X145055496Y-99112180D03*
X145055496Y-96572180D03*
X145055496Y-94032180D03*
D20*
X132150000Y-124637500D03*
X132150000Y-121662500D03*
X142900000Y-124637500D03*
X142900000Y-121662500D03*
D21*
X132150000Y-115850000D03*
X132150000Y-118950000D03*
X142900000Y-115850000D03*
X142900000Y-118950000D03*
D22*
X164400000Y-101650000D03*
X137400000Y-128650000D03*
X137400000Y-74650000D03*
X110400000Y-101650000D03*
D23*
X155251984Y-75195017D03*
X163887012Y-119618394D03*
X164042157Y-84062237D03*
X119695827Y-75039873D03*
X106000219Y-95344446D03*
X130978036Y-133081810D03*
X119463636Y-128253422D03*
X143463697Y-133136290D03*
X110828607Y-83830046D03*
X168715400Y-108103993D03*
X110673463Y-119386204D03*
X155019794Y-128408567D03*
X105945740Y-107830107D03*
X168769879Y-95618331D03*
%LPD*%
M02*
