%TF.GenerationSoftware,KiCad,Pcbnew,6.0.5-2.fc35*%
%TF.CreationDate,2022-05-23T13:39:23-06:00*%
%TF.ProjectId,test2,74657374-322e-46b6-9963-61645f706362,rev?*%
%TF.SameCoordinates,Original*%
%TF.FileFunction,Copper,L2,Bot*%
%TF.FilePolarity,Positive*%
%FSLAX46Y46*%
G04 Gerber Fmt 4.6, Leading zero omitted, Abs format (unit mm)*
G04 Created by KiCad (PCBNEW 6.0.5-2.fc35) date 2022-05-23 13:39:23*
%MOMM*%
%LPD*%
G01*
G04 APERTURE LIST*
%TA.AperFunction,ComponentPad*%
%ADD10O,2.748280X1.998980*%
%TD*%
%TA.AperFunction,ComponentPad*%
%ADD11C,5.000000*%
%TD*%
%TA.AperFunction,ViaPad*%
%ADD12C,1.000000*%
%TD*%
G04 APERTURE END LIST*
D10*
X129755304Y-94032180D03*
X129755304Y-96572180D03*
X129755304Y-99112180D03*
X129755304Y-101652180D03*
X129755304Y-104192180D03*
X129755304Y-106732180D03*
X129755304Y-109272180D03*
X145055496Y-109272180D03*
X145055496Y-106732180D03*
X145055496Y-104192180D03*
X145055496Y-101652180D03*
X145055496Y-99112180D03*
X145055496Y-96572180D03*
X145055496Y-94032180D03*
D11*
X155251984Y-75195017D03*
X163887012Y-119618394D03*
X164042157Y-84062237D03*
X119695827Y-75039873D03*
X106000219Y-95344446D03*
X130978036Y-133081810D03*
X119463636Y-128253422D03*
X143463697Y-133136290D03*
X110828607Y-83830046D03*
X168715400Y-108103993D03*
X110673463Y-119386204D03*
X155019794Y-128408567D03*
X105945740Y-107830107D03*
X168769879Y-95618331D03*
D12*
X125249801Y-130983175D03*
X114949360Y-124100640D03*
X108066825Y-113800199D03*
X105650000Y-101650000D03*
X108066825Y-89499801D03*
X114949360Y-79199360D03*
X125249801Y-72316825D03*
X137400000Y-69900000D03*
X149550199Y-72316825D03*
X159850640Y-79199360D03*
X166733175Y-89499801D03*
X169150000Y-101650000D03*
X166733175Y-113800199D03*
X159850640Y-124100640D03*
X149550199Y-130983175D03*
X137400000Y-133400000D03*
%TA.AperFunction,Conductor*%
G36*
X137823512Y-67157134D02*
G01*
X138962758Y-67189952D01*
X138966905Y-67190140D01*
X140104407Y-67260709D01*
X140108572Y-67261037D01*
X141243076Y-67369279D01*
X141247228Y-67369744D01*
X142377560Y-67515545D01*
X142381695Y-67516148D01*
X143506569Y-67699345D01*
X143510681Y-67700085D01*
X143792551Y-67755641D01*
X144628873Y-67920479D01*
X144632921Y-67921347D01*
X145200137Y-68052821D01*
X145743188Y-68178694D01*
X145747242Y-68179705D01*
X146237163Y-68310521D01*
X146848375Y-68473723D01*
X146852351Y-68474856D01*
X147501620Y-68671500D01*
X147943107Y-68805214D01*
X147947085Y-68806491D01*
X149026275Y-69172826D01*
X149030202Y-69174232D01*
X150096699Y-69576163D01*
X150100549Y-69577687D01*
X151153151Y-70014766D01*
X151156931Y-70016410D01*
X152194432Y-70488133D01*
X152198192Y-70489919D01*
X153219500Y-70995791D01*
X153223212Y-70997707D01*
X154227104Y-71537117D01*
X154230752Y-71539155D01*
X155216273Y-72111593D01*
X155219850Y-72113751D01*
X155364832Y-72204521D01*
X155411956Y-72257623D01*
X155422890Y-72327773D01*
X155394162Y-72392698D01*
X155334894Y-72431785D01*
X155289728Y-72437047D01*
X155266433Y-72435520D01*
X155262653Y-72435728D01*
X155262652Y-72435728D01*
X155167639Y-72440957D01*
X154934811Y-72453770D01*
X154931084Y-72454431D01*
X154931080Y-72454431D01*
X154672380Y-72500280D01*
X154607783Y-72511728D01*
X154604158Y-72512833D01*
X154604153Y-72512834D01*
X154357655Y-72587962D01*
X154290087Y-72608555D01*
X153986325Y-72742847D01*
X153700895Y-72912659D01*
X153697894Y-72914974D01*
X153697890Y-72914977D01*
X153595520Y-72993955D01*
X153437934Y-73115532D01*
X153435233Y-73118191D01*
X153435226Y-73118197D01*
X153222903Y-73327212D01*
X153201250Y-73348528D01*
X153198886Y-73351495D01*
X153198883Y-73351498D01*
X153025443Y-73569152D01*
X152994271Y-73608270D01*
X152819996Y-73890997D01*
X152680949Y-74192613D01*
X152579145Y-74508749D01*
X152578426Y-74512465D01*
X152578424Y-74512473D01*
X152536340Y-74729988D01*
X152516057Y-74834825D01*
X152515790Y-74838601D01*
X152515789Y-74838606D01*
X152492868Y-75162331D01*
X152492600Y-75166120D01*
X152496804Y-75250568D01*
X152507159Y-75458557D01*
X152509114Y-75497833D01*
X152509755Y-75501564D01*
X152509756Y-75501572D01*
X152553764Y-75757680D01*
X152565359Y-75825159D01*
X152566447Y-75828798D01*
X152566448Y-75828801D01*
X152658371Y-76136168D01*
X152660521Y-76143358D01*
X152662034Y-76146829D01*
X152662036Y-76146835D01*
X152747706Y-76343393D01*
X152793220Y-76447820D01*
X152795143Y-76451092D01*
X152795144Y-76451093D01*
X152959613Y-76730864D01*
X152959618Y-76730872D01*
X152961536Y-76734134D01*
X152963837Y-76737149D01*
X153091778Y-76904791D01*
X153163030Y-76998154D01*
X153165678Y-77000873D01*
X153165683Y-77000878D01*
X153374722Y-77215463D01*
X153394782Y-77236055D01*
X153397726Y-77238426D01*
X153397729Y-77238429D01*
X153524148Y-77340254D01*
X153653437Y-77444391D01*
X153935248Y-77620144D01*
X154236131Y-77760768D01*
X154307888Y-77784291D01*
X154409699Y-77817666D01*
X154551730Y-77864226D01*
X154877472Y-77929020D01*
X154881245Y-77929307D01*
X154881252Y-77929308D01*
X155204862Y-77953925D01*
X155204867Y-77953925D01*
X155208639Y-77954212D01*
X155540434Y-77939435D01*
X155868051Y-77884905D01*
X155871685Y-77883839D01*
X155871689Y-77883838D01*
X156013959Y-77842100D01*
X156186743Y-77791410D01*
X156204766Y-77783667D01*
X156488416Y-77661802D01*
X156491896Y-77660307D01*
X156779087Y-77493492D01*
X157044159Y-77293384D01*
X157283270Y-77062880D01*
X157330073Y-77005392D01*
X157490566Y-76808256D01*
X157490567Y-76808255D01*
X157492957Y-76805319D01*
X157494979Y-76802115D01*
X157668160Y-76527640D01*
X157668163Y-76527634D01*
X157670183Y-76524433D01*
X157812381Y-76224290D01*
X157917490Y-75909237D01*
X157983989Y-75583839D01*
X158010914Y-75252808D01*
X158011519Y-75195017D01*
X158010821Y-75183429D01*
X157991761Y-74867273D01*
X157991761Y-74867269D01*
X157991533Y-74863495D01*
X157990853Y-74859771D01*
X157932543Y-74540498D01*
X157932542Y-74540494D01*
X157931863Y-74536776D01*
X157926526Y-74519586D01*
X157883690Y-74381632D01*
X157833375Y-74219591D01*
X157829540Y-74211036D01*
X157788600Y-74119729D01*
X157778981Y-74049387D01*
X157808919Y-73985011D01*
X157868909Y-73947041D01*
X157939904Y-73947531D01*
X157977365Y-73966049D01*
X158061937Y-74027156D01*
X158065267Y-74029647D01*
X158688845Y-74512473D01*
X158966396Y-74727376D01*
X158969657Y-74729988D01*
X159847178Y-75457228D01*
X159850350Y-75459947D01*
X160277243Y-75838294D01*
X160660233Y-76177731D01*
X160703255Y-76215861D01*
X160706329Y-76218677D01*
X161533718Y-77002469D01*
X161536703Y-77005392D01*
X162337643Y-77816178D01*
X162340530Y-77819199D01*
X163114166Y-78656114D01*
X163116950Y-78659229D01*
X163578652Y-79193173D01*
X163782059Y-79428406D01*
X163862360Y-79521272D01*
X163865034Y-79524469D01*
X164522297Y-80337570D01*
X164581523Y-80410839D01*
X164584095Y-80414132D01*
X165004788Y-80971398D01*
X165029868Y-81037817D01*
X165015057Y-81107251D01*
X164965058Y-81157656D01*
X164895746Y-81173028D01*
X164873531Y-81169518D01*
X164610269Y-81103392D01*
X164603162Y-81102036D01*
X164266435Y-81057705D01*
X164259193Y-81057174D01*
X163919624Y-81051839D01*
X163912362Y-81052143D01*
X163574413Y-81085875D01*
X163567265Y-81087007D01*
X163235420Y-81159361D01*
X163228442Y-81161309D01*
X162907117Y-81271323D01*
X162900410Y-81274060D01*
X162593864Y-81420276D01*
X162587506Y-81423771D01*
X162299811Y-81604242D01*
X162293888Y-81608451D01*
X162115758Y-81751160D01*
X162107289Y-81763285D01*
X162113684Y-81774553D01*
X164042157Y-83703027D01*
X166328427Y-85989296D01*
X166341778Y-85996586D01*
X166351752Y-85989531D01*
X166458798Y-85861504D01*
X166463114Y-85855693D01*
X166649589Y-85571812D01*
X166653203Y-85565550D01*
X166805815Y-85262119D01*
X166808687Y-85255481D01*
X166925406Y-84936530D01*
X166927502Y-84929588D01*
X167006788Y-84599340D01*
X167008072Y-84592201D01*
X167027186Y-84434245D01*
X167055226Y-84369021D01*
X167114079Y-84329310D01*
X167185057Y-84327722D01*
X167245627Y-84364760D01*
X167261992Y-84387432D01*
X167714205Y-85188344D01*
X167716199Y-85192016D01*
X168243341Y-86202494D01*
X168245211Y-86206230D01*
X168738539Y-87233582D01*
X168740285Y-87237378D01*
X169199291Y-88280549D01*
X169200910Y-88284401D01*
X169625066Y-89342189D01*
X169626557Y-89346092D01*
X170015424Y-90417403D01*
X170016784Y-90421353D01*
X170369908Y-91504937D01*
X170371135Y-91508924D01*
X170688016Y-92603199D01*
X170688149Y-92603659D01*
X170689238Y-92607668D01*
X170926404Y-93541511D01*
X170928618Y-93550227D01*
X170926000Y-93621175D01*
X170885439Y-93679445D01*
X170819815Y-93706536D01*
X170749961Y-93693847D01*
X170717167Y-93670104D01*
X170608277Y-93560643D01*
X170605605Y-93557957D01*
X170584744Y-93541511D01*
X170347764Y-93354691D01*
X170344783Y-93352341D01*
X170061148Y-93179549D01*
X169843975Y-93080806D01*
X169762260Y-93043652D01*
X169762252Y-93043649D01*
X169758808Y-93042083D01*
X169442143Y-92941935D01*
X169297559Y-92914746D01*
X169119464Y-92881256D01*
X169119459Y-92881255D01*
X169115740Y-92880556D01*
X168784328Y-92858834D01*
X168780548Y-92859042D01*
X168780547Y-92859042D01*
X168685534Y-92864271D01*
X168452706Y-92877084D01*
X168448979Y-92877745D01*
X168448975Y-92877745D01*
X168248171Y-92913333D01*
X168125678Y-92935042D01*
X168122053Y-92936147D01*
X168122048Y-92936148D01*
X167875550Y-93011276D01*
X167807982Y-93031869D01*
X167504220Y-93166161D01*
X167218790Y-93335973D01*
X167215789Y-93338288D01*
X167215785Y-93338291D01*
X167184376Y-93362523D01*
X166955829Y-93538846D01*
X166953128Y-93541505D01*
X166953121Y-93541511D01*
X166721853Y-93769176D01*
X166719145Y-93771842D01*
X166716781Y-93774809D01*
X166716778Y-93774812D01*
X166543205Y-93992632D01*
X166512166Y-94031584D01*
X166337891Y-94314311D01*
X166198844Y-94615927D01*
X166097040Y-94932063D01*
X166096321Y-94935779D01*
X166096319Y-94935787D01*
X166037556Y-95239511D01*
X166033952Y-95258139D01*
X166033685Y-95261915D01*
X166033684Y-95261920D01*
X166015536Y-95518239D01*
X166010495Y-95589434D01*
X166012450Y-95628699D01*
X166024551Y-95871767D01*
X166027009Y-95921147D01*
X166027650Y-95924878D01*
X166027651Y-95924886D01*
X166070809Y-96176046D01*
X166083254Y-96248473D01*
X166084342Y-96252112D01*
X166084343Y-96252115D01*
X166174503Y-96553587D01*
X166178416Y-96566672D01*
X166179929Y-96570143D01*
X166179931Y-96570149D01*
X166200484Y-96617305D01*
X166311115Y-96871134D01*
X166313038Y-96874405D01*
X166313040Y-96874409D01*
X166477508Y-97154178D01*
X166477513Y-97154186D01*
X166479431Y-97157448D01*
X166481732Y-97160463D01*
X166655662Y-97388365D01*
X166680925Y-97421468D01*
X166683573Y-97424187D01*
X166683578Y-97424192D01*
X166910031Y-97656653D01*
X166912677Y-97659369D01*
X166915621Y-97661740D01*
X166915624Y-97661743D01*
X166986689Y-97718983D01*
X167171332Y-97867705D01*
X167250063Y-97916806D01*
X167434343Y-98031733D01*
X167453143Y-98043458D01*
X167754026Y-98184082D01*
X167757636Y-98185265D01*
X167757635Y-98185265D01*
X167999049Y-98264404D01*
X168069625Y-98287540D01*
X168395367Y-98352334D01*
X168399140Y-98352621D01*
X168399147Y-98352622D01*
X168722757Y-98377239D01*
X168722762Y-98377239D01*
X168726534Y-98377526D01*
X169058329Y-98362749D01*
X169385946Y-98308219D01*
X169389580Y-98307153D01*
X169389584Y-98307152D01*
X169550468Y-98259953D01*
X169704638Y-98214724D01*
X170009791Y-98083621D01*
X170296982Y-97916806D01*
X170562054Y-97716698D01*
X170801165Y-97486194D01*
X170834623Y-97445098D01*
X171008461Y-97231570D01*
X171008462Y-97231569D01*
X171010852Y-97228633D01*
X171015706Y-97220940D01*
X171186055Y-96950954D01*
X171186058Y-96950948D01*
X171188078Y-96947747D01*
X171302079Y-96707121D01*
X171349319Y-96654125D01*
X171417714Y-96635081D01*
X171485547Y-96656038D01*
X171531282Y-96710341D01*
X171540545Y-96742336D01*
X171592168Y-97085703D01*
X171592720Y-97089845D01*
X171662811Y-97691027D01*
X171711577Y-98109302D01*
X171724697Y-98221839D01*
X171725111Y-98225986D01*
X171816831Y-99329784D01*
X171819488Y-99361764D01*
X171819764Y-99365918D01*
X171834618Y-99664300D01*
X171876430Y-100504195D01*
X171876569Y-100508371D01*
X171882362Y-100857684D01*
X171894974Y-101618239D01*
X171895475Y-101648478D01*
X171895488Y-101651538D01*
X171892288Y-102058906D01*
X171891256Y-102190301D01*
X171891194Y-102193379D01*
X171855095Y-103311038D01*
X171854385Y-103333006D01*
X171854182Y-103337151D01*
X171824105Y-103796046D01*
X171779642Y-104474415D01*
X171779300Y-104478579D01*
X171667096Y-105612730D01*
X171666616Y-105616880D01*
X171516870Y-106746698D01*
X171516252Y-106750830D01*
X171479508Y-106971590D01*
X171448593Y-107035503D01*
X171388032Y-107072555D01*
X171317053Y-107070984D01*
X171258191Y-107031288D01*
X171240246Y-107002453D01*
X171162465Y-106828980D01*
X171160910Y-106825511D01*
X170989605Y-106540975D01*
X170987278Y-106537991D01*
X170987273Y-106537984D01*
X170787694Y-106282075D01*
X170787692Y-106282072D01*
X170785358Y-106279080D01*
X170551126Y-106043619D01*
X170530265Y-106027173D01*
X170293285Y-105840353D01*
X170290304Y-105838003D01*
X170006669Y-105665211D01*
X169818321Y-105579574D01*
X169707781Y-105529314D01*
X169707773Y-105529311D01*
X169704329Y-105527745D01*
X169387664Y-105427597D01*
X169243080Y-105400408D01*
X169064985Y-105366918D01*
X169064980Y-105366917D01*
X169061261Y-105366218D01*
X168729849Y-105344496D01*
X168726069Y-105344704D01*
X168726068Y-105344704D01*
X168649097Y-105348940D01*
X168398227Y-105362746D01*
X168394500Y-105363407D01*
X168394496Y-105363407D01*
X168202116Y-105397502D01*
X168071199Y-105420704D01*
X168067574Y-105421809D01*
X168067569Y-105421810D01*
X167871838Y-105481465D01*
X167753503Y-105517531D01*
X167449741Y-105651823D01*
X167164311Y-105821635D01*
X166901350Y-106024508D01*
X166898649Y-106027167D01*
X166898642Y-106027173D01*
X166862733Y-106062523D01*
X166664666Y-106257504D01*
X166662302Y-106260471D01*
X166662299Y-106260474D01*
X166460052Y-106514278D01*
X166457687Y-106517246D01*
X166283412Y-106799973D01*
X166144365Y-107101589D01*
X166111856Y-107202542D01*
X166067998Y-107338736D01*
X166042561Y-107417725D01*
X166041842Y-107421441D01*
X166041840Y-107421449D01*
X165980192Y-107740083D01*
X165979473Y-107743801D01*
X165979206Y-107747577D01*
X165979205Y-107747582D01*
X165956599Y-108066858D01*
X165956016Y-108075096D01*
X165972530Y-108406809D01*
X165973171Y-108410540D01*
X165973172Y-108410548D01*
X166017885Y-108670758D01*
X166028775Y-108734135D01*
X166029863Y-108737774D01*
X166029864Y-108737777D01*
X166113065Y-109015979D01*
X166123937Y-109052334D01*
X166125450Y-109055805D01*
X166125452Y-109055811D01*
X166139592Y-109088253D01*
X166256636Y-109356796D01*
X166258559Y-109360067D01*
X166258561Y-109360071D01*
X166423029Y-109639840D01*
X166423034Y-109639848D01*
X166424952Y-109643110D01*
X166427253Y-109646125D01*
X166622648Y-109902153D01*
X166626446Y-109907130D01*
X166629094Y-109909849D01*
X166629099Y-109909854D01*
X166829010Y-110115069D01*
X166858198Y-110145031D01*
X166861142Y-110147402D01*
X166861145Y-110147405D01*
X166992519Y-110253221D01*
X167116853Y-110353367D01*
X167120081Y-110355380D01*
X167393535Y-110525921D01*
X167398664Y-110529120D01*
X167699547Y-110669744D01*
X168015146Y-110773202D01*
X168340888Y-110837996D01*
X168344661Y-110838283D01*
X168344668Y-110838284D01*
X168668278Y-110862901D01*
X168668283Y-110862901D01*
X168672055Y-110863188D01*
X169003850Y-110848411D01*
X169331467Y-110793881D01*
X169335101Y-110792815D01*
X169335105Y-110792814D01*
X169477375Y-110751076D01*
X169650159Y-110700386D01*
X169955312Y-110569283D01*
X170242503Y-110402468D01*
X170507575Y-110202360D01*
X170598126Y-110115068D01*
X170661050Y-110082191D01*
X170731761Y-110088553D01*
X170787808Y-110132134D01*
X170811396Y-110199097D01*
X170807194Y-110238712D01*
X170682193Y-110700386D01*
X170543100Y-111214103D01*
X170541943Y-111218110D01*
X170277492Y-112080401D01*
X170207785Y-112307692D01*
X170206501Y-112311644D01*
X169912880Y-113166805D01*
X169836387Y-113389589D01*
X169834965Y-113393517D01*
X169429326Y-114458569D01*
X169427774Y-114462449D01*
X168987047Y-115513462D01*
X168985368Y-115517287D01*
X168510039Y-116553107D01*
X168508234Y-116556875D01*
X168270861Y-117031932D01*
X168006356Y-117561291D01*
X167998807Y-117576398D01*
X167996879Y-117580100D01*
X167563280Y-118380356D01*
X167453952Y-118582132D01*
X167451904Y-118585767D01*
X166950704Y-119441755D01*
X166876057Y-119569242D01*
X166873893Y-119572803D01*
X166872661Y-119574756D01*
X166819399Y-119621699D01*
X166749212Y-119632394D01*
X166684385Y-119603446D01*
X166645500Y-119544045D01*
X166640321Y-119515112D01*
X166626789Y-119290650D01*
X166626789Y-119290646D01*
X166626561Y-119286872D01*
X166625881Y-119283148D01*
X166567571Y-118963875D01*
X166567570Y-118963871D01*
X166566891Y-118960153D01*
X166558189Y-118932126D01*
X166469525Y-118646583D01*
X166468403Y-118642968D01*
X166457925Y-118619597D01*
X166364296Y-118410778D01*
X166332522Y-118339912D01*
X166161217Y-118055376D01*
X166158890Y-118052392D01*
X166158885Y-118052385D01*
X165959306Y-117796476D01*
X165959304Y-117796473D01*
X165956970Y-117793481D01*
X165722738Y-117558020D01*
X165701877Y-117541574D01*
X165464897Y-117354754D01*
X165461916Y-117352404D01*
X165178281Y-117179612D01*
X165047642Y-117120214D01*
X164879393Y-117043715D01*
X164879385Y-117043712D01*
X164875941Y-117042146D01*
X164559276Y-116941998D01*
X164414692Y-116914809D01*
X164236597Y-116881319D01*
X164236592Y-116881318D01*
X164232873Y-116880619D01*
X163901461Y-116858897D01*
X163897681Y-116859105D01*
X163897680Y-116859105D01*
X163802667Y-116864334D01*
X163569839Y-116877147D01*
X163566112Y-116877808D01*
X163566108Y-116877808D01*
X163307408Y-116923657D01*
X163242811Y-116935105D01*
X163239186Y-116936210D01*
X163239181Y-116936211D01*
X162992683Y-117011339D01*
X162925115Y-117031932D01*
X162621353Y-117166224D01*
X162335923Y-117336036D01*
X162332922Y-117338351D01*
X162332918Y-117338354D01*
X162296984Y-117366077D01*
X162072962Y-117538909D01*
X162070261Y-117541568D01*
X162070254Y-117541574D01*
X162012532Y-117598397D01*
X161836278Y-117771905D01*
X161629299Y-118031647D01*
X161455024Y-118314374D01*
X161315977Y-118615990D01*
X161214173Y-118932126D01*
X161213454Y-118935842D01*
X161213452Y-118935850D01*
X161160690Y-119208558D01*
X161151085Y-119258202D01*
X161150818Y-119261978D01*
X161150817Y-119261983D01*
X161127896Y-119585708D01*
X161127628Y-119589497D01*
X161129067Y-119618394D01*
X161140005Y-119838101D01*
X161144142Y-119921210D01*
X161144783Y-119924941D01*
X161144784Y-119924949D01*
X161174937Y-120100424D01*
X161200387Y-120248536D01*
X161295549Y-120566735D01*
X161297062Y-120570206D01*
X161297064Y-120570212D01*
X161358946Y-120712192D01*
X161428248Y-120871197D01*
X161430171Y-120874468D01*
X161430173Y-120874472D01*
X161594641Y-121154241D01*
X161594646Y-121154249D01*
X161596564Y-121157511D01*
X161798058Y-121421531D01*
X161800706Y-121424250D01*
X161800711Y-121424255D01*
X161952614Y-121580188D01*
X162029810Y-121659432D01*
X162032754Y-121661803D01*
X162032757Y-121661806D01*
X162061155Y-121684679D01*
X162288465Y-121867768D01*
X162291693Y-121869781D01*
X162509658Y-122005716D01*
X162570276Y-122043521D01*
X162871159Y-122184145D01*
X163186758Y-122287603D01*
X163512500Y-122352397D01*
X163516273Y-122352684D01*
X163516280Y-122352685D01*
X163839890Y-122377302D01*
X163839895Y-122377302D01*
X163843667Y-122377589D01*
X164175462Y-122362812D01*
X164503079Y-122308282D01*
X164506713Y-122307216D01*
X164506717Y-122307215D01*
X164808320Y-122218733D01*
X164809043Y-122218521D01*
X164880040Y-122218537D01*
X164939757Y-122256935D01*
X164969235Y-122321523D01*
X164959114Y-122391794D01*
X164943870Y-122416912D01*
X164392463Y-123123954D01*
X164247161Y-123310267D01*
X164244537Y-123313518D01*
X163514265Y-124188462D01*
X163511535Y-124191625D01*
X162752650Y-125041884D01*
X162749818Y-125044954D01*
X161998710Y-125832319D01*
X161963133Y-125869613D01*
X161960212Y-125872575D01*
X161146600Y-126670715D01*
X161143614Y-126673548D01*
X160839344Y-126952849D01*
X160304012Y-127444250D01*
X160300888Y-127447024D01*
X159436180Y-128189478D01*
X159432965Y-128192146D01*
X158544173Y-128905477D01*
X158540872Y-128908038D01*
X157818308Y-129449569D01*
X157751802Y-129474417D01*
X157682419Y-129459364D01*
X157632189Y-129409190D01*
X157617059Y-129339824D01*
X157623219Y-129308867D01*
X157630807Y-129286125D01*
X157685300Y-129122787D01*
X157751799Y-128797389D01*
X157778724Y-128466358D01*
X157779329Y-128408567D01*
X157768006Y-128220736D01*
X157759571Y-128080823D01*
X157759571Y-128080819D01*
X157759343Y-128077045D01*
X157756279Y-128060270D01*
X157700353Y-127754048D01*
X157700352Y-127754044D01*
X157699673Y-127750326D01*
X157690971Y-127722299D01*
X157636021Y-127545333D01*
X157601185Y-127433141D01*
X157590707Y-127409770D01*
X157466859Y-127133554D01*
X157465304Y-127130085D01*
X157293999Y-126845549D01*
X157291672Y-126842565D01*
X157291667Y-126842558D01*
X157092088Y-126586649D01*
X157092086Y-126586646D01*
X157089752Y-126583654D01*
X156855520Y-126348193D01*
X156834659Y-126331747D01*
X156597679Y-126144927D01*
X156594698Y-126142577D01*
X156311063Y-125969785D01*
X156097290Y-125872588D01*
X156012175Y-125833888D01*
X156012167Y-125833885D01*
X156008723Y-125832319D01*
X155692058Y-125732171D01*
X155507923Y-125697545D01*
X155369379Y-125671492D01*
X155369374Y-125671491D01*
X155365655Y-125670792D01*
X155034243Y-125649070D01*
X155030463Y-125649278D01*
X155030462Y-125649278D01*
X154935449Y-125654507D01*
X154702621Y-125667320D01*
X154698894Y-125667981D01*
X154698890Y-125667981D01*
X154515177Y-125700540D01*
X154375593Y-125725278D01*
X154371968Y-125726383D01*
X154371963Y-125726384D01*
X154131357Y-125799716D01*
X154057897Y-125822105D01*
X153754135Y-125956397D01*
X153468705Y-126126209D01*
X153465704Y-126128524D01*
X153465700Y-126128527D01*
X153382069Y-126193048D01*
X153205744Y-126329082D01*
X153203043Y-126331741D01*
X153203036Y-126331747D01*
X152971768Y-126559412D01*
X152969060Y-126562078D01*
X152966696Y-126565045D01*
X152966693Y-126565048D01*
X152864209Y-126693657D01*
X152762081Y-126821820D01*
X152587806Y-127104547D01*
X152448759Y-127406163D01*
X152346955Y-127722299D01*
X152346236Y-127726015D01*
X152346234Y-127726023D01*
X152313152Y-127897011D01*
X152283867Y-128048375D01*
X152283600Y-128052151D01*
X152283599Y-128052156D01*
X152265257Y-128311213D01*
X152260410Y-128379670D01*
X152276924Y-128711383D01*
X152277565Y-128715114D01*
X152277566Y-128715122D01*
X152321574Y-128971229D01*
X152333169Y-129038709D01*
X152334257Y-129042348D01*
X152334258Y-129042351D01*
X152423222Y-129339824D01*
X152428331Y-129356908D01*
X152429844Y-129360379D01*
X152429846Y-129360385D01*
X152494113Y-129507837D01*
X152561030Y-129661370D01*
X152562953Y-129664641D01*
X152562955Y-129664645D01*
X152727423Y-129944414D01*
X152727428Y-129944422D01*
X152729346Y-129947684D01*
X152731647Y-129950699D01*
X152904913Y-130177731D01*
X152930840Y-130211704D01*
X152933488Y-130214423D01*
X152933493Y-130214428D01*
X153159946Y-130446889D01*
X153162592Y-130449605D01*
X153165536Y-130451976D01*
X153165539Y-130451979D01*
X153317572Y-130574435D01*
X153421247Y-130657941D01*
X153424475Y-130659954D01*
X153645044Y-130797513D01*
X153703058Y-130833694D01*
X154003941Y-130974318D01*
X154090063Y-131002550D01*
X154306716Y-131073572D01*
X154319540Y-131077776D01*
X154323254Y-131078515D01*
X154323255Y-131078515D01*
X154350604Y-131083955D01*
X154645282Y-131142570D01*
X154649055Y-131142857D01*
X154649062Y-131142858D01*
X154737398Y-131149577D01*
X154819259Y-131155805D01*
X154885665Y-131180915D01*
X154927955Y-131237943D01*
X154932699Y-131308781D01*
X154898393Y-131370938D01*
X154874878Y-131389274D01*
X154753698Y-131462519D01*
X154750087Y-131464620D01*
X153755735Y-132021485D01*
X153752056Y-132023466D01*
X152739780Y-132547059D01*
X152736038Y-132548917D01*
X151706946Y-133038667D01*
X151703144Y-133040400D01*
X150658361Y-133495769D01*
X150654504Y-133497374D01*
X149595240Y-133917836D01*
X149591332Y-133919313D01*
X148518690Y-134304431D01*
X148514734Y-134305778D01*
X147429896Y-134655126D01*
X147425899Y-134656340D01*
X146330117Y-134969515D01*
X146326081Y-134970597D01*
X145684077Y-135131262D01*
X145613138Y-135128396D01*
X145555010Y-135087632D01*
X145528148Y-135021913D01*
X145541081Y-134952105D01*
X145555776Y-134929481D01*
X145702271Y-134749540D01*
X145702279Y-134749529D01*
X145704670Y-134746592D01*
X145706692Y-134743388D01*
X145879873Y-134468913D01*
X145879876Y-134468907D01*
X145881896Y-134465706D01*
X146024094Y-134165563D01*
X146129203Y-133850510D01*
X146195702Y-133525112D01*
X146222627Y-133194081D01*
X146223174Y-133141836D01*
X146223209Y-133138511D01*
X146223209Y-133138504D01*
X146223232Y-133136290D01*
X146219815Y-133079599D01*
X146203474Y-132808546D01*
X146203474Y-132808542D01*
X146203246Y-132804768D01*
X146202566Y-132801044D01*
X146144256Y-132481771D01*
X146144255Y-132481767D01*
X146143576Y-132478049D01*
X146134874Y-132450022D01*
X146046210Y-132164479D01*
X146045088Y-132160864D01*
X146034610Y-132137493D01*
X145910762Y-131861277D01*
X145909207Y-131857808D01*
X145737902Y-131573272D01*
X145735575Y-131570288D01*
X145735570Y-131570281D01*
X145535991Y-131314372D01*
X145535989Y-131314369D01*
X145533655Y-131311377D01*
X145299423Y-131075916D01*
X145278562Y-131059470D01*
X145041582Y-130872650D01*
X145038601Y-130870300D01*
X144754966Y-130697508D01*
X144616746Y-130634663D01*
X144456078Y-130561611D01*
X144456070Y-130561608D01*
X144452626Y-130560042D01*
X144135961Y-130459894D01*
X143991377Y-130432705D01*
X143813282Y-130399215D01*
X143813277Y-130399214D01*
X143809558Y-130398515D01*
X143478146Y-130376793D01*
X143474366Y-130377001D01*
X143474365Y-130377001D01*
X143379352Y-130382230D01*
X143146524Y-130395043D01*
X143142797Y-130395704D01*
X143142793Y-130395704D01*
X142884093Y-130441553D01*
X142819496Y-130453001D01*
X142815871Y-130454106D01*
X142815866Y-130454107D01*
X142569368Y-130529235D01*
X142501800Y-130549828D01*
X142198038Y-130684120D01*
X141912608Y-130853932D01*
X141909607Y-130856247D01*
X141909603Y-130856250D01*
X141795951Y-130943932D01*
X141649647Y-131056805D01*
X141646946Y-131059464D01*
X141646939Y-131059470D01*
X141468305Y-131235321D01*
X141412963Y-131289801D01*
X141410599Y-131292768D01*
X141410596Y-131292771D01*
X141275330Y-131462519D01*
X141205984Y-131549543D01*
X141031709Y-131832270D01*
X140892662Y-132133886D01*
X140820349Y-132358443D01*
X140799377Y-132423569D01*
X140790858Y-132450022D01*
X140790139Y-132453738D01*
X140790137Y-132453746D01*
X140728489Y-132772380D01*
X140727770Y-132776098D01*
X140727503Y-132779874D01*
X140727502Y-132779879D01*
X140708170Y-133052913D01*
X140704313Y-133107393D01*
X140706028Y-133141836D01*
X140719137Y-133405152D01*
X140720827Y-133439106D01*
X140721468Y-133442837D01*
X140721469Y-133442845D01*
X140767711Y-133711952D01*
X140777072Y-133766432D01*
X140778160Y-133770071D01*
X140778161Y-133770074D01*
X140822352Y-133917836D01*
X140872234Y-134084631D01*
X141004933Y-134389093D01*
X141006856Y-134392364D01*
X141006858Y-134392368D01*
X141171326Y-134672137D01*
X141171331Y-134672145D01*
X141173249Y-134675407D01*
X141175550Y-134678422D01*
X141349960Y-134906953D01*
X141374743Y-134939427D01*
X141377391Y-134942146D01*
X141377396Y-134942151D01*
X141569482Y-135139333D01*
X141606495Y-135177328D01*
X141609439Y-135179699D01*
X141609442Y-135179702D01*
X141684664Y-135240290D01*
X141865150Y-135385664D01*
X141868378Y-135387677D01*
X142113677Y-135540659D01*
X142146961Y-135561417D01*
X142150404Y-135563026D01*
X142177044Y-135575477D01*
X142230288Y-135622441D01*
X142249689Y-135690735D01*
X142229088Y-135758677D01*
X142175025Y-135804695D01*
X142141991Y-135814289D01*
X141844929Y-135857890D01*
X141840786Y-135858428D01*
X140708339Y-135986453D01*
X140704180Y-135986854D01*
X139768831Y-136061289D01*
X139568061Y-136077266D01*
X139563897Y-136077528D01*
X139463336Y-136082182D01*
X138425440Y-136130220D01*
X138421263Y-136130344D01*
X137281695Y-136145262D01*
X137277517Y-136145248D01*
X136202757Y-136123674D01*
X136138046Y-136122375D01*
X136133876Y-136122222D01*
X135993174Y-136114725D01*
X134995786Y-136061581D01*
X134991618Y-136061289D01*
X134553449Y-136023340D01*
X133856188Y-135962950D01*
X133852087Y-135962527D01*
X132720479Y-135826589D01*
X132716383Y-135826028D01*
X132439743Y-135783449D01*
X132295391Y-135761231D01*
X132231106Y-135731098D01*
X132193317Y-135670995D01*
X132194021Y-135600001D01*
X132232995Y-135540659D01*
X132251273Y-135527743D01*
X132505139Y-135380285D01*
X132770211Y-135180177D01*
X133009322Y-134949673D01*
X133020123Y-134936407D01*
X133216618Y-134695049D01*
X133216619Y-134695048D01*
X133219009Y-134692112D01*
X133227647Y-134678422D01*
X133394212Y-134414433D01*
X133394215Y-134414427D01*
X133396235Y-134411226D01*
X133538433Y-134111083D01*
X133643542Y-133796030D01*
X133710041Y-133470632D01*
X133736966Y-133139601D01*
X133737571Y-133081810D01*
X133735025Y-133039569D01*
X133717813Y-132754066D01*
X133717813Y-132754062D01*
X133717585Y-132750288D01*
X133716905Y-132746564D01*
X133658595Y-132427291D01*
X133658594Y-132427287D01*
X133657915Y-132423569D01*
X133649213Y-132395542D01*
X133576343Y-132160864D01*
X133559427Y-132106384D01*
X133548949Y-132083013D01*
X133469836Y-131906568D01*
X133423546Y-131803328D01*
X133252241Y-131518792D01*
X133249914Y-131515808D01*
X133249909Y-131515801D01*
X133050330Y-131259892D01*
X133050328Y-131259889D01*
X133047994Y-131256897D01*
X132813762Y-131021436D01*
X132802576Y-131012617D01*
X132555921Y-130818170D01*
X132552940Y-130815820D01*
X132269305Y-130643028D01*
X132090238Y-130561611D01*
X131970417Y-130507131D01*
X131970409Y-130507128D01*
X131966965Y-130505562D01*
X131650300Y-130405414D01*
X131498098Y-130376793D01*
X131327621Y-130344735D01*
X131327616Y-130344734D01*
X131323897Y-130344035D01*
X130992485Y-130322313D01*
X130988705Y-130322521D01*
X130988704Y-130322521D01*
X130893691Y-130327750D01*
X130660863Y-130340563D01*
X130657136Y-130341224D01*
X130657132Y-130341224D01*
X130455036Y-130377041D01*
X130333835Y-130398521D01*
X130330210Y-130399626D01*
X130330205Y-130399627D01*
X130134766Y-130459193D01*
X130016139Y-130495348D01*
X129712377Y-130629640D01*
X129426947Y-130799452D01*
X129423946Y-130801767D01*
X129423942Y-130801770D01*
X129358844Y-130851993D01*
X129163986Y-131002325D01*
X129161285Y-131004984D01*
X129161278Y-131004990D01*
X128983790Y-131179713D01*
X128927302Y-131235321D01*
X128924938Y-131238288D01*
X128924935Y-131238291D01*
X128819234Y-131370938D01*
X128720323Y-131495063D01*
X128546048Y-131777790D01*
X128407001Y-132079406D01*
X128305197Y-132395542D01*
X128304478Y-132399258D01*
X128304476Y-132399266D01*
X128242828Y-132717900D01*
X128242109Y-132721618D01*
X128241842Y-132725394D01*
X128241841Y-132725399D01*
X128219597Y-133039569D01*
X128218652Y-133052913D01*
X128235166Y-133384626D01*
X128235807Y-133388357D01*
X128235808Y-133388365D01*
X128259945Y-133528829D01*
X128291411Y-133711952D01*
X128292499Y-133715591D01*
X128292500Y-133715594D01*
X128352984Y-133917836D01*
X128386573Y-134030151D01*
X128388086Y-134033622D01*
X128388088Y-134033628D01*
X128410318Y-134084631D01*
X128519272Y-134334613D01*
X128521195Y-134337884D01*
X128521197Y-134337888D01*
X128685665Y-134617657D01*
X128685670Y-134617665D01*
X128687588Y-134620927D01*
X128689889Y-134623942D01*
X128848254Y-134831450D01*
X128873681Y-134897737D01*
X128859234Y-134967248D01*
X128809500Y-135017914D01*
X128740269Y-135033649D01*
X128716650Y-135029906D01*
X128414729Y-134952105D01*
X128241552Y-134907480D01*
X128237526Y-134906371D01*
X127575449Y-134712139D01*
X127143884Y-134585532D01*
X127139933Y-134584301D01*
X126314856Y-134312231D01*
X126057559Y-134227387D01*
X126053614Y-134226013D01*
X125509926Y-134026514D01*
X124983676Y-133833413D01*
X124979814Y-133831923D01*
X123923444Y-133404049D01*
X123919627Y-133402428D01*
X122878075Y-132939788D01*
X122874285Y-132938029D01*
X121848626Y-132441101D01*
X121844897Y-132439217D01*
X120836311Y-131908574D01*
X120832646Y-131906568D01*
X119842184Y-131342764D01*
X119838588Y-131340637D01*
X119662309Y-131232402D01*
X119614723Y-131179713D01*
X119603177Y-131109662D01*
X119631337Y-131044489D01*
X119690262Y-131004886D01*
X119722630Y-130999152D01*
X119736897Y-130998516D01*
X119752086Y-130997840D01*
X120079703Y-130943310D01*
X120083337Y-130942244D01*
X120083341Y-130942243D01*
X120320558Y-130872650D01*
X120398395Y-130849815D01*
X120440604Y-130831681D01*
X120700068Y-130720207D01*
X120703548Y-130718712D01*
X120990739Y-130551897D01*
X121255811Y-130351789D01*
X121494922Y-130121285D01*
X121610382Y-129979465D01*
X121702218Y-129866661D01*
X121702219Y-129866660D01*
X121704609Y-129863724D01*
X121773419Y-129754667D01*
X121879812Y-129586045D01*
X121879815Y-129586039D01*
X121881835Y-129582838D01*
X122024033Y-129282695D01*
X122129142Y-128967642D01*
X122195641Y-128642244D01*
X122197573Y-128618497D01*
X135394637Y-128618497D01*
X135394881Y-128622932D01*
X135394881Y-128622936D01*
X135409019Y-128879819D01*
X135410205Y-128901370D01*
X135424101Y-128971229D01*
X135454248Y-129122787D01*
X135465474Y-129179226D01*
X135466950Y-129183429D01*
X135501810Y-129282695D01*
X135559342Y-129446524D01*
X135561395Y-129450477D01*
X135561398Y-129450483D01*
X135628371Y-129579410D01*
X135689936Y-129697928D01*
X135692519Y-129701543D01*
X135692523Y-129701549D01*
X135704726Y-129718625D01*
X135854651Y-129928424D01*
X135857729Y-129931651D01*
X135857731Y-129931653D01*
X135931658Y-130009148D01*
X136050199Y-130133412D01*
X136272680Y-130308801D01*
X136382927Y-130372837D01*
X136513807Y-130448859D01*
X136513813Y-130448862D01*
X136517654Y-130451093D01*
X136521777Y-130452763D01*
X136771233Y-130553803D01*
X136780232Y-130557448D01*
X136784545Y-130558519D01*
X136784550Y-130558521D01*
X137050856Y-130624672D01*
X137050861Y-130624673D01*
X137055177Y-130625745D01*
X137059605Y-130626199D01*
X137059607Y-130626199D01*
X137112137Y-130631581D01*
X137296790Y-130650500D01*
X137472170Y-130650500D01*
X137682593Y-130635601D01*
X137686948Y-130634663D01*
X137686951Y-130634663D01*
X137955200Y-130576911D01*
X137955202Y-130576911D01*
X137959547Y-130575975D01*
X138225337Y-130477920D01*
X138373715Y-130397860D01*
X138470744Y-130345506D01*
X138474660Y-130343393D01*
X138702540Y-130175078D01*
X138904430Y-129976334D01*
X138907131Y-129972794D01*
X138907137Y-129972788D01*
X139073602Y-129754667D01*
X139073605Y-129754663D01*
X139076304Y-129751126D01*
X139124735Y-129664645D01*
X139212552Y-129507837D01*
X139212555Y-129507832D01*
X139214730Y-129503947D01*
X139226155Y-129474417D01*
X139315341Y-129243885D01*
X139315343Y-129243879D01*
X139316948Y-129239730D01*
X139380918Y-128963747D01*
X139405363Y-128681503D01*
X139403407Y-128645961D01*
X139390040Y-128403073D01*
X139390039Y-128403066D01*
X139389795Y-128398630D01*
X139348723Y-128192146D01*
X139335396Y-128125146D01*
X139335395Y-128125141D01*
X139334526Y-128120774D01*
X139313279Y-128060270D01*
X139242136Y-127857684D01*
X139242135Y-127857681D01*
X139240658Y-127853476D01*
X139238605Y-127849523D01*
X139238602Y-127849517D01*
X139112116Y-127606023D01*
X139110064Y-127602072D01*
X139107481Y-127598457D01*
X139107477Y-127598451D01*
X138999265Y-127447024D01*
X138945349Y-127371576D01*
X138903028Y-127327212D01*
X138752876Y-127169811D01*
X138752873Y-127169808D01*
X138749801Y-127166588D01*
X138527320Y-126991199D01*
X138329214Y-126876130D01*
X138286193Y-126851141D01*
X138286187Y-126851138D01*
X138282346Y-126848907D01*
X138278223Y-126847237D01*
X138023894Y-126744223D01*
X138023891Y-126744222D01*
X138019768Y-126742552D01*
X138015455Y-126741481D01*
X138015450Y-126741479D01*
X137749144Y-126675328D01*
X137749139Y-126675327D01*
X137744823Y-126674255D01*
X137740395Y-126673801D01*
X137740393Y-126673801D01*
X137645552Y-126664084D01*
X137503210Y-126649500D01*
X137327830Y-126649500D01*
X137117407Y-126664399D01*
X137113052Y-126665337D01*
X137113049Y-126665337D01*
X136844800Y-126723089D01*
X136844798Y-126723089D01*
X136840453Y-126724025D01*
X136574663Y-126822080D01*
X136325340Y-126956607D01*
X136097460Y-127124922D01*
X135895570Y-127323666D01*
X135892869Y-127327206D01*
X135892863Y-127327212D01*
X135726398Y-127545333D01*
X135723696Y-127548874D01*
X135721521Y-127552758D01*
X135608794Y-127754048D01*
X135585270Y-127796053D01*
X135583662Y-127800211D01*
X135583659Y-127800216D01*
X135486191Y-128052156D01*
X135483052Y-128060270D01*
X135419082Y-128336253D01*
X135394637Y-128618497D01*
X122197573Y-128618497D01*
X122222566Y-128311213D01*
X122223171Y-128253422D01*
X122215175Y-128120774D01*
X122203413Y-127925678D01*
X122203413Y-127925674D01*
X122203185Y-127921900D01*
X122202505Y-127918176D01*
X122144195Y-127598903D01*
X122144194Y-127598899D01*
X122143515Y-127595181D01*
X122134813Y-127567154D01*
X122097511Y-127447024D01*
X122045027Y-127277996D01*
X122034549Y-127254625D01*
X121940554Y-127044990D01*
X121909146Y-126974940D01*
X121737841Y-126690404D01*
X121735514Y-126687420D01*
X121735509Y-126687413D01*
X121535930Y-126431504D01*
X121535928Y-126431501D01*
X121533594Y-126428509D01*
X121299362Y-126193048D01*
X121278501Y-126176602D01*
X121041521Y-125989782D01*
X121038540Y-125987432D01*
X120754905Y-125814640D01*
X120576045Y-125733317D01*
X120456017Y-125678743D01*
X120456009Y-125678740D01*
X120452565Y-125677174D01*
X120135900Y-125577026D01*
X119991316Y-125549837D01*
X119813221Y-125516347D01*
X119813216Y-125516346D01*
X119809497Y-125515647D01*
X119478085Y-125493925D01*
X119474305Y-125494133D01*
X119474304Y-125494133D01*
X119379291Y-125499362D01*
X119146463Y-125512175D01*
X119142736Y-125512836D01*
X119142732Y-125512836D01*
X118884032Y-125558685D01*
X118819435Y-125570133D01*
X118815810Y-125571238D01*
X118815805Y-125571239D01*
X118569307Y-125646367D01*
X118501739Y-125666960D01*
X118197977Y-125801252D01*
X118083072Y-125869613D01*
X117933938Y-125958338D01*
X117912547Y-125971064D01*
X117649586Y-126173937D01*
X117646885Y-126176596D01*
X117646878Y-126176602D01*
X117469843Y-126350879D01*
X117412902Y-126406933D01*
X117410538Y-126409900D01*
X117410535Y-126409903D01*
X117286906Y-126565048D01*
X117205923Y-126666675D01*
X117031648Y-126949402D01*
X116892601Y-127251018D01*
X116842640Y-127406163D01*
X116796684Y-127548874D01*
X116790797Y-127567154D01*
X116790078Y-127570870D01*
X116790076Y-127570878D01*
X116754637Y-127754048D01*
X116727709Y-127893230D01*
X116727442Y-127897006D01*
X116727441Y-127897011D01*
X116704520Y-128220736D01*
X116704252Y-128224525D01*
X116704441Y-128228317D01*
X116712165Y-128383462D01*
X116720766Y-128556238D01*
X116721407Y-128559969D01*
X116721408Y-128559977D01*
X116761553Y-128793602D01*
X116777011Y-128883564D01*
X116778099Y-128887203D01*
X116778100Y-128887206D01*
X116826618Y-129049438D01*
X116826973Y-129120434D01*
X116788888Y-129180351D01*
X116724456Y-129210166D01*
X116654132Y-129200414D01*
X116629634Y-129185836D01*
X116069346Y-128759783D01*
X116066063Y-128757199D01*
X115973085Y-128681503D01*
X115182256Y-128037668D01*
X115179062Y-128034978D01*
X114681938Y-127602072D01*
X114319588Y-127286531D01*
X114316488Y-127283740D01*
X114285211Y-127254625D01*
X113482273Y-126507182D01*
X113479268Y-126504290D01*
X112671299Y-125700540D01*
X112668386Y-125697545D01*
X111887492Y-124867430D01*
X111884680Y-124864340D01*
X111586852Y-124525925D01*
X111131732Y-124008785D01*
X111129026Y-124005605D01*
X110404867Y-123125566D01*
X110402266Y-123122296D01*
X109707685Y-122218733D01*
X109705195Y-122215380D01*
X109697480Y-122204624D01*
X109674030Y-122137613D01*
X109690532Y-122068560D01*
X109741746Y-122019391D01*
X109811413Y-122005716D01*
X109839113Y-122011454D01*
X109973209Y-122055413D01*
X110298951Y-122120207D01*
X110302724Y-122120494D01*
X110302731Y-122120495D01*
X110626341Y-122145112D01*
X110626346Y-122145112D01*
X110630118Y-122145399D01*
X110961913Y-122130622D01*
X111289530Y-122076092D01*
X111293164Y-122075026D01*
X111293168Y-122075025D01*
X111435438Y-122033287D01*
X111608222Y-121982597D01*
X111913375Y-121851494D01*
X112200566Y-121684679D01*
X112465638Y-121484571D01*
X112704749Y-121254067D01*
X112914436Y-120996506D01*
X112991434Y-120874472D01*
X113089639Y-120718827D01*
X113089642Y-120718821D01*
X113091662Y-120715620D01*
X113233860Y-120415477D01*
X113338969Y-120100424D01*
X113405468Y-119775026D01*
X113432393Y-119443995D01*
X113432998Y-119386204D01*
X113431712Y-119364862D01*
X113413240Y-119058460D01*
X113413240Y-119058456D01*
X113413012Y-119054682D01*
X113412332Y-119050958D01*
X113354022Y-118731685D01*
X113354021Y-118731681D01*
X113353342Y-118727963D01*
X113344640Y-118699936D01*
X113308631Y-118583970D01*
X113254854Y-118410778D01*
X113244376Y-118387407D01*
X113120528Y-118111191D01*
X113118973Y-118107722D01*
X112947668Y-117823186D01*
X112945341Y-117820202D01*
X112945336Y-117820195D01*
X112745757Y-117564286D01*
X112745755Y-117564283D01*
X112743421Y-117561291D01*
X112509189Y-117325830D01*
X112488328Y-117309384D01*
X112251348Y-117122564D01*
X112248367Y-117120214D01*
X111964732Y-116947422D01*
X111844117Y-116892582D01*
X111665844Y-116811525D01*
X111665836Y-116811522D01*
X111662392Y-116809956D01*
X111345727Y-116709808D01*
X111201143Y-116682619D01*
X111023048Y-116649129D01*
X111023043Y-116649128D01*
X111019324Y-116648429D01*
X110687912Y-116626707D01*
X110684132Y-116626915D01*
X110684131Y-116626915D01*
X110589118Y-116632144D01*
X110356290Y-116644957D01*
X110352563Y-116645618D01*
X110352559Y-116645618D01*
X110093859Y-116691467D01*
X110029262Y-116702915D01*
X110025637Y-116704020D01*
X110025632Y-116704021D01*
X109785846Y-116777103D01*
X109711566Y-116799742D01*
X109407804Y-116934034D01*
X109122374Y-117103846D01*
X109119373Y-117106161D01*
X109119369Y-117106164D01*
X109026197Y-117178046D01*
X108859413Y-117306719D01*
X108856712Y-117309378D01*
X108856705Y-117309384D01*
X108625437Y-117537049D01*
X108622729Y-117539715D01*
X108620365Y-117542682D01*
X108620362Y-117542685D01*
X108422660Y-117790786D01*
X108415750Y-117799457D01*
X108241475Y-118082184D01*
X108102428Y-118383800D01*
X108000624Y-118699936D01*
X107999905Y-118703652D01*
X107999903Y-118703660D01*
X107950278Y-118960153D01*
X107937536Y-119026012D01*
X107937269Y-119029788D01*
X107937268Y-119029793D01*
X107930294Y-119128298D01*
X107905531Y-119194836D01*
X107848726Y-119237423D01*
X107777914Y-119242539D01*
X107715577Y-119208558D01*
X107695435Y-119182304D01*
X107382683Y-118639510D01*
X107230596Y-118375555D01*
X107228580Y-118371918D01*
X106692639Y-117366077D01*
X106690736Y-117362358D01*
X106188462Y-116339352D01*
X106186683Y-116335572D01*
X105818073Y-115517287D01*
X105718581Y-115296423D01*
X105716939Y-115292610D01*
X105375619Y-114462449D01*
X105283545Y-114238506D01*
X105282029Y-114234637D01*
X104883845Y-113166805D01*
X104882450Y-113162867D01*
X104649453Y-112468529D01*
X104519864Y-112082348D01*
X104518608Y-112078386D01*
X104192070Y-110986513D01*
X104190939Y-110982491D01*
X103944730Y-110047327D01*
X103946729Y-109976358D01*
X103986780Y-109917737D01*
X104052165Y-109890074D01*
X104122127Y-109902153D01*
X104145616Y-109917119D01*
X104347193Y-110079481D01*
X104447944Y-110142315D01*
X104601510Y-110238087D01*
X104629004Y-110255234D01*
X104929887Y-110395858D01*
X105245486Y-110499316D01*
X105571228Y-110564110D01*
X105575001Y-110564397D01*
X105575008Y-110564398D01*
X105898618Y-110589015D01*
X105898623Y-110589015D01*
X105902395Y-110589302D01*
X106234190Y-110574525D01*
X106561807Y-110519995D01*
X106565441Y-110518929D01*
X106565445Y-110518928D01*
X106713795Y-110475406D01*
X106880499Y-110426500D01*
X106936436Y-110402468D01*
X107182172Y-110296892D01*
X107185652Y-110295397D01*
X107472843Y-110128582D01*
X107737915Y-109928474D01*
X107977026Y-109697970D01*
X107992547Y-109678906D01*
X108184322Y-109443346D01*
X108184323Y-109443345D01*
X108186713Y-109440409D01*
X108239469Y-109356796D01*
X108267905Y-109311728D01*
X128122216Y-109311728D01*
X128149108Y-109533953D01*
X128214928Y-109747904D01*
X128217498Y-109752884D01*
X128217500Y-109752888D01*
X128298516Y-109909854D01*
X128317595Y-109946818D01*
X128453864Y-110124407D01*
X128460547Y-110130488D01*
X128615281Y-110271285D01*
X128615284Y-110271287D01*
X128619428Y-110275058D01*
X128624180Y-110278039D01*
X128804297Y-110391027D01*
X128804301Y-110391029D01*
X128809053Y-110394010D01*
X129016746Y-110477502D01*
X129235941Y-110522895D01*
X129240552Y-110523161D01*
X129240553Y-110523161D01*
X129290918Y-110526065D01*
X129290922Y-110526065D01*
X129292741Y-110526170D01*
X130186750Y-110526170D01*
X130189537Y-110525921D01*
X130189543Y-110525921D01*
X130258769Y-110519742D01*
X130352914Y-110511340D01*
X130568827Y-110452273D01*
X130573885Y-110449861D01*
X130573889Y-110449859D01*
X130765800Y-110358322D01*
X130765801Y-110358321D01*
X130770867Y-110355905D01*
X130775429Y-110352627D01*
X130948089Y-110228558D01*
X130948091Y-110228556D01*
X130952649Y-110225281D01*
X131091990Y-110081494D01*
X131104524Y-110068560D01*
X131104526Y-110068557D01*
X131108427Y-110064532D01*
X131190874Y-109941837D01*
X131230150Y-109883389D01*
X131230153Y-109883384D01*
X131233276Y-109878736D01*
X131323250Y-109673769D01*
X131332980Y-109633244D01*
X131374196Y-109461564D01*
X131374196Y-109461563D01*
X131375506Y-109456107D01*
X131383831Y-109311728D01*
X131388069Y-109238239D01*
X131388069Y-109238236D01*
X131388392Y-109232632D01*
X131361500Y-109010407D01*
X131295680Y-108796456D01*
X131193013Y-108597542D01*
X131056744Y-108419953D01*
X130992933Y-108361889D01*
X130895327Y-108273075D01*
X130895324Y-108273073D01*
X130891180Y-108269302D01*
X130886428Y-108266321D01*
X130706311Y-108153333D01*
X130706307Y-108153331D01*
X130701555Y-108150350D01*
X130624991Y-108119571D01*
X130569249Y-108075607D01*
X130546124Y-108008482D01*
X130562961Y-107939511D01*
X130617746Y-107888940D01*
X130765800Y-107818322D01*
X130765801Y-107818321D01*
X130770867Y-107815905D01*
X130775429Y-107812627D01*
X130948089Y-107688558D01*
X130948091Y-107688556D01*
X130952649Y-107685281D01*
X131108427Y-107524532D01*
X131161365Y-107445752D01*
X131230150Y-107343389D01*
X131230153Y-107343384D01*
X131233276Y-107338736D01*
X131323250Y-107133769D01*
X131338324Y-107070984D01*
X131374196Y-106921564D01*
X131374196Y-106921563D01*
X131375506Y-106916107D01*
X131383831Y-106771728D01*
X131388069Y-106698239D01*
X131388069Y-106698236D01*
X131388392Y-106692632D01*
X131361500Y-106470407D01*
X131295680Y-106256456D01*
X131193013Y-106057542D01*
X131056744Y-105879953D01*
X130990522Y-105819696D01*
X130895327Y-105733075D01*
X130895324Y-105733073D01*
X130891180Y-105729302D01*
X130802848Y-105673891D01*
X130706311Y-105613333D01*
X130706307Y-105613331D01*
X130701555Y-105610350D01*
X130624991Y-105579571D01*
X130569249Y-105535607D01*
X130546124Y-105468482D01*
X130562961Y-105399511D01*
X130617746Y-105348940D01*
X130765800Y-105278322D01*
X130765801Y-105278321D01*
X130770867Y-105275905D01*
X130813620Y-105245184D01*
X130948089Y-105148558D01*
X130948091Y-105148556D01*
X130952649Y-105145281D01*
X131108427Y-104984532D01*
X131190874Y-104861837D01*
X131230150Y-104803389D01*
X131230153Y-104803384D01*
X131233276Y-104798736D01*
X131323250Y-104593769D01*
X131341291Y-104518626D01*
X131374196Y-104381564D01*
X131374196Y-104381563D01*
X131375506Y-104376107D01*
X131383831Y-104231728D01*
X131388069Y-104158239D01*
X131388069Y-104158236D01*
X131388392Y-104152632D01*
X131361500Y-103930407D01*
X131295680Y-103716456D01*
X131261469Y-103650172D01*
X131195584Y-103522523D01*
X131195583Y-103522522D01*
X131193013Y-103517542D01*
X131056744Y-103339953D01*
X130992933Y-103281889D01*
X130895327Y-103193075D01*
X130895324Y-103193073D01*
X130891180Y-103189302D01*
X130863512Y-103171946D01*
X130706311Y-103073333D01*
X130706307Y-103073331D01*
X130701555Y-103070350D01*
X130624991Y-103039571D01*
X130569249Y-102995607D01*
X130546124Y-102928482D01*
X130562961Y-102859511D01*
X130617746Y-102808940D01*
X130765800Y-102738322D01*
X130765801Y-102738321D01*
X130770867Y-102735905D01*
X130775429Y-102732627D01*
X130948089Y-102608558D01*
X130948091Y-102608556D01*
X130952649Y-102605281D01*
X131108427Y-102444532D01*
X131190874Y-102321837D01*
X131230150Y-102263389D01*
X131230153Y-102263384D01*
X131233276Y-102258736D01*
X131323250Y-102053769D01*
X131344863Y-101963747D01*
X131374196Y-101841564D01*
X131374196Y-101841563D01*
X131375506Y-101836107D01*
X131383831Y-101691728D01*
X131388069Y-101618239D01*
X131388069Y-101618236D01*
X131388392Y-101612632D01*
X131361500Y-101390407D01*
X131295680Y-101176456D01*
X131266941Y-101120774D01*
X131195584Y-100982523D01*
X131195583Y-100982522D01*
X131193013Y-100977542D01*
X131056744Y-100799953D01*
X130992933Y-100741889D01*
X130895327Y-100653075D01*
X130895324Y-100653073D01*
X130891180Y-100649302D01*
X130822188Y-100606023D01*
X130706311Y-100533333D01*
X130706307Y-100533331D01*
X130701555Y-100530350D01*
X130624991Y-100499571D01*
X130569249Y-100455607D01*
X130546124Y-100388482D01*
X130562961Y-100319511D01*
X130617746Y-100268940D01*
X130765800Y-100198322D01*
X130765801Y-100198321D01*
X130770867Y-100195905D01*
X130815501Y-100163832D01*
X130948089Y-100068558D01*
X130948091Y-100068556D01*
X130952649Y-100065281D01*
X131055398Y-99959253D01*
X131104524Y-99908560D01*
X131104526Y-99908557D01*
X131108427Y-99904532D01*
X131216150Y-99744223D01*
X131230150Y-99723389D01*
X131230153Y-99723384D01*
X131233276Y-99718736D01*
X131323250Y-99513769D01*
X131375506Y-99296107D01*
X131383831Y-99151728D01*
X131388069Y-99078239D01*
X131388069Y-99078236D01*
X131388392Y-99072632D01*
X131361500Y-98850407D01*
X131295680Y-98636456D01*
X131236346Y-98521497D01*
X131195584Y-98442523D01*
X131195583Y-98442522D01*
X131193013Y-98437542D01*
X131056744Y-98259953D01*
X130961036Y-98172866D01*
X130895327Y-98113075D01*
X130895324Y-98113073D01*
X130891180Y-98109302D01*
X130858599Y-98088864D01*
X130706311Y-97993333D01*
X130706307Y-97993331D01*
X130701555Y-97990350D01*
X130624991Y-97959571D01*
X130569249Y-97915607D01*
X130546124Y-97848482D01*
X130562961Y-97779511D01*
X130617746Y-97728940D01*
X130765800Y-97658322D01*
X130765801Y-97658321D01*
X130770867Y-97655905D01*
X130879229Y-97578039D01*
X130948089Y-97528558D01*
X130948091Y-97528556D01*
X130952649Y-97525281D01*
X131085331Y-97388365D01*
X131104524Y-97368560D01*
X131104526Y-97368557D01*
X131108427Y-97364532D01*
X131190874Y-97241837D01*
X131230150Y-97183389D01*
X131230153Y-97183384D01*
X131233276Y-97178736D01*
X131323250Y-96973769D01*
X131327112Y-96957685D01*
X131354575Y-96843294D01*
X143194635Y-96843294D01*
X143196673Y-96860907D01*
X143198635Y-96870815D01*
X143261928Y-97094489D01*
X143265442Y-97103940D01*
X143363690Y-97314633D01*
X143368669Y-97323397D01*
X143499332Y-97515661D01*
X143505664Y-97523536D01*
X143665375Y-97692426D01*
X143672884Y-97699187D01*
X143857550Y-97840375D01*
X143866029Y-97845839D01*
X143933104Y-97881804D01*
X143983687Y-97931622D01*
X143999307Y-98000879D01*
X143975003Y-98067586D01*
X143947091Y-98095169D01*
X143858151Y-98159079D01*
X143804227Y-98214724D01*
X143733663Y-98287540D01*
X143702373Y-98319828D01*
X143673418Y-98362918D01*
X143580650Y-98500971D01*
X143580647Y-98500976D01*
X143577524Y-98505624D01*
X143487550Y-98710591D01*
X143435294Y-98928253D01*
X143434971Y-98933858D01*
X143426646Y-99078239D01*
X143422408Y-99151728D01*
X143449300Y-99373953D01*
X143515120Y-99587904D01*
X143517690Y-99592884D01*
X143517692Y-99592888D01*
X143595802Y-99744223D01*
X143617787Y-99786818D01*
X143754056Y-99964407D01*
X143758205Y-99968182D01*
X143915473Y-100111285D01*
X143915476Y-100111287D01*
X143919620Y-100115058D01*
X143924372Y-100118039D01*
X144104489Y-100231027D01*
X144104493Y-100231029D01*
X144109245Y-100234010D01*
X144185809Y-100264789D01*
X144241551Y-100308753D01*
X144264676Y-100375878D01*
X144247839Y-100444849D01*
X144193054Y-100495420D01*
X144124202Y-100528261D01*
X144039933Y-100568455D01*
X144035372Y-100571732D01*
X144035371Y-100571733D01*
X143927423Y-100649302D01*
X143858151Y-100699079D01*
X143854246Y-100703109D01*
X143708529Y-100853476D01*
X143702373Y-100859828D01*
X143699246Y-100864482D01*
X143580650Y-101040971D01*
X143580647Y-101040976D01*
X143577524Y-101045624D01*
X143487550Y-101250591D01*
X143486241Y-101256042D01*
X143486240Y-101256046D01*
X143455270Y-101385045D01*
X143435294Y-101468253D01*
X143434971Y-101473858D01*
X143422998Y-101681503D01*
X143422408Y-101691728D01*
X143449300Y-101913953D01*
X143515120Y-102127904D01*
X143517690Y-102132884D01*
X143517692Y-102132888D01*
X143574982Y-102243885D01*
X143617787Y-102326818D01*
X143754056Y-102504407D01*
X143758205Y-102508182D01*
X143915473Y-102651285D01*
X143915476Y-102651287D01*
X143919620Y-102655058D01*
X143924372Y-102658039D01*
X144104489Y-102771027D01*
X144104493Y-102771029D01*
X144109245Y-102774010D01*
X144185809Y-102804789D01*
X144241551Y-102848753D01*
X144264676Y-102915878D01*
X144247839Y-102984849D01*
X144193054Y-103035420D01*
X144064769Y-103096609D01*
X144039933Y-103108455D01*
X144035372Y-103111732D01*
X144035371Y-103111733D01*
X143927423Y-103189302D01*
X143858151Y-103239079D01*
X143854246Y-103243109D01*
X143740770Y-103360206D01*
X143702373Y-103399828D01*
X143699246Y-103404482D01*
X143580650Y-103580971D01*
X143580647Y-103580976D01*
X143577524Y-103585624D01*
X143487550Y-103790591D01*
X143435294Y-104008253D01*
X143434971Y-104013858D01*
X143426646Y-104158239D01*
X143422408Y-104231728D01*
X143449300Y-104453953D01*
X143515120Y-104667904D01*
X143617787Y-104866818D01*
X143754056Y-105044407D01*
X143802681Y-105088652D01*
X143915473Y-105191285D01*
X143915476Y-105191287D01*
X143919620Y-105195058D01*
X143924372Y-105198039D01*
X144104489Y-105311027D01*
X144104493Y-105311029D01*
X144109245Y-105314010D01*
X144185809Y-105344789D01*
X144241551Y-105388753D01*
X144264676Y-105455878D01*
X144247839Y-105524849D01*
X144193054Y-105575420D01*
X144124202Y-105608261D01*
X144039933Y-105648455D01*
X144035372Y-105651732D01*
X144035371Y-105651733D01*
X143927423Y-105729302D01*
X143858151Y-105779079D01*
X143702373Y-105939828D01*
X143699246Y-105944482D01*
X143580650Y-106120971D01*
X143580647Y-106120976D01*
X143577524Y-106125624D01*
X143487550Y-106330591D01*
X143486241Y-106336042D01*
X143486240Y-106336046D01*
X143439788Y-106529534D01*
X143435294Y-106548253D01*
X143433875Y-106572857D01*
X143426646Y-106698239D01*
X143422408Y-106771728D01*
X143449300Y-106993953D01*
X143515120Y-107207904D01*
X143617787Y-107406818D01*
X143754056Y-107584407D01*
X143758205Y-107588182D01*
X143915473Y-107731285D01*
X143915476Y-107731287D01*
X143919620Y-107735058D01*
X143924372Y-107738039D01*
X144104489Y-107851027D01*
X144104493Y-107851029D01*
X144109245Y-107854010D01*
X144185809Y-107884789D01*
X144241551Y-107928753D01*
X144264676Y-107995878D01*
X144247839Y-108064849D01*
X144193054Y-108115420D01*
X144124202Y-108148261D01*
X144039933Y-108188455D01*
X144035372Y-108191732D01*
X144035371Y-108191733D01*
X143927423Y-108269302D01*
X143858151Y-108319079D01*
X143854246Y-108323109D01*
X143769511Y-108410548D01*
X143702373Y-108479828D01*
X143699246Y-108484482D01*
X143580650Y-108660971D01*
X143580647Y-108660976D01*
X143577524Y-108665624D01*
X143487550Y-108870591D01*
X143486241Y-108876042D01*
X143486240Y-108876046D01*
X143436604Y-109082796D01*
X143435294Y-109088253D01*
X143431382Y-109156095D01*
X143426646Y-109238239D01*
X143422408Y-109311728D01*
X143449300Y-109533953D01*
X143515120Y-109747904D01*
X143517690Y-109752884D01*
X143517692Y-109752888D01*
X143598708Y-109909854D01*
X143617787Y-109946818D01*
X143754056Y-110124407D01*
X143760739Y-110130488D01*
X143915473Y-110271285D01*
X143915476Y-110271287D01*
X143919620Y-110275058D01*
X143924372Y-110278039D01*
X144104489Y-110391027D01*
X144104493Y-110391029D01*
X144109245Y-110394010D01*
X144316938Y-110477502D01*
X144536133Y-110522895D01*
X144540744Y-110523161D01*
X144540745Y-110523161D01*
X144591110Y-110526065D01*
X144591114Y-110526065D01*
X144592933Y-110526170D01*
X145486942Y-110526170D01*
X145489729Y-110525921D01*
X145489735Y-110525921D01*
X145558961Y-110519742D01*
X145653106Y-110511340D01*
X145869019Y-110452273D01*
X145874077Y-110449861D01*
X145874081Y-110449859D01*
X146065992Y-110358322D01*
X146065993Y-110358321D01*
X146071059Y-110355905D01*
X146075621Y-110352627D01*
X146248281Y-110228558D01*
X146248283Y-110228556D01*
X146252841Y-110225281D01*
X146392182Y-110081494D01*
X146404716Y-110068560D01*
X146404718Y-110068557D01*
X146408619Y-110064532D01*
X146491066Y-109941837D01*
X146530342Y-109883389D01*
X146530345Y-109883384D01*
X146533468Y-109878736D01*
X146623442Y-109673769D01*
X146633172Y-109633244D01*
X146674388Y-109461564D01*
X146674388Y-109461563D01*
X146675698Y-109456107D01*
X146684023Y-109311728D01*
X146688261Y-109238239D01*
X146688261Y-109238236D01*
X146688584Y-109232632D01*
X146661692Y-109010407D01*
X146595872Y-108796456D01*
X146493205Y-108597542D01*
X146356936Y-108419953D01*
X146293125Y-108361889D01*
X146195519Y-108273075D01*
X146195516Y-108273073D01*
X146191372Y-108269302D01*
X146186620Y-108266321D01*
X146006503Y-108153333D01*
X146006499Y-108153331D01*
X146001747Y-108150350D01*
X145925183Y-108119571D01*
X145869441Y-108075607D01*
X145846316Y-108008482D01*
X145863153Y-107939511D01*
X145917938Y-107888940D01*
X146065992Y-107818322D01*
X146065993Y-107818321D01*
X146071059Y-107815905D01*
X146075621Y-107812627D01*
X146248281Y-107688558D01*
X146248283Y-107688556D01*
X146252841Y-107685281D01*
X146408619Y-107524532D01*
X146461557Y-107445752D01*
X146530342Y-107343389D01*
X146530345Y-107343384D01*
X146533468Y-107338736D01*
X146623442Y-107133769D01*
X146638516Y-107070984D01*
X146674388Y-106921564D01*
X146674388Y-106921563D01*
X146675698Y-106916107D01*
X146684023Y-106771728D01*
X146688261Y-106698239D01*
X146688261Y-106698236D01*
X146688584Y-106692632D01*
X146661692Y-106470407D01*
X146595872Y-106256456D01*
X146493205Y-106057542D01*
X146356936Y-105879953D01*
X146290714Y-105819696D01*
X146195519Y-105733075D01*
X146195516Y-105733073D01*
X146191372Y-105729302D01*
X146103040Y-105673891D01*
X146006503Y-105613333D01*
X146006499Y-105613331D01*
X146001747Y-105610350D01*
X145925183Y-105579571D01*
X145869441Y-105535607D01*
X145846316Y-105468482D01*
X145863153Y-105399511D01*
X145917938Y-105348940D01*
X146065992Y-105278322D01*
X146065993Y-105278321D01*
X146071059Y-105275905D01*
X146113812Y-105245184D01*
X146248281Y-105148558D01*
X146248283Y-105148556D01*
X146252841Y-105145281D01*
X146408619Y-104984532D01*
X146491066Y-104861837D01*
X146530342Y-104803389D01*
X146530345Y-104803384D01*
X146533468Y-104798736D01*
X146623442Y-104593769D01*
X146641483Y-104518626D01*
X146674388Y-104381564D01*
X146674388Y-104381563D01*
X146675698Y-104376107D01*
X146684023Y-104231728D01*
X146688261Y-104158239D01*
X146688261Y-104158236D01*
X146688584Y-104152632D01*
X146661692Y-103930407D01*
X146595872Y-103716456D01*
X146561661Y-103650172D01*
X146495776Y-103522523D01*
X146495775Y-103522522D01*
X146493205Y-103517542D01*
X146356936Y-103339953D01*
X146293125Y-103281889D01*
X146195519Y-103193075D01*
X146195516Y-103193073D01*
X146191372Y-103189302D01*
X146163704Y-103171946D01*
X146006503Y-103073333D01*
X146006499Y-103073331D01*
X146001747Y-103070350D01*
X145925183Y-103039571D01*
X145869441Y-102995607D01*
X145846316Y-102928482D01*
X145863153Y-102859511D01*
X145917938Y-102808940D01*
X146065992Y-102738322D01*
X146065993Y-102738321D01*
X146071059Y-102735905D01*
X146075621Y-102732627D01*
X146248281Y-102608558D01*
X146248283Y-102608556D01*
X146252841Y-102605281D01*
X146408619Y-102444532D01*
X146491066Y-102321837D01*
X146530342Y-102263389D01*
X146530345Y-102263384D01*
X146533468Y-102258736D01*
X146623442Y-102053769D01*
X146645055Y-101963747D01*
X146674388Y-101841564D01*
X146674388Y-101841563D01*
X146675698Y-101836107D01*
X146684023Y-101691728D01*
X146688246Y-101618497D01*
X162394637Y-101618497D01*
X162394881Y-101622932D01*
X162394881Y-101622936D01*
X162406914Y-101841564D01*
X162410205Y-101901370D01*
X162465474Y-102179226D01*
X162466950Y-102183429D01*
X162488181Y-102243885D01*
X162559342Y-102446524D01*
X162561395Y-102450477D01*
X162561398Y-102450483D01*
X162635360Y-102592865D01*
X162689936Y-102697928D01*
X162692519Y-102701543D01*
X162692523Y-102701549D01*
X162718802Y-102738322D01*
X162854651Y-102928424D01*
X162857729Y-102931651D01*
X162857731Y-102931653D01*
X163033632Y-103116045D01*
X163050199Y-103133412D01*
X163272680Y-103308801D01*
X163361180Y-103360206D01*
X163513807Y-103448859D01*
X163513813Y-103448862D01*
X163517654Y-103451093D01*
X163521777Y-103452763D01*
X163681709Y-103517542D01*
X163780232Y-103557448D01*
X163784545Y-103558519D01*
X163784550Y-103558521D01*
X164050856Y-103624672D01*
X164050861Y-103624673D01*
X164055177Y-103625745D01*
X164059605Y-103626199D01*
X164059607Y-103626199D01*
X164135307Y-103633955D01*
X164296790Y-103650500D01*
X164472170Y-103650500D01*
X164682593Y-103635601D01*
X164686948Y-103634663D01*
X164686951Y-103634663D01*
X164955200Y-103576911D01*
X164955202Y-103576911D01*
X164959547Y-103575975D01*
X165225337Y-103477920D01*
X165474660Y-103343393D01*
X165702540Y-103175078D01*
X165762508Y-103116045D01*
X165901249Y-102979465D01*
X165904430Y-102976334D01*
X165907131Y-102972794D01*
X165907137Y-102972788D01*
X166073602Y-102754667D01*
X166073605Y-102754663D01*
X166076304Y-102751126D01*
X166132217Y-102651285D01*
X166212552Y-102507837D01*
X166212555Y-102507832D01*
X166214730Y-102503947D01*
X166236946Y-102446524D01*
X166315341Y-102243885D01*
X166315343Y-102243879D01*
X166316948Y-102239730D01*
X166380918Y-101963747D01*
X166405363Y-101681503D01*
X166403715Y-101651557D01*
X166390040Y-101403073D01*
X166390039Y-101403066D01*
X166389795Y-101398630D01*
X166359326Y-101245454D01*
X166335396Y-101125146D01*
X166335395Y-101125141D01*
X166334526Y-101120774D01*
X166313279Y-101060270D01*
X166242136Y-100857684D01*
X166242135Y-100857681D01*
X166240658Y-100853476D01*
X166238605Y-100849523D01*
X166238602Y-100849517D01*
X166134598Y-100649302D01*
X166110064Y-100602072D01*
X166107481Y-100598457D01*
X166107477Y-100598451D01*
X165999146Y-100446858D01*
X165945349Y-100371576D01*
X165903028Y-100327212D01*
X165752876Y-100169811D01*
X165752873Y-100169808D01*
X165749801Y-100166588D01*
X165527320Y-99991199D01*
X165417073Y-99927163D01*
X165286193Y-99851141D01*
X165286187Y-99851138D01*
X165282346Y-99848907D01*
X165019768Y-99742552D01*
X165015455Y-99741481D01*
X165015450Y-99741479D01*
X164749144Y-99675328D01*
X164749139Y-99675327D01*
X164744823Y-99674255D01*
X164740395Y-99673801D01*
X164740393Y-99673801D01*
X164648627Y-99664399D01*
X164503210Y-99649500D01*
X164327830Y-99649500D01*
X164117407Y-99664399D01*
X164113052Y-99665337D01*
X164113049Y-99665337D01*
X163844800Y-99723089D01*
X163844798Y-99723089D01*
X163840453Y-99724025D01*
X163574663Y-99822080D01*
X163325340Y-99956607D01*
X163097460Y-100124922D01*
X162895570Y-100323666D01*
X162892869Y-100327206D01*
X162892863Y-100327212D01*
X162726398Y-100545333D01*
X162723696Y-100548874D01*
X162695932Y-100598451D01*
X162639578Y-100699079D01*
X162585270Y-100796053D01*
X162583662Y-100800211D01*
X162583659Y-100800216D01*
X162484659Y-101056115D01*
X162483052Y-101060270D01*
X162419082Y-101336253D01*
X162394637Y-101618497D01*
X146688246Y-101618497D01*
X146688261Y-101618239D01*
X146688261Y-101618236D01*
X146688584Y-101612632D01*
X146661692Y-101390407D01*
X146595872Y-101176456D01*
X146567133Y-101120774D01*
X146495776Y-100982523D01*
X146495775Y-100982522D01*
X146493205Y-100977542D01*
X146356936Y-100799953D01*
X146293125Y-100741889D01*
X146195519Y-100653075D01*
X146195516Y-100653073D01*
X146191372Y-100649302D01*
X146122380Y-100606023D01*
X146006503Y-100533333D01*
X146006499Y-100533331D01*
X146001747Y-100530350D01*
X145925183Y-100499571D01*
X145869441Y-100455607D01*
X145846316Y-100388482D01*
X145863153Y-100319511D01*
X145917938Y-100268940D01*
X146065992Y-100198322D01*
X146065993Y-100198321D01*
X146071059Y-100195905D01*
X146115693Y-100163832D01*
X146248281Y-100068558D01*
X146248283Y-100068556D01*
X146252841Y-100065281D01*
X146355590Y-99959253D01*
X146404716Y-99908560D01*
X146404718Y-99908557D01*
X146408619Y-99904532D01*
X146516342Y-99744223D01*
X146530342Y-99723389D01*
X146530345Y-99723384D01*
X146533468Y-99718736D01*
X146623442Y-99513769D01*
X146675698Y-99296107D01*
X146684023Y-99151728D01*
X146688261Y-99078239D01*
X146688261Y-99078236D01*
X146688584Y-99072632D01*
X146661692Y-98850407D01*
X146595872Y-98636456D01*
X146536538Y-98521497D01*
X146495776Y-98442523D01*
X146495775Y-98442522D01*
X146493205Y-98437542D01*
X146356936Y-98259953D01*
X146261228Y-98172866D01*
X146195519Y-98113075D01*
X146195516Y-98113073D01*
X146191372Y-98109302D01*
X146174280Y-98098580D01*
X146127203Y-98045436D01*
X146116332Y-97975276D01*
X146145118Y-97910377D01*
X146174096Y-97885224D01*
X146331824Y-97785897D01*
X146339900Y-97779856D01*
X146514278Y-97626121D01*
X146521281Y-97618869D01*
X146668835Y-97439234D01*
X146674589Y-97430956D01*
X146791528Y-97230035D01*
X146795885Y-97220940D01*
X146879195Y-97003912D01*
X146882042Y-96994240D01*
X146913446Y-96843916D01*
X146912323Y-96829855D01*
X146902215Y-96826180D01*
X143210770Y-96826180D01*
X143196684Y-96830316D01*
X143194635Y-96843294D01*
X131354575Y-96843294D01*
X131374196Y-96761564D01*
X131374196Y-96761563D01*
X131375506Y-96756107D01*
X131381276Y-96656038D01*
X131388069Y-96538239D01*
X131388069Y-96538236D01*
X131388392Y-96532632D01*
X131361500Y-96310407D01*
X131358435Y-96300444D01*
X143197546Y-96300444D01*
X143198669Y-96314505D01*
X143208777Y-96318180D01*
X146900222Y-96318180D01*
X146914308Y-96314044D01*
X146916357Y-96301066D01*
X146914319Y-96283453D01*
X146912357Y-96273545D01*
X146849064Y-96049871D01*
X146845550Y-96040420D01*
X146747302Y-95829727D01*
X146742323Y-95820963D01*
X146611660Y-95628699D01*
X146605328Y-95620824D01*
X146445617Y-95451934D01*
X146438108Y-95445173D01*
X146253442Y-95303985D01*
X146244963Y-95298521D01*
X146177888Y-95262556D01*
X146127305Y-95212738D01*
X146111685Y-95143481D01*
X146135989Y-95076774D01*
X146163902Y-95049190D01*
X146252841Y-94985281D01*
X146408619Y-94824532D01*
X146491066Y-94701837D01*
X146530342Y-94643389D01*
X146530345Y-94643384D01*
X146533468Y-94638736D01*
X146623442Y-94433769D01*
X146652122Y-94314311D01*
X146674388Y-94221564D01*
X146674388Y-94221563D01*
X146675698Y-94216107D01*
X146684156Y-94069433D01*
X146688261Y-93998239D01*
X146688261Y-93998236D01*
X146688584Y-93992632D01*
X146661692Y-93770407D01*
X146595872Y-93556456D01*
X146588159Y-93541511D01*
X146495776Y-93362523D01*
X146495775Y-93362522D01*
X146493205Y-93357542D01*
X146356936Y-93179953D01*
X146293125Y-93121889D01*
X146195519Y-93033075D01*
X146195516Y-93033073D01*
X146191372Y-93029302D01*
X146067717Y-92951733D01*
X146006503Y-92913333D01*
X146006499Y-92913331D01*
X146001747Y-92910350D01*
X145794054Y-92826858D01*
X145574859Y-92781465D01*
X145570248Y-92781199D01*
X145570247Y-92781199D01*
X145519882Y-92778295D01*
X145519878Y-92778295D01*
X145518059Y-92778190D01*
X144624050Y-92778190D01*
X144621263Y-92778439D01*
X144621257Y-92778439D01*
X144552031Y-92784618D01*
X144457886Y-92793020D01*
X144241973Y-92852087D01*
X144236915Y-92854499D01*
X144236911Y-92854501D01*
X144045000Y-92946038D01*
X144039933Y-92948455D01*
X144035372Y-92951732D01*
X144035371Y-92951733D01*
X143878571Y-93064406D01*
X143858151Y-93079079D01*
X143854246Y-93083109D01*
X143762306Y-93177983D01*
X143702373Y-93239828D01*
X143670838Y-93286758D01*
X143580650Y-93420971D01*
X143580647Y-93420976D01*
X143577524Y-93425624D01*
X143487550Y-93630591D01*
X143486241Y-93636042D01*
X143486240Y-93636046D01*
X143452645Y-93775979D01*
X143435294Y-93848253D01*
X143430247Y-93935780D01*
X143423355Y-94055313D01*
X143422408Y-94071728D01*
X143449300Y-94293953D01*
X143515120Y-94507904D01*
X143517690Y-94512884D01*
X143517692Y-94512888D01*
X143572736Y-94619534D01*
X143617787Y-94706818D01*
X143754056Y-94884407D01*
X143810522Y-94935787D01*
X143915473Y-95031285D01*
X143915476Y-95031287D01*
X143919620Y-95035058D01*
X143932376Y-95043060D01*
X143936712Y-95045780D01*
X143983789Y-95098924D01*
X143994660Y-95169084D01*
X143965874Y-95233983D01*
X143936896Y-95259136D01*
X143779168Y-95358463D01*
X143771092Y-95364504D01*
X143596714Y-95518239D01*
X143589711Y-95525491D01*
X143442157Y-95705126D01*
X143436403Y-95713404D01*
X143319464Y-95914325D01*
X143315107Y-95923420D01*
X143231797Y-96140448D01*
X143228950Y-96150120D01*
X143197546Y-96300444D01*
X131358435Y-96300444D01*
X131295680Y-96096456D01*
X131276176Y-96058666D01*
X131195584Y-95902523D01*
X131195583Y-95902522D01*
X131193013Y-95897542D01*
X131056744Y-95719953D01*
X130956457Y-95628699D01*
X130895327Y-95573075D01*
X130895324Y-95573073D01*
X130891180Y-95569302D01*
X130767525Y-95491733D01*
X130706311Y-95453333D01*
X130706307Y-95453331D01*
X130701555Y-95450350D01*
X130624991Y-95419571D01*
X130569249Y-95375607D01*
X130546124Y-95308482D01*
X130562961Y-95239511D01*
X130617746Y-95188940D01*
X130765800Y-95118322D01*
X130765801Y-95118321D01*
X130770867Y-95115905D01*
X130775429Y-95112627D01*
X130948089Y-94988558D01*
X130948091Y-94988556D01*
X130952649Y-94985281D01*
X131108427Y-94824532D01*
X131190874Y-94701837D01*
X131230150Y-94643389D01*
X131230153Y-94643384D01*
X131233276Y-94638736D01*
X131323250Y-94433769D01*
X131351930Y-94314311D01*
X131374196Y-94221564D01*
X131374196Y-94221563D01*
X131375506Y-94216107D01*
X131383964Y-94069433D01*
X131388069Y-93998239D01*
X131388069Y-93998236D01*
X131388392Y-93992632D01*
X131361500Y-93770407D01*
X131295680Y-93556456D01*
X131287967Y-93541511D01*
X131195584Y-93362523D01*
X131195583Y-93362522D01*
X131193013Y-93357542D01*
X131056744Y-93179953D01*
X130992933Y-93121889D01*
X130895327Y-93033075D01*
X130895324Y-93033073D01*
X130891180Y-93029302D01*
X130767525Y-92951733D01*
X130706311Y-92913333D01*
X130706307Y-92913331D01*
X130701555Y-92910350D01*
X130493862Y-92826858D01*
X130274667Y-92781465D01*
X130270056Y-92781199D01*
X130270055Y-92781199D01*
X130219690Y-92778295D01*
X130219686Y-92778295D01*
X130217867Y-92778190D01*
X129323858Y-92778190D01*
X129321071Y-92778439D01*
X129321065Y-92778439D01*
X129251839Y-92784618D01*
X129157694Y-92793020D01*
X128941781Y-92852087D01*
X128936723Y-92854499D01*
X128936719Y-92854501D01*
X128744808Y-92946038D01*
X128739741Y-92948455D01*
X128735180Y-92951732D01*
X128735179Y-92951733D01*
X128578379Y-93064406D01*
X128557959Y-93079079D01*
X128554054Y-93083109D01*
X128462114Y-93177983D01*
X128402181Y-93239828D01*
X128370646Y-93286758D01*
X128280458Y-93420971D01*
X128280455Y-93420976D01*
X128277332Y-93425624D01*
X128187358Y-93630591D01*
X128186049Y-93636042D01*
X128186048Y-93636046D01*
X128152453Y-93775979D01*
X128135102Y-93848253D01*
X128130055Y-93935780D01*
X128123163Y-94055313D01*
X128122216Y-94071728D01*
X128149108Y-94293953D01*
X128214928Y-94507904D01*
X128217498Y-94512884D01*
X128217500Y-94512888D01*
X128272544Y-94619534D01*
X128317595Y-94706818D01*
X128453864Y-94884407D01*
X128510330Y-94935787D01*
X128615281Y-95031285D01*
X128615284Y-95031287D01*
X128619428Y-95035058D01*
X128624179Y-95038038D01*
X128624180Y-95038039D01*
X128804297Y-95151027D01*
X128804301Y-95151029D01*
X128809053Y-95154010D01*
X128885617Y-95184789D01*
X128941359Y-95228753D01*
X128964484Y-95295878D01*
X128947647Y-95364849D01*
X128892862Y-95415420D01*
X128824010Y-95448261D01*
X128739741Y-95488455D01*
X128735180Y-95491732D01*
X128735179Y-95491733D01*
X128627231Y-95569302D01*
X128557959Y-95619079D01*
X128402181Y-95779828D01*
X128359056Y-95844005D01*
X128280458Y-95960971D01*
X128280455Y-95960976D01*
X128277332Y-95965624D01*
X128187358Y-96170591D01*
X128186049Y-96176042D01*
X128186048Y-96176046D01*
X128162641Y-96273545D01*
X128135102Y-96388253D01*
X128134779Y-96393858D01*
X128124614Y-96570149D01*
X128122216Y-96611728D01*
X128149108Y-96833953D01*
X128214928Y-97047904D01*
X128217498Y-97052884D01*
X128217500Y-97052888D01*
X128301144Y-97214945D01*
X128317595Y-97246818D01*
X128453864Y-97424407D01*
X128470159Y-97439234D01*
X128615281Y-97571285D01*
X128615284Y-97571287D01*
X128619428Y-97575058D01*
X128624180Y-97578039D01*
X128804297Y-97691027D01*
X128804301Y-97691029D01*
X128809053Y-97694010D01*
X128885617Y-97724789D01*
X128941359Y-97768753D01*
X128964484Y-97835878D01*
X128947647Y-97904849D01*
X128892862Y-97955420D01*
X128769221Y-98014394D01*
X128739741Y-98028455D01*
X128735180Y-98031732D01*
X128735179Y-98031733D01*
X128627231Y-98109302D01*
X128557959Y-98159079D01*
X128504035Y-98214724D01*
X128433471Y-98287540D01*
X128402181Y-98319828D01*
X128373226Y-98362918D01*
X128280458Y-98500971D01*
X128280455Y-98500976D01*
X128277332Y-98505624D01*
X128187358Y-98710591D01*
X128135102Y-98928253D01*
X128134779Y-98933858D01*
X128126454Y-99078239D01*
X128122216Y-99151728D01*
X128149108Y-99373953D01*
X128214928Y-99587904D01*
X128217498Y-99592884D01*
X128217500Y-99592888D01*
X128295610Y-99744223D01*
X128317595Y-99786818D01*
X128453864Y-99964407D01*
X128458013Y-99968182D01*
X128615281Y-100111285D01*
X128615284Y-100111287D01*
X128619428Y-100115058D01*
X128624180Y-100118039D01*
X128804297Y-100231027D01*
X128804301Y-100231029D01*
X128809053Y-100234010D01*
X128885617Y-100264789D01*
X128941359Y-100308753D01*
X128964484Y-100375878D01*
X128947647Y-100444849D01*
X128892862Y-100495420D01*
X128824010Y-100528261D01*
X128739741Y-100568455D01*
X128735180Y-100571732D01*
X128735179Y-100571733D01*
X128627231Y-100649302D01*
X128557959Y-100699079D01*
X128554054Y-100703109D01*
X128408337Y-100853476D01*
X128402181Y-100859828D01*
X128399054Y-100864482D01*
X128280458Y-101040971D01*
X128280455Y-101040976D01*
X128277332Y-101045624D01*
X128187358Y-101250591D01*
X128186049Y-101256042D01*
X128186048Y-101256046D01*
X128155078Y-101385045D01*
X128135102Y-101468253D01*
X128134779Y-101473858D01*
X128122806Y-101681503D01*
X128122216Y-101691728D01*
X128149108Y-101913953D01*
X128214928Y-102127904D01*
X128217498Y-102132884D01*
X128217500Y-102132888D01*
X128274790Y-102243885D01*
X128317595Y-102326818D01*
X128453864Y-102504407D01*
X128458013Y-102508182D01*
X128615281Y-102651285D01*
X128615284Y-102651287D01*
X128619428Y-102655058D01*
X128624180Y-102658039D01*
X128804297Y-102771027D01*
X128804301Y-102771029D01*
X128809053Y-102774010D01*
X128885617Y-102804789D01*
X128941359Y-102848753D01*
X128964484Y-102915878D01*
X128947647Y-102984849D01*
X128892862Y-103035420D01*
X128764577Y-103096609D01*
X128739741Y-103108455D01*
X128735180Y-103111732D01*
X128735179Y-103111733D01*
X128627231Y-103189302D01*
X128557959Y-103239079D01*
X128554054Y-103243109D01*
X128440578Y-103360206D01*
X128402181Y-103399828D01*
X128399054Y-103404482D01*
X128280458Y-103580971D01*
X128280455Y-103580976D01*
X128277332Y-103585624D01*
X128187358Y-103790591D01*
X128135102Y-104008253D01*
X128134779Y-104013858D01*
X128126454Y-104158239D01*
X128122216Y-104231728D01*
X128149108Y-104453953D01*
X128214928Y-104667904D01*
X128317595Y-104866818D01*
X128453864Y-105044407D01*
X128502489Y-105088652D01*
X128615281Y-105191285D01*
X128615284Y-105191287D01*
X128619428Y-105195058D01*
X128624180Y-105198039D01*
X128804297Y-105311027D01*
X128804301Y-105311029D01*
X128809053Y-105314010D01*
X128885617Y-105344789D01*
X128941359Y-105388753D01*
X128964484Y-105455878D01*
X128947647Y-105524849D01*
X128892862Y-105575420D01*
X128824010Y-105608261D01*
X128739741Y-105648455D01*
X128735180Y-105651732D01*
X128735179Y-105651733D01*
X128627231Y-105729302D01*
X128557959Y-105779079D01*
X128402181Y-105939828D01*
X128399054Y-105944482D01*
X128280458Y-106120971D01*
X128280455Y-106120976D01*
X128277332Y-106125624D01*
X128187358Y-106330591D01*
X128186049Y-106336042D01*
X128186048Y-106336046D01*
X128139596Y-106529534D01*
X128135102Y-106548253D01*
X128133683Y-106572857D01*
X128126454Y-106698239D01*
X128122216Y-106771728D01*
X128149108Y-106993953D01*
X128214928Y-107207904D01*
X128317595Y-107406818D01*
X128453864Y-107584407D01*
X128458013Y-107588182D01*
X128615281Y-107731285D01*
X128615284Y-107731287D01*
X128619428Y-107735058D01*
X128624180Y-107738039D01*
X128804297Y-107851027D01*
X128804301Y-107851029D01*
X128809053Y-107854010D01*
X128885617Y-107884789D01*
X128941359Y-107928753D01*
X128964484Y-107995878D01*
X128947647Y-108064849D01*
X128892862Y-108115420D01*
X128824010Y-108148261D01*
X128739741Y-108188455D01*
X128735180Y-108191732D01*
X128735179Y-108191733D01*
X128627231Y-108269302D01*
X128557959Y-108319079D01*
X128554054Y-108323109D01*
X128469319Y-108410548D01*
X128402181Y-108479828D01*
X128399054Y-108484482D01*
X128280458Y-108660971D01*
X128280455Y-108660976D01*
X128277332Y-108665624D01*
X128187358Y-108870591D01*
X128186049Y-108876042D01*
X128186048Y-108876046D01*
X128136412Y-109082796D01*
X128135102Y-109088253D01*
X128131190Y-109156095D01*
X128126454Y-109238239D01*
X128122216Y-109311728D01*
X108267905Y-109311728D01*
X108361916Y-109162730D01*
X108361919Y-109162724D01*
X108363939Y-109159523D01*
X108506137Y-108859380D01*
X108611246Y-108544327D01*
X108677745Y-108218929D01*
X108704670Y-107887898D01*
X108705275Y-107830107D01*
X108699318Y-107731285D01*
X108685517Y-107502363D01*
X108685517Y-107502359D01*
X108685289Y-107498585D01*
X108656095Y-107338736D01*
X108626299Y-107175588D01*
X108626298Y-107175584D01*
X108625619Y-107171866D01*
X108612175Y-107128567D01*
X108563432Y-106971590D01*
X108527131Y-106854681D01*
X108515608Y-106828980D01*
X108433612Y-106646105D01*
X108391250Y-106551625D01*
X108219945Y-106267089D01*
X108217618Y-106264105D01*
X108217613Y-106264098D01*
X108018034Y-106008189D01*
X108018032Y-106008186D01*
X108015698Y-106005194D01*
X107781466Y-105769733D01*
X107760605Y-105753287D01*
X107523625Y-105566467D01*
X107520644Y-105564117D01*
X107237009Y-105391325D01*
X107116394Y-105336485D01*
X106938121Y-105255428D01*
X106938113Y-105255425D01*
X106934669Y-105253859D01*
X106618004Y-105153711D01*
X106473420Y-105126522D01*
X106295325Y-105093032D01*
X106295320Y-105093031D01*
X106291601Y-105092332D01*
X105960189Y-105070610D01*
X105956409Y-105070818D01*
X105956408Y-105070818D01*
X105861395Y-105076047D01*
X105628567Y-105088860D01*
X105624840Y-105089521D01*
X105624836Y-105089521D01*
X105366136Y-105135370D01*
X105301539Y-105146818D01*
X105297914Y-105147923D01*
X105297909Y-105147924D01*
X105143260Y-105195058D01*
X104983843Y-105243645D01*
X104680081Y-105377937D01*
X104394651Y-105547749D01*
X104391650Y-105550064D01*
X104391646Y-105550067D01*
X104309642Y-105613333D01*
X104131690Y-105750622D01*
X104128989Y-105753281D01*
X104128982Y-105753287D01*
X103995790Y-105884404D01*
X103895006Y-105983618D01*
X103892642Y-105986585D01*
X103892639Y-105986588D01*
X103777755Y-106130758D01*
X103688027Y-106243360D01*
X103513752Y-106526087D01*
X103500950Y-106553858D01*
X103492191Y-106572857D01*
X103445507Y-106626346D01*
X103377316Y-106646105D01*
X103309267Y-106625860D01*
X103262965Y-106572039D01*
X103253334Y-106539926D01*
X103248966Y-106512503D01*
X103248377Y-106508366D01*
X103108055Y-105389759D01*
X103106524Y-105377555D01*
X103106073Y-105373403D01*
X103105390Y-105365970D01*
X103001792Y-104238518D01*
X103001479Y-104234366D01*
X103000997Y-104226121D01*
X102934880Y-103096599D01*
X102934705Y-103092434D01*
X102931677Y-102972788D01*
X102925680Y-102735905D01*
X102905866Y-101953101D01*
X102905830Y-101948923D01*
X102908425Y-101618497D01*
X108394637Y-101618497D01*
X108394881Y-101622932D01*
X108394881Y-101622936D01*
X108406914Y-101841564D01*
X108410205Y-101901370D01*
X108465474Y-102179226D01*
X108466950Y-102183429D01*
X108488181Y-102243885D01*
X108559342Y-102446524D01*
X108561395Y-102450477D01*
X108561398Y-102450483D01*
X108635360Y-102592865D01*
X108689936Y-102697928D01*
X108692519Y-102701543D01*
X108692523Y-102701549D01*
X108718802Y-102738322D01*
X108854651Y-102928424D01*
X108857729Y-102931651D01*
X108857731Y-102931653D01*
X109033632Y-103116045D01*
X109050199Y-103133412D01*
X109272680Y-103308801D01*
X109361180Y-103360206D01*
X109513807Y-103448859D01*
X109513813Y-103448862D01*
X109517654Y-103451093D01*
X109521777Y-103452763D01*
X109681709Y-103517542D01*
X109780232Y-103557448D01*
X109784545Y-103558519D01*
X109784550Y-103558521D01*
X110050856Y-103624672D01*
X110050861Y-103624673D01*
X110055177Y-103625745D01*
X110059605Y-103626199D01*
X110059607Y-103626199D01*
X110135307Y-103633955D01*
X110296790Y-103650500D01*
X110472170Y-103650500D01*
X110682593Y-103635601D01*
X110686948Y-103634663D01*
X110686951Y-103634663D01*
X110955200Y-103576911D01*
X110955202Y-103576911D01*
X110959547Y-103575975D01*
X111225337Y-103477920D01*
X111474660Y-103343393D01*
X111702540Y-103175078D01*
X111762508Y-103116045D01*
X111901249Y-102979465D01*
X111904430Y-102976334D01*
X111907131Y-102972794D01*
X111907137Y-102972788D01*
X112073602Y-102754667D01*
X112073605Y-102754663D01*
X112076304Y-102751126D01*
X112132217Y-102651285D01*
X112212552Y-102507837D01*
X112212555Y-102507832D01*
X112214730Y-102503947D01*
X112236946Y-102446524D01*
X112315341Y-102243885D01*
X112315343Y-102243879D01*
X112316948Y-102239730D01*
X112380918Y-101963747D01*
X112405363Y-101681503D01*
X112403715Y-101651557D01*
X112390040Y-101403073D01*
X112390039Y-101403066D01*
X112389795Y-101398630D01*
X112359326Y-101245454D01*
X112335396Y-101125146D01*
X112335395Y-101125141D01*
X112334526Y-101120774D01*
X112313279Y-101060270D01*
X112242136Y-100857684D01*
X112242135Y-100857681D01*
X112240658Y-100853476D01*
X112238605Y-100849523D01*
X112238602Y-100849517D01*
X112134598Y-100649302D01*
X112110064Y-100602072D01*
X112107481Y-100598457D01*
X112107477Y-100598451D01*
X111999146Y-100446858D01*
X111945349Y-100371576D01*
X111903028Y-100327212D01*
X111752876Y-100169811D01*
X111752873Y-100169808D01*
X111749801Y-100166588D01*
X111527320Y-99991199D01*
X111417073Y-99927163D01*
X111286193Y-99851141D01*
X111286187Y-99851138D01*
X111282346Y-99848907D01*
X111019768Y-99742552D01*
X111015455Y-99741481D01*
X111015450Y-99741479D01*
X110749144Y-99675328D01*
X110749139Y-99675327D01*
X110744823Y-99674255D01*
X110740395Y-99673801D01*
X110740393Y-99673801D01*
X110648627Y-99664399D01*
X110503210Y-99649500D01*
X110327830Y-99649500D01*
X110117407Y-99664399D01*
X110113052Y-99665337D01*
X110113049Y-99665337D01*
X109844800Y-99723089D01*
X109844798Y-99723089D01*
X109840453Y-99724025D01*
X109574663Y-99822080D01*
X109325340Y-99956607D01*
X109097460Y-100124922D01*
X108895570Y-100323666D01*
X108892869Y-100327206D01*
X108892863Y-100327212D01*
X108726398Y-100545333D01*
X108723696Y-100548874D01*
X108695932Y-100598451D01*
X108639578Y-100699079D01*
X108585270Y-100796053D01*
X108583662Y-100800211D01*
X108583659Y-100800216D01*
X108484659Y-101056115D01*
X108483052Y-101060270D01*
X108419082Y-101336253D01*
X108394637Y-101618497D01*
X102908425Y-101618497D01*
X102914781Y-100809292D01*
X102914883Y-100805116D01*
X102961614Y-99666404D01*
X102961854Y-99662232D01*
X103046316Y-98525658D01*
X103046695Y-98521497D01*
X103148354Y-97578039D01*
X103168792Y-97388363D01*
X103169309Y-97384219D01*
X103192402Y-97220940D01*
X103282161Y-96586285D01*
X103311505Y-96521638D01*
X103371143Y-96483117D01*
X103442139Y-96482954D01*
X103501953Y-96521200D01*
X103522424Y-96553587D01*
X103539934Y-96593760D01*
X103541455Y-96597249D01*
X103543378Y-96600520D01*
X103543380Y-96600524D01*
X103707848Y-96880293D01*
X103707853Y-96880301D01*
X103709771Y-96883563D01*
X103712072Y-96886578D01*
X103877958Y-97103940D01*
X103911265Y-97147583D01*
X103913913Y-97150302D01*
X103913918Y-97150307D01*
X104126530Y-97368560D01*
X104143017Y-97385484D01*
X104145961Y-97387855D01*
X104145964Y-97387858D01*
X104314412Y-97523536D01*
X104401672Y-97593820D01*
X104510583Y-97661743D01*
X104602365Y-97718983D01*
X104683483Y-97769573D01*
X104984366Y-97910197D01*
X104987976Y-97911380D01*
X104987975Y-97911380D01*
X105260992Y-98000879D01*
X105299965Y-98013655D01*
X105625707Y-98078449D01*
X105629480Y-98078736D01*
X105629487Y-98078737D01*
X105953097Y-98103354D01*
X105953102Y-98103354D01*
X105956874Y-98103641D01*
X106288669Y-98088864D01*
X106616286Y-98034334D01*
X106619920Y-98033268D01*
X106619924Y-98033267D01*
X106817594Y-97975276D01*
X106934978Y-97940839D01*
X106956432Y-97931622D01*
X107110745Y-97865324D01*
X107240131Y-97809736D01*
X107527322Y-97642921D01*
X107792394Y-97442813D01*
X108031505Y-97212309D01*
X108063018Y-97173602D01*
X108238801Y-96957685D01*
X108238802Y-96957684D01*
X108241192Y-96954748D01*
X108243586Y-96950954D01*
X108416395Y-96677069D01*
X108416398Y-96677063D01*
X108418418Y-96673862D01*
X108560616Y-96373719D01*
X108665725Y-96058666D01*
X108732224Y-95733268D01*
X108759149Y-95402237D01*
X108759754Y-95344446D01*
X108756986Y-95298521D01*
X108739996Y-95016702D01*
X108739996Y-95016698D01*
X108739768Y-95012924D01*
X108735317Y-94988553D01*
X108680778Y-94689927D01*
X108680777Y-94689923D01*
X108680098Y-94686205D01*
X108666804Y-94643389D01*
X108582732Y-94372635D01*
X108581610Y-94369020D01*
X108555633Y-94311082D01*
X108447284Y-94069433D01*
X108445729Y-94065964D01*
X108274424Y-93781428D01*
X108272097Y-93778444D01*
X108272092Y-93778437D01*
X108072513Y-93522528D01*
X108072511Y-93522525D01*
X108070177Y-93519533D01*
X107835945Y-93284072D01*
X107817715Y-93269700D01*
X107578104Y-93080806D01*
X107575123Y-93078456D01*
X107291488Y-92905664D01*
X107115659Y-92825719D01*
X106992600Y-92769767D01*
X106992592Y-92769764D01*
X106989148Y-92768198D01*
X106672483Y-92668050D01*
X106527899Y-92640861D01*
X106349804Y-92607371D01*
X106349799Y-92607370D01*
X106346080Y-92606671D01*
X106014668Y-92584949D01*
X106010888Y-92585157D01*
X106010887Y-92585157D01*
X105915874Y-92590386D01*
X105683046Y-92603199D01*
X105679319Y-92603860D01*
X105679315Y-92603860D01*
X105420615Y-92649709D01*
X105356018Y-92661157D01*
X105352393Y-92662262D01*
X105352388Y-92662263D01*
X105105890Y-92737391D01*
X105038322Y-92757984D01*
X104734560Y-92892276D01*
X104649164Y-92943081D01*
X104482756Y-93042083D01*
X104449130Y-93062088D01*
X104446129Y-93064403D01*
X104446125Y-93064406D01*
X104424868Y-93080806D01*
X104186169Y-93264961D01*
X104183464Y-93267624D01*
X104183457Y-93267630D01*
X104182685Y-93268390D01*
X104182429Y-93268527D01*
X104180604Y-93270119D01*
X104180239Y-93269700D01*
X104120103Y-93301916D01*
X104049330Y-93296286D01*
X103992836Y-93253287D01*
X103968557Y-93186571D01*
X103971915Y-93148641D01*
X104033125Y-92898496D01*
X104034169Y-92894515D01*
X104341625Y-91797031D01*
X104342817Y-91793035D01*
X104686474Y-90706400D01*
X104687800Y-90702438D01*
X105067290Y-89627812D01*
X105068746Y-89623896D01*
X105483662Y-88562431D01*
X105485247Y-88558565D01*
X105935139Y-87511413D01*
X105936852Y-87507602D01*
X106063722Y-87237378D01*
X106421207Y-86475959D01*
X106423039Y-86472219D01*
X106445870Y-86427508D01*
X106941346Y-85457175D01*
X106943299Y-85453503D01*
X107494953Y-84456242D01*
X107497024Y-84452639D01*
X107512551Y-84426645D01*
X107722561Y-84075047D01*
X107841808Y-83875406D01*
X107893912Y-83827180D01*
X107963818Y-83814780D01*
X108029330Y-83842142D01*
X108069649Y-83900578D01*
X108075824Y-83933750D01*
X108085737Y-84132862D01*
X108086378Y-84136593D01*
X108086379Y-84136601D01*
X108140685Y-84452639D01*
X108141982Y-84460188D01*
X108143070Y-84463827D01*
X108143071Y-84463830D01*
X108202131Y-84661311D01*
X108237144Y-84778387D01*
X108238657Y-84781858D01*
X108238659Y-84781864D01*
X108306070Y-84936530D01*
X108369843Y-85082849D01*
X108371766Y-85086120D01*
X108371768Y-85086124D01*
X108536236Y-85365893D01*
X108536241Y-85365901D01*
X108538159Y-85369163D01*
X108739653Y-85633183D01*
X108742301Y-85635902D01*
X108742306Y-85635907D01*
X108968759Y-85868368D01*
X108971405Y-85871084D01*
X108974349Y-85873455D01*
X108974352Y-85873458D01*
X109118460Y-85989531D01*
X109230060Y-86079420D01*
X109511871Y-86255173D01*
X109812754Y-86395797D01*
X109816364Y-86396980D01*
X109816363Y-86396980D01*
X110045880Y-86472219D01*
X110128353Y-86499255D01*
X110454095Y-86564049D01*
X110457868Y-86564336D01*
X110457875Y-86564337D01*
X110781485Y-86588954D01*
X110781490Y-86588954D01*
X110785262Y-86589241D01*
X111117057Y-86574464D01*
X111444674Y-86519934D01*
X111448308Y-86518868D01*
X111448312Y-86518867D01*
X111607318Y-86472219D01*
X111763366Y-86426439D01*
X111908889Y-86363918D01*
X162106017Y-86363918D01*
X162106035Y-86364170D01*
X162111950Y-86372914D01*
X162143268Y-86401411D01*
X162148905Y-86405975D01*
X162424701Y-86604155D01*
X162430839Y-86608050D01*
X162727592Y-86773221D01*
X162734112Y-86776373D01*
X163047895Y-86906346D01*
X163054746Y-86908732D01*
X163381369Y-87001773D01*
X163388458Y-87003357D01*
X163723622Y-87058243D01*
X163730828Y-87059000D01*
X164070083Y-87074999D01*
X164077333Y-87074923D01*
X164416167Y-87051824D01*
X164423376Y-87050913D01*
X164757317Y-86989021D01*
X164764347Y-86987294D01*
X165088976Y-86887424D01*
X165095754Y-86884904D01*
X165406760Y-86748382D01*
X165413200Y-86745101D01*
X165706450Y-86573739D01*
X165712483Y-86569730D01*
X165970985Y-86375642D01*
X165979439Y-86364315D01*
X165972694Y-86351985D01*
X164054967Y-84434257D01*
X164041026Y-84426645D01*
X164039191Y-84426776D01*
X164032577Y-84431027D01*
X162113631Y-86349974D01*
X162106017Y-86363918D01*
X111908889Y-86363918D01*
X112068519Y-86295336D01*
X112355710Y-86128521D01*
X112620782Y-85928413D01*
X112859893Y-85697909D01*
X112910371Y-85635907D01*
X113067189Y-85443285D01*
X113067190Y-85443284D01*
X113069580Y-85440348D01*
X113071602Y-85437144D01*
X113244783Y-85162669D01*
X113244786Y-85162663D01*
X113246806Y-85159462D01*
X113389004Y-84859319D01*
X113494113Y-84544266D01*
X113560612Y-84218868D01*
X113580755Y-83971224D01*
X161030641Y-83971224D01*
X161039531Y-84310742D01*
X161040137Y-84317958D01*
X161087992Y-84654200D01*
X161089426Y-84661311D01*
X161175612Y-84989832D01*
X161177849Y-84996715D01*
X161301221Y-85313151D01*
X161304238Y-85319740D01*
X161463159Y-85619889D01*
X161466918Y-85626097D01*
X161659286Y-85905994D01*
X161663731Y-85911723D01*
X161730900Y-85988721D01*
X161744074Y-85997125D01*
X161753926Y-85991257D01*
X163670137Y-84075047D01*
X163677749Y-84061106D01*
X163677618Y-84059271D01*
X163673367Y-84052657D01*
X161754531Y-82133822D01*
X161741738Y-82126836D01*
X161730984Y-82134701D01*
X161570194Y-82339764D01*
X161566059Y-82345713D01*
X161388597Y-82635305D01*
X161385176Y-82641684D01*
X161242173Y-82949759D01*
X161239513Y-82956478D01*
X161132868Y-83278944D01*
X161130991Y-83285948D01*
X161062118Y-83618525D01*
X161061061Y-83625686D01*
X161030869Y-83963972D01*
X161030641Y-83971224D01*
X113580755Y-83971224D01*
X113587537Y-83887837D01*
X113588142Y-83830046D01*
X113587970Y-83827180D01*
X113568384Y-83502302D01*
X113568384Y-83502298D01*
X113568156Y-83498524D01*
X113559461Y-83450915D01*
X113509166Y-83175527D01*
X113509165Y-83175523D01*
X113508486Y-83171805D01*
X113409998Y-82854620D01*
X113274117Y-82551564D01*
X113102812Y-82267028D01*
X113100485Y-82264044D01*
X113100480Y-82264037D01*
X112900901Y-82008128D01*
X112900899Y-82008125D01*
X112898565Y-82005133D01*
X112664333Y-81769672D01*
X112403511Y-81564056D01*
X112119876Y-81391264D01*
X111999261Y-81336424D01*
X111820988Y-81255367D01*
X111820980Y-81255364D01*
X111817536Y-81253798D01*
X111500871Y-81153650D01*
X111356287Y-81126461D01*
X111178192Y-81092971D01*
X111178187Y-81092970D01*
X111174468Y-81092271D01*
X110843056Y-81070549D01*
X110839276Y-81070757D01*
X110839275Y-81070757D01*
X110744262Y-81075986D01*
X110511434Y-81088799D01*
X110507707Y-81089460D01*
X110507703Y-81089460D01*
X110249003Y-81135309D01*
X110184406Y-81146757D01*
X110180781Y-81147862D01*
X110180776Y-81147863D01*
X109878873Y-81239877D01*
X109807880Y-81240604D01*
X109747764Y-81202834D01*
X109717612Y-81138558D01*
X109726996Y-81068185D01*
X109740918Y-81044315D01*
X110031640Y-80652143D01*
X110034184Y-80648828D01*
X110742877Y-79756281D01*
X110745529Y-79753053D01*
X110941081Y-79522874D01*
X111483420Y-78884499D01*
X111486178Y-78881360D01*
X112252452Y-78037758D01*
X112255312Y-78034712D01*
X112333459Y-77954212D01*
X113049147Y-77216967D01*
X113052106Y-77214018D01*
X113872618Y-76423042D01*
X113875674Y-76420192D01*
X114539518Y-75821414D01*
X114721973Y-75656842D01*
X114725112Y-75654104D01*
X114804001Y-75587556D01*
X115387392Y-75095424D01*
X115596233Y-74919252D01*
X115599471Y-74916611D01*
X116494490Y-74211036D01*
X116497814Y-74208504D01*
X116934027Y-73887487D01*
X117000747Y-73863221D01*
X117069996Y-73878879D01*
X117119786Y-73929489D01*
X117134310Y-73998984D01*
X117126150Y-74034523D01*
X117124792Y-74037469D01*
X117022988Y-74353605D01*
X117022269Y-74357321D01*
X117022267Y-74357329D01*
X116960619Y-74675963D01*
X116959900Y-74679681D01*
X116959633Y-74683457D01*
X116959632Y-74683462D01*
X116943894Y-74905737D01*
X116936443Y-75010976D01*
X116936632Y-75014768D01*
X116948594Y-75255043D01*
X116952957Y-75342689D01*
X116953598Y-75346420D01*
X116953599Y-75346428D01*
X117006940Y-75656850D01*
X117009202Y-75670015D01*
X117010290Y-75673654D01*
X117010291Y-75673657D01*
X117099751Y-75972788D01*
X117104364Y-75988214D01*
X117105877Y-75991685D01*
X117105879Y-75991691D01*
X117197252Y-76201335D01*
X117237063Y-76292676D01*
X117238986Y-76295947D01*
X117238988Y-76295951D01*
X117403456Y-76575720D01*
X117403461Y-76575728D01*
X117405379Y-76578990D01*
X117407680Y-76582005D01*
X117580350Y-76808256D01*
X117606873Y-76843010D01*
X117609521Y-76845729D01*
X117609526Y-76845734D01*
X117762210Y-77002469D01*
X117838625Y-77080911D01*
X117841569Y-77083282D01*
X117841572Y-77083285D01*
X117912637Y-77140525D01*
X118097280Y-77289247D01*
X118172339Y-77336058D01*
X118346046Y-77444391D01*
X118379091Y-77465000D01*
X118679974Y-77605624D01*
X118995573Y-77709082D01*
X119321315Y-77773876D01*
X119325088Y-77774163D01*
X119325095Y-77774164D01*
X119648705Y-77798781D01*
X119648710Y-77798781D01*
X119652482Y-77799068D01*
X119984277Y-77784291D01*
X120311894Y-77729761D01*
X120315528Y-77728695D01*
X120315532Y-77728694D01*
X120457802Y-77686956D01*
X120630586Y-77636266D01*
X120935739Y-77505163D01*
X121222930Y-77338348D01*
X121488002Y-77138240D01*
X121727113Y-76907736D01*
X121777591Y-76845734D01*
X121934409Y-76653112D01*
X121934410Y-76653111D01*
X121936800Y-76650175D01*
X121938822Y-76646971D01*
X122112003Y-76372496D01*
X122112006Y-76372490D01*
X122114026Y-76369289D01*
X122256224Y-76069146D01*
X122361333Y-75754093D01*
X122427832Y-75428695D01*
X122454757Y-75097664D01*
X122455362Y-75039873D01*
X122448091Y-74919252D01*
X122435604Y-74712129D01*
X122435604Y-74712125D01*
X122435376Y-74708351D01*
X122431282Y-74685935D01*
X122418966Y-74618497D01*
X135394637Y-74618497D01*
X135394881Y-74622932D01*
X135394881Y-74622936D01*
X135408121Y-74863495D01*
X135410205Y-74901370D01*
X135465474Y-75179226D01*
X135466950Y-75183429D01*
X135488181Y-75243885D01*
X135559342Y-75446524D01*
X135561395Y-75450477D01*
X135561398Y-75450483D01*
X135628704Y-75580052D01*
X135689936Y-75697928D01*
X135692519Y-75701543D01*
X135692523Y-75701549D01*
X135725176Y-75747242D01*
X135854651Y-75928424D01*
X135857729Y-75931651D01*
X135857731Y-75931653D01*
X135992165Y-76072576D01*
X136050199Y-76133412D01*
X136272680Y-76308801D01*
X136370916Y-76365861D01*
X136513807Y-76448859D01*
X136513813Y-76448862D01*
X136517654Y-76451093D01*
X136521777Y-76452763D01*
X136706640Y-76527640D01*
X136780232Y-76557448D01*
X136784545Y-76558519D01*
X136784550Y-76558521D01*
X137050856Y-76624672D01*
X137050861Y-76624673D01*
X137055177Y-76625745D01*
X137059605Y-76626199D01*
X137059607Y-76626199D01*
X137135307Y-76633955D01*
X137296790Y-76650500D01*
X137472170Y-76650500D01*
X137682593Y-76635601D01*
X137686948Y-76634663D01*
X137686951Y-76634663D01*
X137955200Y-76576911D01*
X137955202Y-76576911D01*
X137959547Y-76575975D01*
X138225337Y-76477920D01*
X138474660Y-76343393D01*
X138702540Y-76175078D01*
X138904430Y-75976334D01*
X138907131Y-75972794D01*
X138907137Y-75972788D01*
X139073602Y-75754667D01*
X139073605Y-75754663D01*
X139076304Y-75751126D01*
X139108309Y-75693977D01*
X139212552Y-75507837D01*
X139212555Y-75507832D01*
X139214730Y-75503947D01*
X139217096Y-75497833D01*
X139315341Y-75243885D01*
X139315343Y-75243879D01*
X139316948Y-75239730D01*
X139327825Y-75192806D01*
X139349877Y-75097664D01*
X139380918Y-74963747D01*
X139405363Y-74681503D01*
X139402140Y-74622936D01*
X139390040Y-74403073D01*
X139390039Y-74403066D01*
X139389795Y-74398630D01*
X139352480Y-74211036D01*
X139335396Y-74125146D01*
X139335395Y-74125141D01*
X139334526Y-74120774D01*
X139313279Y-74060270D01*
X139242136Y-73857684D01*
X139242135Y-73857681D01*
X139240658Y-73853476D01*
X139238605Y-73849523D01*
X139238602Y-73849517D01*
X139133013Y-73646251D01*
X139110064Y-73602072D01*
X139107481Y-73598457D01*
X139107477Y-73598451D01*
X139022907Y-73480108D01*
X138945349Y-73371576D01*
X138926196Y-73351498D01*
X138752876Y-73169811D01*
X138752873Y-73169808D01*
X138749801Y-73166588D01*
X138527320Y-72991199D01*
X138388765Y-72910720D01*
X138286193Y-72851141D01*
X138286187Y-72851138D01*
X138282346Y-72848907D01*
X138212309Y-72820539D01*
X138023894Y-72744223D01*
X138023891Y-72744222D01*
X138019768Y-72742552D01*
X138015455Y-72741481D01*
X138015450Y-72741479D01*
X137749144Y-72675328D01*
X137749139Y-72675327D01*
X137744823Y-72674255D01*
X137740395Y-72673801D01*
X137740393Y-72673801D01*
X137645552Y-72664084D01*
X137503210Y-72649500D01*
X137327830Y-72649500D01*
X137117407Y-72664399D01*
X137113052Y-72665337D01*
X137113049Y-72665337D01*
X136844800Y-72723089D01*
X136844798Y-72723089D01*
X136840453Y-72724025D01*
X136574663Y-72822080D01*
X136325340Y-72956607D01*
X136097460Y-73124922D01*
X135895570Y-73323666D01*
X135892869Y-73327206D01*
X135892863Y-73327212D01*
X135726398Y-73545333D01*
X135723696Y-73548874D01*
X135721521Y-73552758D01*
X135602739Y-73764860D01*
X135585270Y-73796053D01*
X135583662Y-73800211D01*
X135583659Y-73800216D01*
X135487262Y-74049387D01*
X135483052Y-74060270D01*
X135419082Y-74336253D01*
X135394637Y-74618497D01*
X122418966Y-74618497D01*
X122376386Y-74385354D01*
X122376385Y-74385350D01*
X122375706Y-74381632D01*
X122367004Y-74353605D01*
X122322334Y-74209745D01*
X122277218Y-74064447D01*
X122275346Y-74060270D01*
X122142892Y-73764860D01*
X122141337Y-73761391D01*
X121970032Y-73476855D01*
X121967705Y-73473871D01*
X121967700Y-73473864D01*
X121768121Y-73217955D01*
X121768119Y-73217952D01*
X121765785Y-73214960D01*
X121531553Y-72979499D01*
X121499835Y-72954494D01*
X121273712Y-72776233D01*
X121270731Y-72773883D01*
X120987096Y-72601091D01*
X120866481Y-72546251D01*
X120688208Y-72465194D01*
X120688200Y-72465191D01*
X120684756Y-72463625D01*
X120368091Y-72363477D01*
X120223507Y-72336288D01*
X120045412Y-72302798D01*
X120045407Y-72302797D01*
X120041688Y-72302098D01*
X119959093Y-72296684D01*
X119752498Y-72283143D01*
X119685831Y-72258729D01*
X119642947Y-72202147D01*
X119637461Y-72131363D01*
X119671115Y-72068849D01*
X119696497Y-72049021D01*
X120307134Y-71687172D01*
X120310714Y-71685130D01*
X121309958Y-71136926D01*
X121313626Y-71134992D01*
X122330474Y-70620231D01*
X122334177Y-70618434D01*
X123367515Y-70137678D01*
X123371324Y-70135981D01*
X124420030Y-69689752D01*
X124423901Y-69688181D01*
X125486835Y-69276962D01*
X125490756Y-69275519D01*
X125780791Y-69174234D01*
X126566718Y-68899776D01*
X126570647Y-68898476D01*
X127658508Y-68558604D01*
X127662471Y-68557438D01*
X128534463Y-68316432D01*
X128761006Y-68253819D01*
X128765051Y-68252773D01*
X129200579Y-68147810D01*
X129873035Y-67985746D01*
X129877096Y-67984839D01*
X129900940Y-67979923D01*
X130185021Y-67921351D01*
X130993287Y-67754703D01*
X130997392Y-67753927D01*
X132120624Y-67560921D01*
X132124753Y-67560282D01*
X133253749Y-67404625D01*
X133257897Y-67404123D01*
X134108410Y-67315481D01*
X134391454Y-67285981D01*
X134395597Y-67285619D01*
X134790200Y-67257679D01*
X135532438Y-67205126D01*
X135536610Y-67204900D01*
X136675478Y-67162144D01*
X136679655Y-67162056D01*
X137005551Y-67160634D01*
X137819348Y-67157083D01*
X137823512Y-67157134D01*
G37*
%TD.AperFunction*%
M02*
